<?xml version="1.0" encoding="iso-8859-1"?>
<!-- Generator: Adobe Illustrator 19.0.0, SVG Export Plug-In . SVG Version: 6.00 Build 0)  -->
<svg version="1.1" id="Layer_1" xmlns="http://www.w3.org/2000/svg" xmlns:xlink="http://www.w3.org/1999/xlink" x="0px" y="0px"
	 viewBox="0 0 512 512" style="enable-background:new 0 0 512 512;" xml:space="preserve">
<circle style="fill:#EDC55D;" cx="256" cy="256" r="256"/>
<path style="fill:#D3A14B;" d="M294.616,128.332l-33.112,17.032l-43.088,73.108l44.392,40.464l-113.584,20.892l-20.888,50.916
	l-1.28,13.756l164.548,164.976c98.292-13.68,178.704-83.132,208.228-175.4L294.616,128.332z"/>
<path style="fill:#F8DDC0;" d="M157.412,339.58c1.256-1.796,1.384-1.852,3.188-3.516c3.384-3.1,5.428-4.584,5.104-9.884
	c-0.208-3.368-3.08-6.632-2.624-9.236c0.432-2.572,2.412-1.572,2.104-4.9c-0.204-2.116-1.34-3.836-2.828-5.32
	c-1.348-1.32-4.1-1.82-5.1-3.484c-0.908-1.468,0.116-3.68-0.26-5.312c-1.12-4.764-4.94-6.82-9.168-7.9
	c-5.268-1.336-6.328-1.28-6.216-6.64c0.092-4.42,0.028-5.22-1.592-9.116l-1.32-1.696c-3.488-0.428-6.92,2.572-9.164,4.976
	c-5,5.368-10.816,12.156-14.02,18.704c-3.376,6.976-2.904,16.688-1.244,24.108c3.512,15.564,21.228,42.54,39.296,24.416
	C155.148,343.196,156.136,341.376,157.412,339.58z"/>
<path style="fill:#E1574C;" d="M350.992,344.116l-0.92-1.352c-0.816-1.172-0.816-1.172-2.416-2.632l-0.608-0.564
	c-3.304-3.016-6.732-6.14-6.26-13.728c0.16-2.584,1.132-4.772,1.9-6.54c0.164-0.36,0.364-0.82,0.52-1.124
	c-1.18-1.344-2.192-3.336-1.888-6.648c0.304-3.196,1.8-6.124,4.46-8.752c1.2-1.164,2.56-1.844,3.652-2.392
	c0.016-0.016,0.044-0.024,0.056-0.024c-0.104-1.024-0.176-2.304,0.156-3.712c1.42-6.084,5.86-10.116,13.18-11.976
	c0,0,1.064-0.264,1.68-0.42v-68.704L256,247.616l-108.504-32.072v68.712c0.624,0.156,1.688,0.42,1.688,0.42
	c7.312,1.86,11.74,5.892,13.172,11.976c0.34,1.408,0.26,2.688,0.148,3.712c0.016,0,0.044,0.008,0.064,0.024
	c1.092,0.548,2.46,1.228,3.648,2.392c2.672,2.624,4.168,5.556,4.46,8.752c0.316,3.312-0.712,5.304-1.896,6.648
	c0.168,0.304,0.376,0.764,0.532,1.124c0.772,1.764,1.74,3.952,1.904,6.54c0.472,7.584-2.952,10.712-6.264,13.728l-0.608,0.564
	c-1.6,1.46-1.6,1.46-2.416,2.632l-0.916,1.352c-0.936,1.42-2,3.032-3.54,4.564c-3.148,3.164-6.496,5.236-9.972,6.428v10.54
	l108.496,30.116H256l108.496-30.116v-10.54c-3.476-1.196-6.828-3.264-9.976-6.428C352.992,347.148,351.928,345.54,350.992,344.116z"
	/>
<path style="fill:#F8DDC0;" d="M396.468,296.256c-3.192-6.548-9.008-13.336-14.008-18.704c-2.252-2.408-5.68-5.408-9.164-4.976
	l-1.316,1.696c-1.616,3.9-1.684,4.696-1.588,9.116c0.112,5.36-0.956,5.304-6.228,6.64c-4.216,1.08-8.036,3.132-9.156,7.9
	c-0.392,1.632,0.636,3.844-0.26,5.312c-1.008,1.664-3.752,2.164-5.108,3.484c-1.5,1.484-2.628,3.204-2.828,5.32
	c-0.304,3.328,1.66,2.328,2.112,4.9c0.44,2.6-2.416,5.868-2.624,9.236c-0.332,5.296,1.724,6.78,5.092,9.884
	c1.808,1.664,1.928,1.72,3.2,3.516c1.252,1.796,2.26,3.616,3.844,5.204c18.064,18.124,35.784-8.852,39.288-24.416
	C399.392,312.944,399.864,303.236,396.468,296.256z"/>
<path style="fill:#392F37;" d="M275.608,146.08c0,0,8.136,38.532,36.312,42.112c1.156-4.56,1.836-9.284,1.836-14.2
	c0-31.908-25.864-57.756-57.764-57.756c-31.896,0-57.752,25.852-57.752,57.756c0,3.276,0.34,6.476,0.864,9.608
	C212.016,184.556,270.084,186.576,275.608,146.08z"/>
<path style="fill:#F8DDC0;" d="M275.608,146.08c-5.524,40.496-63.592,38.476-76.504,37.524
	c4.584,27.312,28.268,48.136,56.888,48.136c26.988,0,49.588-18.532,55.928-43.548C283.748,184.608,275.608,146.08,275.608,146.08z"
	/>
<g>
</g>
<g>
</g>
<g>
</g>
<g>
</g>
<g>
</g>
<g>
</g>
<g>
</g>
<g>
</g>
<g>
</g>
<g>
</g>
<g>
</g>
<g>
</g>
<g>
</g>
<g>
</g>
<g>
</g>
</svg>
