<?xml version="1.0" encoding="iso-8859-1"?>
<!-- Generator: Adobe Illustrator 19.0.0, SVG Export Plug-In . SVG Version: 6.00 Build 0)  -->
<svg version="1.1" id="Layer_1" xmlns="http://www.w3.org/2000/svg" xmlns:xlink="http://www.w3.org/1999/xlink" x="0px" y="0px"
	 viewBox="0 0 512 512" style="enable-background:new 0 0 512 512;" xml:space="preserve">
<circle style="fill:#9AB0B2;" cx="256" cy="256" r="256"/>
<path style="fill:#7F9B9B;" d="M387.064,105.968l-11.92-2.96l-42.58,20.46L307.36,108.54l-133.32-2.724l-4.836,11.188l-32.368-6.56
	l-15.908,11.548l6.592,29.428l13.4,44.164L256,307.572l-59.312,95.624l-20.256,3.256L280.324,510.82
	C410.288,498.564,512,389.18,512,256c0-8.108-0.42-16.116-1.164-24.036L387.064,105.968z"/>
<g>
	<path style="fill:#EFBF1E;" d="M215.076,232.084c-26.472-2.652-54.768-16.548-73.852-36.264
		c-18.136-18.752-37.14-56.756-22.596-82.56c4.852-8.62,11.664-11.3,16.52-12.036c17.008-2.576,35.772,14.6,37.848,16.572
		l-9.688,10.244l4.84-5.12l-4.832,5.12c-5.956-5.604-18.304-14.052-26.08-12.876c-1.644,0.252-4.092,1.048-6.336,5.016
		c-10.248,18.188,5.592,50.476,20.448,65.844c16.616,17.164,42.184,29.744,65.128,32.04L215.076,232.084z"/>
	<path style="fill:#EFBF1E;" d="M296.924,232.084l-1.404-14.024c22.944-2.296,48.512-14.876,65.124-32.048
		c14.868-15.36,30.704-47.648,20.448-65.836c-2.244-3.972-4.696-4.768-6.348-5.016c-8.096-1.232-21.06,8.14-26.056,12.876
		l-9.692-10.244c2.084-1.96,20.816-19.144,37.852-16.572c4.856,0.736,11.66,3.416,16.52,12.036
		c14.544,25.8-4.46,63.808-22.592,82.56C351.692,215.54,323.396,229.432,296.924,232.084z"/>
</g>
<path style="fill:#9F6C29;" d="M342.324,322.884H169.68v74.468h0.284c3.472,15.252,40.664,27.264,86.036,27.264
	c45.368,0,82.564-12.012,86.04-27.264h0.284V322.884z"/>
<ellipse style="fill:#D0963A;" cx="256" cy="321" rx="86.304" ry="27.7"/>
<path style="fill:#F5DB0F;" d="M325.976,321.944l-3.008-9.032l-27.088-11.656v-9.78l-28.592-16.932l-10.912-1.056v-0.076
	L256,273.448l-0.376-0.036v0.076l-10.916,1.056l-28.588,16.932v9.78l-27.088,11.656l-3.004,9.032
	C208.5,339.78,251.58,338.68,256,338.512C260.42,338.68,303.508,339.78,325.976,321.944z"/>
<path style="fill:#FDED70;" d="M295.88,301.256v-9.78l-0.52-0.312c-11.752,3.16-25.14,4.944-39.36,4.944s-27.604-1.784-39.36-4.944
	l-0.52,0.312v9.78l-27.088,11.656l-3.004,9.032C208.5,339.78,251.58,338.68,256,338.512c4.42,0.168,47.508,1.268,69.976-16.568
	l-3.008-9.032L295.88,301.256z"/>
<g>
	<path style="fill:#F5DB0F;" d="M296.648,301.584c-12.06,3.384-25.908,5.304-40.648,5.304c-14.736,0-28.596-1.92-40.652-5.304
		l-26.316,11.328l-3.004,9.032C208.5,339.78,251.58,338.68,256,338.512c4.42,0.168,47.508,1.268,69.976-16.568l-3.008-9.032
		L296.648,301.584z"/>
	<path style="fill:#F5DB0F;" d="M162.204,103.828c0,0.1,0,0.212,0,0.316c0,81.972,41.992,148.416,93.796,148.416
		s93.796-66.44,93.796-148.416c0-0.104,0-0.216,0-0.316C349.796,103.828,162.204,103.828,162.204,103.828z"/>
</g>
<ellipse style="fill:#DF9326;" cx="256" cy="104.12" rx="93.796" ry="16.744"/>
<ellipse style="fill:#FFDD17;" cx="256" cy="104.12" rx="84.56" ry="14.18"/>
<ellipse style="fill:#F5DB0F;" cx="255.996" cy="260.72" rx="29.24" ry="16.704"/>
<path style="fill:#F0C523;" d="M322.504,312.72c-15.428,10.048-39.472,16.512-66.504,16.512c-27.024,0-51.076-6.464-66.504-16.512
	l-0.464,0.196l-3.004,9.032C208.5,339.78,251.58,338.68,256,338.512c4.42,0.168,47.508,1.268,69.976-16.568l-3.008-9.032
	L322.504,312.72z"/>
<g>
</g>
<g>
</g>
<g>
</g>
<g>
</g>
<g>
</g>
<g>
</g>
<g>
</g>
<g>
</g>
<g>
</g>
<g>
</g>
<g>
</g>
<g>
</g>
<g>
</g>
<g>
</g>
<g>
</g>
</svg>
