<?xml version="1.0" encoding="iso-8859-1"?>
<!-- Generator: Adobe Illustrator 16.0.0, SVG Export Plug-In . SVG Version: 6.00 Build 0)  -->
<!DOCTYPE svg PUBLIC "-//W3C//DTD SVG 1.1//EN" "http://www.w3.org/Graphics/SVG/1.1/DTD/svg11.dtd">
<svg version="1.1" xmlns="http://www.w3.org/2000/svg" xmlns:xlink="http://www.w3.org/1999/xlink" x="0px" y="0px" width="512px"
	 height="512px" viewBox="0 0 512 512" style="enable-background:new 0 0 512 512;" xml:space="preserve">
<g id="Guides_For_Artboard">
</g>
<g id="Artwork">
</g>
<g id="Layer_3">
	<g>
		<circle style="fill:#F6E0C2;" cx="255.116" cy="255.971" r="245"/>
		<g>
			<path style="fill:#735542;" d="M254.929,179.576c0.262,0.012,0.526,0.027,0.78,0.027c1.314,0,2.704-0.146,4.156-0.398
				c-0.723-3.703-3.112-18.439,0.368-35.881c-2.498-2.146-4.72-4.475-6.614-6.996c-1.033-1.375-0.895-3.234,0.332-4.465
				c3.961-3.973,8.581-7.16,13.512-9.715c1.591-3.146,3.432-6.277,5.586-9.348c2.113-3.012,1.21-7.055-2.017-9.027
				c-3.229-1.971-7.557-1.129-9.671,1.885c-19.991,28.494-17.636,60.557-15.828,72.51c3.123,0.879,6.013,1.436,8.615,1.436
				C254.402,179.604,254.667,179.588,254.929,179.576z"/>
			<path style="fill:#735542;" d="M236.281,391.699c-2.184,5.172-5.154,12.738-4.446,14.088c0.239,0.455,0.955,1.188,1.729,1.365
				c0.774,0.178,2.052-0.139,2.865-0.67s7.907-7.811,11.157-7.811s6.603,8.492,7.083,9.434c0.479,0.939,1.412,1.477,2.197,1.438
				c1.25-0.063,1.728-0.432,2.342-1.154s7.587-8.125,9.67-8.125s7.771,6.094,8.896,6.906s2.02,0.939,2.752,0.939
				c0.229,0,0.459-0.029,0.686-0.088c0.955-0.25,1.515-0.656,1.822-1.91c0.424-1.727-0.583-6.65-1.82-11.553
				c-7.343-2.922-15.021-5.877-26.283-6.404C247.448,388.506,241.552,389.93,236.281,391.699z"/>
			<path style="fill:#D46A56;" d="M378.956,205.016c-14.479-23.598-40.425-38.529-68.535-38.924
				c-19.261-0.332-37.558,10.859-50.556,13.113c-1.452,0.252-2.842,0.398-4.156,0.398c-0.254,0-0.519-0.016-0.78-0.027
				c-0.262,0.012-0.526,0.027-0.78,0.027c-2.602,0-5.492-0.557-8.615-1.436c-12.562-3.533-28.947-12.373-46.097-12.076
				c-28.109,0.395-54.056,15.326-68.534,38.924c-29.236,47.523-7.49,117.941,20.99,156.475
				c13.938,18.844,30.519,40.055,52.321,39.289c13.344-0.5,21.425-5.502,32.068-9.08c5.271-1.77,11.167-3.193,18.647-3.545
				c11.262,0.527,18.94,3.482,26.283,6.404c7.385,2.939,14.429,5.846,24.434,6.221c21.801,0.766,38.383-20.445,52.321-39.289
				C386.445,322.957,408.19,252.539,378.956,205.016z"/>
			<path style="fill:#C1B523;" d="M253.619,136.328c1.895,2.521,4.116,4.85,6.614,6.996c3.391,2.914,7.306,5.484,11.751,7.658
				c9.471,4.637,20.733,7.189,31.72,7.184c20.074-0.049,39.545-7.244,52.08-19.248c1.399-1.34,1.447-3.465,0.105-4.855
				c-4.337-4.508-10.254-8.664-17.114-12.023c-10.637-5.205-22.578-8.158-33.602-8.314c-11.201-0.229-25.444,2.072-37.711,8.424
				c-4.931,2.555-9.551,5.742-13.512,9.715C252.725,133.094,252.586,134.953,253.619,136.328z"/>
		</g>
	</g>
</g>
</svg>
