<?xml version="1.0" encoding="iso-8859-1"?>
<!-- Generator: Adobe Illustrator 19.0.0, SVG Export Plug-In . SVG Version: 6.00 Build 0)  -->
<svg version="1.1" id="Capa_1" xmlns="http://www.w3.org/2000/svg" xmlns:xlink="http://www.w3.org/1999/xlink" x="0px" y="0px"
	 viewBox="0 0 512.001 512.001" style="enable-background:new 0 0 512.001 512.001;" xml:space="preserve">
<path style="fill:#D1E7F8;" d="M474.331,504.5H149.774c-9.439,0-17.09-7.651-17.09-17.09V24.59c0-9.439,7.651-17.09,17.09-17.09
	h324.557c9.439,0,17.09,7.651,17.09,17.09v462.82C491.421,496.848,483.77,504.5,474.331,504.5z"/>
<path style="fill:#B9D8F4;" d="M459.464,487.41V24.59c0-9.439-7.651-17.09-17.09-17.09H149.774c-9.439,0-17.09,7.651-17.09,17.09
	v462.82c0,9.439,7.651,17.09,17.09,17.09h292.598C451.811,504.5,459.464,496.849,459.464,487.41z"/>
<path style="fill:#FFE477;" d="M474.331,461.009h-85.406V52.626h85.406c9.439,0,17.09,7.651,17.09,17.09V443.92
	C491.421,453.358,483.77,461.009,474.331,461.009z"/>
<path style="fill:#FFDA44;" d="M459.462,461.008V52.628c-0.024,0-0.048-0.002-0.072-0.002h-70.466V461.01h70.466
	C459.415,461.009,459.439,461.008,459.462,461.008z"/>
<path style="fill:#FF0C38;" d="M491.421,188.754V69.716c0-9.439-7.651-17.09-17.09-17.09h-85.406v136.128L491.421,188.754
	L491.421,188.754z"/>
<path style="fill:#D80027;" d="M459.462,52.628c-0.024,0-0.048-0.002-0.072-0.002h-70.466v136.128h70.538V52.628z"/>
<path style="fill:#6DC82A;" d="M491.421,324.882V443.92c0,9.439-7.651,17.09-17.09,17.09h-85.406V324.882H491.421z"/>
<path style="fill:#5EAC24;" d="M459.462,324.884c-0.024,0-0.048-0.002-0.072-0.002h-70.466V461.01h70.538V324.884z"/>
<path style="fill:#57A4FF;" d="M410.271,504.5H85.714c-9.439,0-17.09-7.651-17.09-17.09V24.59c0-9.439,7.651-17.09,17.09-17.09
	h324.557c9.439,0,17.09,7.651,17.09,17.09v462.82C427.361,496.849,419.71,504.5,410.271,504.5z"/>
<path style="fill:#2488FF;" d="M191.561,472.47V39.53c0-17.688,14.338-32.027,32.025-32.03H85.712
	c-9.437,0-17.088,7.65-17.088,17.088v462.825c0,9.437,7.65,17.088,17.088,17.088h137.88
	C205.902,504.5,191.561,490.16,191.561,472.47z"/>
<path style="fill:#DDFFFB;" d="M330.49,228.508H165.496c-11.046,0-20-8.954-20-20v-78.511c0-11.046,8.954-20,20-20H330.49
	c11.046,0,20,8.954,20,20v78.511C350.49,219.553,341.534,228.508,330.49,228.508z"/>
<path style="fill:#AAFFF5;" d="M165.496,109.996c-11.046,0-20,8.954-20,20v78.511c0,11.046,8.954,20,20,20h26.065V109.996H165.496z"
	/>
<path style="fill:#E0E0E2;" d="M97.451,114.267H39.797c-10.57,0-19.218-8.648-19.218-19.218l0,0c0-10.57,8.648-19.218,19.218-19.218
	h57.654c10.57,0,19.218,8.648,19.218,19.218l0,0C116.669,105.619,108.021,114.267,97.451,114.267z"/>
<path style="fill:#C6C5CA;" d="M55.909,95.049L55.909,95.049c0-10.57,8.648-19.218,19.218-19.218h-35.33
	c-10.57,0-19.218,8.648-19.218,19.218l0,0c0,10.57,8.648,19.218,19.218,19.218h35.33C64.557,114.267,55.909,105.619,55.909,95.049z"
	/>
<g>
	<path style="fill:#E0E0E2;" d="M97.451,221.568H39.797c-10.57,0-19.218-8.648-19.218-19.218l0,0
		c0-10.57,8.648-19.218,19.218-19.218h57.654c10.57,0,19.218,8.648,19.218,19.218l0,0
		C116.669,212.92,108.021,221.568,97.451,221.568z"/>
	<path style="fill:#E0E0E2;" d="M97.451,328.868H39.797c-10.57,0-19.218-8.648-19.218-19.218l0,0
		c0-10.57,8.648-19.218,19.218-19.218h57.654c10.57,0,19.218,8.648,19.218,19.218l0,0
		C116.669,320.22,108.021,328.868,97.451,328.868z"/>
	<path style="fill:#E0E0E2;" d="M97.451,436.169H39.797c-10.57,0-19.218-8.648-19.218-19.218l0,0
		c0-10.57,8.648-19.218,19.218-19.218h57.654c10.57,0,19.218,8.648,19.218,19.218l0,0
		C116.669,427.521,108.021,436.169,97.451,436.169z"/>
</g>
<g>
	<path style="fill:#C6C5CA;" d="M55.909,202.35L55.909,202.35c0-10.57,8.648-19.218,19.218-19.218h-35.33
		c-10.57,0-19.218,8.648-19.218,19.218l0,0c0,10.57,8.648,19.218,19.218,19.218h35.33C64.557,221.568,55.909,212.92,55.909,202.35z"
		/>
	<path style="fill:#C6C5CA;" d="M55.909,309.65L55.909,309.65c0-10.57,8.648-19.218,19.218-19.218h-35.33
		c-10.57,0-19.218,8.648-19.218,19.218l0,0c0,10.57,8.648,19.218,19.218,19.218h35.33C64.557,328.868,55.909,320.22,55.909,309.65z"
		/>
	<path style="fill:#C6C5CA;" d="M55.909,416.951L55.909,416.951c0-10.57,8.648-19.218,19.218-19.218h-35.33
		c-10.57,0-19.218,8.648-19.218,19.218l0,0c0,10.57,8.648,19.218,19.218,19.218h35.33C64.557,436.169,55.909,427.521,55.909,416.951
		z"/>
</g>
<path d="M330.49,102.497H165.496c-15.164,0-27.5,12.336-27.5,27.5v78.511c0,15.164,12.336,27.5,27.5,27.5h90.501
	c4.142,0,7.5-3.358,7.5-7.5s-3.358-7.5-7.5-7.5h-90.501c-6.893,0-12.5-5.607-12.5-12.5v-78.511c0-6.893,5.607-12.5,12.5-12.5H330.49
	c6.893,0,12.5,5.607,12.5,12.5v78.511c0,6.893-5.607,12.5-12.5,12.5h-42.156c-4.142,0-7.5,3.358-7.5,7.5s3.358,7.5,7.5,7.5h42.156
	c15.164,0,27.5-12.336,27.5-27.5v-78.511C357.99,114.833,345.652,102.497,330.49,102.497z"/>
<path d="M474.331,0H85.714c-13.559,0-24.59,11.031-24.59,24.59v43.741H39.797c-14.732,0-26.718,11.985-26.718,26.718
	s11.985,26.718,26.718,26.718h21.327v53.865H39.797c-14.732,0-26.718,11.985-26.718,26.718s11.985,26.718,26.718,26.718h21.327
	v53.865H39.797c-14.732,0-26.718,11.985-26.718,26.718c0,4.142,3.358,7.5,7.5,7.5s7.5-3.358,7.5-7.5
	c0-6.461,5.256-11.718,11.718-11.718h57.654c6.461,0,11.718,5.256,11.718,11.718s-5.256,11.718-11.718,11.718H43.333
	c-4.142,0-7.5,3.358-7.5,7.5s3.358,7.5,7.5,7.5h17.791v53.865H39.797c-14.732,0-26.718,11.985-26.718,26.718
	s11.985,26.718,26.718,26.718h21.327v43.741c0,13.559,11.031,24.59,24.59,24.59h388.617c13.559,0,24.59-11.031,24.59-24.59V24.59
	C498.921,11.031,487.891,0,474.331,0z M483.921,24.59v22.484c-2.948-1.253-6.189-1.948-9.59-1.948h-39.47V24.59
	c0-3.401-0.694-6.642-1.948-9.59h41.418C479.619,15,483.921,19.302,483.921,24.59z M483.921,181.254h-49.06V60.126h39.47
	c5.288,0,9.59,4.302,9.59,9.59V181.254z M434.861,332.382h24.53c4.142,0,7.5-3.358,7.5-7.5s-3.358-7.5-7.5-7.5h-24.53V196.254h49.06
	V443.92c0,5.288-4.302,9.59-9.59,9.59h-39.47V332.382z M28.079,95.049c0-6.461,5.256-11.718,11.718-11.718h57.654
	c6.461,0,11.718,5.256,11.718,11.718s-5.256,11.718-11.718,11.718H39.797C33.335,106.767,28.079,101.51,28.079,95.049z
	 M28.079,202.35c0-6.461,5.256-11.718,11.718-11.718h57.654c6.461,0,11.718,5.256,11.718,11.718s-5.256,11.718-11.718,11.718H39.797
	C33.335,214.068,28.079,208.811,28.079,202.35z M28.079,416.951c0-6.461,5.256-11.718,11.718-11.718h57.654
	c6.461,0,11.718,5.256,11.718,11.718s-5.256,11.718-11.718,11.718H39.797C33.335,428.669,28.079,423.413,28.079,416.951z
	 M164.714,497h-79c-5.288,0-9.59-4.302-9.59-9.59v-43.741h21.327c14.732,0,26.718-11.986,26.718-26.718
	s-11.985-26.718-26.718-26.718H76.124v-53.865h21.327c14.732,0,26.718-11.986,26.718-26.718s-11.985-26.718-26.718-26.718H76.124
	v-53.865h21.327c14.732,0,26.718-11.986,26.718-26.718s-11.985-26.718-26.718-26.718H76.124v-53.865h21.327
	c14.732,0,26.718-11.986,26.718-26.718S112.185,68.33,97.451,68.33H76.124V24.59c0-5.288,4.302-9.59,9.59-9.59h324.557
	c5.288,0,9.59,4.302,9.59,9.59v462.82c0,5.288-4.302,9.59-9.59,9.59H164.714z M474.331,497h-41.418
	c1.253-2.948,1.948-6.189,1.948-9.59v-18.901h39.47c3.4,0,6.642-0.694,9.59-1.948v20.849C483.921,492.698,479.619,497,474.331,497z"
	/>
<g>
</g>
<g>
</g>
<g>
</g>
<g>
</g>
<g>
</g>
<g>
</g>
<g>
</g>
<g>
</g>
<g>
</g>
<g>
</g>
<g>
</g>
<g>
</g>
<g>
</g>
<g>
</g>
<g>
</g>
</svg>
