<svg xmlns="http://www.w3.org/2000/svg" xmlns:xlink="http://www.w3.org/1999/xlink" viewBox="0 0 230.47 160.92"><defs><style>.cls-1{isolation:isolate;}.cls-2,.cls-3,.cls-9{mix-blend-mode:multiply;}.cls-3{fill:#7a7a7a;}.cls-4{fill:#b6bdc0;}.cls-5{fill:#93999c;}.cls-6{fill:#feffff;}.cls-7{fill:#393c41;}.cls-8{fill:#131a1c;}.cls-9{fill:#a1a1a1;}.cls-10{fill:#0f182b;}.cls-11{fill:#404657;}.cls-12{fill:#212121;opacity:0.2;mix-blend-mode:screen;}.cls-13{fill:#143443;}.cls-14{fill:#fff;}.cls-15{fill:#f3a500;}.cls-16{fill:#2b333b;}.cls-17{fill:#d6e0d3;}.cls-18{fill:#a3b8af;}.cls-19{fill:#d4d2bc;}.cls-20{fill:#dedcc5;}.cls-21{fill:#e3e1ca;}.cls-22{fill:#ebe9d1;}.cls-23{fill:#fdfbe2;}.cls-24{fill:#dedcc8;}.cls-25{fill:url(#linear-gradient);}.cls-26{fill:#f3d47a;}.cls-27{fill:#f0cc9e;}.cls-28{fill:#ccc;}.cls-29{fill:#e6e6e6;}.cls-30{fill:#ffdfd2;}.cls-31{fill:#e1aa81;}.cls-32{fill:#f5f1e1;}.cls-33{fill:#fbfcfc;}.cls-34{fill:#474a4f;}.cls-35{fill:#c48f67;}.cls-36{fill:#e1e8ed;}.cls-37{fill:#44505c;}</style><linearGradient id="linear-gradient" x1="-1546.4" y1="-960.83" x2="-1543.29" y2="-960.83" gradientTransform="translate(-1246.46 1183.15) rotate(112.67)" gradientUnits="userSpaceOnUse"><stop offset="0" stop-color="#393c41"/><stop offset="1" stop-color="#3c4045"/></linearGradient></defs><title>121212</title><g class="cls-1"><g id="_Р»РѕР№_1" data-name="вЂ”Р»РѕР№_1"><g class="cls-2"><path class="cls-3" d="M213.71,159.33a15.65,15.65,0,0,0,.78,22.23,16,16,0,0,0,21.45.53l.86.81a1.09,1.09,0,0,0,1.51,0l.33-.36a1,1,0,0,0,0-1.49l-.86-.81A15.68,15.68,0,0,0,236.09,159,15.91,15.91,0,0,0,213.71,159.33Z" transform="translate(-10.66 -87.09)"/></g><path class="cls-4" d="M236.06,180.35a15.62,15.62,0,1,1-.56-22.08A15.61,15.61,0,0,1,236.06,180.35Z" transform="translate(-10.66 -87.09)"/><path class="cls-5" d="M234.51,179.28a13.17,13.17,0,1,1-.48-18.63A13.17,13.17,0,0,1,234.51,179.28Z" transform="translate(-10.66 -87.09)"/><path class="cls-6" d="M237.75,180.16l-2.88-2.73a12.82,12.82,0,1,0-1.78,1.87L236,182a1.06,1.06,0,0,0,1.49,0l.33-.35A1.06,1.06,0,0,0,237.75,180.16Z" transform="translate(-10.66 -87.09)"/><path class="cls-7" d="M232.42,176.88a10.59,10.59,0,1,1-.39-15A10.6,10.6,0,0,1,232.42,176.88Z" transform="translate(-10.66 -87.09)"/><path class="cls-8" d="M224.36,159a10.53,10.53,0,0,0-9.56,14.16c-.16-5.81,5.07-11.07,10.89-11.28a10.57,10.57,0,0,1,9.21,4.75A10.57,10.57,0,0,0,224.36,159Z" transform="translate(-10.66 -87.09)"/><path class="cls-9" d="M52.26,122.45c-1.41-.28-1.32-.26-1.71-.66-1.44-1.46-14.08-3.35-16.63-1.49a8.37,8.37,0,0,0-1.88-.48h0l-.2,0h0a9.66,9.66,0,0,0-1.94,0c-2-2.42-14.75-3.62-16.5-2.55-.48.29-.39.3-1.82.23,0,0-.53,0-.64.65,0,.06.17,1.71.17,1.71a.29.29,0,0,0,.16.27l.65.28a2.26,2.26,0,0,1,0,.26,11,11,0,0,0,.85,5.37l-.2.18a2.34,2.34,0,0,0-.88,2,.56.56,0,0,0,.46.47,1.09,1.09,0,0,0,.85-.43l.71-.7a6.94,6.94,0,0,0,3.06,2.09c5.29,1.9,9.31.09,12.67-6.66,1.58.21,3,.38,4.19.52,1.65,7.35,5.1,10.08,10.7,9.5a7,7,0,0,0,3.27-1.15l.87,1.41a1.13,1.13,0,0,0,.73.62.56.56,0,0,0,.56-.34,2.39,2.39,0,0,0-.38-2.12l-.5-.7a10.65,10.65,0,0,0,2.29-5.16l.07-.32.71-.1a.27.27,0,0,0,.21-.22s.56-1.58.57-1.64A.64.64,0,0,0,52.26,122.45Zm-17.65-1.28c.73-.58,3.56-.86,8.22-.29,3.94.48,6.19,1.08,7,1.68a1.06,1.06,0,0,1,.4.53l-15.78-1.22h-.15a1.16,1.16,0,0,1,.05-.28A1,1,0,0,1,34.61,121.17Zm-2.86.17h0a2.12,2.12,0,0,1,1,.39l-1.22-.1-.89-.14A2.19,2.19,0,0,1,31.75,121.34Zm-17.89-3.18c1-.37,3.29-.42,7.23.06,4.66.57,7.34,1.53,7.91,2.27a.85.85,0,0,1,.12.45,1,1,0,0,1,0,.29L13.33,118.6A1.19,1.19,0,0,1,13.86,118.16Zm-1,2.36.18,0,.27,0,.46.07.19,0,.52.09h.08l3.74.58-.32.23-4.55,3.88h0A10.77,10.77,0,0,1,12.84,120.52Zm6.57,9a11.16,11.16,0,0,1-2.38-.59,5.85,5.85,0,0,1-2.77-2h0l.88-.87c1.2-1.17,2.58-2.52,3.26-3.16h0l.13-.12a3.32,3.32,0,0,1,2.22-.84l3.18.23h0l1.07.14,3.45.47C25.14,129.4,21.71,129.8,19.41,129.52Zm24.79,2.73a11.22,11.22,0,0,1-2.46,0c-2.3-.28-5.53-1.49-7.17-8.68,2.57.3,4,.44,4.2.45h0l3.13.55a3.32,3.32,0,0,1,2,1.35l0,.07,0,0,0,0,0,.05s0,0,0,0l0,0,0,0c0,.08.11.16.16.25v0l.06.09s0,0,0,0c.73,1.14,1.92,3,2.83,4.51A6,6,0,0,1,44.2,132.25ZM48.37,130h0l-3.64-5.11a2.41,2.41,0,0,0-.41-.44l.71.06h.18l.47,0,.24,0,.43,0,.24,0,.48,0h.19l.67.06.21,0,.47,0,.27,0,.43,0,.28,0,.45,0,.26,0h0a10.65,10.65,0,0,1-1.94,5Z" transform="translate(-10.66 -87.09)"/><path class="cls-10" d="M11.85,128.05a.57.57,0,0,1-.46-.47,2.37,2.37,0,0,1,.88-2l5.4-4.61a4.1,4.1,0,0,1,2.55-.81l30.71,2.38-.22,1.82c-16.57-1.32-27.07-2.78-27.07-2.78l-3.17-.23a3.32,3.32,0,0,0-2.23.84c-1.2,1.11-5.49,5.35-5.53,5.39A1.11,1.11,0,0,1,11.85,128.05Z" transform="translate(-10.66 -87.09)"/><path class="cls-10" d="M48.91,133.25a.56.56,0,0,0,.55-.34,2.36,2.36,0,0,0-.38-2.12l-4.64-6.51a4,4,0,0,0-2.28-1.4L11.78,117.8l-.13,2c16.41,2.7,26.85,3.65,26.85,3.65l3.14.55a3.3,3.3,0,0,1,2,1.35c.89,1.36,4.55,7.25,4.58,7.3A1.08,1.08,0,0,0,48.91,133.25Z" transform="translate(-10.66 -87.09)"/><path class="cls-10" d="M11.85,128.05a.57.57,0,0,1-.46-.47,2.37,2.37,0,0,1,.88-2l5.4-4.61a4.1,4.1,0,0,1,2.55-.81l30.71,2.38-.22,1.82c-16.57-1.32-27.07-2.78-27.07-2.78l-3.17-.23a3.32,3.32,0,0,0-2.23.84c-1.2,1.11-5.49,5.35-5.53,5.39A1.11,1.11,0,0,1,11.85,128.05Z" transform="translate(-10.66 -87.09)"/><path class="cls-10" d="M48.91,133.25a.56.56,0,0,0,.55-.34,2.36,2.36,0,0,0-.38-2.12l-4.64-6.51a4,4,0,0,0-2.28-1.4L11.78,117.8l-.13,2c16.41,2.7,26.85,3.65,26.85,3.65l3.14.55a3.3,3.3,0,0,1,2,1.35c.89,1.36,4.55,7.25,4.58,7.3A1.08,1.08,0,0,0,48.91,133.25Z" transform="translate(-10.66 -87.09)"/><path class="cls-11" d="M33.74,122.82c4.44.48,10.2,1,17,1.58l.22-1.82-16.73-1.3Z" transform="translate(-10.66 -87.09)"/><path class="cls-11" d="M29.37,120.74,11.78,117.8l-.13,2c6.93,1.14,12.79,2,17.25,2.54Z" transform="translate(-10.66 -87.09)"/><path class="cls-10" d="M52,121.86c-1.4-.28-1.32-.26-1.71-.66-1.44-1.46-14.07-3.35-16.63-1.49a9,9,0,0,0-1.87-.48h0l-.21,0h0a9.66,9.66,0,0,0-1.94,0c-2-2.42-14.74-3.62-16.5-2.55-.47.29-.39.29-1.81.23,0,0-.54,0-.64.65,0,.06.16,1.71.16,1.71a.3.3,0,0,0,.16.27l.65.28v.26c-.16,2-.08,7.17,4.85,8.94,5.33,1.92,9.37.05,12.75-6.83a2.06,2.06,0,0,1,2.23-1.42h0a2,2,0,0,1,1.82,1.91c1.63,7.5,5.1,10.28,10.74,9.7,5.15-.53,6.49-5.39,6.84-7.44l.07-.32.71-.1a.28.28,0,0,0,.22-.22s.56-1.58.57-1.64A.65.65,0,0,0,52,121.86ZM28.29,122c-3.36,6.8-6.84,7.21-9.16,6.92a11.1,11.1,0,0,1-2.39-.59c-4.77-1.71-4.35-7.13-4.15-8.78.12-1,.36-1.74,1-2,1-.37,3.3-.42,7.23.06,4.67.57,7.34,1.53,7.91,2.27a1,1,0,0,1,.13.45A4,4,0,0,1,28.29,122Zm15.62,9.65a11.22,11.22,0,0,1-2.46,0c-2.32-.29-5.6-1.52-7.23-8.92a4,4,0,0,1-.13-1.75,1,1,0,0,1,.23-.41c.73-.58,3.56-.86,8.22-.29,3.94.48,6.2,1.08,7,1.68.55.39.6,1.17.48,2.17C49.85,125.78,49,131.14,43.91,131.66Z" transform="translate(-10.66 -87.09)"/><path class="cls-11" d="M41.64,124a3.3,3.3,0,0,1,2,1.35c.55.83,2.13,3.37,3.29,5.22a6.3,6.3,0,0,0,1.2-1.16l-3.65-5.11a4,4,0,0,0-2.28-1.4L34,121.52a6.66,6.66,0,0,0,.18,1.22l.06.24c2.73.32,4.22.45,4.22.45Z" transform="translate(-10.66 -87.09)"/><path class="cls-11" d="M20.47,121.39l3.17.23s1.61.22,4.55.57a1.62,1.62,0,0,0,.1-.18,5.57,5.57,0,0,0,.47-1.15l-8.54-.66a4.1,4.1,0,0,0-2.55.81l-4.55,3.88a6.1,6.1,0,0,0,.85,1.48c1.38-1.35,3.49-3.41,4.27-4.14A3.32,3.32,0,0,1,20.47,121.39Z" transform="translate(-10.66 -87.09)"/><path class="cls-12" d="M49.57,122c-.83-.6-3.09-1.2-7-1.68-4.66-.57-7.49-.29-8.22.29a1,1,0,0,0-.23.41,4,4,0,0,0,.13,1.75c1.63,7.4,4.91,8.63,7.23,8.92a11.22,11.22,0,0,0,2.46,0c5-.52,5.94-5.88,6.14-7.52C50.17,123.14,50.12,122.36,49.57,122Z" transform="translate(-10.66 -87.09)"/><path class="cls-12" d="M28.71,119.9c-.57-.74-3.24-1.7-7.91-2.27-3.93-.48-6.27-.43-7.23-.06-.62.25-.86,1-1,2-.2,1.65-.62,7.07,4.15,8.78a11.1,11.1,0,0,0,2.39.59c2.32.29,5.8-.12,9.16-6.92a4,4,0,0,0,.55-1.66A1,1,0,0,0,28.71,119.9Z" transform="translate(-10.66 -87.09)"/><path class="cls-9" d="M44.49,182.51l-1.84-38.28a1.27,1.27,0,0,0-1.22-1.29L18.68,144a1.24,1.24,0,0,0-1.1,1.39l1.85,38.28A1.27,1.27,0,0,0,20.65,185l22.75-1.05A1.26,1.26,0,0,0,44.49,182.51Z" transform="translate(-10.66 -87.09)"/><path class="cls-6" d="M16.79,144.85a1.27,1.27,0,0,1,1.1-1.4l22.76-1.06a1.26,1.26,0,0,1,1.2,1.29L43.71,182a1.27,1.27,0,0,1-1.1,1.4l-22.75,1a1.26,1.26,0,0,1-1.22-1.28Z" transform="translate(-10.66 -87.09)"/><path class="cls-7" d="M18,147.44a.31.31,0,0,1,.31-.31l22.2-1a.34.34,0,0,1,.35.28l1.58,33a.31.31,0,0,1-.31.32L20,180.7a.33.33,0,0,1-.35-.28Z" transform="translate(-10.66 -87.09)"/><path class="cls-9" d="M192.14,111.1l-.86.14a.81.81,0,0,0-.51,1l.11.69a.77.77,0,0,0-.24.11s-.12.08-.1.14a7.57,7.57,0,0,0,.1,1.7l-.25,0c0-.1,0-.2,0-.3a.28.28,0,0,0-.34-.25H190a.34.34,0,0,0-.27.35c.43,3.67.89,7,1.52,10.69a.3.3,0,0,0,.35.25s0,0,.07,0a.28.28,0,0,0,.24-.34c-.53-3.08-.93-5.9-1.3-9l.25,0c.25,2,.72,5.18,1.59,10.42l.12.73h0c1.77,10.59,3.32,17.79,3.37,18.08a.07.07,0,0,0,0,.06l2.18,4.4c0,.08.09.07.1,0l.65-4.87s0,0,0,0h0s-1.14-8.52-2.84-18.78l0-.14h0c-2.11-12.73-2.5-13.39-2.5-13.39s-.08-.09-.14-.11a.91.91,0,0,0-.27,0l-.11-.69C192.87,111.39,192.51,111,192.14,111.1Z" transform="translate(-10.66 -87.09)"/><rect class="cls-13" x="189.61" y="114.64" width="0.81" height="1.39" transform="translate(-26.76 -54.96) rotate(-9.27)"/><path class="cls-14" d="M198.14,144.66a.12.12,0,0,1,.16.14l-.65,4.87c0,.1-.05.1-.1,0l-2.18-4.4c-.05-.1,0-.17.1-.2Z" transform="translate(-10.66 -87.09)"/><path class="cls-15" d="M197.73,149l-.08.66c0,.1-.05.1-.1,0l-.31-.61A1.26,1.26,0,0,1,197.73,149Z" transform="translate(-10.66 -87.09)"/><path class="cls-16" d="M190.23,112a.81.81,0,0,1,.52-1l.85-.14c.36-.06.73.29.82.79l.38,2.33a.82.82,0,0,1-.51,1l-.87.14c-.36.06-.74-.29-.81-.78Z" transform="translate(-10.66 -87.09)"/><path class="cls-17" d="M198.29,144.76s-1.13-8.57-2.85-18.86c-2.12-12.79-2.51-13.47-2.51-13.47s-.07-.08-.14-.1a6.88,6.88,0,0,0-2.69.44c-.06,0-.12.08-.12.16s-.23.83,1.87,13.5c1.86,11.19,3.5,18.81,3.5,18.81Z" transform="translate(-10.66 -87.09)"/><path class="cls-18" d="M196.82,145l1.47-.24s-1.13-8.57-2.85-18.86c-2.12-12.79-2.51-13.47-2.51-13.47s-.07-.08-.14-.1a5.18,5.18,0,0,0-1.46.1Z" transform="translate(-10.66 -87.09)"/><polygon class="cls-16" points="184.9 39.48 181.33 40.07 181.2 39.34 184.77 38.74 184.9 39.48"/><path class="cls-16" d="M191.37,125.33a.28.28,0,0,1-.25.34s0,0-.06,0a.3.3,0,0,1-.35-.25q-.94-5.46-1.57-11a.32.32,0,0,1,.27-.35h.06a.29.29,0,0,1,.34.25Q190.43,119.88,191.37,125.33Z" transform="translate(-10.66 -87.09)"/><polygon class="cls-9" points="225.61 49.37 227.65 23.59 227.75 22.14 227.85 20.98 194.39 18.35 194.3 19.51 194.18 20.96 192.15 46.74 225.61 49.37"/><rect class="cls-19" x="206.54" y="104.28" width="27.71" height="33.24" transform="translate(71.91 244.02) rotate(-85.5)"/><rect class="cls-20" x="206.55" y="104.11" width="27.7" height="33.24" transform="translate(72.08 243.89) rotate(-85.5)"/><rect class="cls-21" x="206.56" y="103.95" width="27.7" height="33.24" transform="translate(72.26 243.74) rotate(-85.5)"/><rect class="cls-22" x="206.58" y="103.77" width="27.7" height="33.24" transform="translate(72.45 243.59) rotate(-85.5)"/><rect class="cls-23" x="206.6" y="103.58" width="27.7" height="33.24" transform="matrix(0.08, -1, 1, 0.08, 72.65, 243.44)"/><rect class="cls-24" x="220.33" y="92.39" width="1.99" height="33.26" transform="matrix(0.08, -1, 1, 0.08, 84.6, 234)"/><path class="cls-9" d="M210.08,150.32l.32-.1,3.83-1.55h0l20.33-17.27h0l1.43-1.18,1-.78c.55-.45.51-.67.36-.84l-1.47-1.78c-.15-.17-.35-.24-.89.21l-1,.79-1.5,1.22h0l-.14.12h0L215.05,143.9l0,0-.27.22-2.57,2.19s-.91,1.63-1.58,2.85h0c-.07.11-.14.25-.44.75-.16.27-.21.38-.18.4h.09Z" transform="translate(-10.66 -87.09)"/><path class="cls-25" d="M234,127.54l1-.79c.54-.45.74-.38.89-.2l1.47,1.77c.15.17.19.39-.36.84l-1,.78Z" transform="translate(-10.66 -87.09)"/><polygon class="cls-26" points="221.64 41.8 223.65 44.2 225.29 42.85 223.29 40.44 221.64 41.8"/><path class="cls-27" d="M217.23,144.8c.26.3.11.85-.32,1.22l-2.23,1.92-.51.45s-3.41,1.38-4.1,1.62l-.14,0c.43-.81,2.2-4,2.2-4a5.45,5.45,0,0,0,.54-.46l2.3-2c.43-.38.89-.41,1.14-.11Z" transform="translate(-10.66 -87.09)"/><path class="cls-28" d="M234.52,131.12l-20.33,17.27c-.37,0-.19-.62-.5-.71.51-.82.18-1.58-.91-1.06-.07-.31-.69-.22-.65-.58l20.32-17.28Z" transform="translate(-10.66 -87.09)"/><path class="cls-29" d="M213.69,147.69,234,130.47l-.92-1.05-20.25,17.21A1,1,0,0,0,213.69,147.69Z" transform="translate(-10.66 -87.09)"/><path class="cls-13" d="M210.11,149.64l.44-.75a.23.23,0,0,0,0,.12s0,0,0,0a.14.14,0,0,0,.11,0,.13.13,0,0,1,.11.11.26.26,0,0,0,0,.12l0,0s.08,0,.13,0,.1.07.09.12a.22.22,0,0,0,0,.11v0s.07,0,.11,0-.34.14-.82.33a1.2,1.2,0,0,1-.41.11S210,149.9,210.11,149.64Z" transform="translate(-10.66 -87.09)"/><rect class="cls-30" x="55.32" width="115.88" height="137.93"/><path class="cls-14" d="M165.66,97.91a3.23,3.23,0,0,1-.13,1.26H82.59a3.23,3.23,0,0,1-.13-1.26V92.63a3.23,3.23,0,0,1,.13-1.26h82.94a3.23,3.23,0,0,1,.13,1.26Z" transform="translate(-10.66 -87.09)"/><path class="cls-14" d="M175.54,110.69H134.41s-.06.16-.06.36v1.54c0,.2,0,.37.06.37h41.13a1,1,0,0,0,0-.37v-1.54A.88.88,0,0,0,175.54,110.69Z" transform="translate(-10.66 -87.09)"/><path class="cls-14" d="M175.47,102.85H144.2a.88.88,0,0,0,0,.36v1.54a1,1,0,0,0,0,.37h31.27a1.85,1.85,0,0,0,0-.37v-1.54A1.71,1.71,0,0,0,175.47,102.85Z" transform="translate(-10.66 -87.09)"/><path class="cls-14" d="M139.57,102.85h-5.18v4.59h5.18v-4.59Z" transform="translate(-10.66 -87.09)"/><path class="cls-14" d="M175.49,120.61c0,.19,0,.36-.09.36h-41s-.09-.17-.09-.36v-1.55c0-.2,0-.36.09-.36h41s.09.16.09.36Z" transform="translate(-10.66 -87.09)"/><path class="cls-14" d="M175.54,131.67h-41s-.06.16-.06.36v1.54c0,.2,0,.37.06.37h41a1,1,0,0,0,0-.37V132A.88.88,0,0,0,175.54,131.67Z" transform="translate(-10.66 -87.09)"/><path class="cls-14" d="M175.47,123.83H144.2a.88.88,0,0,0,0,.36v1.54a1,1,0,0,0,0,.37h31.27a1.85,1.85,0,0,0,0-.37v-1.54A1.71,1.71,0,0,0,175.47,123.83Z" transform="translate(-10.66 -87.09)"/><path class="cls-14" d="M139.57,123.83h-5.18v4.59h5.18v-4.59Z" transform="translate(-10.66 -87.09)"/><path class="cls-14" d="M175.49,141.59c0,.19,0,.36-.09.36h-41s-.09-.17-.09-.36V140c0-.2,0-.37.09-.37h41s.09.17.09.37Z" transform="translate(-10.66 -87.09)"/><path class="cls-14" d="M175.35,149.59c0,.21,0,.37-.09.37H134.53c-.05,0-.09-.16-.09-.37v-1.54c0-.2,0-.37.09-.37h40.73c.06,0,.09.17.09.37Z" transform="translate(-10.66 -87.09)"/><path class="cls-14" d="M175.54,163.54H134.45s-.06.16-.06.36v1.54c0,.2,0,.37.06.37h41.09a1,1,0,0,0,0-.37V163.9A.88.88,0,0,0,175.54,163.54Z" transform="translate(-10.66 -87.09)"/><path class="cls-14" d="M175.47,155.7H144.2a.88.88,0,0,0,0,.36v1.54a1,1,0,0,0,0,.37h31.27a1.85,1.85,0,0,0,0-.37v-1.54A1.71,1.71,0,0,0,175.47,155.7Z" transform="translate(-10.66 -87.09)"/><path class="cls-14" d="M139.57,155.7h-5.18v4.59h5.18V155.7Z" transform="translate(-10.66 -87.09)"/><path class="cls-14" d="M175.49,173.45c0,.2,0,.37-.09.37h-41s-.09-.17-.09-.37v-1.54c0-.2,0-.37.09-.37h41s.09.17.09.37Z" transform="translate(-10.66 -87.09)"/><path class="cls-14" d="M175.35,181.46c0,.2,0,.37-.09.37H134.48s-.09-.17-.09-.37v-1.55c0-.19.05-.36.09-.36h40.78c.06,0,.09.17.09.36Z" transform="translate(-10.66 -87.09)"/><path class="cls-14" d="M175.54,195.41H134.41s-.06.16-.06.36v1.54c0,.2,0,.37.06.37h41.13a1,1,0,0,0,0-.37v-1.54A.88.88,0,0,0,175.54,195.41Z" transform="translate(-10.66 -87.09)"/><path class="cls-14" d="M175.47,187.56H144.2a1,1,0,0,0,0,.37v1.54a1,1,0,0,0,0,.37h31.27a1.85,1.85,0,0,0,0-.37v-1.54A1.85,1.85,0,0,0,175.47,187.56Z" transform="translate(-10.66 -87.09)"/><path class="cls-14" d="M139.57,187.56h-5.18v4.6h5.18v-4.6Z" transform="translate(-10.66 -87.09)"/><path class="cls-14" d="M175.49,205.32c0,.2,0,.37-.09.37h-41s-.09-.17-.09-.37v-1.54c0-.2,0-.37.09-.37h41s.09.17.09.37Z" transform="translate(-10.66 -87.09)"/><path class="cls-14" d="M175.35,213.33c0,.21,0,.37-.09.37H134.44s-.09-.16-.09-.37v-1.54c0-.21.05-.37.09-.37h40.82c.06,0,.09.16.09.37Z" transform="translate(-10.66 -87.09)"/><path class="cls-14" d="M127.34,160.68H81.06s0,.19,0,.41v1.73c0,.22,0,.41,0,.41h46.28a1.33,1.33,0,0,0,0-.41v-1.73A1.33,1.33,0,0,0,127.34,160.68Z" transform="translate(-10.66 -87.09)"/><path class="cls-14" d="M127.31,168.78c0,.23,0,.43-.07.43H81.14s-.07-.2-.07-.43V167c0-.24,0-.43.07-.43h46.1s.07.19.07.43Z" transform="translate(-10.66 -87.09)"/><path class="cls-14" d="M127.18,174.63c0,.24,0,.43-.07.43h-46a.8.8,0,0,1-.07-.43v-1.82a.83.83,0,0,1,.07-.43h46s.07.2.07.43Z" transform="translate(-10.66 -87.09)"/><rect class="cls-14" x="62.29" y="73.96" width="4.8" height="4.8"/><path class="cls-14" d="M127.4,141.41H81.12s-.05.18-.05.4v1.73c0,.23,0,.42.05.42H127.4a1.37,1.37,0,0,0,0-.42v-1.73A1.24,1.24,0,0,0,127.4,141.41Z" transform="translate(-10.66 -87.09)"/><path class="cls-14" d="M127.37,149.5c0,.23,0,.43-.07.43H81.2s-.07-.2-.07-.43v-1.81c0-.24,0-.44.07-.44h46.1s.07.2.07.44Z" transform="translate(-10.66 -87.09)"/><path class="cls-14" d="M127.24,155.35c0,.24,0,.43-.07.43h-46a.8.8,0,0,1-.07-.43v-1.82a.78.78,0,0,1,.07-.42h46s.07.19.07.42Z" transform="translate(-10.66 -87.09)"/><rect class="cls-14" x="62.29" y="54.5" width="4.8" height="4.8"/><path class="cls-14" d="M127.28,180H81s0,.18,0,.41v1.73c0,.22,0,.41,0,.41h46.28a1.33,1.33,0,0,0,0-.41v-1.73A1.28,1.28,0,0,0,127.28,180Z" transform="translate(-10.66 -87.09)"/><path class="cls-14" d="M127.25,188.06c0,.22,0,.42-.07.42H81.08s-.07-.2-.07-.42v-1.82c0-.24,0-.43.07-.43h46.1s.07.19.07.43Z" transform="translate(-10.66 -87.09)"/><path class="cls-14" d="M127.12,193.9c0,.24,0,.43-.07.43H81a.8.8,0,0,1-.07-.43v-1.81a.8.8,0,0,1,.07-.43h46s.07.19.07.43Z" transform="translate(-10.66 -87.09)"/><rect class="cls-14" x="62.29" y="93.49" width="4.8" height="4.8"/><path class="cls-14" d="M127.22,199.24H80.94s0,.18,0,.41v1.72c0,.23,0,.42,0,.42h46.28a1.37,1.37,0,0,0,0-.42v-1.72A1.28,1.28,0,0,0,127.22,199.24Z" transform="translate(-10.66 -87.09)"/><path class="cls-14" d="M127.19,207.33c0,.23,0,.43-.07.43H81s-.07-.2-.07-.43v-1.81c0-.24,0-.44.07-.44h46.1s.07.2.07.44Z" transform="translate(-10.66 -87.09)"/><path class="cls-14" d="M127.06,213.18c0,.24,0,.43-.07.43H81a.8.8,0,0,1-.07-.43v-1.81a.8.8,0,0,1,.07-.43h46c.05,0,.07.19.07.43Z" transform="translate(-10.66 -87.09)"/><rect class="cls-14" x="62.29" y="113.03" width="4.8" height="4.8"/><path class="cls-14" d="M127.46,122.13H81.18s-.05.18-.05.41v1.73c0,.22,0,.41.05.41h46.28a1.33,1.33,0,0,0,0-.41v-1.73A1.28,1.28,0,0,0,127.46,122.13Z" transform="translate(-10.66 -87.09)"/><path class="cls-14" d="M127.43,130.22c0,.23,0,.43-.07.43H81.26s-.07-.2-.07-.43v-1.81c0-.24,0-.43.07-.43h46.1s.07.19.07.43Z" transform="translate(-10.66 -87.09)"/><path class="cls-14" d="M127.3,136.07c0,.24,0,.43-.07.43h-46a.8.8,0,0,1-.07-.43v-1.81a.8.8,0,0,1,.07-.43h46s.07.19.07.43Z" transform="translate(-10.66 -87.09)"/><rect class="cls-14" x="62.29" y="35.04" width="4.8" height="4.8"/><path class="cls-14" d="M127.52,102.85H81.24s0,.18,0,.41V105c0,.22,0,.41,0,.41h46.28a1.33,1.33,0,0,0,0-.41v-1.73A1.28,1.28,0,0,0,127.52,102.85Z" transform="translate(-10.66 -87.09)"/><path class="cls-14" d="M127.49,111c0,.23,0,.42-.07.42H81.32s-.07-.19-.07-.42v-1.82c0-.24,0-.43.07-.43h46.1s.07.19.07.43Z" transform="translate(-10.66 -87.09)"/><path class="cls-14" d="M127.36,116.8c0,.24,0,.43-.07.43h-46a.8.8,0,0,1-.07-.43V115a.8.8,0,0,1,.07-.43h46s.07.19.07.43Z" transform="translate(-10.66 -87.09)"/><rect class="cls-14" x="62.29" y="15.59" width="4.8" height="4.8"/><path class="cls-31" d="M69.07,219.54c3.67-9.42,6.49-11,7.29-12.08a22,22,0,0,0,2.88-5.41c.92-2.34,2.73-7.7,3.21-9.17.39-1.17.42-3.71.41-8,0-3.07,0-3.74-.1-4.84-.52-5.89-5-3.18-5-3.18-2.94,2-3.12,5.69-3.1,7.34a35.52,35.52,0,0,1-2.93,7.91,9.33,9.33,0,0,1-3.24,2.62c-.56.13-1.16-4.26-1.74-7.08-.53-2.63-.84-5-.84-5L66,160s-4.33-.29-5.64,3c-2.15,5.36-2,6-3.18,8.21-6.06,11.35-6.24,14.52-6.24,14.52-.63,9-1.1,17.91-1.21,18.88-.25,2.13-.21,2.24-.52,3.9-.45,2.57-1.28,3.48-1.63,5a28.4,28.4,0,0,0-.94,7C52.85,219.92,69.07,219.54,69.07,219.54Z" transform="translate(-10.66 -87.09)"/><path class="cls-32" d="M82.16,181.38a9.5,9.5,0,0,1-4.47-.57,4.06,4.06,0,0,1,.6-2.58c.78-.93,3-.4,3.3-.19S82.18,178.9,82.16,181.38Z" transform="translate(-10.66 -87.09)"/><polygon class="cls-33" points="55.4 160.92 62.17 131.87 34.43 125.41 26.16 160.92 55.4 160.92"/><polygon class="cls-34" points="56.5 160.92 62.56 134.93 32.73 127.98 25.06 160.92 56.5 160.92"/><polygon class="cls-7" points="56.5 160.92 62.56 134.93 47.3 131.38 40.41 160.92 56.5 160.92"/><path class="cls-33" d="M47.58,222.19a1.3,1.3,0,1,1-1-1.56A1.3,1.3,0,0,1,47.58,222.19Z" transform="translate(-10.66 -87.09)"/><path class="cls-35" d="M196.74,199.65l-4.92-18.83a4.36,4.36,0,0,0-.45-1.11l-8.44-17.42a3.6,3.6,0,0,0-1.42-1.64s-.34-.17-.45-.21l-13.88-6.13c-2.37-1-4,.3-4.76,2.09s-.44,3.38,1.93,4.41L177,166.4l-.84,23.85,13.67,11.17c.65,2.51,2.71,4.17,4.6,3.69S197.38,202.17,196.74,199.65Z" transform="translate(-10.66 -87.09)"/><path class="cls-35" d="M200.43,204.69l-6.67-18.29a4.29,4.29,0,0,0-.55-1.07l-10-16.55a3.63,3.63,0,0,0-1.57-1.49l-.47-.17-14.39-4.79c-2.46-.82-4,.67-4.55,2.52s-.12,3.4,2.35,4.22l13.16,4.37,2.05,21,14,12.66c.88,2.44,3.09,3.9,4.93,3.23S201.31,207.13,200.43,204.69Z" transform="translate(-10.66 -87.09)"/><path class="cls-35" d="M196.93,192.45l-7.17-22.73a4.42,4.42,0,0,0-.52-1.09l-5.83-14a3.67,3.67,0,0,0-1.51-1.56s-.36-.15-.47-.18l-14.2-5.32c-2.43-.9-4,.54-4.64,2.36s-.24,3.4,2.18,4.3l13,4.84.53,23.86,14.3,10.36c.79,2.47,3,4,4.81,3.41S197.72,194.92,196.93,192.45Z" transform="translate(-10.66 -87.09)"/><path class="cls-31" d="M194.22,179.41s-9.28-19.51-13.4-16.79c.15,2.17-3.72,9.14-5,8.85a21.52,21.52,0,0,1-7.92-3.9c-1.08-.93-1.76-1.29-2.1-2.3-.19-.56-2.49-6.19-2.57-6.53-.11-.5-.43-2.39-.76-3.56-1.06-4-3.77-5.46-5.74-5.22s-2.85,1.49-2.29,4c0,0,2.08,10.29,3.26,14.08a15.22,15.22,0,0,0,.7,2c2.25,4.74,7,12.38,7,12.38a31.29,31.29,0,0,0,3.18,3.28c4.14,4.24,13.65,15.32,13.65,15.32,1.22,1.08,6.82,13.68,6.82,13.68l13.46-6.61s-.45-6.4-.64-7.34c-.68-3.25-1.89-11.09-3.24-12.93C197,185.64,195.4,180.45,194.22,179.41Z" transform="translate(-10.66 -87.09)"/><path class="cls-33" d="M159.26,153.41a2.61,2.61,0,0,0-.53-1.34c-.68-1-1.35-1.07-2.47-.8-1.46.35-1.51,1.16-1.47,1.86a2.76,2.76,0,0,0,.49,1.54c.15.13.37.39,2-.11C159.12,154,159.23,153.66,159.26,153.41Z" transform="translate(-10.66 -87.09)"/><path class="cls-31" d="M196.93,186.55s-5.39-18.08-6.56-22.18a5,5,0,0,0-.44-1.12s-4.49-9.3-7.76-15.71a4.35,4.35,0,0,0-1.86-2.12c-2.58-1.32-10-4.47-13.62-5.87-2.42-.94-4.23-.17-5,1.61s-.38,3.36,2,4.43c3.21,1.46,10.57,4.76,11.89,5.92,1,.89,6.15,17.83,6.15,17.83l6.72,17.26c.61,2.52,2.65,4.21,4.55,3.75S197.54,189.08,196.93,186.55Z" transform="translate(-10.66 -87.09)"/><polygon class="cls-16" points="181.58 92.57 182.66 91.63 184.28 93.5 183.2 94.47 181.58 92.57"/><path class="cls-36" d="M153.81,143.23a.21.21,0,0,1-.37-.07l-3.58-8c-.08-.16,0-.21.13-.12l7.41,4.64a.22.22,0,0,1,.06.38Z" transform="translate(-10.66 -87.09)"/><path class="cls-15" d="M150.34,136.25l-.48-1.08c-.08-.16,0-.21.13-.12l1,.64A1.68,1.68,0,0,0,150.34,136.25Z" transform="translate(-10.66 -87.09)"/><path class="cls-10" d="M196.41,185.43a1.44,1.44,0,0,1,.14,2l-1.16,1a1.48,1.48,0,0,1-2-.43l-2.76-3.18a1.46,1.46,0,0,1-.15-2l1.17-1a1.48,1.48,0,0,1,2,.44Z" transform="translate(-10.66 -87.09)"/><path class="cls-16" d="M153.49,143.23c.81,1,9.73,12,22,26,15.18,17.43,16.41,18.1,16.41,18.1s.18.05.32,0a12.28,12.28,0,0,0,3.66-3.2c0-.1.11-.23,0-.33s-.43-1.48-15.49-18.75c-13.29-15.23-22.9-25.26-22.9-25.26A12.77,12.77,0,0,0,153.49,143.23Z" transform="translate(-10.66 -87.09)"/><path class="cls-37" d="M194.28,185.79a8.05,8.05,0,0,0,1.58-1.69c0-.1.11-.23,0-.33s-.43-1.48-15.49-18.75c-13.29-15.23-22.9-25.26-22.9-25.26a16.73,16.73,0,0,0-2.15,1.47C157.68,143.92,194.28,185.79,194.28,185.79Z" transform="translate(-10.66 -87.09)"/><polygon class="cls-6" points="164.01 81.16 168.88 76.95 169.75 77.93 164.88 82.19 164.01 81.16"/><path class="cls-37" d="M182.17,166.24a.48.48,0,0,1,.06-.73l.09-.08a.55.55,0,0,1,.78,0q6.54,7.4,12.63,15.15a.58.58,0,0,1-.1.79s0,0-.07.07a.54.54,0,0,1-.75-.07C190.75,176.23,186.52,171.17,182.17,166.24Z" transform="translate(-10.66 -87.09)"/><rect class="cls-14" x="175.27" y="194.47" width="32.6" height="9.4" transform="translate(-79.5 19.61) rotate(-26.57)"/><polygon class="cls-34" points="224.58 160.92 197.68 107.26 167.15 122.53 186.4 160.92 224.58 160.92"/><polygon class="cls-7" points="205.63 160.92 182.4 114.9 167.15 122.53 186.4 160.92 205.63 160.92"/><path class="cls-33" d="M207.58,201.89a1.33,1.33,0,1,1-1.32-1.33A1.32,1.32,0,0,1,207.58,201.89Z" transform="translate(-10.66 -87.09)"/></g></g></svg>