<svg xmlns="http://www.w3.org/2000/svg" xmlns:xlink="http://www.w3.org/1999/xlink" version="1.1" id="Layer_1" x="0px" y="0px" viewBox="362.6847839355469 38.94384002685547 191.68399047851562 441.1561279296875" style="enable-background:new 0 0 640 480;" xml:space="preserve">
<style type="text/css">
	.st0{fill:#005447;}
	.st1{fill:#00473A;}
	.st2{fill:#002D20;}
	.st3{fill:#D6B17F;}
	.st4{fill:#A295B0;}
	.st5{fill:#9586A5;}
	.st6{fill:#F0CB99;}
	.st7{fill:#CB9865;}
	.st8{fill:#190000;}
	.st9{fill:#B17E4B;}
	.st10{fill:#FFFFFF;}
	.st11{fill:#CBCBCB;}
	.st12{fill:#343434;}
	.st13{fill:#1A1A1A;}
	.st14{fill:#361F1F;}
	.st15{fill:#291212;}
	.st16{fill:#503B3B;}
	.st17{fill:#E57D19;}
	.st18{fill:#EFAF72;}
	.st19{fill:#B14900;}
	.st20{fill:#FF9733;}
	.st21{fill:#8A2200;}
	.st22{fill:#FFA34B;}
	.st23{fill:#AF8A58;}
	.st24{fill:#A43C00;}
</style>
<g>
	<g>
		<path class="st0" d="M444.6,455.6l1.7,1.7l4,22.7h61.8c0,0-3-23.1-4.7-40.6c-1.7-17.4-1.7-24.1-1.7-24.1s-17.8-15.4-47.6-17.4    c-29.8-2-70.7-13.7-75.8,7.4c0,0-5,13.1-3.7,23.1c1.3,10.1,5.7,42.2,5.7,51.6h61C445.1,472,444.6,458.6,444.6,455.6z"/>
		<path class="st1" d="M390.8,429.8c6.3-10.5,18.9,8.4,33.6-10.5c4.2-6.3,23.1,4.2,37.8-2.1c-2.1,10.5,6.3,18.9,16.8,16.8    c8.4-4.2,18.9-10.5,23.1-2.1c2.6,3.8,4.4,7.7,5.8,11.7c-0.1-1.4-0.3-2.8-0.4-4.1c-1.7-17.4-1.7-24.1-1.7-24.1    s-17.8-15.4-47.6-17.4c-29.8-2-70.7-13.7-75.8,7.4c0,0-5,13.1-3.7,23.1c1.3,10.1,5.7,42.2,5.7,51.6h6.6    C386.8,461.5,381.8,442.5,390.8,429.8z"/>
		<g>
			<path class="st2" d="M441.3,424.5c0.6,12.7,2,22.9,1.8,22.9c-0.3,0.1-2-10.2-2.6-22.9c-0.7-12.7-0.6-23-0.4-23     C440.3,401.5,440.6,411.9,441.3,424.5z"/>
			<path class="st2" d="M445.8,424.7c-0.8-13.9,0-25.2,0.3-25.2c0.1,0-0.3,11.3,0.5,25.1c0.6,13.9,1.4,25.1,1.2,25.1     C447.6,449.8,446.4,438.6,445.8,424.7z"/>
			<path class="st2" d="M450.5,426.9c3.1-6.2,3.2-12,3.7-11.9c0-0.1,0.3,5.9-3,12.3c-3.3,6.6-9.5,8.5-9.4,8.1     C441.6,435.4,447.4,433.3,450.5,426.9z"/>
			<path class="st2" d="M444.9,455.3c12.9,0.9,19.1,6.4,18.7,7c0,0.1-11.3-5.7-18.8-6.3c-12.6-3.5-23.5-11.2-23.4-11.2     C421.5,444.5,432.6,451.9,444.9,455.3z"/>
		</g>
	</g>
	<path class="st3" d="M485.9,198.1l-53.2-1l-7.5,2.5c0,0-13.4,2.9-7.3,31.2c6,28.3,10.2,153-1.6,174.5c0,0,26,15,62.4,3.1   c0,0-11.3-81.1,1.6-117.8c12.9-36.7,16.1-71.6,16.8-77.9C498.4,201,485.9,198.1,485.9,198.1z"/>
	<path class="st4" d="M485.9,198.1l-53.2-1l-7.5,2.5c0,0-13.4,2.9-7.3,31.2c6,28.3,10.2,153-1.6,174.5c0,0,26,15,62.4,3.1   c0,0-11.3-81.1,1.6-117.8c12.9-36.7,16.1-71.6,16.8-77.9C498.4,201,485.9,198.1,485.9,198.1z"/>
	<path class="st5" d="M422.3,274.7c1.7,29.5,2.2,66.4,0.4,94c1.3-0.4,2.6-0.8,4-1.2c16.2-4.4,32.4,0.4,48.5,4.1   c-1.7-26.2-2-60.1,5.1-80.6C467.7,274.9,444.2,271.6,422.3,274.7z"/>
	<g>
		<path class="st6" d="M485.9,198.1c-3.8-1.1-6.8-2.7-7.3-5.2c-1.3-6.2,2.6-29.2,2.6-29.2l-44.9-1.1c0,0,5.8,26.9,1.4,32.2    c-0.9,1-2.7,1.8-4.9,2.3c0,0-3,16.4,12.7,23.1c15.7,6.8,31.7,3.4,38.9-3.8C491.5,209.3,485.9,198.1,485.9,198.1z"/>
		<g>
			<path class="st7" d="M442.3,175c4.2,3.9,26.8,4.7,32.2,0.3c1.3-1,3.5-3.6,5.9-6.9c0.4-2.9,0.8-4.8,0.8-4.8l-44.9-1.1     c0,0,0.7,3.4,1.5,7.9C439.6,172.5,441.2,174.1,442.3,175z"/>
		</g>
	</g>
	<g>
		<g>
			<g>
				<g>
					<path class="st6" d="M494.6,127c1.4-4.9,2.5-10.8,7.3-9.4c4.8,1.3,5.9,11.4-1.5,20.8c-5.1,6.4-8.7-0.6-8.7-0.6L494.6,127z"/>
				</g>
				<g>
					<path class="st7" d="M494.6,127l-2.8,10.7c0,0,1.2,2.3,3.2,3.1c2.7-6.9,2.7-13.9,2.8-21.9C496.2,120.7,495.5,124,494.6,127z"/>
				</g>
			</g>
			<g>
				<path class="st6" d="M420.4,127c-1.4-4.9-2.5-10.8-7.3-9.4c-4.8,1.3-5.9,11.4,1.5,20.8c5.1,6.4,8.7-0.6,8.7-0.6L420.4,127z"/>
				<path class="st7" d="M423.2,137.7l-2.8-10.7c-1-3.6-1.9-7.7-4.2-9.1c-0.1,5.1,0.6,14.8,3.8,22.9      C422,140,423.2,137.7,423.2,137.7z"/>
			</g>
			<path class="st6" d="M481,82.9c-5.3-2.6-9.1-13.5-18.9-13.4c-10.8,0.1-26.6,11.8-30,13.2c-10.2,4.3-16.1,19-15.5,35.5     c1.1,7.8,2.9,21.2,5.2,27.7c3.4,9.4,16.2,23.2,20.4,27.1c4.2,3.9,26.8,4.7,32.2,0.3c4.2-3.3,17.9-22.8,19.4-30.8     c2.4-12.7,2.8-17.7,3.3-23.2C498.6,102.6,491.4,88.1,481,82.9z"/>
			<g>
				<path class="st7" d="M481,82.9c-5.3-2.6-9.1-13.5-18.9-13.4c-10.8,0.1-26.6,11.8-30,13.2c-10.2,4.3-16.1,19-15.5,35.5      c0.8,5.8,2,14.7,3.5,21.6c0.4-4.7,1.3-9.4,1.8-17.2c0.4-7.3,9.7-13.8,9.7-13.8c-0.7,2.4-4,5.3-4,5.3      c17.5-7.5,37.1-12.5,45.6-23.4c0,0,1.4,5.3,4.3,9.6c6.2,9.3,14.5,10.5,14.5,10.5c-2.9-2.3-3-3.4-3-3.4c9.3,1.9,2.7,15.6,6,26.6      c0.1-1.3,2-13.3,2.1-14.6C498.6,102.6,491.4,88.1,481,82.9z"/>
			</g>
			<g>
				<g>
					<path class="st8" d="M427.6,107.1c3.2-1.2,7.6-0.1,16.2,2.4c1.2,0.3,3.5-0.2,4.8,0.3c0,0,1.4,2.7,1.1,5.9       c-0.4,0-3.1,0.5-6.3-0.7c-5.1-1.9-12.4-5.4-20.1-3.1C424,110.9,424.7,108.2,427.6,107.1z"/>
					<path class="st8" d="M488.7,106.2c-3.2-1.1-7.6,0.2-16.1,2.9c-1.1,0.4-3.5,0-4.8,0.4c0,0-1.3,2.7-0.9,6c0.4,0,3.1,0.4,6.2-0.9       c5.1-2,12.2-5.8,20-3.8C492.5,109.9,491.7,107.2,488.7,106.2z"/>
					<g>
						<path class="st7" d="M452.2,140.3c1.8-2.4,4.7-6.9,5.6-16.9c0,0,2.1,7.7-4.2,18.9l3.3,3.6l-5.2-3.1        C451.7,142.9,451.3,141.5,452.2,140.3z"/>
						<path class="st9" d="M458.2,145.7c0,0,2.3-1.7,3.3-0.6C462.5,146.1,458.2,145.7,458.2,145.7z"/>
						<path class="st9" d="M454.9,145.6c0,0-1.6-1.5-2.5-0.7C451.6,145.6,454.9,145.6,454.9,145.6z"/>
					</g>
					<g>
						<path class="st10" d="M427.7,120.3c0,0,0.5,3.7,3.2,5.3c1.7,1,11.5,2.1,14,0.1c1.6-1.3-0.3-8.3-0.3-8.3        C432.9,112.8,427.7,120.3,427.7,120.3z"/>
						<path class="st11" d="M445.2,119.7c-0.3-1.3-0.5-2.3-0.5-2.3c-10-3.9-15.3,1-16.6,2.5C433.7,118.5,439.6,118.3,445.2,119.7z"/>
						<g>
							<path class="st12" d="M441.8,126.4c-2.8,0.9-5.8-0.8-6.7-3.8c-0.9-3,0.7-6.1,3.6-7c2.9-0.9,5.9,0.8,6.7,3.8         C446.3,122.4,444.7,125.5,441.8,126.4z"/>
							<path class="st13" d="M445.4,119.4c-0.9-3-3.9-4.6-6.7-3.7c-1.7,0.5-2.9,1.9-3.5,3.5C438.6,118.8,442,118.8,445.4,119.4z"/>
							<path d="M441.2,124c-1.4,0.4-2.8-0.5-3.2-2c-0.4-1.5,0.5-3.1,1.9-3.5c1.4-0.4,2.8,0.5,3.2,2         C443.5,122.1,442.6,123.6,441.2,124z"/>
							<path class="st10" d="M439.1,122.4c-0.9,0.3-1.9-0.1-2.2-0.7c-0.3-0.7,0.2-1.4,1.1-1.6c0.9-0.3,1.9,0.1,2.2,0.7         C440.5,121.4,440,122.1,439.1,122.4z"/>
						</g>
						<g>
							<path d="M433.7,115.3c4.6-0.8,9.6,0.2,10.8,0.9c1.1,0.6,1.2,4.6,1,4.6c-0.2,0.1-0.7-2.8-2.1-3.2c-1.4-0.4-6.2-0.7-9.8-0.2         c-4.2,0.6-5.6,3.2-5.8,3C427.6,120.2,427.6,116.3,433.7,115.3z"/>
						</g>
					</g>
					<g>
						<path class="st10" d="M486.8,120.3c0,0-0.5,3.7-3.2,5.3c-1.7,1-11.5,2.1-14,0.1c-1.6-1.3,0.3-8.3,0.3-8.3        C481.6,112.8,486.8,120.3,486.8,120.3z"/>
						<path class="st11" d="M469.3,119.7c0.3-1.3,0.5-2.3,0.5-2.3c10-3.9,15.3,1,16.6,2.5C480.8,118.5,474.9,118.3,469.3,119.7z"/>
						<g>
							<path class="st12" d="M478.2,126.1c2.7,1.2,5.8-0.2,6.9-3c1.1-2.8-0.1-6-2.8-7.2c-2.7-1.2-5.8,0.2-6.9,3         C474.3,121.7,475.6,124.9,478.2,126.1z"/>
							<path class="st13" d="M475.5,118.8c1.2-2.8,4.2-4.1,6.9-2.9c1.6,0.7,2.7,2.2,3,3.8C482.2,119,478.8,118.6,475.5,118.8z"/>
							<path d="M480.2,123.8c1.4,0.4,2.8-0.5,3.1-2c0.4-1.5-0.5-3-1.8-3.4c-1.4-0.4-2.8,0.5-3.1,2         C478,121.9,478.9,123.4,480.2,123.8z"/>
							<path class="st10" d="M478.1,122.4c0.9,0.3,1.8-0.1,2.1-0.7c0.3-0.6-0.2-1.4-1.1-1.6c-0.9-0.2-1.8,0.1-2.1,0.7         C476.7,121.4,477.2,122.1,478.1,122.4z"/>
						</g>
						<g>
							<path d="M480.7,115.1c-4.6-0.8-9.5,0.4-10.6,1.1c-1.1,0.6-1.2,4.6-1,4.6c0.2,0.1,0.7-2.8,2.1-3.2c1.4-0.4,6.2-0.7,9.8-0.2         c4.2,0.6,5.6,3.2,5.8,3C487,120.2,486.7,116.1,480.7,115.1z"/>
						</g>
					</g>
				</g>
			</g>
		</g>
		<g>
			<path class="st14" d="M514.7,86.2c-1.5-0.2-3.7-1.4-4.8-4c3.4-1.6,3.9-5.4,3.9-5.4c-7.3-2.8-16-22.1-26.5-27.7     c-3.7-2-13.9,0-13.9,0s0-2.2,4.3-5.8c-7.3-0.8-12.8,4.2-12.8,4.2c-1.1-4.8-8.7-9.1-10.8-8.5c4.5,4.1,4.8,7.8,4.8,7.8     c-9.3-6.4-17-5.3-18.1-3.4c5,1,10.4,5.4,10.4,5.4c-6.3-2.4-16.8-1.6-22.9,2.1c-8.4,5.7-20,25.6-28.5,25.2c-1,3.3,7.7,11.8,0.2,13     c1.6,6.7,6.8,12.6,10.2,24c2.1,7,9.5,24.4,9.5,24.4c1.3-4.7-0.2-12.7,0.8-19.8c1.1-7.2,24.3-26.8,24.3-26.8     c-2.4,4.9-12.9,15.1-12.9,15.1c23.2-6.2,38.7-14.1,42.9-21c0,0,1,5.5,3.8,9.8c7.3,11.3,12.7,11.6,12.7,11.6     c-3.8-4.8-4.7-10.6-4.7-10.6c2.2,4.7,7.2,9.2,7.9,11.5c0.6,2.3,0.5,9.8,0,16.9c-0.5,7.1,0.1,13.6,0.1,13.6s3.9-12.6,6.2-20.9     C505.2,101.5,513.6,91.1,514.7,86.2z"/>
			<path class="st15" d="M471.6,54.5c1.7-3.4,5.7-4.9,8.9-6.2c-3.6,0.2-6.9,0.8-6.9,0.8s-3.1,2.7-6,0.2c1.3-1.7,3.9-3.9,5.1-5.6     c-4.5,1.1-7.5,3.8-7.5,3.8c-0.5-2.3-2.5-4.5-4.8-6.1c1.3,2.1,3.4,5.1,3.6,7.5c-5.2-0.5-7.7,1.6-9.8,2.5c4.5-1.1,9.8-1.7,13.4,3     c-3.9-0.7-7.1-1.8-12.9,0.9c5.2-1.3,13.1,1.3,13.1,9.2c1.3-6.6,9.2-9.2,14.4-7.9C479.4,52.9,475,54.1,471.6,54.5z"/>
			<path class="st15" d="M509.9,82.2c1.6-0.8,2.6-2.1,3.2-3.2c-2.9,1.4-6.2,2.1-10.1,1.4c1.3,3.9,3.9,7.9,7.9,9.2     c-6.1,4.9-10.4,20.5-10.5,21c-0.3-4.8-0.1-13.9-3.9-16.8c2,5.2,1.7,9.2,1.3,11.6c-6.6-5.2-11.8-11.8-11.8-19.7     c-2.6,3.9,0,9.2-1.3,13.1c-3.9-7.9-8.7-16.4-7.4-25.6c-6.6,14.4-21.5,25.6-37.2,28.2c3.9-6.6,12.1-17.2,14.8-23.8     c-7.9,13.1-29.2,23.8-35.8,38.2c0-5.3-1.3-9.2,1.3-14.4c-5.2,5.2-3.4,10.3-4.8,15.6c-6.6-7.9-3.8-15.4-3.8-24.6     c-2.6,2.6-3.8,5.7-3.8,8.4c-6.1-10,0.5-13.8,3.1-20.3c-5.4,3.4-8,0.2-10.2-4.2c-0.4,0.1-0.8,0.1-1.1,0.1c-1,3.3,7.7,11.8,0.2,13     c1.6,6.7,6.8,12.6,10.2,24c2.1,7,9.5,24.4,9.5,24.4c1.3-4.7-0.2-12.7,0.8-19.8c1.1-7.2,24.3-26.8,24.3-26.8     c-2.4,4.9-12.9,15.1-12.9,15.1c23.2-6.2,38.7-14.1,42.9-21c0,0,1,5.5,3.8,9.8c7.3,11.3,12.7,11.6,12.7,11.6     c-3.8-4.8-4.7-10.6-4.7-10.6c2.2,4.7,7.2,9.2,7.9,11.5c0.6,2.3,0.5,9.8,0,16.9c-0.5,7.1,0.1,13.6,0.1,13.6s3.9-12.6,6.2-20.9     c4.3-15.7,12.7-26.1,13.8-31C513.2,86,511,84.8,509.9,82.2z"/>
			<g>
				<path class="st16" d="M437.6,57.5c-5.3,3-7.7,7.5-8.1,7.2c-0.1,0,2-5,7.6-8.1c5.5-3.2,10.9-2.8,10.8-2.6      C448,54.3,442.9,54.5,437.6,57.5z"/>
				<path class="st16" d="M440.5,66.4c-6.3,5.5-8.7,12.1-9,11.8c-0.2,0,1.9-6.9,8.3-12.6c6.3-5.8,13.3-7.4,13.3-7.1      C453.3,58.8,446.7,60.8,440.5,66.4z"/>
				<path class="st16" d="M448.9,65.9c-3.7,2.5-5.7,5.3-6,5.2c-0.3-0.1,1.6-3.5,5.4-6c3.6-2.6,7-4.1,7.1-3.8      C455.5,61.5,452.4,63.3,448.9,65.9z"/>
				<path class="st16" d="M458.1,81c-3.6,7-8.7,11-8.8,10.8c-0.2-0.2,4.5-4.4,7.9-11.2c3.6-6.7,4.9-12.9,5.2-12.8      C462.7,67.8,461.7,74.1,458.1,81z"/>
				<path class="st16" d="M481.8,69.3c1.7,4,1.1,7.5,0.9,7.5c-0.4,0-0.3-3.4-1.9-7.1c-1.5-3.8-4-6-3.8-6.2      C477.1,63.2,480.2,65.2,481.8,69.3z"/>
				<path class="st16" d="M488.3,67.5c2.9,5.5,2.6,10.6,2.5,10.6c-0.4,0.1-0.7-4.9-3.4-10.1c-2.7-5.3-7-7.8-6.9-8      C480.6,59.6,485.5,61.9,488.3,67.5z"/>
				<path class="st16" d="M416.1,92.1c-1.3,5.8-1.2,10.7-1.6,10.7c-0.2,0-0.7-4.9,0.6-10.9c1.2-6,3.7-10.3,4-10.1      C419.3,81.9,417.2,86.3,416.1,92.1z"/>
				<path class="st16" d="M490.9,58.3c2.6,3.6,2.4,7.4,2.3,7.3c-0.4,0.1-0.7-3.4-3.1-6.7c-2.3-3.4-5.4-5-5.2-5.3      C485,53.3,488.4,54.6,490.9,58.3z"/>
			</g>
		</g>
	</g>
	<g>
		<path class="st7" d="M459.9,154.4c6.5,1.5,11,3.5,11.2,3.1c0,1-5.4-0.5-11.5-1.9c-6.4-1.3-11,1.7-11,1.7    C448.1,156.8,453,152.9,459.9,154.4z"/>
	</g>
	<g>
		<g>
			<path class="st17" d="M417.1,407.8c0,0-1.9,10.7-2.5,16.4c0,0-8.8-0.6-17.1-5.2c-8.3-4.6-22.7-9-22.7-9s0.7-3.9,2.3-6.5     c0,0-0.6-5.4,0.3-7.8C378.3,393.1,417.1,407.8,417.1,407.8z"/>
			<path class="st18" d="M377,401.1c0.1,1.3,0.2,2.3,0.2,2.3c-0.4,0.6-0.7,1.4-1,2.1c17.5,9.3,25.9,12.6,39.3,12.9     c0.3-1.7,0.5-3.4,0.8-5C403.4,411.4,387.5,408.7,377,401.1z"/>
			<path class="st19" d="M392.6,410.5c8.8,4.4,21.3,3.3,21.2,3.7c0.1,0-12.4,1.5-21.5-3.1c-8.7-4.8-14.5-7-14.4-7.1     C378,403.9,384,405.8,392.6,410.5z"/>
		</g>
		<path class="st20" d="M434.4,278.4c0,0,3.7,22.8,0.5,55.9c-3.1,33.1-10.2,68.7-17.8,73.5c0,0-36-7.1-41.3-11.3    c0,0,0.6-8.4,3.5-15.7c2.9-7.3,2.6-8.7,2.1-16.8c-0.5-8.1-0.5-153-0.5-153s11.5-2.1,18.4-5.5c6.8-3.4,19.9-5.5,19.9-5.5    s0.3,26,2.4,36.5c2.1,10.5,6.6,15.5,8.9,23.1C432.8,267.1,434.4,278.4,434.4,278.4z"/>
		<path class="st17" d="M381.2,355.5c0,4.5,0.1,7.5,0.2,8.4c0.5,7,0.7,8.9-1.1,14c14.8-4.7,38.3-7.4,50.4-12c0.8-4.4,1.5-9,2.1-13.7    C420.3,342.7,401.3,348.4,381.2,355.5z"/>
		<path class="st19" d="M435.4,278.2l-2.1,0.3c0,0.2,3.6,23.1,0.5,55.6c-3.6,37.5-11,68.8-17.4,72.7l-0.5,0.7    c0,0.1-1.9,10.8-2.5,16.5l2.1,0.2c0.5-4.9,2-13.9,2.4-15.9c8-6.1,14.9-42.3,17.9-74C439.1,301.6,435.5,278.5,435.4,278.2z"/>
	</g>
	<g>
		<g>
			<g>
				<path class="st17" d="M469.9,408.5c0,0,0.7,13.5,0.7,19.6c0,0,13.9-1.2,25.2-5.1c10.4-3.6,16.7-4.7,18.7-6.3      c2-1.6-3.6-12-3.5-12.5C511.1,403.7,469.9,408.5,469.9,408.5z"/>
				<path class="st18" d="M514.8,414.3c-0.3-1.4-0.9-3.2-1.6-4.8c-12.5,7.4-28.3,8.3-43.1,4.9c0.1,2,0.2,4.4,0.3,6.6      C485.9,425.4,501.1,420.5,514.8,414.3z"/>
				<path class="st19" d="M468.8,408.6c0,0.1,0.7,13.5,0.7,19.6h2.1c0-6.1-0.7-19.5-0.7-19.7L468.8,408.6z"/>
			</g>
			<g>
				<path class="st19" d="M494.6,418.2c11.2-3.5,18.9-8.1,19.5-6.7c-0.5-1-7.8,3.9-19.3,7.5c-11.8,2.8-23-1.2-22.9-1.2      C471.8,417.4,483.1,420.9,494.6,418.2z"/>
			</g>
		</g>
		<g>
			<path class="st20" d="M520,213.9c0,0,10.1,0.3,20.5,6.7c10.4,6.4,12.1,2,13.8,13.8c1.7,11.8-28.6,65.3-35.4,81.2     c-6.7,15.8-11.5,48.8-9.1,64.7c2.4,15.8,5.4,21.8,2,25.5c-3.4,3.7-15.2,5.8-27.6,6.2c-12.5,0.3-16.5-3-16.5-3s0.8-22.7-2.4-50.2     c-1.3-11.8,0.7-31.3,2.4-47.5c1.7-16.2,5.9-37.3,5.9-37.3s3.9-20.3,15.6-31.4C501.2,231.4,520,213.9,520,213.9z"/>
			<path class="st17" d="M465.1,353.2c0.1,2,0.2,3.9,0.4,5.6c0.4,3.2,0.7,6.3,0.9,9.4c13.2,8,28.7,15.6,43.6,13     c0-0.3-0.1-0.6-0.1-0.9c-0.6-3.8-0.7-8.7-0.5-14.1C494.2,363.3,479.3,358.3,465.1,353.2z"/>
			<path class="st19" d="M466.8,311.2c-1.7,15.9-3.7,35.7-2.4,47.7c3.1,27,2.4,49.8,2.4,50l2.1,1c0-0.2,0.7-24-2.4-51.2     c-1.3-11.8,0.7-31.4,2.4-47.3c1.7-15.9,5.9-37,5.9-37.2l-2.1-0.4C472.7,274,468.5,295.1,466.8,311.2z"/>
		</g>
	</g>
	<g>
		<path class="st6" d="M472.9,323.9c0,0,7.1-1.3,13.1,0.3c6,1.7,10.8,8,10.8,8s2.8,13.6-5.8,14.6    C482.4,347.8,470.3,328.3,472.9,323.9z"/>
	</g>
	<g>
		<g>
			<path class="st19" d="M461.8,324.3c0,0,4.1-3.5,8.7-1.6c0,0,3.8-2.5,5.8,2.1c2.1,4.6,0.2,19.8-3.2,23.5c-3.4,3.8-6.1,1.9-6.1,1.9     s-3,3-9,1.3C452.3,349.9,461.8,324.3,461.8,324.3z"/>
			<g>
				<path class="st21" d="M472.6,336.4c-1.9,7.4-5.2,12.7-5.3,12.6c-0.5-0.2,2.3-5.7,4.1-12.9c2.1-7.4-0.2-13.1-0.4-13      C471.8,322.5,474.7,328.9,472.6,336.4z"/>
			</g>
		</g>
		<path class="st20" d="M380.9,211c0,0-8.1,1.6-10,5c-1.8,3.4-8.7,28.9-8.1,68.7c0.5,39.9,11,86.1,15.2,87.1    c4.2,1,45.7-8.7,60.4-13.6c14.7-5,22.3-6.8,22.3-6.8s11.5-23.9,3.4-27c-8.1-3.1-34.4,3.7-46.7,3.4c-12.3-0.3-17.8-5.5-17.8-5.5    s3.4-3.7-0.5-6.8c0,0-5.8-66.1-16-80.8C383,234.6,386.9,216.8,380.9,211z"/>
		<path class="st22" d="M366.9,297.8c0-5.4-1.5-10-1.5-15.3c-1.3-9.3-1.6-18.4-1.7-27.3c-0.7,8.6-1.1,18.5-1,29.5    c0.5,39.9,11,86.1,15.2,87.1c4.2,1,45.7-8.7,60.4-13.6c1.9-0.6,3.6-1.2,5.2-1.7c-20.8,1-41,3.1-61.3,5.7    C371.5,343,369.2,320,366.9,297.8z"/>
		<path class="st17" d="M382.4,274.5c-6.3,12.6,12.6,31.5-4.2,33.6c14.7,6.3,10.5,14.7,8.4,27.3c27.5,2,53.1-14.4,80.3-4.6    c0.1-3.1-0.6-5.6-2.9-6.5c-8.1-3.1-34.4,3.7-46.7,3.4c-12.3-0.3-17.8-5.5-17.8-5.5s3.4-3.7-0.5-6.8c0,0-1-11-2.8-25.1    C389.2,288.1,383.7,283.1,382.4,274.5z"/>
		<g>
			<g>
				<path class="st19" d="M393.3,274.4c-3.1-22.7-9.6-40.1-10.3-39.8c1.2-0.7,8.4,16.9,11.5,39.6c3.6,22.6,4.8,41.2,4.5,41.2      C398.6,315.4,396.8,297,393.3,274.4z"/>
			</g>
			<g>
				<path class="st19" d="M389.4,301.3c1.9,5.8,5.5,9.8,8.1,12.8c2.5,3.3,2.5,5.9,2.5,5.9c-0.2,0.1-0.5-2.5-3-5.5      c-2.7-2.8-6.6-7-8.4-12.9c-4.2-11.3-6.5-20.9-6.4-20.9C382.5,280.6,385.2,290.1,389.4,301.3z"/>
				<path class="st19" d="M391.1,312.7c5.6,3.7,8.3,8.5,8.2,8.5c-0.2,0.2-3.3-4.3-8.6-7.8c-5.9-2.5-10.5-5.5-10.3-5.8      C380.5,307.5,385,310,391.1,312.7z"/>
			</g>
		</g>
	</g>
	<g>
		<path class="st6" d="M404.3,330.7c2.1-2.5,4.6-5.5,7.3-7.5c2.7-2,5.1-0.4,5.2,1.2c0.2,1.6-3.4,3.8-6,5.6    C406.3,333.1,401.2,334.3,404.3,330.7z"/>
		<path class="st6" d="M398.2,330.1c-1.3,2,0,4,2.3,3.3c2.3-0.7,5.2-3.9,8.4-6.7c3.2-2.8,3.3-4.5,0.4-6.8    C406.4,317.7,401.1,325.6,398.2,330.1z"/>
		<path class="st6" d="M389.7,333.9c0.3,1.9,4.1,2.2,9-3.2c4.9-5.4,8.5-7.5,6.5-9.5c-2-2-4.9-2.6-9,2    C393.4,326.4,389.2,331,389.7,333.9z"/>
		<path class="st6" d="M386.2,330.7c1.2,0.8,3.5,1.3,8.2-3.2c4.8-4.5,8-5.9,6.4-10.8c-1.6-4.9-5.4,0.3-8.5,3.8    C389.1,323.9,384.6,329.5,386.2,330.7z"/>
		<g>
			<path class="st23" d="M394.7,323.8c2.8-3.4,6.5-4.5,6.5-4.3c0.1,0.2-3.2,1.5-5.9,4.8c-2.8,3.2-4.5,6.3-4.6,6.1     C390.5,330.4,391.8,327.1,394.7,323.8z"/>
			<path class="st23" d="M400.4,325.7c2.3-3,4.6-5,4.7-4.9c0.2,0.2-1.8,2.4-4,5.4c-2.4,2.9-3.4,5.6-3.3,5.7     C397.2,331.8,398,328.6,400.4,325.7z"/>
			<path class="st23" d="M406.9,326.9c2.1-2.4,4.3-3.8,4.3-3.7c0.2,0.2-1.7,1.9-3.7,4.2c-2.1,2.3-3.7,4.3-3.9,4.1     C403.5,331.5,404.8,329.3,406.9,326.9z"/>
		</g>
	</g>
	<g>
		<g>
			<path class="st19" d="M519.9,207c-6.3-6.3-13.6-4.7-13.6-4.7c0.5-3.4-8.4-11.3-22-13.9c-2.4-0.5-4.4-0.7-5.9-0.8     c-0.1,2.2,0,4,0.2,5.2c0.5,2.5,3.5,4.1,7.3,5.2c14.8,16,0.9,42.8,0.9,42.8c-10,9.4-13.1,33.1-13.1,33.1     c3.4-15.7,28.1-39.4,37.5-45.7C520.7,222,526.2,213.3,519.9,207z"/>
		</g>
		<g>
			<path class="st24" d="M487.9,190.7c11.5,4.6,19.1,21.4,9.2,32.1c8.5-2,15-10.8,16.4-19.8c-4-1.3-7.2-0.6-7.2-0.6     c0.5-3.4-8.4-11.3-22-13.9c-2.4-0.5-4.4-0.7-5.9-0.8c0,0.3,0,0.6,0,0.9C481.8,187.3,485.1,189.3,487.9,190.7z"/>
			<path class="st24" d="M518.5,211.3c-8,9.4-17.9,17.6-28.9,23.1c-1.4,3.9-2.7,6.5-2.7,6.5c-1.9,1.8-3.5,4-4.9,6.5     c5.7-4.7,12.3-8.7,18.9-13.1C509.3,228.9,515.4,221.3,518.5,211.3z"/>
		</g>
		<g>
			<path class="st21" d="M502.6,229.1c9.9-5,14.5-13,12.7-13.4c2.4,0.3-2.3,9.2-12.2,14.1c-9.5,5.3-16,11.2-16.1,11.1     C486.6,240.7,493,234.4,502.6,229.1z"/>
			<path class="st21" d="M505.9,213.6c-2.3,6.1-7,9-6.9,8.9c-0.3-0.3,4-3.4,6.2-9.2c2.3-5.8,0.9-11,1.2-11     C506.4,202.1,508.3,207.5,505.9,213.6z"/>
		</g>
	</g>
	<g>
		<path class="st20" d="M541.9,237c0,0-7.1,8.1-19.1,19.8c-12,11.7-16.3,25.8-19.8,48.5c-3.5,22.7-10.3,33.3-10.3,33.3    s-13.5-5.3-29-3.9c-15.6,1.4-19.5,21.6-19.5,21.6c13.5,6.4,47.4,16.3,58.4,19.1c11,2.8,18.1-11.3,23-25.1    c5-13.8,18.8-46.7,23.7-69c5-22.3,5-46.8,5-46.8L541.9,237z"/>
		<path class="st22" d="M510.8,364.4c-15.4,2.6-30.8-0.2-46.2-0.3c14.5,4.8,30.9,9.6,38,11.4c11,2.8,18.1-11.3,23-25.1    c4.5-12.6,16.4-41.2,22.2-63C536.9,313.7,526.8,340.5,510.8,364.4z"/>
		<path class="st17" d="M502.2,346.3c0.6-35.6,10.3-73.6,32.8-101.7c-3.1,3.3-7.2,7.5-12.2,12.3c-12,11.7-16.3,25.8-19.8,48.5    c-3.5,22.7-10.3,33.3-10.3,33.3s-13.5-5.3-29-3.9c-15.6,1.4-19.5,21.6-19.5,21.6c2.4,1.1,5.4,2.4,8.8,3.7    C468.8,353.3,484.6,333.2,502.2,346.3z"/>
		<g>
			<path class="st19" d="M508.3,283.1c-4.3,15.3-5.3,30-8.8,40c-3,10.1-6.6,15.7-6.7,15.6c-0.1-0.1,3.1-5.7,5.9-15.8     c3.3-10,4.1-24.6,8.5-40.1c3.9-16.1,15.4-26.6,22.8-33.6c7.4-7.4,11.8-12.2,11.9-12.1c0.1,0.1-4,5.1-11.3,12.7     C523.2,257,512.2,267.2,508.3,283.1z"/>
		</g>
		<g>
			<path class="st19" d="M463,335.3c-17.1,4.2-18.2,22.4-18.8,21c0.2,1.4,0.7-17.2,18.7-21.8c17-1.8,30,4.1,29.8,4.1     C492.8,339,479.7,333.5,463,335.3z"/>
		</g>
	</g>
	<g>
		<g>
			<path class="st19" d="M437.7,194.8c1.2-1.5,1.7-4.7,1.7-8.5c-3.8,0.1-9.8,0.6-13.4,2.6c-5.5,3.1-12.1,3.4-13.9,9.7     c0,0-7.1-1-9.4,3.1c-2.4,4.2-3.1,18.4,2.9,27c6,8.7,25.7,28.9,28.9,49.6c0,0,0-16.8-3.1-22.8c0,0,0.5-7.3-3.7-17.6     c-3.3-8-7-26.4-0.9-35.3c1.4-2.1,6.1-5.5,6.1-5.5C435,196.6,436.8,195.8,437.7,194.8z"/>
		</g>
		<g>
			<path class="st24" d="M430.1,245.9c-0.4-0.4-0.8-0.7-1.2-0.9c-10-10-18.4-20.7-21.4-34.4c0,13,7.7,27.6,16.8,36     c3.3,3.6,6,8,8.2,12.7c-0.4-1.4-0.8-2.7-1.3-3.7C431.2,255.6,431.5,251.8,430.1,245.9z"/>
		</g>
		<g>
			<path class="st24" d="M417.4,202.1c2.1-9.2,12.7-13.1,21.6-10.7c0.3-1.5,0.4-3.2,0.4-5.2c-3.8,0.1-9.8,0.6-13.4,2.6     c-5.5,3.1-12.1,3.4-13.9,9.7c0,0-1.4-0.2-3.2-0.1c0.2,9.9,4.4,20.1,10.1,28.1C416.7,219,415.1,210.6,417.4,202.1z"/>
		</g>
		<g>
			<path class="st21" d="M412.3,211.5c1.8,7,4.9,12.1,4.5,12.3c0,0-3.5-4.9-5.3-12.1c-2-7.3,0.2-13.3,0.5-13.1     C412.1,198.6,410.4,204.5,412.3,211.5z"/>
			<path class="st21" d="M416.3,235.4c-9.7-10.9-10.1-23.3-8.9-23.1c-0.7,0-0.1,11.8,9.5,22.6c9.9,9.9,14.9,20.6,14.4,20.7     C431.3,255.5,426.3,245.4,416.3,235.4z"/>
		</g>
	</g>
	<g>
		<path class="st19" d="M390.4,386.5l-0.2,3.1c0.6,0,15.4,0.8,26.3-13.7l-2.4-1.8C404.2,387.2,390.9,386.6,390.4,386.5z"/>
	</g>
	<g>
		<path class="st19" d="M511,396.2l0.2,3.1c-0.6,0-17.5-2.8-28.4-17.3l2.4-1.8C495.1,393.3,510.4,396.2,511,396.2z"/>
	</g>
</g>
</svg>