<svg xmlns="http://www.w3.org/2000/svg" xmlns:xlink="http://www.w3.org/1999/xlink" version="1.1" id="Layer_1" x="0px" y="0px" viewBox="6.605560302734375 78.83094787597656 382.5095520019531 378.1669921875" style="enable-background:new 0 0 640 480;" xml:space="preserve">
<style type="text/css">
	.st0{fill:#A6730D;}
	.st1{fill:#8C5900;}
	.st2{fill:#723F00;}
	.st3{fill:#653200;}
	.st4{fill:#FF9900;}
	.st5{fill:#C08D27;}
	.st6{fill:#9C3900;}
	.st7{fill:#F0CB99;}
	.st8{fill:#D6B17F;}
	.st9{fill:#582F46;}
	.st10{fill:#C9A472;}
	.st11{fill:#8A7668;}
	.st12{fill:#634F41;}
	.st13{fill:#493527;}
	.st14{fill:#BFB4AC;}
	.st15{fill:#C3B8B2;}
	.st16{fill:#DCD5D2;}
	.st17{fill:#F3F0EF;}
	.st18{fill:#4D6584;}
	.st19{fill:#4B2239;}
	.st20{fill:#31081F;}
	.st21{fill:#A28B98;}
	.st22{fill:#B6530C;}
	.st23{fill:#D87919;}
	.st24{fill:#CB6C0C;}
	.st25{fill:#8A3922;}
	.st26{fill:#A44500;}
	.st27{fill:#D49A70;}
	.st28{fill:#EFCA98;}
	.st29{fill:#EEC897;}
	.st30{fill:#EDC796;}
	.st31{fill:#EBC695;}
	.st32{fill:#EAC494;}
	.st33{fill:#E9C393;}
	.st34{fill:#E8C292;}
	.st35{fill:#E7C091;}
	.st36{fill:#E6BF90;}
	.st37{fill:#E5BE8F;}
	.st38{fill:#E4BC8F;}
	.st39{fill:#E2BB8E;}
	.st40{fill:#E1BA8D;}
	.st41{fill:#E0B88C;}
	.st42{fill:#DFB78B;}
	.st43{fill:#DEB68A;}
	.st44{fill:#DDB489;}
	.st45{fill:#DCB388;}
	.st46{fill:#DBB287;}
	.st47{fill:#D9B086;}
	.st48{fill:#D8AF85;}
	.st49{fill:#D7AE84;}
	.st50{fill:#D6AC83;}
	.st51{fill:#D5AB82;}
	.st52{fill:#D4AA81;}
	.st53{fill:#D3A880;}
	.st54{fill:#D2A77F;}
	.st55{fill:#D0A67E;}
	.st56{fill:#CFA47D;}
	.st57{fill:#CEA37C;}
	.st58{fill:#CDA27B;}
	.st59{fill:#CCA07B;}
	.st60{fill:#CB9F7A;}
	.st61{fill:#CA9E79;}
	.st62{fill:#C99C78;}
	.st63{fill:#C79B77;}
	.st64{fill:#C69A76;}
	.st65{fill:#C59875;}
	.st66{fill:#C49774;}
	.st67{fill:#C39673;}
	.st68{fill:#C29472;}
	.st69{fill:#C19371;}
	.st70{fill:#C09270;}
	.st71{fill:#BE906F;}
	.st72{fill:#BD8F6E;}
	.st73{fill:#BC8E6D;}
	.st74{fill:#BB8C6C;}
	.st75{fill:#BA8B6B;}
	.st76{fill:#B98A6A;}
	.st77{fill:#B88869;}
	.st78{fill:#B78768;}
	.st79{fill:#B58667;}
	.st80{fill:#B48467;}
	.st81{fill:#B38366;}
	.st82{fill:#B28265;}
	.st83{fill:#B18064;}
	.st84{fill:#B07F63;}
	.st85{fill:#AF7E62;}
	.st86{fill:#AE7C61;}
	.st87{fill:#AC7B60;}
	.st88{fill:#AB7A5F;}
	.st89{fill:#AA785E;}
	.st90{fill:#A9775D;}
	.st91{fill:#FFFFFF;}
	.st92{fill:#BEBEBE;}
	.st93{fill:#006077;}
	.st94{fill:#00465D;}
	.st95{fill:#CA9865;}
	.st96{fill:#B17E4B;}
	.st97{fill:#EEC997;}
	.st98{fill:#EDC897;}
	.st99{fill:#ECC796;}
	.st100{fill:#ECC695;}
	.st101{fill:#EBC594;}
	.st102{fill:#E6BF91;}
	.st103{fill:#E5BE90;}
	.st104{fill:#E4BD8F;}
	.st105{fill:#E4BC8E;}
	.st106{fill:#E3BB8E;}
	.st107{fill:#E2BA8D;}
	.st108{fill:#E1B98C;}
	.st109{fill:#E0B88B;}
	.st110{fill:#DDB589;}
	.st111{fill:#DCB488;}
	.st112{fill:#DAB186;}
	.st113{fill:#D9B085;}
	.st114{fill:#D6AD83;}
	.st115{fill:#D4AA82;}
	.st116{fill:#D4A981;}
	.st117{fill:#D1A67F;}
	.st118{fill:#D0A57E;}
	.st119{fill:#CDA27C;}
	.st120{fill:#CDA17B;}
	.st121{fill:#CCA07A;}
	.st122{fill:#C99D78;}
	.st123{fill:#C89C77;}
	.st124{fill:#C59975;}
	.st125{fill:#C59874;}
	.st126{fill:#C39573;}
	.st127{fill:#C09271;}
	.st128{fill:#BF9170;}
	.st129{fill:#BD8E6E;}
	.st130{fill:#BC8D6D;}
	.st131{fill:#B98A6B;}
	.st132{fill:#B8896A;}
	.st133{fill:#B78869;}
	.st134{fill:#B68768;}
	.st135{fill:#B58668;}
	.st136{fill:#B58567;}
	.st137{fill:#B48466;}
	.st138{fill:#B38365;}
	.st139{fill:#AE7D62;}
	.st140{fill:#AD7C61;}
	.st141{fill:#AD7B60;}
	.st142{fill:#AC7A5F;}
	.st143{fill:#AB795F;}
	.st144{fill:#E46666;}
	.st145{fill:#EF7F80;}
	.st146{fill:#BE3F3F;}
	.st147{fill:#F6B8B8;}
	.st148{fill:#4D4F4F;}
	.st149{fill:#333535;}
	.st150{fill:#AFB0B0;}
	.st151{fill:#959696;}
	.st152{fill:#BDC0BE;}
	.st153{fill:#5A5C5C;}
	.st154{fill:#404242;}
	.st155{fill:#3F3F50;}
	.st156{fill:#0A8DA7;}
	.st157{fill:#C3C3C6;}
	.st158{fill:#60606E;}
	.st159{fill:#E5E5E4;}
	.st160{fill:#757583;}
	.st161{fill:#00738D;}
	.st162{fill:#006680;}
	.st163{fill:#005973;}
	.st164{fill:#003F59;}
	.st165{fill:#004C66;}
	.st166{fill:#A0D3DD;}
	.st167{fill:#711920;}
	.st168{fill:#191B1B;}
	.st169{fill:#7E7C7F;}
	.st170{fill:#CD7780;}
	.st171{fill:#B35D66;}
	.st172{fill:#8C363F;}
	.st173{fill:#00253F;}
	.st174{fill:#86B9C3;}
	.st175{fill:#5F929C;}
	.st176{fill:#E3BE8C;}
	.st177{fill:#4A0100;}
	.st178{fill:#6A3615;}
	.st179{fill:#501C00;}
	.st180{fill:#7E350B;}
	.st181{fill:#712800;}
	.st182{fill:#641B00;}
	.st183{fill:#88441D;}
	.st184{fill:#FFAD32;}
	.st185{fill:#E59318;}
	.st186{fill:#B15F00;}
	.st187{fill:#269AB1;}
</style>
<g>
	<g>
		<path class="st0" d="M348.2,186.2c0,0,5.4-2.4,7.1-36.3c1.4-29.1-0.4-36.2-15.2-40.6c-14.7-4.4-22.4-1.9-26.8,1.6    c-4.4,3.6-10.2,12.3-12.5,29.8c-0.9,6.8-2.8,20.5-6.4,33.5c-2.3,8.5-19,35,28.1,38C343,213.5,345.8,197.4,348.2,186.2z"/>
		<path class="st1" d="M317.1,130c-2.1,0.5-5.8,0-7.6-2.2c3.5-0.3,7.7-0.3,9.9-3.4c-4.2,1.3-6.4,3.1-8.9,0.8    c-1.8-2.2,0.6-5.4,2.2-7.3c-3.2,0.9-3.7,3.2-4.5,5.5c-0.3-0.7-0.4-1.5-0.2-2.3c-2,5.7-4.4,11.9-3.1,17.9c0.2-2,0.5-4.7,2.1-6.6    c-0.4,3.4,3.8,2.5,5,4.6c-0.5-2.1-3.6-3.4-3-4.7c1.2,0.5,2.2,1,3.6,1.1c-0.5-1.4-2.8-1.4-2.5-3.5    C311.9,130.7,314.9,131.1,317.1,130z"/>
		<g>
			<path class="st1" d="M322.6,212.3c20.4,1.3,23.2-14.9,25.6-26c0,0,2-0.9,3.9-9.1c-9,4.4-5.6-3.1-5.6-5.7     c10.9-38.1,0.6-31.4,3.9-48.9c0.1-0.9,1.7-1.6,3-2.8c-0.4-1-0.9-1.9-1.4-2.7c-1.8,0.7-3.7,2.1-5.5,3.1c0.2-2,1.3-4.7,0.1-6.9     c0.3,3.5-0.7,3.8-2.9,5.6c-0.8,0.6-2.6,0.1-2.6,0.1c1.6-2,4.5-4.5-2.7-8.4c2.5,2.3,1.5,6.9,0.8,7.5c-5,1.5-6.9-5.5-11.6-6.7     c1.8,2.2,5.6,4.4,3.9,7c-3.4,5.8-7.8,9.7-14.8,11.7c0.7,0.1,2,0.2,2,0.2c1,3.5-3.6,1.7-5.9,3.5c1.4,0.1,4.1,0.4,2.5,2.3     c-0.8,0.6-6.8,2.9-7,4.2c-3.6,9.9-1.5,18.3-6.5,27.8c-1.7,3.3-3.9,9-5.9,9.9c-0.7-4,1.7-13.5,1.5-17.2c-0.9,4.4-1.9,9.1-3.2,13.7     C292.1,182.8,275.4,209.3,322.6,212.3z"/>
		</g>
		<g>
			<path class="st2" d="M322.6,212.3c20.4,1.3,23.2-14.9,25.6-26c0,0,1.5-0.7,3.2-6.2c-1.4,1.7-5.8,4.4-6.8,3.7     c-3.1-3.1,0.6-10,0.3-14.1c-1.9,2.9-4.3,7-4.3,3.1c-5.5,4.5-0.3-4.3,2-6.8c3.6-3,2.3,1.2,2.9,2c3.7-11.1,1.5-19.1-1.2-26.2     c-2.7-6.5-10.6-9.4-16.6-4.5c-5.3,4.9-10.4,1.5-15.7,5.7c-2.3,2.5-4.2,13.4-5.4,18.1c2.2-1.8,4.8-10.1,5.4-9.4     c1.9,4.1,1.6,12.8-3.1,17.6c-1.5,1.6-2.2-3.6-2.5-6.1c-1.2,3-1.3,5.3-2.9,7.1c-8.1,16.6-11.4,10.8-11.6,11.1     C288,192.6,285,209.9,322.6,212.3z"/>
		</g>
		<g>
			<path class="st3" d="M299,184.6c-0.1,0,3.9-9.3,7-21.3c3.2-12,4.5-21.9,4.6-21.9c0.1,0-0.9,10-4.2,22     C303.3,175.4,299.1,184.6,299,184.6z"/>
			<path class="st3" d="M305.9,176.7c-0.2-0.1,4.4-5.3,8.1-13c3.8-7.7,3.6-14.8,3.5-14.7c0.3-0.1,0.8,7.2-3.1,14.9     C310.7,171.7,305.9,176.8,305.9,176.7z"/>
			<path class="st3" d="M327.1,186.9c-0.2-0.1,5.3-5.7,8.8-14.5c3.6-8.8,2.7-16.7,2.7-16.6c0.2-0.1,1.3,7.9-2.3,16.8     C332.8,181.4,327.1,186.9,327.1,186.9z"/>
			<path class="st3" d="M337.6,185.3c-0.1,0,5.4-8.1,8.3-19.6c3-11.5,2.6-21.2,2.7-21.1c0.1-0.1,0.8,9.7-2.3,21.3     C343.5,177.4,337.7,185.4,337.6,185.3z"/>
		</g>
	</g>
	<g>
		<path class="st3" d="M309.4,134.5c0,0.1-0.9-0.3-1.6-1.3c-0.6-1-0.7-2-0.6-2c0.1,0,0.4,0.8,0.9,1.8    C308.7,133.8,309.4,134.3,309.4,134.5z"/>
		<path class="st3" d="M316.2,134.1c0.1,0.1-2.5,0.3-4.9-1.3c-2.4-1.6-3.7-3.6-3.6-3.7c0.1-0.1,1.5,1.8,3.8,3.3    C313.8,134,316.2,134,316.2,134.1z"/>
		<path class="st3" d="M321.5,128.1c0.1-0.1-2.6,2.4-6.7,2.4c-4.2,0-6.8-2.4-6.7-2.4c0-0.1,2.7,2,6.7,2    C318.7,130.1,321.4,127.9,321.5,128.1z"/>
		<path class="st3" d="M322.2,120.6c0-0.1-1.3,3.8-5.6,5.7c-4.3,1.9-8.1,0.1-8,0.1c0-0.2,3.7,1.3,7.8-0.5    C320.5,124.1,322,120.4,322.2,120.6z"/>
	</g>
	<path class="st4" d="M308.3,128.9c-0.7,1.9-1.6,3.3-2.1,3.1c-0.5-0.2-0.4-1.9,0.3-3.9c0.7-1.9,1.6-3.3,2.1-3.1   C309.1,125.2,309,127,308.3,128.9z"/>
	<g>
		<path class="st3" d="M340.4,112.7c-2.8-3.5-6.6-4.3-6.5-4.5c-0.1,0,3.8,0.7,6.7,4.3c1.5,1.7,1.7,4.2,0.5,5.3    c-0.9,1.2-1.7,1.6-1.7,1.6c0,0,0.7-0.6,1.6-1.7C342.1,116.5,341.8,114.4,340.4,112.7z"/>
		<path class="st3" d="M346.7,116.9c0.8-2.9-0.9-5.2-0.7-5.1c-0.1-0.1,1.8,2.1,0.9,5.2c-1.7,2.7-4.5,3-4.4,3.1    C342.4,119.9,345.1,119.4,346.7,116.9z"/>
		<path class="st3" d="M325.3,110.9c-6.8-1.2-11.9,1.8-11.8,1.7c-0.2-0.1,5-3.2,11.9-2c3.5,0.2,6.1,2.4,7.1,4.4    c1.2,1.9,1.5,3.3,1.4,3.3c0,0-0.4-1.3-1.6-3.2C331.3,113.1,328.8,111.1,325.3,110.9z"/>
		<path class="st3" d="M350.6,119.4c1.4-0.5,1.7-1.7,1.8-1.6c0.1-0.1-0.2,1.4-1.7,1.9c-1.4,0.5-2.6,0.4-2.6,0.3    C348.1,119.8,349.3,119.8,350.6,119.4z"/>
	</g>
	<g>
		<path class="st5" d="M334.4,110.8c-4.1-2.3-8.4-2.3-8.3-2.7c-0.1-0.1,4.2-0.7,8.8,1.8c4.9,2.9,4,8.3,3.7,7.9    C338.4,118,338.8,113.3,334.4,110.8z"/>
		<path class="st5" d="M322.5,123.3c-2,3.3-5.4,5.4-8,5.4c-2.6,0.1-4-0.7-4-0.7c0-0.2,1.5,0.3,3.9,0c2.4-0.2,5.3-2.1,7.2-5.2    c2.2-2.9,3.4-5.6,6.4-6.6c3-0.5,3.3,0.3,3.1,0.1c-0.1,0.3-0.7,0-2.9,0.6C326.1,117.5,324.6,120.2,322.5,123.3z"/>
		<path class="st5" d="M345.6,115.2c-0.1,2.6-2.4,3.3-2.3,3.1c-0.2-0.3,1.3-1.3,1.3-3.1c-0.1-1.8-1.1-3.2-0.8-3.4    C343.9,111.6,345.5,112.8,345.6,115.2z"/>
		<path class="st5" d="M299,153.9c-2,7.2-4.4,11.1-4.7,10.9c-0.2-0.1,1.7-4,3.6-11.1c2.2-7,3.6-17.7,3.9-17.7    C302.1,136,301.2,146.8,299,153.9z"/>
		<path class="st5" d="M352.5,165c-0.9,6.7-3.1,10.6-3.4,10.4c-0.1-0.1,1.5-3.9,2.4-10.5c1.3-6.5,1.2-11.8,1.5-11.8    C353.2,153,353.7,158.4,352.5,165z"/>
	</g>
</g>
<path class="st6" d="M284.2,190.6c0,0-13.3,12.7-21.1,22.7l2.8,4.8c0,0,12.7-17.6,20.6-24.1C286.5,194,288.7,188.5,284.2,190.6z"/>
<path class="st7" d="M318.8,153.1c0,0-0.5,8-3.1,12.4c-1.7,2.9-2.9,6.3-5.4,7c-4.8,0.2-8.6-3.1-14.9-0.7c-1.3,0.5-3,2.3-3.7,3.6  c0,0,20.4,23,54.2,12.4c0,0-1.5-2.5-6.2-5.6c-2.3-1.5-9.5-5.5-9.8-8.4c-0.3-3.1,1.6-8.5,5-16.5C334.9,157.1,321.6,145.4,318.8,153.1  z"/>
<path class="st8" d="M319.6,161.8c4.8,2.9,7.9,4.3,11.8,4.3c0.8-2.5,2-5.5,3.5-8.9c0,0-13.4-11.7-16.1-4.1c0,0-0.5,7.9-3,12.4  C317.3,164.1,318.5,162,319.6,161.8z"/>
<g>
	<path class="st9" d="M194.1,361.1c0,0-10.3,1-12,2.6c-1.7,1.6,2.7,15.7,4.4,24.3c1.7,8.6,10.3,17.1,14.3,18c4.7,1.1-2.1-16-1-20.2   C199.7,385.8,201.5,361.8,194.1,361.1z"/>
	<path class="st7" d="M208.4,357.2c-5.7,2.7-13.1,2.8-15.7,4.3c-2.6,1.5-0.1,27,5.6,29.2c2.3,0.9,2.7-17,5.8-19c3.1-2,10.6-5,10.6-5   S212.6,355.2,208.4,357.2z"/>
	<path class="st10" d="M208.4,357.2c-2.8,1.3-6,2-8.8,2.6c-0.9,6.9,3.5,13.7,0.8,20.7c-0.7,2.6-2.2,5.9-4.6,7.4   c0.8,1.4,1.6,2.4,2.5,2.7c2.3,0.9,2.7-17,5.8-19c3.1-2,10.6-5,10.6-5S212.6,355.2,208.4,357.2z"/>
	<path class="st11" d="M249.7,249.8c-6.2,13.1,23.6,59.4,18.1,79.5c0,0-2.6-0.2-3.5,1.1c0,0-5.4,0.7-10.4,2.3   c-14.3,4.6-48.4,23.2-56.3,27.7c0,0,1.7,8.7,8,12.7c0,0,35.2-20.1,64.2-24.8c13.2-2.1,17.3-7.4,20.4-15.6   c3.6-9.6-0.1-68.2-1.5-84.2C288.8,248.6,258.2,232,249.7,249.8z"/>
	<path class="st12" d="M210.4,370.6c10.6-5.6,36.9-18.5,59.5-22.2c9.7-1.5,14.5-4.8,17.5-9.6c-3,2.8-6.5,4.9-10.3,5.9   C253.5,350.8,227.5,354,210.4,370.6z"/>
	<path class="st12" d="M288.8,248.6c0,0-30.5-16.6-39,1.2c-2.2,4.6,0.1,13.3,3.7,23.4c0.3,0.4,0.6,0.8,0.9,1   c-0.2-0.4-0.4-0.8-0.6-1.1c0.2,0.4,0.4,0.8,0.6,1.1c1.5,1.3,3.7,1.5,5.6,2.4c-1.9-0.9-4.1-1-5.6-2.4c6.3,16,35.9,49,37.2,49.8   C292.6,304.5,289.9,261.9,288.8,248.6z"/>
	<g>
		<path class="st13" d="M268.1,331.9c1.7,1.8,1.4,3.9,1.3,3.8c-0.2,0-0.2-1.9-1.7-3.4c-1.5-1.5-3.4-1.6-3.4-1.8    C264.3,330.3,266.4,330.2,268.1,331.9z"/>
		<path class="st13" d="M270.9,330.7c1.3,1.5,1,3.3,0.9,3.2c-0.2,0-0.2-1.5-1.3-2.8c-1.1-1.3-2.7-1.5-2.7-1.6    C267.8,329.3,269.6,329.2,270.9,330.7z"/>
	</g>
	<g>
		<path class="st14" d="M272.6,332.6c4-9.7,1.8-20.4,0.9-29.3c-1.3-9.1-3.1-17.2-4.8-23.9c-3.4-13.5-6.2-21.6-6.1-21.6    c0,0,3,8.1,6.5,21.5c1.7,6.7,3.5,14.8,4.9,23.9c0.7,4.5,1.2,9.4,1.4,14.4c0.1,5,0.2,10.4-2.3,15.3c-1.4,2.5-4.1,3.6-6.4,4.5    c-2.4,0.9-4.9,1.7-7.2,2.4c-4.8,1.5-9.4,2.8-13.7,4.3c-8.7,2.9-16.3,6.1-22.6,9.1c-12.5,6.1-19.5,11.2-19.6,11    c0,0.1,6.9-5.2,19.4-11.3c6.2-3.1,13.9-6.3,22.6-9.3c4.3-1.5,9-2.9,13.7-4.3C263.7,337.5,269.6,336.9,272.6,332.6z"/>
	</g>
	<path class="st15" d="M197.6,360.5c0,0,1.7,8.7,8,12.7c0,0,2.1-1.1,5.7-2.9c-3.8-3.7-6.4-8.1-8.4-13   C200.5,358.8,198.7,359.9,197.6,360.5z"/>
	<path class="st16" d="M204.7,361.1c-2,0.5-4.2,2.1-5.7,3.8c0.5,1.1,1.1,2.4,1.9,3.6c1.8-2.2,3.9-3.3,5.6-4.1   C205.9,363.3,205.3,362.2,204.7,361.1z"/>
	<g>
		<path class="st17" d="M201.8,362.8c-1.5,1.1-2.6,2.2-2.7,2.1c-0.1,0,0.9-1.3,2.5-2.4c1.6-1.1,3.2-1.4,3.2-1.3    C204.8,361.3,203.3,361.8,201.8,362.8z"/>
	</g>
	<g>
		<path class="st17" d="M203.4,365.9c1.6-1.1,3.1-1.7,3.2-1.6c0.1,0.1-1.4,0.8-2.9,1.9c-1.6,1.1-2.6,2.3-2.7,2.2    C200.9,368.5,201.8,367.1,203.4,365.9z"/>
	</g>
</g>
<g>
	<path class="st9" d="M244.1,425.5c0,0-6,8.8-5.9,11.2c0.1,2.4,13.6,8.6,21.3,13.2c7.6,4.6,19.6,3.6,23,1.1c3.9-2.9-13.5-9.3-16-13   C266.5,437.9,249.5,420.1,244.1,425.5z"/>
	<path class="st7" d="M250.5,411.5c-1.6,6.3-6.5,12.2-7,15.3c-0.5,3.1,20.4,18.5,25.7,15.5c2.1-1.2-11.1-13.8-10.6-17.5   c0.5-3.8,5.3-10,5.3-10S251.7,406.9,250.5,411.5z"/>
	<path class="st10" d="M260.9,419.3c1.5-2.5,3.1-4.6,3.1-4.6s-12.3-7.8-13.4-3.2c-0.2,0.6-0.4,1.2-0.6,1.9   C251.6,418.5,256.1,419.8,260.9,419.3z"/>
	<path class="st11" d="M248.5,263.3c1.3,15,49.1,57.7,49.7,76.9c0,0-2.4,1.2-2.5,2.9c0,0-2.2,2.1-5.9,3.8   c-11.8,5.7-36,57.2-40.5,65.4c0,0,5.9,6.9,13.4,7.1c0,0,23.7-40.6,45.3-57.6c10.7-8.4,12.7-14.1,11.2-23   c-1.8-10.5-20.6-67.2-30-80.8C289.2,258.1,246.7,242.8,248.5,263.3z"/>
	<path class="st12" d="M282.3,354.9c3.5-5.6,11.3-10.1,18.8-6c-0.1-3.1-0.2-5.5-3.3-7.2c2.4-0.7,5.5,0.5,6.8,2.9   c0.4-4.5-2.7-7.8-6.9-7.3c0.3,1.1,0.4,2.1,0.4,3c0,0-2.4,1.2-2.5,2.9c0,0-2.2,2.1-5.9,3.8c-5.6,2.7-14,15.7-21.7,29.5   C274.5,371.4,277,362.4,282.3,354.9z"/>
	<path class="st18" d="M252.7,261c-1.4,0-2.8,0.1-4.2,0.1c-0.1,0.7-0.1,1.4,0,2.2c0.4,4,4,10,9.2,17   C261.7,273.2,252.2,264.1,252.7,261z"/>
	<g>
		<path class="st14" d="M256.9,270.4c-2.7-5-5-9.3-4.2-9.5c-0.5,0.2,1.8,4.2,4.6,9.3c1.2,2.6,1.8,5.3,1.5,7.2    c-0.3,1.9-1.1,2.9-1.1,2.9C257.8,280.4,259.8,275.7,256.9,270.4z"/>
	</g>
	<g>
		<path class="st13" d="M299,344.5c1.7,1.5,1.9,3.3,1.9,3.3c-0.2,0.1-0.7-1.6-2.2-2.9c-1.5-1.4-3.3-1.4-3.2-1.6    C295.4,343.2,297.3,343,299,344.5z"/>
		<path class="st13" d="M301.9,340.2c2.1,0.9,2.6,2.8,2.5,2.8c-0.2,0.1-0.8-1.5-2.7-2.3c-1.8-0.7-3.5-0.4-3.5-0.5    C298.1,340.1,299.9,339.5,301.9,340.2z"/>
	</g>
	<g>
		<path class="st14" d="M274.5,376.6c-11.6,19.2-18.6,36.1-18.7,36c-0.2,0,6.6-17,18.2-36.3c5.8-9.6,11.5-18.1,16.2-23.8    c4.5-5.8,8.6-8.3,8.8-8C298,343.3,285.7,357.1,274.5,376.6z"/>
		<path class="st14" d="M283.5,298.1c6.9,10.9,12.4,21.3,15.3,29.3c3,8,3.3,13.3,3.3,13.3c-0.1,0-0.6-5.3-3.6-13.2    c-2.9-7.9-8.5-18.3-15.4-29.2c-6.9-10.9-13.6-20.5-18-27.8c-4.5-7.2-6.1-12.3-6-12.3c0,0,1.7,5,6.3,12.1    C269.9,277.6,276.6,287.2,283.5,298.1z"/>
	</g>
	<path class="st15" d="M249.3,412.3c0,0,5.9,6.9,13.4,7.1c0,0,1.3-2.1,3.4-5.7c-5.1-1.3-9.7-3.9-13.9-7.2   C251,409.2,250,411.2,249.3,412.3z"/>
	<path class="st16" d="M255.8,409.1c-1.4,1.5-2.5,4.1-2.9,6.4c1,0.7,2.2,1.5,3.5,2.2c0.4-2.9,1.6-5.1,2.7-6.7   C257.9,410.4,256.8,409.8,255.8,409.1z"/>
	<g>
		<path class="st17" d="M254.1,412.2c-0.8,1.8-1.1,3.3-1.2,3.3c-0.1,0,0.1-1.6,0.9-3.5c0.8-1.8,2-3,2.1-2.9    C255.9,409.2,254.9,410.4,254.1,412.2z"/>
	</g>
	<g>
		<path class="st17" d="M257.1,414.1c0.8-1.9,1.8-3.2,1.9-3.1c0.1,0.1-0.8,1.4-1.5,3.3c-0.8,1.8-1,3.4-1.2,3.4    C256.3,417.7,256.3,416,257.1,414.1z"/>
	</g>
	<g>
		<path class="st14" d="M267.4,261.9c2.8-2.2,2.4-5.4,2.6-5.3c0.1-0.2,0.7,3.3-2.3,5.6c-2.8,2.2-5.8,2.4-5.8,2.3    C261.8,264.4,264.7,264,267.4,261.9z"/>
		<path class="st14" d="M269,263.1c2.9-3.1,1.9-6.8,2.1-6.7c-0.1-0.2,1.2,3.7-1.8,7c-3,3.1-6.8,2.8-6.7,2.8    C262.5,266,266.2,266.1,269,263.1z"/>
	</g>
</g>
<g>
	<path class="st9" d="M325.7,223.2c0,0,7.1,28.6,14.3,29c7.2,0.4,7.6-16.6,7.6-16.6s-4.6-5.8-3.3-20.2c1.3-14.4,4.2-20.6,2-26.4   C344.1,183.3,324.8,207.9,325.7,223.2z"/>
	<path class="st19" d="M334.2,223c2.3-8.7,3.2-17.3,1.4-25.9c-5.3,7.4-10.4,18.1-10,26.1c0,0,7.1,28.6,14.3,29   c1.3,0.1,2.5-0.5,3.4-1.4C330.9,247.2,331.5,232.8,334.2,223z"/>
	<path class="st19" d="M333.6,223.8c1.3,3,2.7,6.6,7,6.5c-2.4,0.7-3.2,1.4-7.3,2c3.7,0.3,8.7,1.2,12.6,0.1c-0.4-1.1-0.8-2.4-1.2-4.1   C340.8,228.5,336.9,226,333.6,223.8z"/>
	<g>
		<path class="st20" d="M339.7,228.9c2.7,0.7,5.1,0.6,5,0.7c0,0.1-2.3,0.4-5.2-0.3c-2.9-0.7-4.4-2.9-4.1-3    C335.5,226.2,336.9,228.2,339.7,228.9z"/>
	</g>
	<g>
		<g>
			<path class="st7" d="M348.9,226.2c0,0,12.3-9.8,16.1-13c2.6-2.2,4.1-3.4,7.4-3.6c0,0-0.5-2.6,0.7-2.8c1.2-0.2,2.1,0.1,4.1,0.2     c2.1,0.1,3.9-0.1,3.9,0.4c0,0,2.4-0.2,2.5,0.8c0,0,2.8-0.3,2.9,1c0,0,2.4,0.2,2.5,0.9c0.1,0.7-3.5,8.3-4.7,8.8     c-1.2,0.5-14-0.7-15.3,0c-1.4,0.8-12.3,15.4-12.3,15.4S347.3,235.1,348.9,226.2z"/>
			<g>
				<path class="st10" d="M382.7,207.4c0.9,0,1.2,0.9,1.1,0.9c-0.1,0-0.3-0.5-1.1-0.6c-0.7-0.1-1.4-0.1-1.4-0.2      C381.2,207.4,381.9,207.3,382.7,207.4z"/>
			</g>
			<g>
				<path class="st10" d="M385.4,208.2c1.1,0.1,1.4,1.1,1.2,1.1c-0.1,0-0.3-0.7-1.3-0.8c-0.9-0.2-1.6-0.1-1.6-0.2      C383.7,208.2,384.5,208,385.4,208.2z"/>
			</g>
			<g>
				<path class="st10" d="M388,209.4c0.8,0.1,1.2,0.8,1.1,0.8c-0.1,0-0.4-0.4-1.2-0.5c-0.7-0.2-1.3-0.3-1.3-0.4      C386.6,209.2,387.2,209.2,388,209.4z"/>
			</g>
			<g>
				<path class="st10" d="M381.7,219.3c-7-0.3-12.7-0.6-12.7-0.3c-0.1-0.5,5.7-0.4,12.7-0.1c0.9,0,1.8,0,2.5-0.1      c0.6-0.3,1-1.1,1.4-1.7c0.8-1.3,1.4-2.5,1.9-3.5c1-2.1,1.5-3.4,1.5-3.4c0.1,0-0.3,1.4-1.2,3.5c-0.5,1-1.1,2.3-1.9,3.6      c-0.4,0.6-0.7,1.4-1.6,1.9C383.4,219.4,382.6,219.3,381.7,219.3z"/>
			</g>
			<g>
				<path class="st10" d="M375.7,206.7c3,0.2,5.8,0.1,5.5,0.8c0.2-0.4-2.4-0.1-5.6-0.3c-4.1-1.2-3.1,2.8-3.2,2.6      c0,0-0.3-0.6-0.2-1.7C372.1,206.4,374.4,206.5,375.7,206.7z"/>
			</g>
			<g>
				<path class="st10" d="M381.4,211.2c-0.4,2.1-1.4,3.5-1.5,3.4c-0.2-0.1,0.6-1.5,1-3.5c0.4-2,0.2-3.6,0.4-3.6      C381.3,207.4,381.7,209.1,381.4,211.2z"/>
				<path class="st10" d="M384.1,211.7c-0.2,2-1.4,3.2-1.5,3.1c-0.1-0.1,0.7-1.4,0.9-3.2c0.2-1.8,0-3.3,0.2-3.4      C383.9,208.2,384.3,209.8,384.1,211.7z"/>
				<path class="st10" d="M386.4,212.7c-0.5,1.9-1.7,3.1-1.8,3c-0.1-0.1,0.8-1.3,1.3-3.1c0.5-1.8,0.6-3.3,0.8-3.3      C386.8,209.3,386.9,210.8,386.4,212.7z"/>
				<path class="st10" d="M374.6,209.9c1.1,0.2,2.1,0.2,2.1,0.3c0,0.1-1,0.4-2.2,0.2c-1.2-0.2-2.1-0.7-2-0.9      C372.6,209.4,373.5,209.7,374.6,209.9z"/>
			</g>
		</g>
		<g>
			<path class="st9" d="M349.7,225.4c0,0-6,5.9-13.2,7.4l3.5,19.4c6.9,0.5,17-18.3,17-18.3S350,234.1,349.7,225.4z"/>
			<g>
				<path class="st20" d="M343.6,230.1c-3.7,2.2-7.2,2.8-7.2,2.7c0-0.1,3.4-0.9,7-3c3.7-2.1,6.2-4.5,6.3-4.4      C349.8,225.5,347.4,228,343.6,230.1z"/>
			</g>
			<path class="st21" d="M349.7,225.4c0,0-1.8,1.8-4.7,3.7c-0.1,5.4,3.4,9.9,8.5,10.7c2.1-3.2,3.5-5.8,3.5-5.8     S351.3,232.9,349.7,225.4z"/>
		</g>
	</g>
</g>
<g>
	<path class="st9" d="M284.8,199.5c0,0-1.4,14.8-4.4,18.3c-2.9,3.3-5,3.2-4.3,5.4c0,0-17,7.9-23.2,15.7c-6.2,7.8-9.3,12.2-6.1,14.5   c0,0-1.5,1.1-1.1,4.3c0.4,3.3-0.3,7.3,0.8,8.1c2.7,2,17.8-6.8,25.9-6.7c8.2,0.1,17.9,1.6,20.4,5.2c0,0,4.8-7,6.8-9.9   c12.5-18.1,32.6-30.5,35.3-35c3.4-5.7,0.3-16,12.1-27.5c0,0-0.1-4.6-2.3-6.2c0,0-25.4,9.6-51.8-11.2c0,0-1.3,1.6-3,2.9   c-1.1,0.8-2.8,0.9-3,2.2C286.2,183.2,285.2,192.1,284.8,199.5z"/>
	<path class="st19" d="M300.4,249.7c0.6-10.8-1.1-15.5,1.2-29.7c-4.7,14.9-5.8,18-6.7,35c-5.5,0.2-4.6-11.1-9.1-14.6   c-0.5,3.7,0.8,7.3,1.5,11c-2.3,1.7-18.4-2.5-27.6-1.1c-3.7,0.7-7.9,2.1-8.4,5.1c-0.8,4-5.2,6.9-4.3,10.6c3.7,0.9,17.7-7,25.4-6.9   c8.2,0.1,17.9,1.6,20.4,5.2c0,0,4.8-7,6.8-9.9c5.3-7.7,12-14.3,18.1-19.8C312.3,237.7,304.5,244.5,300.4,249.7z"/>
	<g>
		<path class="st20" d="M321.1,231.6c3.3-2.8,6.6-5.4,9.4-7.8c3-2.3,5.3-4.9,5.6-7.8c1.1-5.6,1.8-9,2-9c0,0-0.7,3.4-1.7,9.1    c-0.3,3-2.7,5.8-5.7,8.1c-2.9,2.5-6.1,5-9.4,7.9c-13.5,11.1-21.7,22.7-21.7,22.6C299.5,254.5,307.6,242.7,321.1,231.6z"/>
	</g>
	<path class="st19" d="M286.5,202.2c1.8-1.9,8.4,1.1,12-0.3c-3.7,0.7-6-3.3-9.1-4.4c3.1-0.1,5.5-0.2,7.9-2.1   c-4.3,1.1-8.2,0.2-12.2-0.6c-0.1,1.6-0.2,3.1-0.3,4.6c0,0-0.6,6.4-1.9,11.8C284.2,207.5,284.1,204.4,286.5,202.2z"/>
	<path class="st19" d="M285.3,224.5c-3.2-3-3.8-6.9-3-10.8c-0.5,1.7-1.1,3.2-1.9,4c-2.9,3.3-5,3.2-4.3,5.4c0,0-12.1,5.6-19.6,12.1   C265.7,229.9,274.9,223.9,285.3,224.5z"/>
	<g>
		<g>
			<path class="st20" d="M298.7,238.3c0,8.9-1.8,15.9-2.1,15.8c0.1,0,1.8-6.9,1.8-15.8c0.2-8.9,2.4-15.8,2.5-15.8     C301,222.5,298.9,229.4,298.7,238.3z"/>
			<path class="st20" d="M290.3,253.4c2.5,5.8,2.8,11,2.6,11c-0.1,0-0.5-5-3-10.8c-2.4-5.8-3.7-10.7-3.5-10.7     C286.4,242.9,287.9,247.7,290.3,253.4z"/>
		</g>
	</g>
	<g>
		<path class="st21" d="M246.8,253.5c0,0-1.5,1.1-1.1,4.3c0.4,3.3-0.3,7.3,0.8,8.1c2.7,2,17.7-5.7,25.8-5.6c8.2,0.1,18,0.5,20.6,4.1    c0,0,2.2-2.3,3.1-4.9C278.5,249.2,254.4,249.1,246.8,253.5z"/>
	</g>
	<g>
		<path class="st21" d="M344.7,186c0,0-25.1,8.2-52.4-11.6c0,0-1.9,1.7-4.3,3.2c10.9,11,35.2,22.3,58.8,13    C346.6,189.1,346.1,186.9,344.7,186z"/>
	</g>
	<g>
		<path class="st20" d="M289.7,198.3c2.5,1.1,4.1,2.7,4,2.7c-0.1,0.1-1.8-1.2-4.2-2.2c-2.4-1.1-4.4-1.8-4.4-1.9    C285.1,196.8,287.2,197.2,289.7,198.3z"/>
	</g>
</g>
<g>
	<path class="st20" d="M268.4,195.3c3.6-4.2,5.6-8.2,5.7-8.2c0.1,0-1.8,4.2-5.4,8.4c-3.6,4.3-7.7,6.4-7.8,6.3   C260.9,201.8,264.8,199.6,268.4,195.3z"/>
</g>
<g>
	<path class="st9" d="M288.6,177.2c-8.9,4.8-23.9,8.2-23.9,8.2l-8.1,16.6c11.2-3.5,37.8-5.8,37.8-5.8l-1.7-14.4   C291.1,180.4,289.8,178.8,288.6,177.2z"/>
	<path class="st19" d="M267.9,196.2c8.3-1.9,10.9-11.9,17.2-17.3c-6.6,2.9-14.8,5.1-18.5,6C268.8,188.3,270.1,192.2,267.9,196.2z"/>
	<g>
		<path class="st20" d="M275.3,198.1c10.5-1.4,19-2.1,19-1.9c0,0.1-8.5,0.9-19,2.4c-10.5,1.3-18.8,3.4-18.8,3.4    C256.5,201.7,264.8,199.4,275.3,198.1z"/>
	</g>
	<g>
		<path class="st7" d="M263,181.4c0,0,16.2-10.9,17.8-14.2c1.7-3.2-1.2-13.5-0.3-15.4c0.9-1.9,7.4-5.5,8.3-5.5    c0.8,0,2.3,3.1,2.3,3.1s1.6,0.1,1.8,0.5c0.2,0.4,0.2,2.7,0.2,2.7s0.5,0.7,0,1.9c0,0,0.9,1.2-0.3,3.7c-1.2,2.6-1.3,5.2-2.7,4.3    c0,0,0.2,4.6-1.1,6.1c-4.1,5.1-13.1,16.1-15.3,18.9C273.7,187.7,259.4,192.5,263,181.4z"/>
		<g>
			<path class="st10" d="M290,160.4c0,1.3,0.4,2.2,0.3,2.3c-0.1,0.1-0.7-0.9-0.8-2.2c-0.1-1.3,0.1-2.4,0.2-2.3     C289.9,158.1,289.9,159.1,290,160.4z"/>
			<path class="st10" d="M289,154.6c1.2-0.4,2.3-0.9,3.2-0.6c0.8,0.3,1.1,0.7,1.1,0.8c0-0.1-1.8-1.1-4.2,0.2     c-2.3,0.9-4.2,1.6-4.3,1.5C284.8,156.4,286.6,155.5,289,154.6z"/>
			<path class="st10" d="M288.5,152.1c2.6-0.4,4.8,0.1,4.6,0.4c0-0.1-2-0.4-4.6,0c-2.5,0.3-4.6,0.7-4.6,0.6     C283.9,153,285.9,152.4,288.5,152.1z"/>
			<path class="st10" d="M287.2,149.7c2.2-0.6,4.1-0.3,4.1-0.2c0,0.1-1.8,0-4,0.6c-2.2,0.5-3.9,1-4,0.9     C283.2,150.9,284.9,150.2,287.2,149.7z"/>
		</g>
	</g>
	<path class="st9" d="M249.3,190.7c-1.3,3.3-1.8,9.5,0.6,11.9c1.2,1.2,6.1,1.9,11-0.7c5.1-2.7,10.2-8.9,13.1-14.7   c0,0-11.3,1.6-10.6-6.3C260.6,183.2,250.8,186.9,249.3,190.7z"/>
	<path class="st21" d="M262.3,190.3c2.8,1.4,6.3,1.2,9.5,0.6c0.8-1.3,1.6-2.6,2.2-3.8c0,0-9.9,1.2-10.6-6.3c-0.6,0.5-1.5,1-2.5,1.6   C259.7,186,259.9,189.1,262.3,190.3z"/>
</g>
<g>
	<g>
		<path class="st22" d="M272.6,222c3.3,5.8,6.5,9.1,5.8,16.7c-0.7,7.6-5.3,21.4-12.4,32.7c-6.3,10-19.1,8.2-24.6,2.4    c-5.5-5.8-7.6-27.4-3.5-37.3c4-9.9,25.4-27.2,28.2-26C269,211.7,267.8,213.7,272.6,222z"/>
		<path class="st6" d="M273.1,236c-0.9,1.9-2.6,2.9-3.7,3.9c1,2.5,2.1,4.8,5.6,3.7c0.8-0.8,1.3-1.3,2.1-2.3    C279.3,238,275.9,236.4,273.1,236z"/>
		<path class="st6" d="M258.8,274.2c-11.1,7.9-19-2.2-22.1-12.2c1,5.2,2.5,9.6,4.6,11.8c5.5,5.8,18.3,7.7,24.6-2.4    c7.1-11.3,11.7-25.2,12.4-32.7c0-0.4,0.1-0.8,0.1-1.2C272.4,250.7,271.3,266,258.8,274.2z"/>
		<path class="st6" d="M272.6,222c-4.8-8.3-3.6-10.3-6.5-11.4c-2.9-1.2-24.2,16.1-28.2,26c-2.8,6.9-2.6,19.7-0.3,28.7    c3.2,1.3,6.9,1.1,11.2-0.4c13.2-5.5,11.3-17.7,22.3-26.2c1.7-0.9,6.3-2.2,7.5-2C278.4,230.5,275.6,227.3,272.6,222z"/>
		<path class="st23" d="M268,238.1c2.8-2.9,6.5-3.2,10.4-2.5c-0.3-5.5-3-8.6-5.8-13.6c-4.8-8.3-3.6-10.3-6.5-11.4    c-2.9-1.2-24.2,16.1-28.2,26c-2.7,6.7-2.6,18.7-0.6,27.6C251.9,266.2,259.5,249.9,268,238.1z"/>
		<path class="st24" d="M272.1,221.2c-3.3-0.9-5.8-2.1-6.8-6.6c-0.9,3.1,1.2,6.1,2.2,7.1c4.7,2.2,7.1,6.8,10.3,10.6    c-1-3.7-3.1-6.5-5.3-10.4C272.4,221.7,272.3,221.5,272.1,221.2z"/>
		<path class="st24" d="M260.5,228.6c-3.7,2.4-7.9,2.1-11.3-0.7c1.6,4.2,7.9,4.8,10.7,3.1C260.1,230.2,260.2,229.4,260.5,228.6z"/>
		<g>
			<g>
				<path class="st25" d="M255.7,255.5c-3.2,4-6.9,7.2-10.2,8.1c-3.4,1-5.4,0.6-5.3,0.7c0-0.2,2,0.1,5.3-1c3.2-1,6.8-4.1,10.1-8.1      c6.4-8,11.3-15.6,11.4-15.5C266.8,239.7,262.1,247.4,255.7,255.5z"/>
				<path class="st26" d="M256.6,230.6c-3,0.7-5.3-0.6-5.3-0.6c0-0.2,2.3,1,5.2,0.3c2.9-0.6,4.7-2.4,4.7-2.3      C261.3,228,259.5,230,256.6,230.6z"/>
			</g>
		</g>
	</g>
	<path class="st22" d="M305.7,171.8c0,0-10.6,39.8-35.3,68.5c0,0,1.1,4.1,4.8,2.2c0,0,21.5-22.9,35.3-70.3   C310.5,172.3,307.9,170.2,305.7,171.8z"/>
	<path class="st27" d="M274.5,235.3c1.4,1.2,2.8,2.3,4.5,2.6c0.9-1.2,2-2.7,3.2-4.4c-1.8-0.2-3.4-0.6-5.1-1.8   C276.3,232.9,275.5,234.1,274.5,235.3z"/>
</g>
<g>
	<g>
		<path class="st7" d="M354.7,138.4c-0.1-2.8-0.4-15.2-3.3-17.2c-2.9-2-5,1.1-18.8-3.3c-6-1.9-11.4,11.2-14.1,15.9    c-2,3.6-5,4.8-5.7,5.5c-3-2.9-6.5-0.8-6.6,2.3c-0.1,3,1.3,7.9,6.6,7c0.6,2.6,4.5,7.7,6.1,9.2c5.4,5.5,12.2,8.1,18.2,8.1    c6.1,0,12.9-8,15.3-15.2C354.1,145.3,354.7,140.1,354.7,138.4z"/>
		<g>
			<path class="st3" d="M353.2,135.1c0,0-2-0.9-3.5-0.6c-1.2,0.3-3.3,1-3.3,0.3C346.3,134,350.9,132.2,353.2,135.1z"/>
			<g>
				<g>
					<path class="st7" d="M351.6,139.7c0,0,0.3-2.2-2.1-2.1c-3,0.1-4.4,3.5-4.8,5.9C344.7,143.5,351.9,145.2,351.6,139.7z"/>
					<path class="st28" d="M351.6,139.7c0,0,0.3-2.2-2.1-2.1c-3,0.1-4.4,3.4-4.7,5.8C344.7,143.5,351.9,145.2,351.6,139.7z"/>
					<path class="st29" d="M351.6,139.8c0,0,0.3-2.2-2.1-2.1c-3,0.1-4.4,3.4-4.7,5.8C344.7,143.5,351.9,145.1,351.6,139.8z"/>
					<path class="st30" d="M351.5,139.8c0,0,0.3-2.1-2.1-2c-3,0.1-4.3,3.4-4.7,5.7C344.7,143.4,351.9,145.1,351.5,139.8z"/>
					<path class="st31" d="M351.5,139.8c0,0,0.3-2.1-2.1-2c-2.9,0.1-4.3,3.3-4.6,5.7C344.8,143.4,351.9,145,351.5,139.8z"/>
					<path class="st32" d="M351.5,139.8c0,0,0.3-2.1-2.1-2c-2.9,0.1-4.3,3.3-4.6,5.6C344.8,143.4,351.9,145,351.5,139.8z"/>
					<path class="st33" d="M351.5,139.8c0,0,0.3-2.1-2.1-2c-2.9,0.1-4.3,3.3-4.6,5.6C344.8,143.3,351.8,144.9,351.5,139.8z"/>
					<path class="st34" d="M351.5,139.8c0,0,0.3-2.1-2.1-2c-2.9,0.1-4.2,3.2-4.6,5.5C344.8,143.3,351.8,144.9,351.5,139.8z"/>
					<path class="st35" d="M351.5,139.8c0,0,0.3-2-2.1-1.9c-2.8,0.1-4.2,3.2-4.5,5.4C344.8,143.3,351.8,144.8,351.5,139.8z"/>
					<path class="st36" d="M351.4,139.8c0,0,0.2-2-2.1-1.9c-2.8,0.1-4.2,3.2-4.5,5.4C344.9,143.2,351.8,144.8,351.4,139.8z"/>
					<path class="st37" d="M351.4,139.8c0,0,0.2-2-2.1-1.9c-2.8,0.1-4.2,3.1-4.5,5.3C344.9,143.2,351.8,144.7,351.4,139.8z"/>
					<path class="st38" d="M351.4,139.8c0,0,0.2-2-2.1-1.9c-2.7,0.1-4.1,3.1-4.4,5.3C344.9,143.2,351.7,144.7,351.4,139.8z"/>
					<path class="st39" d="M351.4,139.8c0,0,0.2-1.9-2-1.9c-2.7,0.1-4.1,3.1-4.4,5.2C344.9,143.1,351.7,144.6,351.4,139.8z"/>
					<path class="st40" d="M351.4,139.8c0,0,0.2-1.9-2-1.8c-2.7,0.1-4.1,3-4.4,5.2C344.9,143.1,351.7,144.6,351.4,139.8z"/>
					<path class="st41" d="M351.4,139.8c0,0,0.2-1.9-2-1.8c-2.7,0.1-4.1,3-4.4,5.1C345,143.1,351.7,144.5,351.4,139.8z"/>
					<path class="st42" d="M351.3,139.8c0,0,0.2-1.9-2-1.8c-2.6,0.1-4,3-4.3,5C345,143,351.7,144.5,351.3,139.8z"/>
					<path class="st43" d="M351.3,139.8c0,0,0.2-1.9-2-1.8c-2.6,0.1-4,2.9-4.3,5C345,143,351.7,144.4,351.3,139.8z"/>
					<path class="st44" d="M351.3,139.8c0,0,0.1-1.8-2-1.7c-2.6,0.1-4,2.9-4.3,4.9C345,143,351.6,144.4,351.3,139.8z"/>
					<path class="st45" d="M351.3,139.8c0,0,0.1-1.8-2-1.7c-2.5,0.1-4,2.9-4.2,4.9C345,142.9,351.6,144.4,351.3,139.8z"/>
					<path class="st46" d="M351.3,139.8c0,0,0.1-1.8-2-1.7c-2.5,0.1-3.9,2.8-4.2,4.8C345.1,142.9,351.6,144.3,351.3,139.8z"/>
					<path class="st47" d="M351.3,139.8c0,0,0.1-1.8-2-1.7c-2.5,0.1-3.9,2.8-4.2,4.8C345.1,142.9,351.6,144.3,351.3,139.8z"/>
					<path class="st48" d="M351.2,139.8c0,0,0.1-1.7-2-1.7c-2.5,0.1-3.9,2.8-4.2,4.7C345.1,142.8,351.6,144.2,351.2,139.8z"/>
					<path class="st49" d="M351.2,139.8c0,0,0.1-1.7-2-1.6c-2.4,0.1-3.9,2.7-4.1,4.6C345.1,142.8,351.6,144.2,351.2,139.8z"/>
					<path class="st50" d="M351.2,139.8c0,0,0.1-1.7-2-1.6c-2.4,0.1-3.8,2.7-4.1,4.6C345.1,142.8,351.5,144.1,351.2,139.8z"/>
					<path class="st51" d="M351.2,139.8c0,0,0.1-1.7-2-1.6c-2.4,0.1-3.8,2.7-4.1,4.5C345.2,142.7,351.5,144.1,351.2,139.8z"/>
					<path class="st52" d="M351.2,139.8c0,0,0.1-1.7-2-1.6c-2.4,0.1-3.8,2.6-4,4.5C345.2,142.7,351.5,144,351.2,139.8z"/>
					<path class="st53" d="M351.2,139.8c0,0,0-1.6-1.9-1.6c-2.3,0.1-3.8,2.6-4,4.4C345.2,142.7,351.5,144,351.2,139.8z"/>
					<path class="st54" d="M351.1,139.8c0,0,0-1.6-1.9-1.5c-2.3,0.1-3.7,2.6-4,4.4C345.2,142.6,351.5,143.9,351.1,139.8z"/>
					<path class="st55" d="M351.1,139.8c0,0,0-1.6-1.9-1.5c-2.3,0.1-3.7,2.5-4,4.3C345.2,142.6,351.4,143.9,351.1,139.8z"/>
					<path class="st56" d="M351.1,139.8c0,0,0-1.6-1.9-1.5c-2.2,0.1-3.7,2.5-3.9,4.2C345.2,142.6,351.4,143.8,351.1,139.8z"/>
					<path class="st57" d="M351.1,139.8c0,0,0-1.5-1.9-1.5c-2.2,0.1-3.7,2.5-3.9,4.2C345.3,142.5,351.4,143.8,351.1,139.8z"/>
					<path class="st58" d="M351.1,139.8c0,0,0-1.5-1.9-1.5c-2.2,0.1-3.6,2.4-3.9,4.1C345.3,142.5,351.4,143.7,351.1,139.8z"/>
					<path class="st59" d="M351.1,139.8c0,0,0-1.5-1.9-1.4c-2.2,0.1-3.6,2.4-3.8,4.1C345.3,142.5,351.4,143.7,351.1,139.8z"/>
					<path class="st60" d="M351,139.8c0,0,0-1.5-1.9-1.4c-2.1,0.1-3.6,2.4-3.8,4C345.3,142.4,351.4,143.6,351,139.8z"/>
					<path class="st61" d="M351,139.8c0,0-0.1-1.5-1.9-1.4c-2.1,0.1-3.6,2.3-3.8,4C345.3,142.4,351.3,143.6,351,139.8z"/>
					<path class="st62" d="M351,139.8c0,0-0.1-1.4-1.9-1.4c-2.1,0.1-3.5,2.3-3.7,3.9C345.4,142.4,351.3,143.5,351,139.8z"/>
					<path class="st63" d="M351,139.8c0,0-0.1-1.4-1.9-1.3c-2,0.1-3.5,2.3-3.7,3.8C345.4,142.3,351.3,143.5,351,139.8z"/>
					<path class="st64" d="M351,139.9c0,0-0.1-1.4-1.9-1.3c-2,0.1-3.5,2.2-3.7,3.8C345.4,142.3,351.3,143.4,351,139.9z"/>
					<path class="st65" d="M351,139.9c0,0-0.1-1.4-1.9-1.3c-2,0.1-3.4,2.2-3.7,3.7C345.4,142.3,351.3,143.4,351,139.9z"/>
					<path class="st66" d="M350.9,139.9c0,0-0.1-1.4-1.9-1.3c-2,0.1-3.4,2.1-3.6,3.7C345.4,142.2,351.2,143.3,350.9,139.9z"/>
					<path class="st67" d="M350.9,139.9c0,0-0.1-1.3-1.9-1.3c-1.9,0.1-3.4,2.1-3.6,3.6C345.5,142.2,351.2,143.3,350.9,139.9z"/>
					<path class="st68" d="M350.9,139.9c0,0-0.1-1.3-1.8-1.2c-1.9,0.1-3.4,2.1-3.6,3.6C345.5,142.2,351.2,143.2,350.9,139.9z"/>
					<path class="st69" d="M350.9,139.9c0,0-0.1-1.3-1.8-1.2c-1.9,0.1-3.3,2-3.5,3.5C345.5,142.1,351.2,143.2,350.9,139.9z"/>
					<path class="st70" d="M350.9,139.9c0,0-0.2-1.3-1.8-1.2c-1.9,0.1-3.3,2-3.5,3.4C345.5,142.1,351.2,143.1,350.9,139.9z"/>
					<path class="st71" d="M350.8,139.9c0,0-0.2-1.2-1.8-1.2c-1.8,0.1-3.3,2-3.5,3.4C345.5,142.1,351.2,143.1,350.8,139.9z"/>
					<path class="st72" d="M350.8,139.9c0,0-0.2-1.2-1.8-1.2c-1.8,0.1-3.3,1.9-3.5,3.3C345.6,142,351.1,143,350.8,139.9z"/>
					<path class="st73" d="M350.8,139.9c0,0-0.2-1.2-1.8-1.1c-1.8,0.1-3.2,1.9-3.4,3.3C345.6,142,351.1,143,350.8,139.9z"/>
					<path class="st74" d="M350.8,139.9c0,0-0.2-1.2-1.8-1.1c-1.7,0.1-3.2,1.9-3.4,3.2C345.6,142,351.1,142.9,350.8,139.9z"/>
					<path class="st75" d="M350.8,139.9c0,0-0.2-1.2-1.8-1.1c-1.7,0.1-3.2,1.8-3.4,3.2C345.6,141.9,351.1,142.9,350.8,139.9z"/>
					<path class="st76" d="M350.8,139.9c0,0-0.2-1.1-1.8-1.1c-1.7,0.1-3.2,1.8-3.3,3.1C345.6,141.9,351.1,142.8,350.8,139.9z"/>
					<path class="st77" d="M350.7,139.9c0,0-0.2-1.1-1.8-1.1c-1.7,0.1-3.1,1.8-3.3,3C345.7,141.9,351.1,142.8,350.7,139.9z"/>
					<path class="st78" d="M350.7,139.9c0,0-0.3-1.1-1.8-1c-1.6,0.1-3.1,1.7-3.3,3C345.7,141.8,351,142.7,350.7,139.9z"/>
					<path class="st79" d="M350.7,139.9c0,0-0.3-1.1-1.8-1c-1.6,0.1-3.1,1.7-3.3,2.9C345.7,141.8,351,142.7,350.7,139.9z"/>
					<path class="st80" d="M350.7,139.9c0,0-0.3-1-1.8-1c-1.6,0.1-3.1,1.7-3.2,2.9C345.7,141.8,351,142.6,350.7,139.9z"/>
					<path class="st81" d="M350.7,139.9c0,0-0.3-1-1.8-1c-1.5,0.1-3,1.6-3.2,2.8C345.7,141.7,351,142.6,350.7,139.9z"/>
					<path class="st82" d="M350.7,139.9c0,0-0.3-1-1.7-0.9c-1.5,0.1-3,1.6-3.2,2.7C345.8,141.7,351,142.5,350.7,139.9z"/>
					<path class="st83" d="M350.6,139.9c0,0-0.3-1-1.7-0.9c-1.5,0-3,1.6-3.1,2.7C345.8,141.7,350.9,142.5,350.6,139.9z"/>
					<path class="st84" d="M350.6,139.9c0,0-0.3-1-1.7-0.9c-1.5,0-3,1.5-3.1,2.6C345.8,141.6,350.9,142.4,350.6,139.9z"/>
					<path class="st85" d="M350.6,139.9c0,0-0.3-0.9-1.7-0.9c-1.4,0-2.9,1.5-3.1,2.6C345.8,141.6,350.9,142.4,350.6,139.9z"/>
					<path class="st86" d="M350.6,139.9c0,0-0.3-0.9-1.7-0.9c-1.4,0-2.9,1.5-3.1,2.5C345.8,141.6,350.9,142.3,350.6,139.9z"/>
					<path class="st87" d="M350.6,139.9c0,0-0.4-0.9-1.7-0.8c-1.4,0-2.9,1.4-3,2.5C345.8,141.5,350.9,142.3,350.6,139.9z"/>
					<path class="st88" d="M350.6,139.9c0,0-0.4-0.9-1.7-0.8c-1.3,0-2.9,1.4-3,2.4C345.9,141.5,350.9,142.2,350.6,139.9z"/>
					<path class="st89" d="M350.5,139.9c0,0-0.4-0.8-1.7-0.8c-1.3,0-2.8,1.4-3,2.3C345.9,141.5,350.8,142.2,350.5,139.9z"/>
					<path class="st90" d="M350.5,139.9c0,0-0.4-0.8-1.7-0.8c-1.3,0-2.8,1.3-2.9,2.3C345.9,141.4,350.8,142.1,350.5,139.9z"/>
				</g>
				<g>
					<path class="st91" d="M351.2,140.1c0,0,0.2,0.5,0.4,1.6c0.1,1.1,0.2,1.8-0.2,3.5c0,0-3.5,2.5-6.7-0.1       C344.6,145.1,343.8,139.3,351.2,140.1z"/>
					<path class="st92" d="M351.2,140.1c0,0,0.2,0.5,0.4,1.6c0,0.1,0,0.1,0,0.2c-2.5-1.7-4.8-0.2-6.8,1.4       C345.1,141.7,346.5,139.6,351.2,140.1z"/>
					<path class="st93" d="M346.6,142.8c-0.2,1.5,0.6,3,2,3.1c1.3,0.2,2.6-0.9,2.9-2.4c0.2-1.5-0.6-3-2-3.2       C348.1,140.2,346.9,141.2,346.6,142.8z"/>
					<path class="st94" d="M349.5,140.4c-1-0.2-2,0.5-2.5,1.5c1.3-0.7,2.8-1,4.2-0.2C350.8,141,350.2,140.5,349.5,140.4z"/>
					<path d="M347.8,143.1c-0.1,0.7,0.3,1.4,1,1.5c0.7,0.1,1.3-0.4,1.4-1.2c0.1-0.7-0.3-1.4-1-1.5       C348.5,141.8,347.9,142.3,347.8,143.1z"/>
					<path class="st91" d="M347.4,142.3c-0.1,0.4,0.2,0.9,0.6,0.9c0.4,0.1,0.8-0.3,0.9-0.7c0.1-0.4-0.2-0.9-0.6-0.9       C347.9,141.6,347.5,141.9,347.4,142.3z"/>
					<path d="M351.6,139.7c0,0,0.2,1.7,1.4,2.1c0,0-1.1,0.2-1.7-1c0,0-4.8-2.3-6.6,2.7C344.7,143.5,345.3,138.2,351.6,139.7z"/>
				</g>
			</g>
			<g>
				<path class="st95" d="M342.9,151.7c-0.7-0.9-1.7-2.6-1.7-5.8c0,0-1.1,2.4,1.1,6.4l-1.5,1l2.2-0.7      C343,152.5,343.2,152.1,342.9,151.7z"/>
				<path class="st96" d="M340.3,152.9c0,0-0.9-1-1.5-0.6C338.2,152.7,340.3,152.9,340.3,152.9z"/>
			</g>
			<g>
				<g>
					<path class="st7" d="M333.9,137.4c0,0,0.2-2.4-2.9-2.2c-3.8,0.2-6.1,2.8-5.5,6.3C325.6,141.6,334.8,143.2,333.9,137.4z"/>
					<path class="st28" d="M333.9,137.4c0,0,0.2-2.4-2.9-2.2c-3.8,0.2-6,2.7-5.4,6.3C325.6,141.5,334.8,143.1,333.9,137.4z"/>
					<path class="st97" d="M333.8,137.5c0,0,0.2-2.3-2.8-2.2c-3.8,0.2-6,2.7-5.4,6.2C325.6,141.5,334.8,143.1,333.8,137.5z"/>
					<path class="st98" d="M333.8,137.5c0,0,0.2-2.3-2.8-2.1c-3.7,0.2-6,2.7-5.4,6.2C325.6,141.5,334.8,143,333.8,137.5z"/>
					<path class="st99" d="M333.8,137.5c0,0,0.2-2.3-2.8-2.1c-3.7,0.2-5.9,2.7-5.4,6.1C325.6,141.5,334.7,143,333.8,137.5z"/>
					<path class="st100" d="M333.8,137.5c0,0,0.2-2.3-2.8-2.1c-3.7,0.2-5.9,2.7-5.3,6.1C325.6,141.4,334.7,143,333.8,137.5z"/>
					<path class="st101" d="M333.8,137.5c0,0,0.2-2.3-2.8-2.1c-3.7,0.2-5.9,2.7-5.3,6C325.7,141.4,334.7,142.9,333.8,137.5z"/>
					<path class="st32" d="M333.8,137.5c0,0,0.2-2.2-2.8-2.1c-3.6,0.2-5.8,2.7-5.3,6C325.7,141.4,334.7,142.9,333.8,137.5z"/>
					<path class="st33" d="M333.7,137.5c0,0,0.2-2.2-2.8-2.1c-3.6,0.2-5.8,2.6-5.3,5.9C325.7,141.4,334.6,142.8,333.7,137.5z"/>
					<path class="st34" d="M333.7,137.5c0,0,0.1-2.2-2.8-2c-3.6,0.2-5.8,2.6-5.2,5.9C325.7,141.3,334.6,142.8,333.7,137.5z"/>
					<path class="st35" d="M333.7,137.5c0,0,0.1-2.2-2.8-2c-3.5,0.2-5.7,2.6-5.2,5.8C325.7,141.3,334.6,142.8,333.7,137.5z"/>
					<path class="st102" d="M333.7,137.5c0,0,0.1-2.2-2.8-2c-3.5,0.2-5.7,2.6-5.2,5.8C325.7,141.3,334.6,142.7,333.7,137.5z"/>
					<path class="st103" d="M333.7,137.5c0,0,0.1-2.1-2.8-2c-3.5,0.2-5.7,2.6-5.2,5.7C325.8,141.2,334.6,142.7,333.7,137.5z"/>
					<path class="st104" d="M333.7,137.5c0,0,0.1-2.1-2.8-2c-3.5,0.2-5.6,2.6-5.1,5.7C325.8,141.2,334.5,142.6,333.7,137.5z"/>
					<path class="st105" d="M333.6,137.5c0,0,0.1-2.1-2.7-2c-3.4,0.2-5.6,2.5-5.1,5.7C325.8,141.2,334.5,142.6,333.6,137.5z"/>
					<path class="st106" d="M333.6,137.5c0,0,0.1-2.1-2.7-1.9c-3.4,0.2-5.6,2.5-5.1,5.6C325.8,141.2,334.5,142.6,333.6,137.5z"/>
					<path class="st107" d="M333.6,137.5c0,0,0.1-2.1-2.7-1.9c-3.4,0.2-5.5,2.5-5.1,5.6C325.8,141.1,334.5,142.5,333.6,137.5z"/>
					<path class="st108" d="M333.6,137.5c0,0,0.1-2-2.7-1.9c-3.4,0.2-5.5,2.5-5,5.5C325.8,141.1,334.5,142.5,333.6,137.5z"/>
					<path class="st109" d="M333.6,137.5c0,0,0.1-2-2.7-1.9c-3.3,0.2-5.5,2.5-5,5.5C325.9,141.1,334.4,142.4,333.6,137.5z"/>
					<path class="st42" d="M333.6,137.5c0,0,0-2-2.7-1.9c-3.3,0.2-5.4,2.5-5,5.4C325.9,141,334.4,142.4,333.6,137.5z"/>
					<path class="st43" d="M333.5,137.5c0,0,0-2-2.7-1.8c-3.3,0.2-5.4,2.4-5,5.4C325.9,141,334.4,142.4,333.5,137.5z"/>
					<path class="st110" d="M333.5,137.5c0,0,0-2-2.7-1.8c-3.2,0.2-5.4,2.4-4.9,5.3C325.9,141,334.4,142.3,333.5,137.5z"/>
					<path class="st111" d="M333.5,137.5c0,0,0-2-2.7-1.8c-3.2,0.2-5.3,2.4-4.9,5.3C325.9,141,334.4,142.3,333.5,137.5z"/>
					<path class="st45" d="M333.5,137.5c0,0,0-1.9-2.7-1.8c-3.2,0.2-5.3,2.4-4.9,5.2C325.9,140.9,334.3,142.2,333.5,137.5z"/>
					<path class="st46" d="M333.5,137.5c0,0,0-1.9-2.7-1.8c-3.2,0.2-5.3,2.4-4.9,5.2C326,140.9,334.3,142.2,333.5,137.5z"/>
					<path class="st112" d="M333.5,137.5c0,0,0-1.9-2.7-1.8c-3.1,0.2-5.2,2.4-4.8,5.1C326,140.9,334.3,142.2,333.5,137.5z"/>
					<path class="st113" d="M333.4,137.5c0,0,0-1.9-2.6-1.7c-3.1,0.2-5.2,2.3-4.8,5.1C326,140.9,334.3,142.1,333.4,137.5z"/>
					<path class="st48" d="M333.4,137.5c0,0,0-1.9-2.6-1.7c-3.1,0.2-5.2,2.3-4.8,5C326,140.8,334.2,142.1,333.4,137.5z"/>
					<path class="st49" d="M333.4,137.5c0,0,0-1.8-2.6-1.7c-3.1,0.2-5.1,2.3-4.8,5C326,140.8,334.2,142,333.4,137.5z"/>
					<path class="st114" d="M333.4,137.5c0,0-0.1-1.8-2.6-1.7c-3,0.2-5.1,2.3-4.7,4.9C326,140.8,334.2,142,333.4,137.5z"/>
					<path class="st51" d="M333.4,137.5c0,0-0.1-1.8-2.6-1.7c-3,0.2-5.1,2.3-4.7,4.9C326.1,140.7,334.2,142,333.4,137.5z"/>
					<path class="st115" d="M333.4,137.5c0,0-0.1-1.8-2.6-1.6c-3,0.2-5,2.3-4.7,4.8C326.1,140.7,334.2,141.9,333.4,137.5z"/>
					<path class="st116" d="M333.4,137.5c0,0-0.1-1.8-2.6-1.6c-2.9,0.2-5,2.2-4.7,4.8C326.1,140.7,334.1,141.9,333.4,137.5z"/>
					<path class="st53" d="M333.3,137.5c0,0-0.1-1.7-2.6-1.6c-2.9,0.2-5,2.2-4.6,4.7C326.1,140.7,334.1,141.8,333.3,137.5z"/>
					<path class="st54" d="M333.3,137.5c0,0-0.1-1.7-2.6-1.6c-2.9,0.2-4.9,2.2-4.6,4.7C326.1,140.6,334.1,141.8,333.3,137.5z"/>
					<path class="st117" d="M333.3,137.5c0,0-0.1-1.7-2.6-1.6c-2.9,0.2-4.9,2.2-4.6,4.6C326.1,140.6,334.1,141.8,333.3,137.5z"/>
					<path class="st118" d="M333.3,137.5c0,0-0.1-1.7-2.6-1.6c-2.8,0.2-4.9,2.2-4.6,4.6C326.2,140.6,334.1,141.7,333.3,137.5z"/>
					<path class="st56" d="M333.3,137.5c0,0-0.1-1.7-2.6-1.5c-2.8,0.1-4.8,2.2-4.5,4.5C326.2,140.5,334,141.7,333.3,137.5z"/>
					<path class="st57" d="M333.3,137.5c0,0-0.1-1.6-2.5-1.5c-2.8,0.1-4.8,2.1-4.5,4.5C326.2,140.5,334,141.6,333.3,137.5z"/>
					<path class="st119" d="M333.2,137.5c0,0-0.2-1.6-2.5-1.5c-2.8,0.1-4.8,2.1-4.5,4.4C326.2,140.5,334,141.6,333.2,137.5z"/>
					<path class="st120" d="M333.2,137.6c0,0-0.2-1.6-2.5-1.5c-2.7,0.1-4.7,2.1-4.5,4.4C326.2,140.5,334,141.6,333.2,137.6z"/>
					<path class="st121" d="M333.2,137.6c0,0-0.2-1.6-2.5-1.5c-2.7,0.1-4.7,2.1-4.4,4.4C326.2,140.4,334,141.5,333.2,137.6z"/>
					<path class="st60" d="M333.2,137.6c0,0-0.2-1.6-2.5-1.5c-2.7,0.1-4.7,2.1-4.4,4.3C326.3,140.4,333.9,141.5,333.2,137.6z"/>
					<path class="st61" d="M333.2,137.6c0,0-0.2-1.6-2.5-1.4c-2.6,0.1-4.6,2.1-4.4,4.3C326.3,140.4,333.9,141.4,333.2,137.6z"/>
					<path class="st122" d="M333.2,137.6c0,0-0.2-1.5-2.5-1.4c-2.6,0.1-4.6,2-4.4,4.2C326.3,140.4,333.9,141.4,333.2,137.6z"/>
					<path class="st123" d="M333.1,137.6c0,0-0.2-1.5-2.5-1.4c-2.6,0.1-4.6,2-4.3,4.2C326.3,140.3,333.9,141.4,333.1,137.6z"/>
					<path class="st63" d="M333.1,137.6c0,0-0.2-1.5-2.5-1.4c-2.6,0.1-4.5,2-4.3,4.1C326.3,140.3,333.8,141.3,333.1,137.6z"/>
					<path class="st64" d="M333.1,137.6c0,0-0.2-1.5-2.5-1.4c-2.5,0.1-4.5,2-4.3,4.1C326.3,140.3,333.8,141.3,333.1,137.6z"/>
					<path class="st124" d="M333.1,137.6c0,0-0.2-1.5-2.5-1.3c-2.5,0.1-4.5,2-4.3,4C326.4,140.2,333.8,141.2,333.1,137.6z"/>
					<path class="st125" d="M333.1,137.6c0,0-0.3-1.4-2.5-1.3c-2.5,0.1-4.4,2-4.2,4C326.4,140.2,333.8,141.2,333.1,137.6z"/>
					<path class="st66" d="M333.1,137.6c0,0-0.3-1.4-2.4-1.3c-2.4,0.1-4.4,2-4.2,3.9C326.4,140.2,333.8,141.2,333.1,137.6z"/>
					<path class="st126" d="M333,137.6c0,0-0.3-1.4-2.4-1.3c-2.4,0.1-4.4,1.9-4.2,3.9C326.4,140.2,333.7,141.1,333,137.6z"/>
					<path class="st68" d="M333,137.6c0,0-0.3-1.4-2.4-1.3c-2.4,0.1-4.3,1.9-4.2,3.8C326.4,140.1,333.7,141.1,333,137.6z"/>
					<path class="st69" d="M333,137.6c0,0-0.3-1.4-2.4-1.3c-2.4,0.1-4.3,1.9-4.2,3.8C326.4,140.1,333.7,141,333,137.6z"/>
					<path class="st127" d="M333,137.6c0,0-0.3-1.3-2.4-1.2c-2.3,0.1-4.3,1.9-4.1,3.7C326.5,140.1,333.7,141,333,137.6z"/>
					<path class="st128" d="M333,137.6c0,0-0.3-1.3-2.4-1.2c-2.3,0.1-4.2,1.9-4.1,3.7C326.5,140,333.7,141,333,137.6z"/>
					<path class="st71" d="M333,137.6c0,0-0.3-1.3-2.4-1.2c-2.3,0.1-4.2,1.9-4.1,3.6C326.5,140,333.6,140.9,333,137.6z"/>
					<path class="st72" d="M332.9,137.6c0,0-0.3-1.3-2.4-1.2c-2.3,0.1-4.2,1.8-4.1,3.6C326.5,140,333.6,140.9,332.9,137.6z"/>
					<path class="st129" d="M332.9,137.6c0,0-0.3-1.3-2.4-1.2c-2.2,0.1-4.1,1.8-4,3.5C326.5,140,333.6,140.8,332.9,137.6z"/>
					<path class="st130" d="M332.9,137.6c0,0-0.4-1.2-2.4-1.1c-2.2,0.1-4.1,1.8-4,3.5C326.5,139.9,333.6,140.8,332.9,137.6z"/>
					<path class="st74" d="M332.9,137.6c0,0-0.4-1.2-2.4-1.1c-2.2,0.1-4.1,1.8-4,3.4C326.6,139.9,333.6,140.8,332.9,137.6z"/>
					<path class="st75" d="M332.9,137.6c0,0-0.4-1.2-2.4-1.1c-2.1,0.1-4,1.8-4,3.4C326.6,139.9,333.5,140.7,332.9,137.6z"/>
					<path class="st131" d="M332.9,137.6c0,0-0.4-1.2-2.3-1.1c-2.1,0.1-4,1.8-3.9,3.3C326.6,139.9,333.5,140.7,332.9,137.6z"/>
					<path class="st132" d="M332.8,137.6c0,0-0.4-1.2-2.3-1.1c-2.1,0.1-4,1.7-3.9,3.3C326.6,139.8,333.5,140.6,332.8,137.6z"/>
					<path class="st133" d="M332.8,137.6c0,0-0.4-1.2-2.3-1.1c-2.1,0.1-3.9,1.7-3.9,3.2C326.6,139.8,333.5,140.6,332.8,137.6z"/>
					<path class="st134" d="M332.8,137.6c0,0-0.4-1.1-2.3-1c-2,0.1-3.9,1.7-3.9,3.2C326.6,139.8,333.4,140.6,332.8,137.6z"/>
					<path class="st135" d="M332.8,137.6c0,0-0.4-1.1-2.3-1c-2,0.1-3.9,1.7-3.8,3.1C326.7,139.7,333.4,140.5,332.8,137.6z"/>
					<path class="st136" d="M332.8,137.6c0,0-0.4-1.1-2.3-1c-2,0.1-3.8,1.7-3.8,3.1C326.7,139.7,333.4,140.5,332.8,137.6z"/>
					<path class="st137" d="M332.8,137.6c0,0-0.4-1.1-2.3-1c-2,0.1-3.8,1.7-3.8,3C326.7,139.7,333.4,140.4,332.8,137.6z"/>
					<path class="st138" d="M332.7,137.6c0,0-0.5-1.1-2.3-1c-1.9,0.1-3.8,1.6-3.8,3C326.7,139.7,333.4,140.4,332.7,137.6z"/>
					<path class="st82" d="M332.7,137.6c0,0-0.5-1-2.3-1c-1.9,0.1-3.7,1.6-3.7,3C326.7,139.6,333.3,140.4,332.7,137.6z"/>
					<path class="st83" d="M332.7,137.6c0,0-0.5-1-2.3-0.9c-1.9,0.1-3.7,1.6-3.7,2.9C326.7,139.6,333.3,140.3,332.7,137.6z"/>
					<path class="st84" d="M332.7,137.6c0,0-0.5-1-2.3-0.9c-1.8,0.1-3.7,1.6-3.7,2.9C326.8,139.6,333.3,140.3,332.7,137.6z"/>
					<path class="st85" d="M332.7,137.6c0,0-0.5-1-2.2-0.9c-1.8,0.1-3.6,1.6-3.7,2.8C326.8,139.5,333.3,140.2,332.7,137.6z"/>
					<path class="st139" d="M332.7,137.6c0,0-0.5-1-2.2-0.9c-1.8,0.1-3.6,1.6-3.6,2.8C326.8,139.5,333.3,140.2,332.7,137.6z"/>
					<path class="st140" d="M332.6,137.6c0,0-0.5-0.9-2.2-0.9c-1.8,0.1-3.6,1.5-3.6,2.7C326.8,139.5,333.2,140.2,332.6,137.6z"/>
					<path class="st141" d="M332.6,137.6c0,0-0.5-0.9-2.2-0.8c-1.7,0.1-3.5,1.5-3.6,2.7C326.8,139.5,333.2,140.1,332.6,137.6z"/>
					<path class="st142" d="M332.6,137.6c0,0-0.5-0.9-2.2-0.8c-1.7,0.1-3.5,1.5-3.6,2.6C326.8,139.4,333.2,140.1,332.6,137.6z"/>
					<path class="st143" d="M332.6,137.7c0,0-0.5-0.9-2.2-0.8c-1.7,0.1-3.5,1.5-3.5,2.6C326.9,139.4,333.2,140,332.6,137.7z"/>
					<path class="st89" d="M332.6,137.7c0,0-0.6-0.9-2.2-0.8c-1.7,0.1-3.4,1.5-3.5,2.5C326.9,139.4,333.2,140,332.6,137.7z"/>
					<path class="st90" d="M332.6,137.7c0,0-0.6-0.9-2.2-0.8c-1.6,0.1-3.4,1.5-3.5,2.5C326.9,139.4,333.1,140,332.6,137.7z"/>
				</g>
				<g>
					<path class="st91" d="M333.4,137.9c0,0,0.4,0.6,0.6,1.7c0.3,1.1,0.3,2.7-0.3,4.9c0,0-5.7,1.1-8.2-1.9       C325.5,142.5,324.6,137.3,333.4,137.9z"/>
					<path class="st92" d="M333.4,137.9c0,0,0.3,0.5,0.6,1.5c-2.8-0.6-5.8-0.2-8.2,1.4C326.3,139.3,328,137.5,333.4,137.9z"/>
					<path class="st93" d="M328,141.1c-0.1,1.7,1.3,3.1,3,3.2c1.7,0.1,3.1-1.2,3.2-2.9c0.1-1.7-1.3-3.1-3-3.2       C329.5,138.1,328,139.4,328,141.1z"/>
					<path class="st94" d="M331.2,138.2c-1.1,0-2.1,0.5-2.7,1.3c1.6-0.4,3.2-0.5,4.9-0.2C332.8,138.7,332.1,138.3,331.2,138.2z"/>
					<path d="M329.6,141.2c0,0.8,0.6,1.5,1.5,1.5c0.9,0,1.6-0.6,1.6-1.4c0-0.8-0.6-1.5-1.5-1.5C330.3,139.7,329.6,140.4,329.6,141.2       z"/>
					<path class="st91" d="M328.8,140.5c0,0.6,0.4,1,1,1.1c0.6,0,1.1-0.4,1.1-1c0-0.6-0.4-1-1-1.1       C329.3,139.5,328.8,139.9,328.8,140.5z"/>
					<path d="M333.8,137.4c0,0,0.3,1.7,2,2.1c0,0-1.4,0.3-2.2-1c0,0-6.2-2.3-8.1,3C325.5,141.6,325.8,135.9,333.8,137.4z"/>
					<path d="M326.7,139c0,0-1.9,0.1-2.4-1.3c0,0-0.4,1.5,2.1,1.8L326.7,139z"/>
					<path d="M323.4,139.3c0,0,1.8,1.3,2.7,0.7l-0.3,0.6C325.9,140.5,324.3,140.5,323.4,139.3z"/>
				</g>
			</g>
			<path class="st3" d="M324.6,133.3c0,0,3.6-1.3,7.2-0.6c2.3,0.4,4.8,1.6,5,0.7C337.1,132.5,329.3,129.6,324.6,133.3z"/>
			<g>
				<path class="st91" d="M340.3,156.6c0,0-1.1,0.5-0.8,2c0,0-0.3,2.1-2.2,1.5c-1.9-0.6-4.1-1.2-4.6-4.8      C332.7,155.2,337,157.1,340.3,156.6z"/>
				<g>
					<path class="st144" d="M340.6,156.5c0,0,0.7-1-0.6-1.2c-0.8-0.1-1.5,0.4-1.5,0.4s-0.7-0.9-2.1-0.7c-0.7,0.1-1.4,0.2-2,0.2       c-1.1,0-1.9-0.2-1.9-0.2S337.1,157,340.6,156.5z"/>
				</g>
				<g>
					<path class="st145" d="M334.4,158.1c0.6,0.6,1.7,1.3,3,1.4c1,0.1,1.7-0.1,2-1c0,0,0.4,0.3,0.4,1.1c0,0.9-0.5,1.6-2.1,1.7       c-2,0.1-3.4-1-4.1-2.4c-0.9-1.7-0.9-3.7-0.9-3.7S333.2,156.9,334.4,158.1z"/>
				</g>
				<g>
					<path class="st146" d="M332.6,154.9c2.7,1.2,5.5,2,8,1.4c0.3-0.1,1.3-0.3,1.4-0.3c0.1,0.1-1,0.6-1.4,0.7       c-2.6,0.6-4.9-0.1-8.2-1.6c-0.8-0.3-1.6-1-1.5-1.1C331,154,331.8,154.5,332.6,154.9z"/>
				</g>
				<g>
					<path class="st95" d="M332.8,153.3c0,0.1-1.1,0.3-1.6,1c-0.3,0.4-0.4,1.5-0.5,1.5c-0.1,0-0.2-1.3,0.2-1.8       C331.6,153.2,332.8,153.2,332.8,153.3z"/>
				</g>
				<path class="st147" d="M337.3,160.1c0,0.2-0.6,0.3-1,0.2c-0.4-0.1-0.9-0.3-0.9-0.5c0-0.2,0.6-0.2,1-0.1      C336.8,159.8,337.3,160,337.3,160.1z"/>
			</g>
		</g>
	</g>
</g>
<g>
	<g>
		<g>
			<path class="st148" d="M123,143.5c0,0-8.5-5.8-19.8-3.1c-6.1,1.4-26.6,11.4-28.2,18c-1.6,6.6,1.3,14.2,4.7,15.5     C83.1,175.3,130.1,147.6,123,143.5z"/>
			<path class="st149" d="M85.2,158.6c10.1-9.7,23.7-13.3,36.7-15.8c-0.9-0.5-2.4-1.2-4.4-1.8C108.6,145.5,88.1,147.7,85.2,158.6z"/>
			<path class="st150" d="M89,162.4c-3.9-2.9-6.6-7-6.2-12c-4,2.7-7.1,5.6-7.7,8c-1.2,4.9,0.1,10.3,2.3,13.4     C81.8,169.8,85.8,166.5,89,162.4z"/>
			<path class="st151" d="M78.6,153.6c-1.9,1.7-3.2,3.3-3.5,4.8c-0.8,3.4-0.5,7,0.6,10c0.7-1,1.5-1.9,2.4-2.9     C76.5,162.5,76.1,157.4,78.6,153.6z"/>
		</g>
		<g>
			<path class="st152" d="M92.8,149.5c0.1-0.1,12.5-6.7,24.7-8.5c-0.7-0.2-1.5-0.4-2.3-0.6c-11.6,2.2-22.7,8.2-22.8,8.2L92.8,149.5z     "/>
		</g>
	</g>
	<g>
		<path class="st153" d="M148.5,136.2c0,0-15.5,0.8-26.8,5.4c-11.6,4.6-22.6,4.2-37.8,15.2c-7,5.1-16.2,14.8-17.3,21.6    C65.1,187,73,200.1,82.8,203c17.5,5.2,58.8-34.2,65.2-44.4C154.4,148.5,161.1,140.3,148.5,136.2z"/>
		<path class="st154" d="M148.5,136.2c0,0-4.2,0.2-9.9,1.1c-10.6,11.1-28,11.6-40.6,20.6c11.8-2.6,22.4-9,35.3-9.7    c-12.3,12.5-33.3,9.6-42.5,23.9c-3.7,6.1,4.5,11.7,10.3,8.4c16.6-9,31.9-21.8,49.9-26.5C156,146,159.1,139.6,148.5,136.2z"/>
		<path class="st150" d="M74.8,165c-4.1,4.5-7.5,9.4-8.2,13.4C65.1,187,73,200.1,82.8,203c6,1.8,14.9-1.7,24.2-7.5    C93.4,190.4,81.9,178.5,74.8,165z"/>
		<path class="st151" d="M85.1,197.2c-12.6-4.2-18.5-20.6-10.6-31.9c-4,4.4-7.3,9.2-7.9,13.1C65.1,187,73,200.1,82.8,203    c5.5,1.7,13.5-1.2,21.9-6.1C98.2,197.8,92,198.4,85.1,197.2z"/>
		<g>
			<path class="st152" d="M95.5,158.6l0.4,0.9c0.3-0.2,35.1-17.1,58.3-18.1l0-1C130.7,141.5,95.8,158.5,95.5,158.6z"/>
		</g>
	</g>
</g>
<g>
	<path class="st155" d="M24.3,303.6c0,0-1.9-0.6-2.5,0.8c-0.5,1.4-3.1,10.9-3,13.1c0.1,2.2,1.5,3.9-2,6.8c-3.5,3-8.9,12.4-9.9,20.3   c-1.1,7.9,0.9,11.6,5.7,11c4.8-0.7,15.7-20.4,17.4-33.3C31.8,309.5,29.8,305.7,24.3,303.6z"/>
	<path class="st156" d="M47.5,311c0,0-10.8-9-23.1-7.5c0,0-0.3,10.5-3.7,16.9c-3.4,6.4-8.9,10.9-10.1,21.8   c-1.3,10.9,3.8,8.4,6.7,6.9c3-1.5,11.1-11.5,16.7-14.4c5.6-2.9,7.8-1.1,11-4.6C48.1,326.6,49.5,313.4,47.5,311z"/>
	<path class="st157" d="M47.8,322.4c0.9-4.8,0.9-10-0.4-11.4c0,0-10.8-9-23.1-7.5c0,0-0.1,3-0.7,6.7   C33.3,310.2,42.9,314.8,47.8,322.4z"/>
	<path class="st157" d="M28.7,338.6c1.8-1.6,3.7-3,5.3-3.9c0.3-0.2,0.7-0.3,1-0.5c-2.8-6.4-7.6-12-14.3-13.8c0,0,0,0,0,0   c-1.4,2.5-3,4.8-4.6,7.2C21.7,328.8,26.3,333.1,28.7,338.6z"/>
	<path class="st157" d="M17.2,349.1c1.2-0.6,3.4-2.7,5.8-5.2c-3.2-3.4-7.1-5.8-11.6-6.7c-0.4,1.5-0.8,3.1-1,5   C9.3,353.1,14.3,350.7,17.2,349.1z"/>
	<path class="st158" d="M52.2,314.1c0,0-2.3-4.3-4.6-3.9c-2.3,0.4-1.8,5.5-5.3,7.3c-3.5,1.8-5,6.8-4.7,9.5c0.4,2.7,2.3,4.6,4.2,5.6   c1.9,1.1,5,0.2,7.1-4.9C51.1,322.6,53.9,318.3,52.2,314.1z"/>
	<path class="st159" d="M16.7,326.8c0,0-0.3,4.8-2.3,10.8c-2,6.1-2.3,10.9,2.3,9.2c4.6-1.7,10.3-12.3,16.1-14.1   c5.9-1.9,6.4-6.4,9.8-4.9c3.4,1.4,2,6.5-0.8,6.7c-2.8,0.2-10.8,3.1-16.3,9.1c-5.5,6-3.8,13.1-11.6,13.2   C6.2,356.8,5.4,342.4,16.7,326.8z"/>
	<g>
		<path d="M23.9,310.6C23.8,310.6,23.8,310.6,23.9,310.6C23.8,310.6,23.8,310.6,23.9,310.6z"/>
		<path class="st158" d="M40.4,316.2c-0.6-0.7-3.2-3.4-7.5-5c-5.2-1.8-8.5-0.6-9.1-0.5c0.6,0,4.5-0.4,8.8,1.3    C35.3,312.6,39.6,315.5,40.4,316.2z"/>
	</g>
	<path class="st160" d="M28.6,324.7c3.4,3.8,4.2,8.1,4.3,8c0.1-0.1-2.6-5.4-4.8-7.5c-3.3-3.7-7.4-4.7-7.4-4.8   C20.5,320.7,24.3,320.4,28.6,324.7z"/>
	<path class="st160" d="M23.1,330.5c3.1,2.3,4,5.4,4,5.4c0.1-0.1-2.6-3.6-4.5-4.7c-2.8-2.2-5.8-2.8-5.8-2.9   C16.7,328.3,19.4,327.9,23.1,330.5z"/>
	<path class="st158" d="M18.9,339.4c1.9,1.3,2.7,3.1,2.7,3.1c0-0.1-2-1.7-3.2-2.4c-1.7-1.3-3.4-2-3.4-2.1   C15,338.1,16.6,337.9,18.9,339.4z"/>
	<path class="st158" d="M34.6,333.8c0-1.7-0.6-3.2-0.6-3.2c0.1-0.1,1.5,1.8,1.4,3.1c0,2.1-1.3,3.2-1.2,3.2   C34.2,336.9,34.6,335.7,34.6,333.8z"/>
	<path class="st158" d="M25.8,339.5c-0.4-1.7-1.4-3-1.4-3c0-0.1,1.9,1.4,2.1,2.8c0.5,2.1-0.6,3.5-0.5,3.5   C25.9,342.7,26.2,341.4,25.8,339.5z"/>
	<path class="st158" d="M30.2,336.1c-0.3-1.7-1.1-3.2-1.1-3.2c0-0.1,1.7,1.7,1.8,3c0.4,2.1-0.9,3.5-0.8,3.5   C30.1,339.4,30.5,338.1,30.2,336.1z"/>
</g>
<g>
	<path class="st155" d="M114.6,431c0,0-1,1.8,0.3,2.5c1.2,0.8,9.9,5.1,12.1,5.5c2.2,0.3,4-0.7,6.2,3.2c2.2,3.9,10.3,11,17.7,13.5   c7.4,2.5,11.4,1.4,11.7-3.4c0.3-4.8-16.8-19.1-28.8-23.3C121.7,425,117.7,426.2,114.6,431z"/>
	<path class="st156" d="M126.3,410.1c0,0-10.8,8.7-11.7,20.9c0,0,10.1,2.3,15.6,6.9c5.5,4.6,8.8,10.7,19.1,14   c10.3,3.3,8.9-2,7.9-5.2c-0.9-3.2-9-13-10.7-19c-1.7-6,0.5-7.8-2.3-11.5C141.5,412.5,129,408.5,126.3,410.1z"/>
	<path class="st157" d="M137.4,412c-4.4-1.8-9.5-2.8-11.1-1.9c0,0-10.8,8.7-11.7,20.9c0,0,2.9,0.7,6.4,1.9   C122.8,423.6,129,415.2,137.4,412z"/>
	<path class="st157" d="M149.3,433.5c-1.2-2.1-2.2-4.1-2.7-5.8c-0.1-0.4-0.2-0.7-0.3-1.1c-6.8,1.5-13.1,5-16.1,11.2c0,0,0,0,0,0   c2.2,1.8,4,3.9,6.1,5.9C138.5,438.5,143.5,434.8,149.3,433.5z"/>
	<path class="st157" d="M157.3,446.7c-0.4-1.3-2-3.8-3.9-6.6c-3.9,2.5-7,5.8-8.7,9.9c1.4,0.7,2.9,1.3,4.6,1.9   C159.7,455.2,158.2,449.8,157.3,446.7z"/>
	<path class="st159" d="M135.6,442.9c0,0,4.6,1.2,10,4.3c5.5,3.1,10.1,4.3,9.4-0.5c-0.7-4.8-9.9-12.3-10.5-18.3   c-0.7-6-4.9-7.4-2.9-10.4c2-3,6.6-0.7,6.3,2c-0.3,2.7,0.9,11,5.6,17.5c4.7,6.5,11.9,6.2,10.5,13.7   C162.6,458.9,148.6,456.8,135.6,442.9z"/>
	<g>
		<path d="M121.3,432.8C121.3,432.9,121.3,432.9,121.3,432.8C121.3,432.9,121.3,432.9,121.3,432.8z"/>
		<path class="st158" d="M129.9,417.9c-0.8,0.5-4,2.4-6.3,6.2c-2.7,4.7-2.2,8.1-2.3,8.7c0.1-0.6,0.5-4.4,2.9-8.3    C125.5,422.1,129.1,418.6,129.9,417.9z"/>
	</g>
	<path class="st160" d="M135.9,431c4.4-2.6,8.6-2.6,8.6-2.6c0-0.1-5.7,1.5-8.2,3.2c-4.2,2.5-6,6.3-6.1,6.2   C130.4,438.1,130.9,434.3,135.9,431z"/>
	<path class="st160" d="M140.4,437.4c2.8-2.6,6-2.9,6-2.9c-0.1-0.1-3.9,1.8-5.4,3.5c-2.6,2.3-3.9,5.1-4,5.1   C137.1,443.2,137.2,440.4,140.4,437.4z"/>
	<path class="st158" d="M148.3,443.2c1.7-1.6,3.5-2,3.5-2c0,0-2.1,1.6-3,2.6c-1.6,1.4-2.6,2.9-2.6,2.9   C146.2,446.8,146.3,445.1,148.3,443.2z"/>
	<path class="st158" d="M145.8,426.9c-1.7-0.3-3.2,0-3.2,0c-0.1-0.1,2-1.1,3.3-0.7c2,0.4,2.9,1.9,2.9,1.8   C148.8,428,147.7,427.3,145.8,426.9z"/>
	<path class="st158" d="M149.6,436.5c-1.7,0.1-3.1,0.8-3.1,0.8c-0.1,0,1.7-1.6,3.1-1.5c2.1-0.1,3.3,1.3,3.2,1.2   C152.8,437,151.6,436.5,149.6,436.5z"/>
	<path class="st158" d="M147.2,431.6c-1.7,0-3.3,0.4-3.3,0.4c-0.1,0,2-1.3,3.3-1.2c2.1,0,3.2,1.5,3.2,1.4   C150.4,432.4,149.2,431.7,147.2,431.6z"/>
</g>
<g>
	<path class="st7" d="M208.6,220c0,0,17.9,2.4,30.7-4.5c2.3-1.3,2.7-10.8,5-12.7c2.3-1.9,5.9-3.2,6.9-3.2c0.4,0,0.8,1.2,1.3,2.8   c0,0,3.9-2.8,5.8-2.7c1.9,0.1,2.1,3.2,2.1,3.2s2.1,3.1,0.5,5.4c0,0,1.3,3.7,0.3,4.9c0,0,0.9,4.7-1.6,5.2c0,0-4.5,3.2-8.4,3.8   c-3.9,0.6-5.2,1.2-9,2.9c-4.2,1.9-29.1,15.7-37.4,16.6C196.4,242.6,200.9,218.7,208.6,220z"/>
	<g>
		<path class="st10" d="M250.6,213.2c-0.3,0.3-0.6,0.6-0.9,0.9c-0.5,0.5-1.2,0.2-1.5-0.1c-0.8-0.6-0.9-1.6-0.7-2.4    c0.4-1.6,1.7-2.4,1.9-3.5c0.3-2.1-0.8-3.4-0.6-3.4c-0.1,0,1.2,1.1,1,3.5c-0.2,1.2-1.5,2.2-1.7,3.5c-0.4,1.3,1,3.3,2.2,1.1    c1.2-1.2,2.7-2.2,3.1-3.4c0.2-1.4,0-2.8-0.2-3.8c-0.4-2.2-0.8-3.5-0.7-3.6c0.1,0,0.6,1.3,1.1,3.5c0.2,1.1,0.5,2.4,0.3,4    C253.4,211.1,251.8,212,250.6,213.2z"/>
		<path class="st10" d="M256.7,204.3c-2.1,0.7-3.3,2.1-3.5,2c-0.1,0,1-1.8,3.3-2.5c2.2-0.8,4-0.9,4-0.7    C260.5,203.2,258.7,203.6,256.7,204.3z"/>
		<path class="st10" d="M257,209.3c-2.2,0.5-3.8,1.2-3.9,1c-0.1-0.1,1.6-1.1,3.8-1.6c2.2-0.5,4-0.6,4.1-0.4    C260.9,208.5,259.2,208.8,257,209.3z"/>
		<path class="st10" d="M255.7,214.7c-1.4,0-3.4,0.4-3.9-1c-0.4-1-0.2-1.7-0.2-1.7c0.1,0,0.1,0.7,0.5,1.5c0.4,0.9,2,0.6,3.5,0.6    c3.1-0.3,5.5-1.2,5.5-1C261.3,213.3,258.9,214.4,255.7,214.7z"/>
		<path class="st10" d="M254.7,217.9c3,0.5,5.4,0.1,5.5,0.2c0.1,0.2-2.5,0.8-5.6,0.3c-0.8-0.2-1.5-0.2-2.1-0.8    c-0.5-0.6-0.5-1.3-0.5-1.8c0.1-1.1,0.5-1.6,0.6-1.6c0.1,0-0.2,0.6-0.2,1.6C252.2,216.9,253,217.8,254.7,217.9z"/>
	</g>
</g>
<path class="st161" d="M183.1,207.6c0,0,10.4,27.1,16.3,31.8c0,0,6.2-15.3,10.1-19.7c0,0-6.7-21.6-7.1-34.9  c-0.4-13.3-1.5-19.9-5.5-25.5C193,153.9,181.1,194.8,183.1,207.6z"/>
<path class="st162" d="M206.4,215.7c-5.4-2.2-7.3-7.5-9.8-12.2c-1.6,7.2,5.1,12.3,4.7,18.8c0.1,3-3.5,7.1-6.5,4.8  c-8.9-9-8.8-19.8-1.3-29.5c5.6-6.9,1.7-16.9-4.8-24.2c-3.7,11.6-6.7,27.1-5.6,34.1c0,0,10.4,27.1,16.3,31.8c0,0,6.2-15.3,10.1-19.7  c0,0-0.5-1.5-1.1-3.9C207.7,215.9,207,215.9,206.4,215.7z"/>
<g>
	<path class="st162" d="M193.8,192.8c0,0,6.6-17.1,6.7-25.7c0.1-8.6-6.5-20.5-6.5-20.5s-7.3,14.4-7,24.3   C187.2,180.9,184.2,203.3,193.8,192.8z"/>
	<path class="st163" d="M195.4,161.3c2.3-2.1,2.2-4.2,2.6-5.7c-1.8-5-4-9-4-9s-7.3,14.4-7,24.3c0.1,5.2-0.6,13.9,0,19.4   C195.3,182.5,197.6,173.5,195.4,161.3z"/>
	<g>
		<path class="st164" d="M197.7,180.1c2.2-7,2.7-13,2.7-13c0.3,0,0,6.1-2.2,13.1c-2,7.1-4.4,12.6-4.5,12.5    C193.6,192.8,195.7,187.2,197.7,180.1z"/>
	</g>
	<g>
		<path class="st162" d="M138.5,259.8c7.3,3.1,20.7,0.3,28.7,9.3c0,0,3.9-9.5,4.1-20.5c0.4-23.7,19.1-46.9,23.2-53.7    c1.9-3.1-3.1-18.5-3.1-18.5s-9.4,16.1-28.8,29.4C143.3,219.4,118.5,251.5,138.5,259.8z"/>
		<path class="st165" d="M192.6,180.2c-0.6-2.2-1.1-3.7-1.1-3.7s-9.4,16.1-28.8,29.4c-19.4,13.4-44.2,45.5-24.2,53.8    c0.2,0.1,0.5,0.2,0.7,0.3c1.3-0.7,2.5-1.7,3.2-2.9c1.7-3-2-7.6-0.3-9.5c3.2-2.8,5-3.1,4.6-7.3c1.1-0.2,2.1-0.6,2.8-1.8    c2.3-3.6,0.5-6.7,4-9.8C160.8,218.6,191.8,211.5,192.6,180.2z"/>
		<g>
			<path class="st164" d="M178.9,220.2c7.4-14.7,15.9-25.1,15.7-25.2c0.4,0.3-7.9,10.8-15.2,25.4c-7.7,14.7-7.9,28.4-8,28.3     C171.2,248.8,171.1,234.9,178.9,220.2z"/>
		</g>
		<g>
			<path class="st164" d="M193.7,185.7c-1.2-5.1-2.4-9.2-2.2-9.2c0.1,0,1.6,4,2.8,9.1c1.4,5.1,0.9,9.6,0.3,9.4     C194.9,195,195.1,190.8,193.7,185.7z"/>
		</g>
		<g>
			<path class="st166" d="M138.5,259.8c7.3,3.1,20.7,0.3,28.7,9.3c0,0,1.3-3.2,2.5-8c-10.6-5.8-29.3-6.4-38.6-12.3     C131,253.7,133.2,257.6,138.5,259.8z"/>
		</g>
	</g>
</g>
<g>
	<g>
		<g>
			<path class="st154" d="M94.6,262.5c9.2,29.3,6.7,50.6,12.2,63.5c0,0-5.4-3.8-21.8-4.7c-16.3-0.9-25.5-8.1-29.4-8.1     c-7.4,0.1-6.2-3.9-8.8-4.7c-3-0.9-5.6-3.3-7.2-2.4c-1.6,0.9,0.3,4.7-1.4,10.1c-1.7,5.4-0.4,5.7,0.2,10.7c0.6,4.9,1,7.1,4.6,7.2     c3.7,0.1,3.4,4.1,12.1,1.1c0,0,1.7,4.5,9.2,4.9c24.1,1.2,47.1,16.1,56.3,15.1c10.7-1.2,12.4-59.6,9.7-70.8     C127.8,273.3,90.7,250.1,94.6,262.5z"/>
		</g>
		<g>
			<path class="st149" d="M47.7,322.1c-1.1,4.2,3.1,6.4,3.3,10.6c-3-0.5-2.5-4.1-4.3-5.2c0.1,1.8,0.7,3.5,0.2,5.3c0,0-1.2,0-1.8,0.1     c-3.1-5.2-0.3-11.2-2.2-16.5c0.1,5,0.3,11.8-3.2,16c0.6,1.2,1.6,1.8,3.5,1.9c3.7,0.1,3.4,4.1,12.1,1.1c0,0,1.7,4.5,9.2,4.9     c3.1,0.2,6.1,0.5,9.2,1.1C63,338,51.5,333.5,47.7,322.1z"/>
		</g>
		<g>
			<path class="st167" d="M117.9,324.8c0.1,0,0.2,0,0.4,0C118.2,324.8,118.1,324.8,117.9,324.8z"/>
			<path class="st149" d="M94.6,262.5c9.2,29.3,6.7,50.6,12.2,63.5c0,0-4-2.8-15.5-4.2c7,3,13.6,7,20.1,10.9     c2.4,1.7,5.9,0.4,8.9,0.3c-3.6-1.1-7.2-3.3-7.9-6.9c2.2,0.5,3.9-1.1,5.5-1.3c-5.7,0.5-9.9-4.6-11.1-9.2     c-2.7-11.2-6.1-27.7,0.9-31.4c5.9-3.7,14.4,6.7,23.7,7.8c-0.2-3.3-0.5-6-0.9-7.6C127.8,273.3,90.7,250.1,94.6,262.5z"/>
		</g>
		<g>
			<path class="st168" d="M43.2,320.6c0.3,3.8,0.8,7.2,0.7,9.7c0.1,2.6-1,4-1,3.9c0.7,0.1,0.9-5.9-0.2-13.5     c-1.1-7.6,1.1-13.7,1.5-13.5C44,307.1,42.1,313,43.2,320.6z"/>
			<path class="st169" d="M47.3,323.2c4.5-0.5,7.4,2.4,7.1,2.5c0,0.1-2.8-2.4-7.1-1.9c-2.1,0.1-4.1,0.1-5.4-0.7     c-1.3-0.7-1.6-1.7-1.6-1.6c0.1-0.1,0.5,0.7,1.7,1.3C43.3,323.3,45.2,323.2,47.3,323.2z"/>
			<path class="st168" d="M49.5,326.9c3.6,5,6.5,9,6.4,9.1c-0.1,0.1-3.2-3.8-6.8-8.8c-3.8-4.9-5.1-10.1-4.4-10.1     C44.3,317.2,45.7,322,49.5,326.9z"/>
			<path class="st169" d="M86.4,333.9c8.3,1.5,16.1,2.1,21.6,1.6c1.3-0.3,2.7-0.2,3.6-0.7c0.8-0.6,0.9-1.7,1.1-2.4     c0.1-1.5-0.1-2.4,0-2.4c0,0,0.3,0.8,0.2,2.4c-0.1,0.8-0.1,1.9-1.1,2.6c-1.1,0.7-2.3,0.6-3.7,0.9c-5.6,0.7-13.3,0.1-21.7-1.4     c-16.8-3-29.6-8.5-29.5-8.7C56.8,325.7,69.7,330.9,86.4,333.9z"/>
			<path class="st168" d="M111.1,326c2.4-0.1,4.2-0.5,4.3-0.3c0,0.1-1.8,0.8-4.3,0.9c-2.4,0.1-4.4-0.4-4.3-0.6     C106.8,325.9,108.7,326.1,111.1,326z"/>
			<path class="st168" d="M111.3,329.4c-2.8-1.3-4.6-3.3-4.5-3.4c0.1-0.1,1.9,1.6,4.7,2.9c2.7,1.4,5.1,2.3,5,2.5     C116.5,331.5,114,330.8,111.3,329.4z"/>
			<path class="st169" d="M113.7,303.2c-0.5,12.5-0.8,22.6-0.9,22.6c-0.1,0-0.1-10.2,0.4-22.7c0.5-12.5,1.3-22.6,1.5-22.6     C114.8,280.6,114.2,290.7,113.7,303.2z"/>
			<path class="st168" d="M46.7,326.4c1.5,3.7,1.6,7,1.4,7c-0.1,0-0.4-3.1-1.9-6.8c-1.4-3.7-1.1-7.1-1-7     C45.4,319.5,45.3,322.7,46.7,326.4z"/>
		</g>
	</g>
	<g>
		<g>
			<path class="st154" d="M90.4,252c0,0-2.5,10.9,6.5,19c8.9,8,37.9,28.1,55.4,38.9c17.5,10.8,18.4,16.5,24.8,17.9     c0,0-2.8,1.3-2,3.8c0,0-16,17.9-24.6,35.9c-11.5,24-18.2,28-18.1,30.9c0.1,2.2,0.8,5.4-0.2,6.4c-1.1,1-3.4,0.3-4.2,1.9     c-0.8,1.6-3.1,1.9-2.6,3.3c0.4,1.4,7.9,5.4,10.6,10.2c2.7,4.8,8.1,4.7,11.3,7.6c3.1,2.9,2.6-0.8,2.2-3.1     c-0.5-2.4-0.8-4.9,1.2-4.9c2.1,0,3.3-0.6,2.6-2.7c-0.8-2.2-1.7-3.3,0.9-4.9c2.5-1.6,2.5-5.2,5.8-12.2     c11.3-23.8,44.8-66.7,44.5-72.7c-0.6-13.4-56.4-76.6-72.2-82.2C116.2,239.3,93.2,240.6,90.4,252z"/>
			<path class="st149" d="M178.8,329c4.1-2.5,8.2-3.2,12.9-3.3c-3.6-2.3-7.7-1.6-11.9-0.3c-1.9,0.7-4.1,1-6.2,0.9     c1,0.6,2.1,1.1,3.3,1.4c0,0-2.8,1.3-2,3.8c0,0-2.1,2.4-5.3,6.3c5.9-4.1,15.6-5.3,21.5-7.4C187.1,328.8,183,330.1,178.8,329z"/>
			<path class="st149" d="M153.2,408.5c-3.7-5.8-6.9-12.2-5.9-19.4c-4.5,7.2-1.9,15.5,0.7,23.1c0,0.6,0.7,2.9-0.5,1.8     c-5.5-5.2-8.1-12.8-8.9-20.5c-1,5.4-0.3,10.1,0.4,15.4c-1.2-0.6-1.8-1.7-3-2.3c-0.4,7.7,6.8,9.9,10.5,15.1     c1.2,1.7,0.9,3.6-0.3,5.2c0.3,0.2,0.6,0.4,0.9,0.7c3.1,2.9,2.6-0.8,2.2-3.1c-0.5-2.4-0.8-4.9,1.2-4.9c2.1,0,3.3-0.6,2.6-2.7     c-0.8-2.2-1.7-3.3,0.9-4.9c0.7-0.4,1.2-1.1,1.7-1.9C154.7,409.8,153.8,409.3,153.2,408.5z"/>
			<g>
				<path class="st168" d="M124.1,291c15.4,10.7,28.2,18.8,28.1,18.9c-0.1,0.1-13.1-7.7-28.4-18.4c-15.5-10.6-27.2-20.2-27-20.5      C96.8,271,108.7,280.4,124.1,291z"/>
			</g>
			<path class="st154" d="M97.7,258l-7.6-1.3c0.2,3.9,1.5,9.6,6.7,14.3c1.7,1.6,4.3,3.6,7.3,5.9l-0.2-10.6L97.7,258z"/>
			<g>
				<g>
					<path class="st169" d="M115.6,253.9c1.2-4.4-1-7.9-0.6-7.9c-0.1-0.1,2.4,3.4,1.2,8.1c-1.3,4.6-4.9,6.7-4.9,6.5       C111.1,260.4,114.4,258.2,115.6,253.9z"/>
					<path class="st169" d="M118.8,255.3c1.2-5.3-0.9-9.5-0.6-9.6c-0.1-0.1,2.4,4.1,1.1,9.7c-1.4,5.6-5.8,8-5.8,7.8       C113.4,263.2,117.5,260.6,118.8,255.3z"/>
				</g>
			</g>
			<g>
				<path class="st169" d="M102.4,271.1c0.1,2.2,0,4.1-0.2,4.1c-0.2,0-0.3-1.8-0.4-4.1c-0.1-2.2,0.2-4.1,0-4      C102.3,267,102.3,268.9,102.4,271.1z"/>
				<path class="st169" d="M97.5,260.9c2.5,3.3,4.5,6.1,4.4,6.2c-0.1,0.1-2.3-2.5-4.8-5.9c-2.5-3.3-4.5-6.1-4.4-6.2      C92.8,255,94.9,257.6,97.5,260.9z"/>
				<path class="st169" d="M104.2,271.6c0.1,2.9,0,5.2-0.1,5.2c-0.2,0-0.3-2.3-0.4-5.2c-0.1-2.9,0-5.2,0.1-5.2      C104,266.5,104.2,268.8,104.2,271.6z"/>
				<path class="st169" d="M99.6,260.3c2.5,3.3,4.4,6.1,4.2,6.2c-0.1,0.1-2.2-2.5-4.7-5.9c-2.5-3.3-4.4-6.1-4.2-6.2      C95,254.3,97.1,256.9,99.6,260.3z"/>
			</g>
		</g>
		<g>
			<path class="st168" d="M182.7,325.3c3.4-0.7,6.2,0.1,6.1,0.1c0,0.2-2.7-0.3-6,0.4c-3.3,0.6-5.7,2-5.8,1.8     C176.9,327.6,179.3,326,182.7,325.3z"/>
			<path class="st169" d="M155.6,373.7c-3.4,6-6.5,11.7-9.2,17c-1.5,2.6-3.4,4.8-5.1,6.7c-2,1.9-1,4.7-1.3,6.9     c-0.3,9.5-6,13.1-5.8,12.9c-0.3,0,5.2-3.6,5.4-12.9c0.3-2.1-0.7-5,1.4-7.1c1.7-2,3.6-4.1,5-6.7c2.7-5.2,5.8-11,9.2-17     c13.4-23.9,25.5-42.6,26.1-42.1C180.9,331.1,169,349.8,155.6,373.7z"/>
			<path class="st169" d="M142.3,290c11.2,9.4,21.6,17.6,28.7,24c7.3,6.2,10.6,11.5,9.9,11.7c0.5-0.2-2.8-5.3-10.2-11.4     c-7.2-6.3-17.6-14.5-28.8-23.9c-11.2-9.3-21.1-18.3-27.4-25.5c-6.5-7.2-8.7-12.9-8.6-12.8c0.1-0.1,2.4,5.5,8.9,12.6     C121.3,271.8,131.1,280.6,142.3,290z"/>
			<path class="st168" d="M180.8,331.1c3.1-0.2,5.7-0.8,5.7-0.6c0,0.1-2.4,1-5.7,1.2c-3.2,0.2-5.8-0.1-5.8-0.2     C175,331.3,177.6,331.3,180.8,331.1z"/>
			<path class="st168" d="M148.5,404.4c1.5,6,4,10.4,3.9,10.5c-0.1,0.1-2.8-4.3-4.4-10.3c-1.7-6-2-11.1-1.8-11.1     C146.3,393.4,146.9,398.4,148.5,404.4z"/>
			<path class="st168" d="M140.7,413.2c-3-2.4-4.5-5.1-4.5-5.2c0.2-0.1,1.9,2.4,4.8,4.7c2.7,2.3,6.3,3.6,5.3,3.1     C147.3,416.7,143.5,415.5,140.7,413.2z"/>
			<path class="st168" d="M141.1,407.2c2.3,5.1,5.4,8.6,5.3,8.7c0,0.1-3.4-3.3-5.8-8.5c-2.4-5.2-2.8-9.9-2.7-9.9     C138.1,397.5,138.7,402.1,141.1,407.2z"/>
			<path class="st168" d="M138,416.4c2.9,2.5,6.1,4.1,8.3,5.3c2.4,1.1,3.1,2.8,2.9,2.8c0,0-0.7-1.4-3.1-2.5     c-2.2-1.2-5.5-2.6-8.5-5.3c-2.9-2.7-4.9-5.5-6.6-7.4c-1.6-2-3.1-2.5-3.1-2.5c0-0.2,1.7,0.3,3.4,2.3     C133.1,410.9,135.2,413.8,138,416.4z"/>
		</g>
	</g>
</g>
<g>
	<path class="st162" d="M161.3,127.1c3.7,0,5.1,4.6,10.7,4.4c5.6-0.2,17.9,3.9,20.8,12c2.9,8.1-11.8,18.8-20.7,14.8   C163.2,154.4,143.2,127.1,161.3,127.1z"/>
	<path class="st163" d="M168,140.6c0.8-2.7,10.4-1.1,14.1,2.3c-2.5-5.3-13-9.3-17-3.9c-6.1,10,8.4,16.1,17.3,19   c1.3-0.5,2.6-1.2,3.7-1.9C177.8,155,166.6,148.4,168,140.6z"/>
	<g>
		<path class="st164" d="M167,140c-1.1,5.3,2.7,9.4,2.1,9.4c-0.1,0-0.7-0.9-1.5-2.6c-0.7-1.6-2.1-4.1-1.1-7.1    c1.6-2.9,5.1-2.3,6.6-1.9c1.8,0.5,2.8,1.2,2.7,1.2c0,0.1-1.1-0.5-2.8-0.8C171.4,137.9,168.3,137.5,167,140z"/>
	</g>
</g>
<g>
	<path class="st170" d="M96.6,233.8c0,0-8.8,18.2-8.7,21.6c0.1,3.4,9.9,6.4,19.6,2c9.7-4.4,19.1-15.6,33-6.5   c1.7,1.1-1.2-4.3,0.6-4.5c1.8-0.2,2.3-2.6,1.2-5.7c0,0,2.8,0.7,3.5-1.9c0.7-2.5,7.7-15.9,22.9-24.3c15.2-8.4,22.2-23,24.1-31.2   c2-8.2,3.2-17,0-22.1c-3.3-5.1-21.1-13.9-31.9-12.1C150.1,151,106.8,213.9,96.6,233.8z"/>
	<path class="st171" d="M144.3,231.2c-3.6-2.3-3.8-10.2-4-14.3c-3.3,7.8,0.7,19.5-1.9,23.3c-2.2,4.2-7.8-3.3-12.6-4.4   c4.4,2.7,6.5,7.4,8.2,12.2c2.1,0.5,4.2,1.5,6.5,3c1.7,1.1-1.2-4.3,0.6-4.5c1.8-0.2,2.3-2.6,1.2-5.7c0,0,2.8,0.7,3.5-1.9   c0.7-2.5,7.7-15.9,22.9-24.3C158.2,218,146.7,233.5,144.3,231.2z"/>
	<path class="st171" d="M159.8,149.5c-12.3,5.3-53.3,65-63.2,84.3c0,0-4,8.4-6.6,14.8c5,5.8,15.8,13.2,19.3,5.2   c5.7-13.1,14.6-36.6,47-52.7c5.7-2.8,11.3-9.8,11-17.5C173.3,174.1,162.3,160.2,159.8,149.5z"/>
	<g>
		<path class="st172" d="M131.5,239.9c4.9,4.9,7.4,10,7.4,10c-0.2,0.1-2.9-4.8-7.7-9.6c-4.8-4.9-10-7-10-7.1    C121.2,233,126.6,235,131.5,239.9z"/>
		<path class="st172" d="M140.3,229.6c0.3,6.8,2.3,11.9,2.1,12c-0.1,0.1-2.4-5.1-2.7-12c-0.5-6.8,0.4-12.3,0.5-12.3    C140.6,217.4,139.9,222.9,140.3,229.6z"/>
	</g>
</g>
<g>
	<path class="st156" d="M164.8,186.4c5.3-5.4,12.9-17.5,7.5-31.1c-5.4-13.6-26.7-24.8-8.2-27.5c0,0-5.8-3.7-9.6,0.2   c-5.1,5.4-9,3.8-8.6,8.2c0,0-7.8,5.5-7.5,8.7c0.5,5.8,15.3,2.3,15.1,8.9C153.2,160.4,159.6,191.7,164.8,186.4z"/>
	<path class="st161" d="M146.3,148.9c-2-0.5-4.1-0.9-5-2.5c-1.6-2.5-0.3-5.1,2.1-5c7.8,2.4,17.8,7.7,23.1,15.2   c0.2-10.1-13.8-12.4-17.4-19.8c-1-2.4,0.2-4.3,1.9-6c-3.3,2.2-5.5,2-5.2,5.4c0,0-7.8,5.5-7.5,8.7c0.3,3,4.2,3.5,8,4.2   C146.3,149,146.3,149,146.3,148.9z"/>
	<g>
		<path class="st163" d="M158.1,147.7c4.2,2.9,7.5,6.3,8.8,9.4c1.4,3.1,1.3,5.2,1.4,5.2c-0.2,0-0.3-2.1-1.7-5    c-1.4-3-4.7-6.3-8.8-9.1c-4.1-2.8-8.2-5.2-10.3-7.8c-2.3-2.7-1.5-5.2-1.6-5c0.2-0.1-0.4,2.3,1.9,4.8    C149.9,142.6,154,144.9,158.1,147.7z"/>
	</g>
</g>
<g>
	<path class="st156" d="M74.2,215.9c12.7,10,7.3,34.3,32.1,39c0,0,10.1-32.7,32.1-45.7c21.9-13.1,23.9-13.5,25.5-18.9   c1.6-5.4,9.9-40.6-23.6-38.8C100.3,174.4,71.7,214,74.2,215.9z"/>
	<path class="st162" d="M90.2,195.1c15.4-9.3,37.2-0.5,54.7-3.6c6.2-1.2,13.9-5.8,16.7-11.8c4.4-9.5-2.2-16.7-7-26.1   c-3.6-1.7-8.3-2.6-14.3-2.3c-20.6,11.8-38.1,28-50,41.3C90.4,193.5,90.2,194.3,90.2,195.1z"/>
	<g>
		<path class="st163" d="M163.3,163.1c-3-7.3-10.1-10.3-15-11c-5-0.8-8.1-0.4-8.1-0.6c0,0,3.1-0.5,8.2,0.2    c4.9,0.6,12.3,3.7,15.4,11.2c3.1,7.2,2.5,14.5,1.9,19.5c-0.7,5-1.8,8-1.8,8c-0.1,0,0.8-3,1.4-8    C165.8,177.3,166.3,170.1,163.3,163.1z"/>
	</g>
	<path class="st162" d="M133.3,185.8c2.9-0.7,5.6,0.3,7.9,0.8c-7.3-5.1-16.9-4.7-24.8-10.4c-1.6-1-3.2-2.9-4-5   c-23.2,19.6-38.3,40.7-38.4,44.2c9.7-2.8,15.8-10.8,21.7-20.2c1-1.6,4.6-2.3,6.2-4.5c2.1-0.6,5.2-1.3,7.8-3   c10-2.7,20.3-0.2,29.3,4.3C138.4,188.9,136.2,186.8,133.3,185.8z"/>
	<path class="st161" d="M94.4,205.4c14.2,8.4,44.9-3.1,50.7-12.6C131,201.5,110.4,205.4,94.4,205.4z"/>
	<path class="st166" d="M84.8,220.5c-1.6-5.1-5.2-8.2-8.5-10c-1.9,3-2.6,4.9-2.2,5.4c11.4,10.8,7.3,34.3,32.1,39   c0,0,0.5-1.6,1.5-4.2C95.7,247.9,89.8,236.9,84.8,220.5z"/>
	<g>
		<path class="st163" d="M119.5,204.6c13-2.9,22.2-9,22.2-8.7c0.1,0-9,6.4-22.1,9.3c-13.1,3-24,1.4-23.9,1.2    C95.7,206.3,106.5,207.7,119.5,204.6z"/>
	</g>
</g>
<g>
	<g>
		<path class="st173" d="M152.6,185.2c-6.6-4.5-7.6-11.3-7.6-11.1c0.4-0.3,1.9,6.3,8,10.4c3.3,2.2,6.2-1.1,8.6-1.7    c2.4-0.9,4-0.6,4-0.5c0,0.2-1.5,0.1-3.8,1.1C159.8,183.9,156.5,187.6,152.6,185.2z"/>
		<path class="st173" d="M187.1,197.5c-3.1,2-7.2,1.1-8.4-1.2c-1.3-2-1.3-3.5-1.3-3.5c0.2-0.1,0.4,1.4,1.7,3.1    c1.2,1.9,4.6,2.6,7.5,0.8c5.9-3.5,7.6-9.5,7.9-9.2C194.7,187.4,193.4,193.7,187.1,197.5z"/>
	</g>
	<g>
		<path class="st166" d="M178.9,191.7c0,1-0.7,1.7-1.7,1.8c-1,0-1.7-0.7-1.8-1.7c0-1,0.7-1.7,1.7-1.8    C178.1,190,178.9,190.8,178.9,191.7z"/>
	</g>
</g>
<g>
	<path class="st164" d="M201.6,213.8c3.4,3.2,7.1,4.5,7,4.7c0,0.1-3.9-0.9-7.4-4.3c-3.6-3.3-4.9-7.1-4.8-7.1   C196.6,207,198.2,210.6,201.6,213.8z"/>
</g>
<path class="st166" d="M210.1,220.1c0,0-0.9-1.6-2.8-0.2c-1.8,1.3-9,13.9-8.9,17.7c0.1,3.8,3.5,4.6,3.5,4.6s3,1.8,4.2-0.6  C207.4,239.3,204.8,234.9,210.1,220.1z"/>
<path class="st174" d="M207.5,222.4c-4,4.8-6.7,15.3-8,18.3c1,1.3,2.5,1.6,2.5,1.6s1.1,0.7,2.3,0.6  C201.6,238,207.7,227.9,207.5,222.4z"/>
<g>
	<path class="st175" d="M203.6,230.4c2.2-6.4,5.9-10.6,5.9-10.5c0.1,0.1-3.3,4.3-5.4,10.6c-2.4,6.2-2.3,11.7-2.1,11.7   C201.4,242.4,201.1,236.7,203.6,230.4z"/>
</g>
<g>
	<path class="st166" d="M146.1,173.1c0,1-0.7,1.7-1.7,1.8c-1,0-1.7-0.7-1.8-1.7c0-1,0.7-1.7,1.7-1.8   C145.3,171.4,146.1,172.2,146.1,173.1z"/>
</g>
<path class="st7" d="M182,126.2c0,0-0.7,17.6-12.8,23.4c6.6,7.1,11.6,21.8,11.7,32.1c0,0,13-7.3,11.9-20.3c0,0,0.5-0.8,1.4-2.1  c2.3-3.4,7.5-9.9,14-12.2C208.1,147,185,116.9,182,126.2z"/>
<path class="st176" d="M208.1,147c0,0-20.4-28.3-23.4-19c0,0-1.6,6.5-6.6,12.5c0,0.6,9.9,17.6,18.5,15.3  C199.5,152.5,203.4,148.6,208.1,147z"/>
<g>
	<g>
		<g>
			<path class="st7" d="M175,121.7c0,0-0.1-29.1,29.4-22.8c7.7,1.6,21.9,4,19.1,20.8c0,0-2.9,5.4-3.6,9.5c-0.5,3.2-0.3,6.7-6.4,13.7     c-4.7,5.3-6.2,9.9-10.5,10.5c-3.4,0.4-10.5-1.3-15-3.7c-4-2-7.2-5-9.2-7.5c-2.1-2.5-2.6-4.8-3.7-10.7c0,0-5.4,1.3-7.6-6.5     C164.6,114.7,173.4,115.2,175,121.7z"/>
			<path class="st95" d="M190.3,114c-0.8,1-1.8,1.8-2.2,2.6c15-4.5,24,2.3,33.5-9.1c-3.8-6.1-12.1-7.6-17.3-8.7     c-24.8-5.2-28.7,14.5-29.3,20.9c1,2.4,2.6,5.2,3,7.8C179.2,121.1,182.4,115.8,190.3,114z"/>
			<g>
				<path class="st95" d="M207.3,135.5c-0.8-1.6-1.9-4.5-1.4-10c0,0-2,3.9,0.3,10.9l-2.3,1.4l3.3-0.8      C207.3,137,207.7,136.3,207.3,135.5z"/>
				<path class="st96" d="M203.2,137c0,0-1-1.2-1.7-0.7C200.8,136.7,203.2,137,203.2,137z"/>
			</g>
			<path class="st177" d="M220.9,118.3c-1.4-1.6-4.9-3.2-8.6-2.5c-1,0.2-2.1,1.3-2.8,2.7c0.6,0,7-1.5,11.8,1.7     C221.2,119.9,221.5,119,220.9,118.3z"/>
			<path class="st177" d="M187.9,111.9c4-1.8,11-0.7,14.3,1.2c0.8,0.4,0.1,2.1-0.7,3.3c-0.8-0.1-9.2-4.3-15.8-2.2     C186.3,113.4,186.9,112.3,187.9,111.9z"/>
			<g>
				<path class="st91" d="M188.6,118.6c0,0-0.2,2.8,1.1,4.1c0.8,0.8,5.4,2.5,7,1.6c1-0.5,1.8-4.4,1.8-4.4      C195.8,116.1,188.6,118.6,188.6,118.6z"/>
				<g>
					<path class="st178" d="M195,124.3c-1.7,0.1-3.2-1.2-3.3-3c-0.1-1.8,1.2-3.4,2.9-3.5c1.7-0.1,3.2,1.2,3.3,3       C198,122.6,196.7,124.1,195,124.3z"/>
					<path class="st179" d="M194.6,117.7c-0.9,0.1-1.6,0.4-2.1,1.1c1.9,0,3.8,0.4,5.4,1.3C197.5,118.7,196.1,117.6,194.6,117.7z"/>
					<path d="M195,123c-0.8,0-1.5-0.7-1.5-1.6c0-0.9,0.7-1.7,1.5-1.7c0.8,0,1.5,0.7,1.5,1.6C196.6,122.2,195.9,123,195,123z"/>
					<path class="st91" d="M194.5,121.1c-0.5,0-1-0.3-1.1-0.7c-0.1-0.4,0.3-0.8,0.8-0.8c0.5,0,1,0.3,1.1,0.7       C195.4,120.7,195,121,194.5,121.1z"/>
				</g>
				<g>
					<path d="M194.1,117.3c2.7,0.2,4.4,1,5,1.5c0.5,0.5-0.8,2.5-0.9,2.5c-0.1,0,0.4-1.5-0.3-2c-0.8-0.4-2.7-1-4.8-1.2       c-2.1-0.2-4.3,0.7-4.4,0.5C188.6,118.5,190.6,117,194.1,117.3z"/>
				</g>
			</g>
			<g>
				<path class="st91" d="M212.2,121.7c0,0-1.2,1-1.4,1.4c-0.3,0.8-1,2.8-0.6,3.5c0.4,0.8,5.8,1.7,7.1,1c1.1-0.6,1.3-3.2,1.3-3.2      C217.7,121.2,212.2,121.7,212.2,121.7z"/>
				<g>
					<path class="st178" d="M215,127.7c-1.5-0.2-2.4-1.6-2.1-3.2c0.3-1.6,1.7-2.7,3.2-2.5c1.5,0.2,2.4,1.6,2.1,3.2       C218,126.8,216.5,127.9,215,127.7z"/>
					<path class="st179" d="M216.1,122c-1-0.1-1.9,0.3-2.5,1c1.6-0.1,3.4,0.2,4.7,1.1C218.1,123,217.2,122.1,216.1,122z"/>
					<path d="M215.2,126.5c-0.7-0.1-1.2-0.8-1-1.6c0.1-0.8,0.9-1.3,1.6-1.2c0.7,0.1,1.2,0.8,1,1.6       C216.7,126.1,216,126.6,215.2,126.5z"/>
					<path class="st91" d="M215.1,124.8c-0.5,0-0.9-0.2-1-0.6c-0.1-0.4,0.2-0.7,0.6-0.7c0.4,0,0.9,0.2,1,0.6       C215.8,124.4,215.6,124.7,215.1,124.8z"/>
				</g>
				<path d="M211.9,121.5c0.6-0.4,2.3-0.1,3.4,0.2c2.2,0.6,3.3,1.5,3.7,2c0.4,0.5-0.5,2-0.6,1.9c-0.1,0,0.3-0.9-0.2-1.7      c-0.3-0.3-1.3-1-3-1.5c-1-0.3-2.5-0.4-3.2,0c-1.3,0.7-1.5,1.6-1.5,1.5C210.5,124,210.6,122.3,211.9,121.5z"/>
			</g>
		</g>
		<g>
			<path class="st180" d="M220.8,108.5c0,0-6.3,6-17.4,4.3c0,0-5.8,1-9.5,1.2c0,0,1.1-0.9,2-4.4c0,0-5.5,4.3-12.7,4.6     c0,0-6,8.5-5.1,13.8c0,0-2.6-2.9-3.9-8.2c0,0-3.4-4-6.4-1.6c0,0-3-13.1,0.5-22.1c3.1-8.1,13.9-17,21.6-15.8     c5.3,0.8,3.9-0.9,9.1-1.4c9.5-1,25,9,31.3,21c4.3,8.2-2.5,23.1-8.5,23.4C221.7,123.2,223.6,115.4,220.8,108.5z"/>
			<path class="st181" d="M172.6,108.6c-2.6,1.9-1.6,5.2-3.5,7.2c-0.9-7.1-1.7-14.2-0.4-20.9c-0.2,0.4-0.3,0.8-0.5,1.1     c-3.4,9-0.5,22.1-0.5,22.1c1.7-1.3,3.5-0.7,4.7,0.2C171.6,115.1,170.7,112.2,172.6,108.6z"/>
			<path class="st182" d="M205.2,88.3c-1.3-1.7,2.9-3.4,5.1-3.1c-3-0.5-5.3-0.8-8.4-0.6c1.6-0.5,3.5-2.5,5.8-2.2     c-3.4-0.5-6.8-1.1-10,0.7c-3.5-2.1-13,0.5-15.9,4.5c4.5-3.9,14.9-4.6,20.6-1.4c-3.8-0.6-7.8-0.1-11.3,2.2     c3.1-0.7,6.4-0.7,8.6-0.3c-1.6,0.5-4.1,1.2-5.3,2.8c5.2-2.2,10.3-0.8,15.5,0.3c-3.1,0-7,2.4-7.5,4.1c5.2-2.1,7.4-2.6,11.1-1.3     C211.2,89.2,206.3,90.8,205.2,88.3z"/>
			<path class="st181" d="M222.6,109.2c4.1-4,2.2-10.1-0.4-12.4c3.3,7.5-1.7,14.3-11.1,13.7c2.6-1.4,5.7-3.8,6.5-7.6     c-5,4.4-11,9.7-17.5,8.7c4.5-1.8,9.3-6.3,11.4-11.1c-4.3,4.3-9.7,7.8-15.6,11.1c1.2-2,2.2-3.4,2.1-4.8c-4.4,2.7-6.4,4.7-13.2,7.2     c6.3-0.8,9.5-2.3,9.5-2.3c-0.9,3.5-0.5,2.3-0.5,2.3c3.8-0.2,9.5-1.2,9.5-1.2c11.1,1.8,17.4-4.3,17.4-4.3     c2.2,5.3,1.5,11.1,1.1,13.5C225.3,114.8,223.3,111.9,222.6,109.2z"/>
			<path class="st181" d="M228,107.2c-1,11-6.3,15.9-6.3,15.9C228.6,120.7,228.5,110.7,228,107.2z"/>
			<path class="st181" d="M183.5,100.5c-7.1,6-9.8,18.2-5.5,26.5c0-1.1,0.2-2.4,0.5-3.6C175.4,116.1,179.8,107.2,183.5,100.5z"/>
			<path class="st181" d="M196.4,103.8c-5.8-0.5-11.9,4.5-13.2,10.3c0.4,0,1.4-0.1,1.8-0.2C186.8,108.2,192.2,104.4,196.4,103.8z"/>
			<path class="st181" d="M184,93.3c0.4-0.4,0.7-0.8,1.1-1.2C184.8,92.4,184.4,92.8,184,93.3z"/>
			<g>
				<path class="st177" d="M193.4,87.6c5.7-1.9,10.2,1,10,1c0,0.2-4.3-2.5-9.9-0.6c-5.4,1.7-9.1,4.8-9.2,4.6      C184.3,92.7,187.8,89.3,193.4,87.6z"/>
				<path class="st177" d="M197.6,89.3c3-1.4,5.7-0.4,5.6-0.2c0,0-2.5-0.8-5.4,0.6c-2.9,1.2-4.9,2.7-5,2.6      C192.7,92.3,194.7,90.5,197.6,89.3z"/>
				<path class="st177" d="M204.9,93.7c3.8-2.9,7.6-0.4,7.3-0.4c0.1,0.2-3.5-2-7,0.8c-3.7,2.2-7.1,3-7.1,2.9      C198,96.9,201.3,95.9,204.9,93.7z"/>
				<path class="st177" d="M224.1,103.9c-0.5,4-3.8,4.7-3.5,4.6c-0.3-0.2,2.6-1.1,3-4.7c0.1-3.4-1-5.3-0.7-5.4      C222.9,98.4,224.2,100.2,224.1,103.9z"/>
				<path class="st177" d="M226,118c-1.5,3.6-4.3,5.4-4.3,5.2c-0.1-0.1,2.4-1.9,3.9-5.4c1.5-3.4,2-6.5,2.1-6.5      C227.9,111.3,227.6,114.5,226,118z"/>
				<path class="st177" d="M210.1,109.9c3.7-1.8,5.6-4.6,5.7-4.5c0.2,0.1-1.7,3.2-5.5,5c-3.6,1.9-6.9,2.5-6.9,2.4      C203.3,112.6,206.5,111.8,210.1,109.9z"/>
				<path class="st177" d="M202.2,109.1c4.6-2.8,7.3-6.2,7.3-6.3c0.3,0.1-2.4,3.9-7,6.7c-4.5,2.9-8.5,4.6-8.6,4.5      C193.8,113.8,197.7,111.9,202.2,109.1z"/>
				<path class="st177" d="M186.6,109.1c3-3.6,6.7-4.9,6.7-4.6c0,0-3.4,1.4-6.4,5c-3,3.4-5,6.6-5.1,6.5      C181.7,115.9,183.5,112.5,186.6,109.1z"/>
				<path class="st177" d="M177.4,115c-1.4,7.1,0.8,12.7,0.6,12.7c0,0.1-2.5-5.6-1-12.8c1.3-7.2,4.8-12,4.9-11.9      C182,103.1,178.7,108,177.4,115z"/>
			</g>
			<path class="st183" d="M177.9,119.8c0,0-0.3-13.5,8.8-21.4C186.7,98.3,179.7,108.5,177.9,119.8z"/>
			<path class="st183" d="M206,99.7c0,0-1.1,4.1-6.7,5.6c-5.6,1.5-7.2,1.6-11.7,5.7c0,0,2.9-4.5,6.7-5.6     C198.1,104.4,203.2,103.2,206,99.7z"/>
			<path class="st183" d="M203.2,111.4c0,0,10.6-3.6,13.5-10.9C216.7,100.5,212.5,105.5,203.2,111.4z"/>
			<path class="st183" d="M215.6,109.4c0,0,6.5-3.3,6.5-6c0-2.7-1.1-5.3-3.7-7.7C218.3,95.7,224.6,103.1,215.6,109.4z"/>
			<path class="st183" d="M229.3,103.5c1.2,2.8,0,6.4-0.9,9.6c0,0,9-7.8-6.8-22.5C221.6,90.6,227,98.1,229.3,103.5z"/>
			<path class="st183" d="M202.8,90.8c0,0-5.5-0.9-12.4,4.5C190.5,95.4,197.2,91.7,202.8,90.8z"/>
			<path class="st183" d="M197.9,85.5c0,0-9-1.4-17.3,5.7C180.6,91.2,187.6,82.2,197.9,85.5z"/>
			<path class="st181" d="M174.1,119.6c0,0-1.8-10.7,4.4-19C178.6,100.7,170.2,106.8,174.1,119.6z"/>
			<path class="st183" d="M205.7,88.4c0,0,4.6-2.9,9.9,1C215.6,89.5,210,83.1,205.7,88.4z"/>
		</g>
	</g>
	<path class="st91" d="M207.1,141.5c0,0-5,1.1-13.4-3.1c0,0,0.7,4.5,3.1,6.2c1.4,1,5.2,2.4,7.8,1.6   C204.9,145.1,206,142.9,207.1,141.5z"/>
</g>
<g>
	<path class="st153" d="M140.9,151.4c-0.7-1.7,7.2-4.2,12.3,0.3c3.3,2.8,7.8,9.3,8.5,15c1.6,12.8-3,31.8-63.9,18.8   c0,0,27-11.8,29.7-15C130.2,167.3,141.2,152.6,140.9,151.4z"/>
	<g>
		<path class="st148" d="M156.3,175.8c-1.8,7-8.6,10.2-15.5,11.3c7.9-0.2,17-5.1,18.6-13.5c0.5-6.4-0.1-14.1-5.5-20.1    c-0.5-0.7-1.7-2-2.8-3.2c-2-1-4.2-1.2-6-1.1C155.3,156.8,158.8,167.7,156.3,175.8z"/>
	</g>
	<g>
		<path class="st149" d="M150.7,184.1c-10.1,4.8-20.6,3.6-27.5,3c-7.1-0.9-11.4-2-11.4-2c0-0.1,4.3,0.9,11.4,1.7    c7,0.6,17.4,1.7,27.3-3.1c10.5-5.4,8.7-18.6,5.5-24.1c-3.6-6.3-8.1-8-8-8.1c-0.1,0,4.5,1.6,8.2,8    C159.6,165,161.6,178.6,150.7,184.1z"/>
	</g>
</g>
<g>
	
		<rect x="49.7" y="195.1" transform="matrix(0.3711 -0.9286 0.9286 0.3711 -163.3431 206.7456)" class="st184" width="42.5" height="57.7"/>
	<path class="st185" d="M78.9,233.7c-4.2-11,6-20.2,5.8-27.3l-15.3-6c-4.6,12-6.6,25-14.5,37.8c-0.5,0.4-0.8,1.1-1,1.8l22,8.8   C79.8,244.1,80.1,238.4,78.9,233.7z"/>
	<polygon class="st186" points="105.6,215 52.1,193.6 51,196.3 104.3,218.3  "/>
	
		<rect x="73.4" y="227.3" transform="matrix(0.3713 -0.9285 0.9285 0.3713 -160.0908 224.2146)" class="st186" width="24.3" height="6"/>
</g>
<g>
	<path class="st7" d="M77.6,179.8c0,0-9.4,32-12.4,42.1c-1.9,6.3-7.3,10.6-8.5,14.2c-1.2,3.6-0.8,7.3,0.3,8.6   c0.8,0.9,5.8,3.8,9.9,3.6c1.4,0,2.4-1.1,2.4-1.1s1.8,2,3.3,0.2c0.3-0.3,1-1.5,1.4-2.2c1.7-3,3.2-6.8,2.9-9.3   c-0.3-2.4-2.6-7.7-2.1-11c0.5-3.3,20.3-30.6,21.3-36.2C97,183.1,83.1,172.4,77.6,179.8z"/>
	<g>
		<path class="st10" d="M71.5,243.5c-1.7,1.9-2.1,3.9-2.3,3.8c-0.1,0,0.2-2.2,1.9-4.2c1.8-1.8,3.1-3.3,3.2-3.3    C74.5,239.9,73.3,241.7,71.5,243.5z"/>
	</g>
</g>
<g>
	<path class="st156" d="M108,162.3c-5.7,0.2-22.8,9.3-22.8,9.3c-5.6,0.1-6.2,5.4-6.2,5.4c-2,1-1.8,4.2-1.8,4.2   c16.9-3.6,17.6,10.6,17.6,10.6c3.3-0.1,4.1-2.2,4.1-2.2c4.3-0.6,6-2.3,6-2.3c17.8-5.8,33.1-2.5,33.1-2.5s14.6,1.2,15.1-15   c0.5-14.3-11-18.6-11-18.6C129.1,151.8,113.7,162.2,108,162.3z"/>
	<path class="st161" d="M144.8,152.7c3.8,5.8,7.8,11.8,5.5,19.3c-1.8,6-6.6,11.1-12.5,12.3c4.7-8.1,3.5-17,3.3-24.9   c-0.6,9-1.8,18.7-8.7,24.8c3.6,0.3,5.8,0.7,5.8,0.7s14.6,1.2,15.1-15C153.5,159.9,148.1,154.8,144.8,152.7z"/>
	<path class="st187" d="M125.6,157.9c-8.2,3.4-14.2,4.3-21.3,6.8c-4.7,1.3-7.4,1.2-9.7,4.2c-0.7,1.9,0.7,2.7,2.2,2.9   c1.2-2.8,4.6-4.6,6.9-3.5c1.8,1.7,2.5,4.1,2,6.5c2.9-3,2.8-7.2,6.9-9.1c5.8-3.1,9.5-1.4,14.3,0.9c3.6,1.7,7.7,1,9.4-2   C139.1,157.9,131.5,156.5,125.6,157.9z"/>
	<path class="st161" d="M112.5,183.4c0.4-5.3,3.3-10.2,2.5-16.1c-2.2,6.6-6.2,12.6-10.7,18.1c-2.5-5.3,0.4-11.3-4.4-15.9   c2,7.9-0.3,14.3-6.3,17.6c1.2,2.5,1.3,4.7,1.3,4.7c3.3-0.1,4.1-2.2,4.1-2.2c4.3-0.6,6-2.3,6-2.3c10.7-3.5,20.5-3.7,26.6-3.3   C125.4,182.6,119,183.2,112.5,183.4z"/>
	<g>
		<path class="st163" d="M102,188.8c1.7-0.6,2.8-1.4,2.9-1.4c0.1,0.1-1,1.2-2.8,1.8c-1.7,0.6-3.2,0.7-3.2,0.6    C98.9,189.6,100.4,189.4,102,188.8z"/>
	</g>
	<g>
		<path class="st163" d="M121.3,183.9c9.3-0.8,16.8,0.8,16.7,1c0,0.1-7.5-1.2-16.7-0.4c-9.2,0.6-16.4,3.2-16.4,3    C104.9,187.3,112,184.5,121.3,183.9z"/>
	</g>
	<g>
		<path class="st163" d="M140.7,172.3c-1.8,8.3-8.3,11.8-8.2,11.7c-0.3-0.1,5.9-3.8,7.6-11.8c1.7-7.8-0.2-14.3,0-14.3    C140.3,157.7,142.5,164.3,140.7,172.3z"/>
	</g>
	<g>
		<path class="st163" d="M101.5,181.3c-0.5,4.8-2.3,8.3-2.4,8.2c-0.2-0.1,1.4-3.6,1.8-8.2c0.5-4.7,0-8.5,0.2-8.5    C101.2,172.7,102,176.6,101.5,181.3z"/>
		<path class="st163" d="M110.6,179.9c-2.9,5.1-6.4,8.3-6.4,8.2c-0.1-0.1,3.1-3.5,6-8.5c2.9-5,4.4-9.4,4.5-9.4    C114.8,170.3,113.5,174.8,110.6,179.9z"/>
	</g>
	<path class="st166" d="M94,174.5c-4.8-3.4-8.8-2.8-8.8-2.8c-5.6,0.1-6.2,5.4-6.2,5.4c-2,1-1.8,4.2-1.8,4.2   c16-2.6,17.6,10.6,17.6,10.6c3.3-0.1,4.1-2.2,4.1-2.2C99.5,186.4,99.8,179.2,94,174.5z"/>
	<path class="st174" d="M96.6,187.2c-0.9-9.5-7.4-13.2-15.1-13c-0.5,0.3-0.8,0-1-0.5c-1.3,1.5-1.5,3.4-1.5,3.4   c-0.4,0.2-0.8,0.6-1,0.9C89.3,174.8,93.5,183.1,96.6,187.2z"/>
	<g>
		<path class="st175" d="M90.4,177.4c6.2,4.2,6.1,11,6.2,10.7c-0.4,0.3-0.6-6.3-6.5-10.2c-6.3-3.6-12.1-0.2-11.9-0.3    C77.8,177.5,83.8,173.7,90.4,177.4z"/>
	</g>
</g>
<g>
	<path class="st10" d="M65.4,247c0,0.7,0.1,1.2,0,1.2c-0.1,0-0.3-0.5-0.3-1.2c0-0.7,0.1-1.2,0.2-1.2C65.4,245.8,65.4,246.4,65.4,247   z"/>
</g>
</svg>