<?xml version="1.0" encoding="iso-8859-1"?>
<!-- Generator: Adobe Illustrator 19.0.0, SVG Export Plug-In . SVG Version: 6.00 Build 0)  -->
<svg version="1.1" id="Layer_1" xmlns="http://www.w3.org/2000/svg" xmlns:xlink="http://www.w3.org/1999/xlink" x="0px" y="0px"
	 viewBox="0 0 512 512" style="enable-background:new 0 0 512 512;" xml:space="preserve">
<rect x="51.2" y="342.118" style="fill:#E6EAEE;" width="409.617" height="95.107"/>
<rect x="51.2" y="401.868" style="fill:#CDD3DA;" width="409.617" height="35.345"/>
<polygon style="fill:#F15540;" points="273.563,342.114 238.454,342.114 238.454,483.377 255.997,465.786 273.563,483.377 "/>
<polygon style="fill:#FFD160;" points="293.538,377.487 282.303,370.581 279.197,357.725 266.013,358.787 255.983,350.195 
	245.978,358.787 232.774,357.725 229.76,370.581 218.448,377.487 223.534,389.682 218.448,401.876 229.76,408.742 232.774,421.614 
	245.978,420.513 255.983,429.171 266.013,420.513 279.197,421.614 282.303,408.742 293.538,401.876 288.492,389.682 "/>
<path style="fill:#F7B64D;" d="M281.013,389.682c0,13.804-11.175,24.999-25.03,24.999c-13.783,0-24.999-11.197-24.999-24.999
	c0-13.836,11.218-25.011,24.999-25.011C269.838,364.671,281.013,375.846,281.013,389.682z"/>
<path style="fill:#5D6D7E;" d="M256,174.9H130.761v54.68c0,31.435,36.765,56.982,59.17,66.185
	c22.424,9.252,44.86,14.817,66.068,17.167c21.161-2.35,43.621-7.916,66.06-17.167c22.419-9.202,59.136-34.748,59.136-66.185V174.9
	H256z"/>
<g>
	<path style="fill:#283A4D;" d="M322.06,268.64c-22.439,9.26-44.899,14.836-66.06,17.145c-21.209-2.309-43.645-7.885-66.068-17.145
		c-22.405-9.189-59.17-34.739-59.17-66.179v27.119c0,31.435,36.765,56.982,59.17,66.185c22.424,9.252,44.86,14.817,66.068,17.167
		c21.161-2.35,43.621-7.916,66.06-17.167c22.419-9.202,59.136-34.748,59.136-66.185v-27.119
		C381.196,233.901,344.479,259.452,322.06,268.64z"/>
	<polygon style="fill:#283A4D;" points="256,28.623 0,131.025 256,233.444 512,131.025 	"/>
</g>
<polygon style="fill:#F15540;" points="95.5,169.234 109.281,174.746 257.915,115.298 244.089,109.786 "/>
<polygon style="fill:#FF7059;" points="109.281,289.098 109.281,174.746 95.5,169.234 95.5,289.102 102.41,282.225 "/>
<g>
</g>
<g>
</g>
<g>
</g>
<g>
</g>
<g>
</g>
<g>
</g>
<g>
</g>
<g>
</g>
<g>
</g>
<g>
</g>
<g>
</g>
<g>
</g>
<g>
</g>
<g>
</g>
<g>
</g>
</svg>
