<svg xmlns="http://www.w3.org/2000/svg" xmlns:xlink="http://www.w3.org/1999/xlink" version="1.1" id="Слой_1" x="0px" y="0px" viewBox="167.63999938964844 91.70999908447266 642.1942138671875 203.74002075195312" style="enable-background:new 0 0 1024 378.04;" xml:space="preserve">
<style type="text/css">
	.st0{fill:#FFFFFF;}
	.st1{fill:#BEAC83;}
	.st2{fill:#FFC423;}
	.st3{fill:#FE8A1E;}
	.st4{fill:#916F5D;}
	.st5{fill:#452F27;}
	.st6{font-family:'Charter-Roman';}
	.st7{font-size:56px;}
</style>
<path class="st0" d="M259.87,295.45c-1.55,0-3.06-0.43-4.39-1.26l-53.76-25.44c-10.21-4.84-18.8-12.44-24.84-21.98  c-6.05-9.54-9.24-20.56-9.24-31.86V100.03c0-4.59,3.73-8.32,8.32-8.32h167.81c4.59,0,8.32,3.73,8.32,8.32v114.87  c0,11.29-3.19,22.31-9.23,31.86c-6.05,9.55-14.64,17.15-24.85,21.98l-53.75,25.43C262.94,295.01,261.43,295.45,259.87,295.45"/>
<g>
	<polygon class="st1" points="310.07,127.78 310.07,113.26 308.88,113.97 261.45,142.3 259.83,142.3 259.8,142.3 259.8,225.29    259.83,225.29 324.57,209.43 324.57,125.49  "/>
	<polygon class="st2" points="257.27,142.31 210.97,116.67 208.14,125.16 205.85,129.64 197.42,127.49 195.03,209.43 259.8,225.29    259.8,142.31  "/>
	<g>
		<path class="st1" d="M271.37,254.43c0,0-5.95-30.19,35.69-27.98C307.06,226.45,298.92,264.7,271.37,254.43"/>
		<path class="st3" d="M253.41,262.8c0,0,2.08-25.13-28.78-25.28C224.63,237.52,224.63,267.47,253.41,262.8"/>
		<polygon class="st3" points="197.42,128.81 205.85,130.96 205.85,199.06 250.41,222.99 195.03,211.03   "/>
		<polygon class="st4" points="273.68,221.6 312.02,199.13 312.02,128.81 325.57,127.08 324.57,210.7   "/>
		<path class="st5" d="M343.73,97.4H175.94c-1.41,0-2.56,1.15-2.56,2.56v114.87c0,10.2,2.88,20.15,8.34,28.77    c5.46,8.62,13.22,15.48,22.44,19.85l54.14,25.62c0.43,0.32,0.96,0.52,1.54,0.52c0.58,0,1.11-0.2,1.54-0.52l54.13-25.62    c9.22-4.37,16.99-11.23,22.44-19.85c5.46-8.62,8.34-18.58,8.34-28.77V99.96C346.29,98.54,345.14,97.4,343.73,97.4 M338.37,102.52    L315.7,125.2l-1.88,0.48v-5.74l17.41-17.41H338.37z M292.17,252.16c-2.9,2.23-10,2.68-15.21,2.68c-0.96,0-1.84-0.01-2.64-0.04    l19.25-15.94c0.45-0.37,0.54-1.04,0.2-1.52c-0.36-0.5-1.06-0.62-1.57-0.26l-20.76,14.88c1.08-4.78,3.66-14.5,7.26-17.27    c4.82-3.72,27.11-6.97,27.11-6.97S297,248.44,292.17,252.16 M266.12,228.57l-3.72,3.72v-2.77L266.12,228.57z M262.4,223.19v-79.08    v-0.48l46.3-25.63v79.56L262.4,223.19z M266.85,228.38l9.59-2.45l-3.16,3.16l-10.88,10.88v-7.14L266.85,228.38z M273.28,229.64    l3.89-3.89l9.59-2.45l-6.21,6.21c-1.75,0.67-3.21,1.39-4.18,2.14c-1.84,1.42-3.39,3.89-4.67,6.71l-9.3,9.3v-7.14L273.28,229.64z     M297.82,220.47l9.59-2.45l-6.61,6.61c-2.48,0.42-5.61,0.99-8.84,1.69L297.82,220.47z M291.27,226.47    c-3.47,0.77-6.98,1.69-9.86,2.71l6.08-6.08l9.59-2.45L291.27,226.47z M271.27,239.33c-1.48,3.5-2.55,7.37-3.27,10.41l-5.6,5.6    v-7.14L271.27,239.33z M267.83,250.45c-0.33,1.44-0.57,2.66-0.72,3.49c-0.07,0.38-0.06,0.76-0.02,1.14l-4.69,3.36v-2.56    L267.83,250.45z M270.02,258.37c0.19,0.04,0.38,0.09,0.58,0.11c0.09,0,1.61,0.12,3.86,0.17l-1.19,1.19l-10.88,10.88v-6.04    L270.02,258.37z M273.28,260.38l1.72-1.72c0.62,0.01,1.27,0.02,1.97,0.02c2,0,3.75-0.07,5.32-0.17l-9.01,9.02L262.4,278.4v-7.14    L273.28,260.38z M305.27,223.91c-0.75,0.11-2.1,0.31-3.82,0.6l6.69-6.69l9.59-2.45l-9.42,9.42c-0.69-0.59-1.57-0.92-2.48-0.92    C305.64,223.88,305.46,223.88,305.27,223.91 M278.53,220.11l33.97-18.81c0.81-0.45,1.32-1.31,1.32-2.24v-68.1l8.43-2.15v80.13    L278.53,220.11z M330.69,102.52l-16.87,16.86v-5.74c0-0.4-0.11-0.78-0.28-1.13l10-10H330.69z M323,102.52l-9.66,9.66    c-0.21-0.29-0.46-0.55-0.78-0.74c-0.78-0.46-1.74-0.47-2.54-0.03l-6.82,3.78l12.66-12.66H323z M315.32,102.52l-13.34,13.34    l-16,8.86l22.19-22.19H315.32z M307.63,102.52l-22.87,22.87l-16,8.86l4.52-4.52l27.21-27.21H307.63z M292.26,102.52l-18.98,18.98    v0l-16.18,16.17l-4.6-2.54l20.77-20.77l11.84-11.84H292.26z M284.57,102.52l-11.3,11.3l-21.12,21.12l-4.6-2.54l25.72-25.72    l4.16-4.15H284.57z M276.89,102.52l-3.61,3.61l-26.07,26.07l-4.6-2.55l27.13-27.13H276.89z M269.21,102.52l-26.94,26.94l-4.6-2.55    l24.39-24.4H269.21z M261.52,102.52l-24.2,24.2l-4.6-2.54l21.65-21.66H261.52z M253.83,102.52l-21.46,21.46l-4.6-2.54l18.92-18.92    H253.83z M246.15,102.52l-18.72,18.73l-4.6-2.55l16.18-16.18H246.15z M238.46,102.52l-15.99,15.99l-4.6-2.55l13.44-13.44H238.46z     M230.78,102.52l-13.24,13.25l-4.6-2.54l10.7-10.7H230.78z M223.09,102.52l-10.51,10.51l-2.93-1.63    c-0.79-0.44-1.76-0.43-2.54,0.03c-0.13,0.07-0.23,0.18-0.34,0.27l9.18-9.19H223.09z M235.09,247.81l14.23,13.65    c-3.74-0.14-11.54-0.73-14.16-3.07c-3.49-3.13-9.09-19.55-9.09-19.55s16.94,3.77,20.43,6.9c2.5,2.24,3.92,9.34,4.52,13.2    l-14.8-12.38c-0.33-0.28-0.84-0.26-1.15,0.06C234.75,246.96,234.76,247.49,235.09,247.81 M235.05,237.12l10.58-10.58l5.69,1.46    l-10.8,10.8C238.71,238.19,236.84,237.62,235.05,237.12 M234.62,237.01c-2.14-0.59-4.13-1.09-5.69-1.45l10.57-10.58l5.69,1.45    L234.62,237.01z M197.42,208.94v-80.13l8.43,2.16v68.1c0,0.93,0.51,1.79,1.32,2.24l33.97,18.81L197.42,208.94z M201.14,124.47    l-5.65-1.45c-0.01,0-0.03,0-0.04-0.01l11.01-11.01c-0.38,0.46-0.61,1.02-0.61,1.63v6.12L201.14,124.47z M205.85,120.31v5.36    l-4.27-1.09L205.85,120.31z M178.5,102.52h6.17l-3.61,3.61l-2.56,2.56V102.52z M178.5,109.23l2.56-2.56l4.15-4.15h7.14l-11.3,11.3    l-2.56,2.56V109.23z M178.5,116.92l2.56-2.56l11.84-11.84h7.14l-18.98,18.98l-2.56,2.56V116.92z M178.5,124.6l2.56-2.56    l19.52-19.52h7.14l-26.66,26.67l-2.56,2.56V124.6z M178.5,132.29l2.56-2.56l27.21-27.21h7.14l-20.43,20.44    c-0.6-0.03-1.2,0.15-1.68,0.53c-0.62,0.48-0.99,1.23-0.99,2.02v0.12l-11.24,11.24l-2.56,2.56V132.29z M178.5,139.97l2.56-2.56    l11.24-11.24v7.14l-11.24,11.24l-2.56,2.56V139.97z M178.5,147.66l2.56-2.56l11.24-11.24V141l-11.24,11.24l-2.56,2.56V147.66z     M178.5,155.34l2.56-2.56l11.24-11.24v7.14l-11.24,11.24l-2.56,2.56V155.34z M178.5,163.03l2.56-2.56l11.24-11.24v7.14    l-11.24,11.24l-2.56,2.56V163.03z M178.5,170.71l2.56-2.56l11.24-11.24v7.14l-11.24,11.24l-2.56,2.56V170.71z M178.5,178.4    l2.56-2.56l11.24-11.24v7.14l-11.24,11.24l-2.56,2.56V178.4z M178.5,186.08l2.56-2.56l11.24-11.24v7.14l-7.63,7.63l-3.61,3.61v0    l-2.56,2.56V186.08z M178.5,193.77l2.56-2.56l4.15-4.16l7.09-7.09v7.14l-11.24,11.24l-2.56,2.56V193.77z M178.5,201.46l2.56-2.56    l11.24-11.24v7.14l-11.24,11.24l-2.56,2.56V201.46z M178.5,214.83v-5.69l2.56-2.56l11.24-11.24v7.14l-11.24,11.24l-2.51,2.51    C178.54,215.76,178.5,215.29,178.5,214.83 M178.57,216.75l2.49-2.49l11.24-11.24v7.14l-11.24,11.24l-1.8,1.8    C178.88,221.08,178.65,218.93,178.57,216.75 M179.34,223.67l1.72-1.72l11.24-11.24v0.21c0,1.17,0.79,2.19,1.93,2.48l2.01,0.52    l-15.18,15.17l-0.3,0.3C180.17,227.52,179.7,225.61,179.34,223.67 M180.89,229.8l0.17-0.17l15.61-15.61l5.69,1.45l-19.48,19.48    C182.1,233.29,181.46,231.56,180.89,229.8 M183.05,235.33l19.74-19.74l5.69,1.45l-22.94,22.94    C184.62,238.47,183.79,236.92,183.05,235.33 M186.05,240.86c-0.11-0.17-0.2-0.35-0.31-0.53l23.17-23.17l5.69,1.45l-25.94,25.94    C187.74,243.36,186.86,242.13,186.05,240.86 M188.9,244.85l26.13-26.13l5.69,1.46l-28.5,28.5    C191.04,247.46,189.95,246.18,188.9,244.85 M192.48,248.96l28.67-28.67l5.69,1.45l-30.61,30.61    C194.92,251.28,193.66,250.16,192.48,248.96 M196.52,252.6l30.75-30.75l5.69,1.45l-32.31,32.31    C199.21,254.69,197.84,253.67,196.52,252.6 M200.98,255.83l32.41-32.41l5.69,1.45l-10.58,10.58c-0.61-0.14-1.16-0.27-1.59-0.37    c-0.28-0.06-0.55-0.09-0.83-0.09c-1.08,0-2.13,0.46-2.86,1.28c-0.93,1.04-1.22,2.49-0.77,3.81c0.1,0.3,0.23,0.67,0.37,1.06    l-17.26,17.26C203.97,257.62,202.45,256.76,200.98,255.83 M206.35,258.82c-0.15-0.07-0.29-0.16-0.45-0.23l17.04-17.04    c0.49,1.39,1.15,3.21,1.93,5.21l-14.14,14.14L206.35,258.82z M211.1,261.06l13.93-13.92c0.64,1.63,1.35,3.35,2.11,5.04    l-11.19,11.19L211.1,261.06z M216.32,263.53l10.99-10.98c0.77,1.7,1.58,3.32,2.4,4.74l-8.54,8.54L216.32,263.53z M221.54,266    l8.37-8.37c0.91,1.55,1.82,2.84,2.7,3.62c0.14,0.13,0.31,0.24,0.47,0.36l-6.69,6.68L221.54,266z M226.75,268.48l6.62-6.63    c1.33,0.92,3.11,1.6,5.04,2.1l-6.81,6.81L226.75,268.48z M231.97,270.94l6.88-6.88c2.01,0.49,4.17,0.8,6.15,0.99l-8.19,8.18    L231.97,270.94z M237.19,273.41l8.32-8.32c2.5,0.22,4.69,0.26,5.87,0.26c0.43,0,0.84-0.09,1.24-0.23l-10.58,10.58L237.19,273.41z     M242.4,275.88l10.75-10.75l3.64,3.5l-9.54,9.54L242.4,275.88z M257.27,282.92l-4.43-2.1l1.54-1.54h0l2.9-2.89V282.92z     M257.27,275.84l-3.44,3.44l-1.36,1.36l-4.85-2.29l9.45-9.45l0.2,0.19V275.84z M257.27,264.17l-1.72-1.44l1.72-1.72V264.17z     M257.27,260.47l-2.02,2.01l-0.15-0.13c0.09-0.41,0.14-0.83,0.09-1.26c-0.12-1.04-0.34-2.85-0.73-4.96l2.81-2.81V260.47z     M257.27,252.78l-2.9,2.9c-0.35-1.81-0.82-3.8-1.43-5.71l4.33-4.33V252.78z M257.27,245.1l-4.46,4.46    c-0.6-1.81-1.35-3.52-2.25-4.89l6.71-6.71V245.1z M257.27,237.41l-6.94,6.94c-0.4-0.55-0.81-1.06-1.27-1.47    c-0.64-0.58-1.58-1.15-2.69-1.71l10.9-10.9V237.41z M257.27,229.73l-11.25,11.25c-1.47-0.71-3.23-1.4-5.1-2.04l10.83-10.83    l5.52,1.41V229.73z M257.27,144.11v79.08l-46.3-25.63v-79.56l46.3,25.63V144.11z M259.83,139.19l-2.38-1.32l15.83-15.83    l19.53-19.52h7.14l-26.67,26.67l-5.73,5.73L259.83,139.19z M262.4,282.92v-3.97l10.88-10.88l9.6-9.6c4.35-0.34,7.1-1.03,8.86-1.72    l-18.46,18.46l-4.07,4.07h0l-0.79,0.79L262.4,282.92z M333.62,240.86c-4.94,7.8-11.96,14.01-20.3,17.96l-0.11,0.05l23.28-23.28    C335.64,237.39,334.7,239.16,333.62,240.86 M336.98,234.55l-24.8,24.8l-13.56,6.42l41.62-41.62    C339.55,227.73,338.47,231.22,336.98,234.55 M340.36,223.49l-42.77,42.77l-13.56,6.42l57.11-57.11    C341.1,218.24,340.83,220.88,340.36,223.49 M341.17,214.83c0,0.06-0.01,0.12-0.01,0.18L283,273.16l-13.56,6.42l0.3-0.3l3.53-3.53    l19.41-19.41c0.95-0.46,1.5-0.88,1.83-1.13c1.2-0.93,2.54-2.57,3.9-4.6l42.75-42.74V214.83z M341.17,207.31l-41.75,41.75    c2.89-4.62,5.78-10.59,7.75-14.89l33.99-34V207.31z M341.17,199.63l-33.54,33.54c0.8-1.78,1.41-3.19,1.74-3.95    c0.54-1.28,0.36-2.75-0.49-3.85c-0.09-0.11-0.19-0.2-0.29-0.3l9.89-9.88l6.98-1.79c1.13-0.29,1.93-1.31,1.93-2.48v-4.64l13.8-13.8    V199.63z M341.17,191.94l-13.8,13.8v-7.14l11.54-11.54l2.26-2.26V191.94z M341.17,184.26l-2.8,2.8h0l-11,11v-7.14l3.86-3.86    l9.94-9.94V184.26z M341.17,176.57l-10.49,10.49h0.01l-3.32,3.31v-7.14l13.8-13.8V176.57z M341.17,168.89l-13.8,13.8v-7.14    l13.8-13.8V168.89z M341.17,161.2l-13.8,13.8v-7.14l13.8-13.8V161.2z M341.17,153.52l-13.8,13.8v-7.14l13.8-13.8V153.52z     M341.17,145.83l-13.8,13.8v-7.14l13.8-13.8V145.83z M341.17,138.15l-13.8,13.8v-7.14l13.8-13.8V138.15z M341.17,130.46    l-13.8,13.8v-7.14l13.8-13.8V130.46z M341.17,122.78l-13.8,13.8v-7.14l13.8-13.8V122.78z M341.17,115.09l-13.8,13.8v-3.38    c0-0.79-0.37-1.54-0.99-2.02c-0.14-0.11-0.3-0.2-0.46-0.28l15.25-15.26V115.09z M341.17,107.41l-15.66,15.65    c-0.43-0.12-0.89-0.15-1.34-0.03l-7.75,1.98l22.49-22.49h2.26V107.41z"/>
	</g>
</g>
<text transform="matrix(1.0051 0 0 1 381.8501 175.6299)"><tspan x="0" y="0" class="st6 st7">Московский</tspan><tspan x="0" y="67.2" class="st6 st7">Языковой Центр</tspan></text>
</svg>