<?xml version="1.0" encoding="iso-8859-1"?>
<!-- Generator: Adobe Illustrator 19.0.0, SVG Export Plug-In . SVG Version: 6.00 Build 0)  -->
<svg version="1.1" id="Layer_1" xmlns="http://www.w3.org/2000/svg" xmlns:xlink="http://www.w3.org/1999/xlink" x="0px" y="0px"
	 viewBox="0 0 512.002 512.002" style="enable-background:new 0 0 512.002 512.002;" xml:space="preserve">
<rect x="25.905" y="55.52" style="fill:#E6EAEE;" width="367.991" height="412.484"/>
<rect x="25.905" style="fill:#FF7059;" width="367.991" height="55.52"/>
<g>
	<rect x="25.905" y="99.516" style="fill:#AAB5BD;" width="367.991" height="5.711"/>
	<rect x="25.905" y="131.43" style="fill:#AAB5BD;" width="367.991" height="5.641"/>
	<rect x="25.905" y="163.294" style="fill:#AAB5BD;" width="367.974" height="5.69"/>
	<rect x="25.905" y="195.14" style="fill:#AAB5BD;" width="367.991" height="5.729"/>
	<rect x="25.905" y="227.021" style="fill:#AAB5BD;" width="367.991" height="5.68"/>
	<rect x="25.905" y="258.935" style="fill:#AAB5BD;" width="367.991" height="5.659"/>
	<rect x="25.905" y="290.833" style="fill:#AAB5BD;" width="367.991" height="5.659"/>
	<rect x="25.905" y="322.628" style="fill:#AAB5BD;" width="367.991" height="5.76"/>
	<rect x="25.905" y="354.526" style="fill:#AAB5BD;" width="367.991" height="5.71"/>
	<rect x="25.905" y="386.423" style="fill:#AAB5BD;" width="367.991" height="5.67"/>
	<rect x="25.905" y="418.304" style="fill:#AAB5BD;" width="367.991" height="5.68"/>
</g>
<rect x="70.673" y="55.52" style="fill:#52BFEB;" width="8.17" height="412.484"/>
<rect x="25.905" y="468.002" style="fill:#CDD3DA;" width="367.991" height="44"/>
<rect x="438.357" y="148.497" style="fill:#34495E;" width="34.625" height="333.517"/>
<rect x="438.357" y="313.054" style="fill:#CDD3DA;" width="34.625" height="4.371"/>
<rect x="438.357" y="493.5" style="fill:#34495E;" width="34.625" height="18.5"/>
<polygon style="fill:#283A4D;" points="460.18,108.901 451.104,108.901 438.361,148.49 472.986,148.49 "/>
<g>
	<rect x="453.939" y="99.516" style="fill:#CDD3DA;" width="3.485" height="9.39"/>
	<rect x="441.617" y="482.014" style="fill:#CDD3DA;" width="28.035" height="11.489"/>
</g>
<path style="fill:#283A4D;" d="M480.16,345.1v118.34c0,0.741-0.249,1.521-0.816,2.07c-0.567,0.55-1.335,0.91-2.174,0.91h-38.81
	v5.931h38.81c2.384,0,4.68-0.92,6.34-2.65c1.65-1.671,2.586-3.86,2.586-6.26V345.1H480.16z"/>
<g>
</g>
<g>
</g>
<g>
</g>
<g>
</g>
<g>
</g>
<g>
</g>
<g>
</g>
<g>
</g>
<g>
</g>
<g>
</g>
<g>
</g>
<g>
</g>
<g>
</g>
<g>
</g>
<g>
</g>
</svg>
