<?xml version="1.0" encoding="iso-8859-1"?>
<!-- Generator: Adobe Illustrator 19.0.0, SVG Export Plug-In . SVG Version: 6.00 Build 0)  -->
<svg version="1.1" id="Layer_1" xmlns="http://www.w3.org/2000/svg" xmlns:xlink="http://www.w3.org/1999/xlink" x="0px" y="0px"
	 viewBox="0 0 512 512" style="enable-background:new 0 0 512 512;" xml:space="preserve">
<circle style="fill:#3CB19C;" cx="256" cy="256" r="256"/>
<path style="fill:#1B8975;" d="M375.936,128.084l-7.252,12.084l-91.992,60.5L68.668,352.336l-7.2,5.468l152.1,150.628
	C227.376,510.74,241.54,512,256,512c139.148,0,252.288-111.044,255.832-249.34L375.936,128.084z"/>
<polygon style="fill:#D5A247;" points="423.4,246.792 193.328,246.792 193.328,383.556 423.4,377.164 "/>
<polygon style="fill:#C08A30;" points="353.192,379.112 270.016,381.672 270.016,239.496 353.192,239.496 "/>
<polygon style="fill:#EDBA51;" points="193.328,383.556 61.524,356.712 61.524,237.028 121.764,130.948 193.328,237.028 "/>
<polygon style="fill:#701411;" points="122.968,138.632 184.42,255.508 465.284,255.508 375.82,128.444 113.52,128.444 
	46.716,255.508 61.524,255.508 "/>
<polygon style="fill:#FFFFFF;" points="155.428,315.172 85.296,308.404 85.296,241.332 155.428,234.988 "/>
<g>
	<polygon style="fill:#168ECD;" points="114.292,272.108 88.6,272.224 88.6,244.492 114.292,242.416 	"/>
	<polygon style="fill:#168ECD;" points="150.388,271.956 119.88,272.084 119.88,241.956 150.388,239.496 	"/>
	<polygon style="fill:#168ECD;" points="114.292,306.972 88.6,304.768 88.6,277.036 114.292,277.276 	"/>
	<polygon style="fill:#168ECD;" points="150.388,310.068 119.88,307.448 119.88,277.324 150.388,277.604 	"/>
</g>
<polygon style="fill:#FFFFFF;" points="334.416,379.816 288.788,381.208 288.788,306.3 334.416,306.3 "/>
<polygon style="fill:#F89C1E;" points="330.416,379.94 292.92,381.084 292.92,309.676 330.416,309.628 "/>
<rect x="216.88" y="272.08" style="fill:#FFFFFF;" width="32.32" height="71.248"/>
<rect x="221.04" y="275.084" style="fill:#55B7E2;" width="23.98" height="65.252"/>
<rect x="370.24" y="272.08" style="fill:#FFFFFF;" width="32.32" height="71.248"/>
<rect x="374.4" y="275.084" style="fill:#55B7E2;" width="23.984" height="65.252"/>
<g>
</g>
<g>
</g>
<g>
</g>
<g>
</g>
<g>
</g>
<g>
</g>
<g>
</g>
<g>
</g>
<g>
</g>
<g>
</g>
<g>
</g>
<g>
</g>
<g>
</g>
<g>
</g>
<g>
</g>
</svg>
