<?xml version="1.0" encoding="iso-8859-1"?>
<!-- Generator: Adobe Illustrator 19.0.0, SVG Export Plug-In . SVG Version: 6.00 Build 0)  -->
<svg version="1.1" id="Layer_1" xmlns="http://www.w3.org/2000/svg" xmlns:xlink="http://www.w3.org/1999/xlink" x="0px" y="0px"
	 viewBox="0 0 512 512" style="enable-background:new 0 0 512 512;" xml:space="preserve">
<circle style="fill:#3CB19C;" cx="256" cy="256" r="256"/>
<path style="fill:#319181;" d="M357.548,130.144L156.1,369.96l-9.464,8.416l132.208,132.556
	c121.584-10.756,218.744-106.468,231.664-227.42L357.548,130.144z"/>
<path style="fill:#EDC55D;" d="M351.824,332.236c2.004-2.428,4.012-4.884,5.752-7.52c1.756-2.628,3.372-5.38,4.988-8.104
	c19.2-24.236,30.764-55.376,30.764-89.352c0-77.18-59.616-139.74-133.14-139.74c-41.668,0-78.792,20.128-103.212,51.596
	c-0.832,0.844-1.62,1.704-2.296,2.664c-0.552,0.776-1.068,1.66-1.584,2.564c-8.544,12.12-17,41.588-15.536,42.252
	c-0.396,2.736-0.668,5.476-0.668,8.156c0.02,5.616-0.3,11.284,0,16.896c0.292,5.648,2.44,9.516,3.516,15.048
	c2.052,10.432-0.16,20.752-3.496,30.092c-3.156,8.816-6.2,17.84-9.78,26.612c-2.916,7.108-13.856,16.648-5.196,22.184
	c4.22,2.684,12.432,2.636,14.956,6.368c2.752,4.048-0.832,9.188,0.528,12.996c1.244,3.468,3.716,1.304,5.46,3.184
	c2.936,3.116,0.272,3.24-0.788,5.36c-3.46,7.04-1.944,6.176,2.256,12.208c6.052,8.72-3.236,19.276,0.928,28.024
	c4.936,10.348,20.4,9.88,30.076,10.916c13.608,1.412,27.916,0.548,41.708,0.54l18.268,39.308h151.28
	C386.612,424.48,347.28,380.124,351.824,332.236z"/>
<circle style="fill:#FFFFFF;" cx="261.24" cy="222.828" r="85.252"/>
<g>
	<path style="fill:#E1574C;" d="M226.696,222.828c0,7.836-6.356,14.196-14.188,14.196c-7.836,0-14.196-6.36-14.196-14.196
		c0-7.828,6.36-14.184,14.196-14.184C220.34,208.644,226.696,215,226.696,222.828z"/>
	<path style="fill:#E1574C;" d="M275.428,222.828c0,7.836-6.344,14.196-14.18,14.196c-7.84,0-14.188-6.36-14.188-14.196
		c0-7.828,6.348-14.184,14.188-14.184C269.084,208.644,275.428,215,275.428,222.828z"/>
	<path style="fill:#E1574C;" d="M324.176,222.828c0,7.836-6.352,14.196-14.188,14.196c-7.832,0-14.192-6.36-14.192-14.196
		c0-7.828,6.36-14.184,14.192-14.184C317.824,208.644,324.176,215,324.176,222.828z"/>
</g>
<g>
</g>
<g>
</g>
<g>
</g>
<g>
</g>
<g>
</g>
<g>
</g>
<g>
</g>
<g>
</g>
<g>
</g>
<g>
</g>
<g>
</g>
<g>
</g>
<g>
</g>
<g>
</g>
<g>
</g>
</svg>
