<svg xmlns="http://www.w3.org/2000/svg" viewBox="0 0 500 329.26"><defs><style>.cls-1{isolation:isolate;}.cls-11,.cls-2{opacity:0.1;}.cls-11,.cls-19,.cls-2,.cls-21,.cls-24,.cls-7{mix-blend-mode:multiply;}.cls-11,.cls-19,.cls-24,.cls-3,.cls-7{fill:#231f20;}.cls-4{fill:#839846;}.cls-5{fill:#57452b;}.cls-6{fill:#3b723b;}.cls-7{opacity:0.08;}.cls-8{fill:#df9c81;}.cls-9{fill:#e2a791;}.cls-10{fill:#d48b75;}.cls-12{fill:#874640;}.cls-13{fill:#00476f;}.cls-14{fill:#677e97;}.cls-15{fill:#7dc9f9;}.cls-16{fill:#9df;}.cls-17{fill:#efdfc6;}.cls-18{fill:#d3b488;}.cls-19,.cls-21{opacity:0.04;}.cls-20{fill:#d8c3a0;}.cls-21{fill:#1c75bc;}.cls-22{fill:#e0a28c;}.cls-23{fill:#e5af9e;}.cls-24{opacity:0.07;}.cls-25{fill:#e5d0b5;}.cls-26{fill:#ead9c3;}.cls-27{fill:#fef8ed;}.cls-28{fill:#f2e5cd;}.cls-29{fill:#b45947;}.cls-30{fill:#c67a6d;}.cls-31{fill:#c1bbb4;}.cls-32{fill:#edf1f4;}.cls-33{fill:#dbd8d5;}.cls-34{fill:#3c2415;stroke:#3c2415;stroke-miterlimit:10;stroke-width:0.25px;}.cls-35{fill:#32722d;}.cls-36{fill:#377c32;}.cls-37{fill:#28682a;}.cls-38{fill:#307534;}.cls-39{fill:#5b381c;}.cls-40{fill:#659347;}.cls-41{fill:#fdf8db;}.cls-42{fill:#24404e;}</style></defs><title>task_5b45ada3e19a41.52619697 (1)</title><g class="cls-1"><g id="Слой_2" data-name="Слой 2"><g class="cls-2"><polygon class="cls-3" points="36.66 117.21 0 117.21 0 251.19 36.66 251.19 41.86 251.19 114.4 251.19 114.4 62.79 36.66 62.79 36.66 117.21"/><rect class="cls-3" x="111.45" y="84.85" width="59.77" height="165.46"/><rect class="cls-3" x="102.96" y="119.96" width="76.76" height="131.23"/><polygon class="cls-3" points="453.93 93.08 453.93 125.95 417.01 125.95 417.01 63.34 363.57 63.34 363.57 87.53 364.11 87.53 364.11 129.18 342.52 129.18 342.52 93.08 303.32 93.08 303.32 35.93 251.37 35.93 251.37 72.88 198.04 72.88 198.04 251.19 251.37 251.19 286.75 251.19 303.32 251.19 363.57 251.19 366.1 251.19 416.99 251.19 417.01 251.19 453.93 251.19 456.52 251.19 500 251.19 500 93.08 453.93 93.08"/></g><rect class="cls-4" x="326" y="233.19" width="9.7" height="18"/><path class="cls-5" d="M443.29,260.61a16.19,16.19,0,0,1-2.44,1.53,5.18,5.18,0,0,1-1.4.52.79.79,0,0,1-1-.5.82.82,0,0,1,.07-1.09,6.75,6.75,0,0,1,1-.95c.52-.4,1.24-.9,2.17-1.59s2-1.5,3.05-2.38,2.08-1.8,3-2.66c1.81-1.72,3.12-3.17,3.43-3s-.51,2-2.06,4.16a26.75,26.75,0,0,1-2.75,3.22A27.58,27.58,0,0,1,443.29,260.61Z" transform="translate(0 -20.74)"/><rect class="cls-5" x="435.88" y="225.43" width="6.49" height="25.17"/><path class="cls-6" d="M419.87,252.91S434.76,148.45,439,148.45s19.13,104.46,19.13,104.46A141.67,141.67,0,0,1,419.87,252.91Z" transform="translate(0 -20.74)"/><path class="cls-7" d="M447.88,244.5c-16.53-12.31-15.38-37.3-18-56.18-2.51,16.35-10,64.59-10,64.59a141.67,141.67,0,0,0,38.26,0l-.76-5.26C455.75,249,451,246.8,447.88,244.5Z" transform="translate(0 -20.74)"/><rect class="cls-5" x="49.48" y="229.72" width="5.85" height="22.7"/><path class="cls-6" d="M68,221.45c0,31.83-7.31,38.05-16.32,38.05s-16.32-6.22-16.32-38.05S42.7,144.2,51.71,144.2,68,189.61,68,221.45Z" transform="translate(0 -20.74)"/><path class="cls-7" d="M63.82,251.11c-11.51,1.8-21.8-2.87-26.74-34.32-.49-3.12-.91-6.39-1.25-9.74-.29,5-.44,9.82-.44,14.4,0,31.83,7.31,38.05,16.32,38.05,4.85,0,9.19-1.8,12.18-8.41Z" transform="translate(0 -20.74)"/></g><g id="Слой_1" data-name="Слой 1"><rect class="cls-4" y="251.16" width="500" height="78.1"/><rect class="cls-8" x="106.02" y="129.08" width="277.04" height="108"/><rect class="cls-9" x="105.85" y="129.36" width="277.35" height="54"/><rect class="cls-10" x="220.03" y="129.36" width="48.99" height="107.43"/><rect class="cls-11" x="105.85" y="129.36" width="277.35" height="4.78"/><polygon class="cls-12" points="428.77 129.36 65.3 129.36 107.68 94.45 386.39 94.45 428.77 129.36"/><rect class="cls-11" x="117.83" y="96.92" width="52.9" height="1.39"/><rect class="cls-11" x="102.96" y="101.51" width="52.9" height="1.39"/><rect class="cls-11" x="177.47" y="101.51" width="32.71" height="1.39"/><rect class="cls-11" x="231.79" y="101.51" width="52.9" height="1.39"/><rect class="cls-11" x="296.21" y="101.51" width="52.9" height="1.39"/><rect class="cls-11" x="190.41" y="96.92" width="44.17" height="1.39"/><rect class="cls-11" x="254.26" y="96.92" width="52.9" height="1.39"/><rect class="cls-11" x="327.79" y="96.92" width="42.28" height="1.39"/><rect class="cls-11" x="108.77" y="107.07" width="52.9" height="1.39"/><rect class="cls-11" x="93.9" y="111.66" width="52.9" height="1.39"/><rect class="cls-11" x="158.32" y="111.66" width="52.9" height="1.39"/><rect class="cls-11" x="222.74" y="111.66" width="52.9" height="1.39"/><rect class="cls-11" x="287.16" y="111.66" width="52.9" height="1.39"/><rect class="cls-11" x="355.5" y="111.66" width="45.05" height="1.39"/><rect class="cls-11" x="176.99" y="107.07" width="52.9" height="1.39"/><rect class="cls-11" x="254.57" y="107.07" width="34.18" height="1.39"/><rect class="cls-11" x="363.88" y="100.82" width="29.09" height="1.39"/><rect class="cls-11" x="377.95" y="117.22" width="29.09" height="1.39"/><rect class="cls-11" x="313.42" y="107.07" width="52.9" height="1.39"/><rect class="cls-11" x="108.35" y="117.22" width="35.64" height="1.39"/><rect class="cls-11" x="87.06" y="121.81" width="48.48" height="1.39"/><rect class="cls-11" x="149.27" y="121.81" width="52.9" height="1.39"/><rect class="cls-11" x="213.68" y="121.81" width="52.9" height="1.39"/><rect class="cls-11" x="285.49" y="121.81" width="38.12" height="1.39"/><rect class="cls-11" x="342.52" y="121.81" width="52.9" height="1.39"/><rect class="cls-11" x="167.94" y="117.22" width="52.9" height="1.39"/><rect class="cls-11" x="239.84" y="117.22" width="45.53" height="1.39"/><rect class="cls-11" x="304.37" y="117.22" width="52.9" height="1.39"/><rect class="cls-13" x="225.99" y="188.31" width="37.07" height="48.53"/><rect class="cls-14" x="227.43" y="188.31" width="34.18" height="48.55"/><rect class="cls-13" x="247.21" y="191.8" width="12.65" height="18.58"/><polygon class="cls-15" points="248.04 209.54 259.02 209.54 248.04 192.64 248.04 209.54"/><polygon class="cls-16" points="248.04 192.64 259.02 209.54 259.02 192.64 248.04 192.64"/><rect class="cls-13" x="229.19" y="191.8" width="12.65" height="18.58"/><polygon class="cls-15" points="230.03 209.54 241 209.54 230.03 192.64 230.03 209.54"/><polygon class="cls-16" points="230.03 192.64 241 209.54 241 192.64 230.03 192.64"/><rect class="cls-17" x="247.18" y="212.59" width="1.76" height="7.95"/><rect class="cls-17" x="240.1" y="212.59" width="1.76" height="7.95"/><rect class="cls-13" x="243.51" y="188.31" width="2.08" height="48.55"/><rect class="cls-18" x="106" y="236.68" width="277.04" height="14.49"/><rect class="cls-19" x="223.04" y="188.27" width="42.78" height="3.54"/><rect class="cls-10" x="292.54" y="165.55" width="24.59" height="20.48" transform="translate(480.62 -149.78) rotate(90)"/><rect class="cls-13" x="296.44" y="144.43" width="16.94" height="21.62"/><polygon class="cls-16" points="298.2 146.68 311.62 159.57 311.62 146.68 298.2 146.68"/><polygon class="cls-15" points="298.2 163.81 311.62 163.81 311.62 159.57 298.2 146.68 298.2 163.81"/><rect class="cls-13" x="297.51" y="152.35" width="14.8" height="1.23"/><rect class="cls-13" x="295.4" y="175.89" width="19.02" height="1.23" transform="translate(128.4 460.68) rotate(-90)"/><rect class="cls-17" x="294.59" y="163.81" width="20.63" height="1.47"/><rect class="cls-20" x="294.59" y="165.08" width="20.63" height="2.51"/><rect class="cls-11" x="294.59" y="167.58" width="20.63" height="1.58"/><rect class="cls-10" x="323.95" y="165.55" width="24.59" height="20.48" transform="translate(512.03 -181.19) rotate(90)"/><rect class="cls-13" x="327.85" y="144.43" width="16.94" height="21.62"/><polygon class="cls-16" points="329.61 146.68 343.03 159.57 343.03 146.68 329.61 146.68"/><polygon class="cls-15" points="329.61 163.81 343.03 163.81 343.03 159.57 329.61 146.68 329.61 163.81"/><rect class="cls-13" x="328.92" y="152.35" width="14.8" height="1.23"/><rect class="cls-13" x="326.81" y="175.89" width="19.02" height="1.23" transform="translate(159.81 492.09) rotate(-90)"/><rect class="cls-17" x="326" y="163.81" width="20.63" height="1.47"/><rect class="cls-20" x="326" y="165.08" width="20.63" height="2.51"/><rect class="cls-11" x="326" y="167.58" width="20.63" height="1.58"/><rect class="cls-10" x="292.54" y="218.75" width="24.59" height="20.48" transform="translate(533.82 -96.58) rotate(90)"/><rect class="cls-13" x="296.44" y="197.63" width="16.94" height="21.62"/><polygon class="cls-16" points="298.2 199.88 311.62 212.76 311.62 199.88 298.2 199.88"/><polygon class="cls-15" points="298.2 217 311.62 217 311.62 212.76 298.2 199.88 298.2 217"/><rect class="cls-13" x="297.51" y="205.55" width="14.8" height="1.23"/><rect class="cls-13" x="295.4" y="229.09" width="19.02" height="1.23" transform="translate(75.2 513.88) rotate(-90)"/><rect class="cls-17" x="294.59" y="217" width="20.63" height="1.47"/><rect class="cls-20" x="294.59" y="218.27" width="20.63" height="2.51"/><rect class="cls-11" x="294.59" y="220.78" width="20.63" height="1.58"/><rect class="cls-10" x="323.95" y="218.75" width="24.59" height="20.48" transform="translate(565.23 -127.99) rotate(90)"/><rect class="cls-13" x="327.85" y="197.63" width="16.94" height="21.62"/><polygon class="cls-16" points="329.61 199.88 343.03 212.76 343.03 199.88 329.61 199.88"/><polygon class="cls-15" points="329.61 217 343.03 217 343.03 212.76 329.61 199.88 329.61 217"/><rect class="cls-13" x="328.92" y="205.55" width="14.8" height="1.23"/><rect class="cls-13" x="326.81" y="229.09" width="19.02" height="1.23" transform="translate(106.61 545.29) rotate(-90)"/><rect class="cls-17" x="326" y="217" width="20.63" height="1.47"/><rect class="cls-20" x="326" y="218.27" width="20.63" height="2.51"/><rect class="cls-11" x="326" y="220.78" width="20.63" height="1.58"/><rect class="cls-17" x="219.98" y="176.29" width="49.09" height="12.02"/><rect class="cls-10" x="143.34" y="165.55" width="24.59" height="20.48" transform="translate(331.42 -0.58) rotate(90)"/><rect class="cls-13" x="147.24" y="144.43" width="16.94" height="21.62"/><polygon class="cls-16" points="149 146.68 162.41 159.57 162.41 146.68 149 146.68"/><polygon class="cls-15" points="149 163.81 162.41 163.81 162.41 159.57 149 146.68 149 163.81"/><rect class="cls-13" x="148.31" y="152.35" width="14.8" height="1.23"/><rect class="cls-13" x="146.2" y="175.89" width="19.02" height="1.23" transform="translate(-20.8 311.48) rotate(-90)"/><rect class="cls-17" x="145.39" y="163.81" width="20.63" height="1.47"/><rect class="cls-20" x="145.39" y="165.08" width="20.63" height="2.51"/><rect class="cls-11" x="145.39" y="167.58" width="20.63" height="1.58"/><rect class="cls-10" x="174.75" y="165.55" width="24.59" height="20.48" transform="translate(362.83 -31.99) rotate(90)"/><rect class="cls-13" x="178.65" y="144.43" width="16.94" height="21.62"/><polygon class="cls-16" points="180.41 146.68 193.83 159.57 193.83 146.68 180.41 146.68"/><polygon class="cls-15" points="180.41 163.81 193.83 163.81 193.83 159.57 180.41 146.68 180.41 163.81"/><rect class="cls-13" x="179.72" y="152.35" width="14.8" height="1.23"/><rect class="cls-13" x="177.61" y="175.89" width="19.02" height="1.23" transform="translate(10.61 342.89) rotate(-90)"/><rect class="cls-17" x="176.8" y="163.81" width="20.63" height="1.47"/><rect class="cls-20" x="176.8" y="165.08" width="20.63" height="2.51"/><rect class="cls-11" x="176.8" y="167.58" width="20.63" height="1.58"/><rect class="cls-10" x="143.34" y="218.75" width="24.59" height="20.48" transform="translate(384.62 52.62) rotate(90)"/><rect class="cls-13" x="147.24" y="197.63" width="16.94" height="21.62"/><polygon class="cls-16" points="149 199.88 162.41 212.76 162.41 199.88 149 199.88"/><polygon class="cls-15" points="149 217 162.41 217 162.41 212.76 149 199.88 149 217"/><rect class="cls-13" x="148.31" y="205.55" width="14.8" height="1.23"/><rect class="cls-13" x="146.2" y="229.09" width="19.02" height="1.23" transform="translate(-74 364.68) rotate(-90)"/><rect class="cls-17" x="145.39" y="217" width="20.63" height="1.47"/><rect class="cls-20" x="145.39" y="218.27" width="20.63" height="2.51"/><rect class="cls-11" x="145.39" y="220.78" width="20.63" height="1.58"/><rect class="cls-10" x="174.75" y="218.75" width="24.59" height="20.48" transform="translate(416.03 21.21) rotate(90)"/><rect class="cls-13" x="178.65" y="197.63" width="16.94" height="21.62"/><polygon class="cls-16" points="180.41 199.88 193.83 212.76 193.83 199.88 180.41 199.88"/><polygon class="cls-15" points="180.41 217 193.83 217 193.83 212.76 180.41 199.88 180.41 217"/><rect class="cls-13" x="179.72" y="205.55" width="14.8" height="1.23"/><rect class="cls-13" x="177.61" y="229.09" width="19.02" height="1.23" transform="translate(-42.59 396.09) rotate(-90)"/><rect class="cls-17" x="176.8" y="217" width="20.63" height="1.47"/><rect class="cls-20" x="176.8" y="218.27" width="20.63" height="2.51"/><rect class="cls-11" x="176.8" y="220.78" width="20.63" height="1.58"/><rect class="cls-19" x="353.73" y="134.17" width="3.06" height="117"/><rect class="cls-19" x="202.65" y="134.17" width="3.06" height="117"/><rect class="cls-19" x="219.98" y="134.17" width="3.06" height="117"/><rect class="cls-21" x="265.82" y="134.19" width="3.06" height="117"/><rect class="cls-19" x="283.33" y="134.17" width="3.06" height="117"/><rect class="cls-19" x="136.73" y="134.17" width="3.06" height="117"/><rect class="cls-22" x="356.79" y="129.36" width="71.6" height="121.81"/><rect class="cls-23" x="356.79" y="129.36" width="71.6" height="53.96"/><rect class="cls-20" x="356.77" y="236.68" width="71.64" height="14.49"/><rect class="cls-24" x="356.79" y="129.36" width="71.6" height="4.81"/><rect class="cls-25" x="355.35" y="122.25" width="74.29" height="2.51"/><rect class="cls-20" x="353.64" y="124.59" width="77.72" height="4.77"/><rect class="cls-22" x="65.41" y="129.35" width="71.6" height="121.81"/><rect class="cls-23" x="65.41" y="129.35" width="71.6" height="53.96"/><rect class="cls-20" x="65.39" y="236.67" width="71.64" height="14.49"/><rect class="cls-24" x="65.41" y="129.35" width="71.6" height="4.81"/><rect class="cls-25" x="63.97" y="122.24" width="74.29" height="2.51"/><rect class="cls-20" x="62.26" y="124.59" width="77.72" height="4.77"/><rect class="cls-25" x="215.28" y="129.36" width="4.8" height="107.3"/><rect class="cls-17" x="210.48" y="129.36" width="4.8" height="107.3"/><rect class="cls-25" x="204.18" y="129.36" width="17.4" height="2.97"/><rect class="cls-25" x="204.18" y="233.69" width="17.4" height="2.97"/><rect class="cls-25" x="278.56" y="129.36" width="4.8" height="107.3"/><rect class="cls-17" x="273.77" y="129.36" width="4.8" height="107.3"/><rect class="cls-26" x="268.97" y="129.36" width="4.8" height="107.3"/><rect class="cls-25" x="267.46" y="129.36" width="17.4" height="2.97"/><rect class="cls-25" x="267.46" y="233.69" width="17.4" height="2.97"/><rect class="cls-11" x="205.68" y="132.33" width="14.39" height="2.31"/><rect class="cls-11" x="268.97" y="132.33" width="14.39" height="2.31"/><polygon class="cls-20" points="294.82 129.36 244.75 85.74 194.67 129.36 294.82 129.36"/><polygon class="cls-17" points="200.83 129.36 244.75 91.11 288.66 129.36 200.83 129.36"/><rect class="cls-20" x="200.54" y="125.47" width="88.42" height="3.89"/><rect class="cls-20" x="203.45" y="236.71" width="82.14" height="14.46"/><rect class="cls-27" x="221.69" y="236.68" width="45.66" height="1.81"/><rect class="cls-28" x="221.69" y="238.5" width="45.66" height="3.02"/><rect class="cls-27" x="218.69" y="241.51" width="51.68" height="1.81"/><rect class="cls-28" x="218.69" y="243.33" width="51.68" height="3.02"/><rect class="cls-27" x="215.01" y="246.34" width="59.03" height="1.81"/><rect class="cls-28" x="215.01" y="248.16" width="59.03" height="3.02"/><circle class="cls-11" cx="244.72" cy="132.68" r="10.9" transform="translate(74.67 332.34) rotate(-80.81)"/><circle class="cls-29" cx="244.72" cy="132.68" r="9.56" transform="translate(-32.22 83.68) rotate(-22.64)"/><circle class="cls-25" cx="244.72" cy="111.94" r="8.02"/><rect class="cls-29" x="244.45" y="104.98" width="0.54" height="2.49"/><rect class="cls-29" x="241.59" y="126.49" width="0.54" height="2.49" transform="translate(-31.46 117.27) rotate(-29.99)"/><rect class="cls-29" x="239.5" y="128.58" width="0.54" height="2.49" transform="translate(7.43 251.79) rotate(-59.99)"/><rect class="cls-29" x="238.73" y="131.44" width="0.54" height="2.49" transform="translate(106.32 350.95) rotate(-90)"/><rect class="cls-29" x="239.5" y="134.29" width="0.54" height="2.49" transform="translate(242.31 390.22) rotate(-120.01)"/><rect class="cls-29" x="241.59" y="136.39" width="0.54" height="2.49" transform="translate(382.53 357) rotate(-150.01)"/><rect class="cls-29" x="244.45" y="137.15" width="0.54" height="2.49" transform="translate(489.44 256.06) rotate(180)"/><rect class="cls-29" x="247.31" y="136.39" width="0.54" height="2.49" transform="translate(530.8 112.33) rotate(150.01)"/><rect class="cls-29" x="249.4" y="134.29" width="0.54" height="2.49" transform="translate(491.9 -33.62) rotate(120.01)"/><rect class="cls-29" x="250.16" y="131.44" width="0.54" height="2.49" transform="translate(383.12 -138.49) rotate(90)"/><rect class="cls-29" x="249.4" y="128.58" width="0.54" height="2.49" transform="translate(237.23 -172.04) rotate(59.99)"/><rect class="cls-29" x="247.31" y="126.49" width="0.54" height="2.49" transform="translate(97.01 -127.39) rotate(29.99)"/><path class="cls-9" d="M246.08,132.68a1.36,1.36,0,1,1-1.36-1.36A1.36,1.36,0,0,1,246.08,132.68Z" transform="translate(0 -20.74)"/><path class="cls-29" d="M245.64,132.68a.93.93,0,1,1-.92-.92A.93.93,0,0,1,245.64,132.68Z" transform="translate(0 -20.74)"/><rect class="cls-13" x="244.32" y="106.23" width="0.79" height="5.72"/><rect class="cls-13" x="246.27" y="130.29" width="0.79" height="4.69" transform="translate(379.3 -134.77) rotate(90)"/><rect class="cls-10" x="364.35" y="165.55" width="24.59" height="20.48" transform="translate(552.43 -221.59) rotate(90)"/><rect class="cls-13" x="368.25" y="144.43" width="16.94" height="21.62"/><polygon class="cls-16" points="370.01 146.68 383.42 159.57 383.42 146.68 370.01 146.68"/><polygon class="cls-15" points="370.01 163.81 383.42 163.81 383.42 159.57 370.01 146.68 370.01 163.81"/><rect class="cls-13" x="369.32" y="152.35" width="14.8" height="1.23"/><rect class="cls-13" x="367.21" y="175.89" width="19.02" height="1.23" transform="translate(200.21 532.49) rotate(-90)"/><rect class="cls-17" x="366.4" y="163.81" width="20.63" height="1.47"/><rect class="cls-20" x="366.4" y="165.08" width="20.63" height="2.51"/><rect class="cls-11" x="366.4" y="167.58" width="20.63" height="1.58"/><rect class="cls-10" x="395.76" y="165.55" width="24.59" height="20.48" transform="translate(583.84 -253) rotate(90)"/><rect class="cls-13" x="399.66" y="144.43" width="16.94" height="21.62"/><polygon class="cls-16" points="401.42 146.68 414.83 159.57 414.83 146.68 401.42 146.68"/><polygon class="cls-15" points="401.42 163.81 414.83 163.81 414.83 159.57 401.42 146.68 401.42 163.81"/><rect class="cls-13" x="400.73" y="152.35" width="14.8" height="1.23"/><rect class="cls-13" x="398.62" y="175.89" width="19.02" height="1.23" transform="translate(231.62 563.9) rotate(-90)"/><rect class="cls-17" x="397.81" y="163.81" width="20.63" height="1.47"/><rect class="cls-20" x="397.81" y="165.08" width="20.63" height="2.51"/><rect class="cls-11" x="397.81" y="167.58" width="20.63" height="1.58"/><rect class="cls-10" x="364.35" y="218.75" width="24.59" height="20.48" transform="translate(605.63 -168.39) rotate(90)"/><rect class="cls-13" x="368.25" y="197.63" width="16.94" height="21.62"/><polygon class="cls-16" points="370.01 199.88 383.42 212.76 383.42 199.88 370.01 199.88"/><polygon class="cls-15" points="370.01 217 383.42 217 383.42 212.76 370.01 199.88 370.01 217"/><rect class="cls-13" x="369.32" y="205.55" width="14.8" height="1.23"/><rect class="cls-13" x="367.21" y="229.09" width="19.02" height="1.23" transform="translate(147.01 585.69) rotate(-90)"/><rect class="cls-17" x="366.4" y="217" width="20.63" height="1.47"/><rect class="cls-20" x="366.4" y="218.27" width="20.63" height="2.51"/><rect class="cls-11" x="366.4" y="220.78" width="20.63" height="1.58"/><rect class="cls-10" x="395.76" y="218.75" width="24.59" height="20.48" transform="translate(637.04 -199.8) rotate(90)"/><rect class="cls-13" x="399.66" y="197.63" width="16.94" height="21.62"/><polygon class="cls-16" points="401.42 199.88 414.83 212.76 414.83 199.88 401.42 199.88"/><polygon class="cls-15" points="401.42 217 414.83 217 414.83 212.76 401.42 199.88 401.42 217"/><rect class="cls-13" x="400.73" y="205.55" width="14.8" height="1.23"/><rect class="cls-13" x="398.62" y="229.09" width="19.02" height="1.23" transform="translate(178.42 617.1) rotate(-90)"/><rect class="cls-17" x="397.81" y="217" width="20.63" height="1.47"/><rect class="cls-20" x="397.81" y="218.27" width="20.63" height="2.51"/><rect class="cls-11" x="397.81" y="220.78" width="20.63" height="1.58"/><rect class="cls-10" x="73.13" y="165.55" width="24.59" height="20.48" transform="translate(261.21 69.63) rotate(90)"/><rect class="cls-13" x="77.03" y="144.43" width="16.94" height="21.62"/><polygon class="cls-16" points="78.8 146.68 92.21 159.57 92.21 146.68 78.8 146.68"/><polygon class="cls-15" points="78.8 163.81 92.21 163.81 92.21 159.57 78.8 146.68 78.8 163.81"/><rect class="cls-13" x="78.1" y="152.35" width="14.8" height="1.23"/><rect class="cls-13" x="75.99" y="175.89" width="19.02" height="1.23" transform="translate(-91.01 241.27) rotate(-90)"/><rect class="cls-17" x="75.19" y="163.81" width="20.63" height="1.47"/><rect class="cls-20" x="75.19" y="165.08" width="20.63" height="2.51"/><rect class="cls-11" x="75.19" y="167.58" width="20.63" height="1.58"/><rect class="cls-10" x="104.54" y="165.55" width="24.59" height="20.48" transform="translate(292.63 38.22) rotate(90)"/><rect class="cls-13" x="108.44" y="144.43" width="16.94" height="21.62"/><polygon class="cls-16" points="110.21 146.68 123.62 159.57 123.62 146.68 110.21 146.68"/><polygon class="cls-15" points="110.21 163.81 123.62 163.81 123.62 159.57 110.21 146.68 110.21 163.81"/><rect class="cls-13" x="109.51" y="152.35" width="14.8" height="1.23"/><rect class="cls-13" x="107.4" y="175.89" width="19.02" height="1.23" transform="translate(-59.6 272.68) rotate(-90)"/><rect class="cls-17" x="106.6" y="163.81" width="20.63" height="1.47"/><rect class="cls-20" x="106.6" y="165.08" width="20.63" height="2.51"/><rect class="cls-11" x="106.6" y="167.58" width="20.63" height="1.58"/><rect class="cls-10" x="73.13" y="218.75" width="24.59" height="20.48" transform="translate(314.41 122.82) rotate(90)"/><rect class="cls-13" x="77.03" y="197.63" width="16.94" height="21.62"/><polygon class="cls-16" points="78.8 199.88 92.21 212.76 92.21 199.88 78.8 199.88"/><polygon class="cls-15" points="78.8 217 92.21 217 92.21 212.76 78.8 199.88 78.8 217"/><rect class="cls-13" x="78.1" y="205.55" width="14.8" height="1.23"/><rect class="cls-13" x="75.99" y="229.09" width="19.02" height="1.23" transform="translate(-144.2 294.47) rotate(-90)"/><rect class="cls-17" x="75.19" y="217" width="20.63" height="1.47"/><rect class="cls-20" x="75.19" y="218.27" width="20.63" height="2.51"/><rect class="cls-11" x="75.19" y="220.78" width="20.63" height="1.58"/><rect class="cls-10" x="104.54" y="218.75" width="24.59" height="20.48" transform="translate(345.82 91.41) rotate(90)"/><rect class="cls-13" x="108.44" y="197.63" width="16.94" height="21.62"/><polygon class="cls-16" points="110.21 199.88 123.62 212.76 123.62 199.88 110.21 199.88"/><polygon class="cls-15" points="110.21 217 123.62 217 123.62 212.76 110.21 199.88 110.21 217"/><rect class="cls-13" x="109.51" y="205.55" width="14.8" height="1.23"/><rect class="cls-13" x="107.4" y="229.09" width="19.02" height="1.23" transform="translate(-112.79 325.88) rotate(-90)"/><rect class="cls-17" x="106.6" y="217" width="20.63" height="1.47"/><rect class="cls-20" x="106.6" y="218.27" width="20.63" height="2.51"/><rect class="cls-11" x="106.6" y="220.78" width="20.63" height="1.58"/><rect class="cls-30" x="232.17" y="165.36" width="24.59" height="20.48" transform="translate(420.07 -89.61) rotate(90)"/><rect class="cls-13" x="236.08" y="144.24" width="16.94" height="21.62"/><polygon class="cls-16" points="237.84 146.49 251.25 159.38 251.25 146.49 237.84 146.49"/><polygon class="cls-15" points="237.84 163.62 251.25 163.62 251.25 159.38 237.84 146.49 237.84 163.62"/><rect class="cls-13" x="237.15" y="152.16" width="14.8" height="1.23"/><rect class="cls-13" x="235.04" y="175.7" width="19.02" height="1.23" transform="translate(68.23 400.12) rotate(-90)"/><rect class="cls-17" x="234.23" y="163.61" width="20.63" height="1.47"/><rect class="cls-20" x="234.23" y="164.89" width="20.63" height="2.51"/><rect class="cls-11" x="234.23" y="167.39" width="20.63" height="1.58"/><rect class="cls-10" x="75.19" y="176.29" width="6.99" height="2.45"/><rect class="cls-10" x="101.45" y="136.44" width="6.99" height="2.45"/><rect class="cls-10" x="126.61" y="157.14" width="5.6" height="2.45"/><rect class="cls-10" x="171.2" y="147.86" width="5.6" height="2.45"/><rect class="cls-10" x="165.59" y="213.05" width="5.6" height="2.45"/><rect class="cls-10" x="65.41" y="139.26" width="6.99" height="2.45"/><rect class="cls-10" x="65.41" y="189.75" width="6.99" height="2.45"/><rect class="cls-10" x="82.62" y="230.41" width="6.99" height="2.45"/><rect class="cls-10" x="112.14" y="185.52" width="6.99" height="2.45"/><rect class="cls-10" x="294.59" y="175.66" width="6.99" height="2.45"/><rect class="cls-30" x="220.08" y="157.11" width="6.99" height="2.45"/><rect class="cls-30" x="257.65" y="169.89" width="6.99" height="2.45"/><rect class="cls-10" x="366.52" y="136.74" width="6.99" height="2.45"/><rect class="cls-10" x="413.1" y="175.66" width="6.99" height="2.45"/><rect class="cls-10" x="391.85" y="211.39" width="6.99" height="2.45"/><rect class="cls-10" x="314.49" y="161.52" width="6.99" height="2.45"/><rect class="cls-10" x="183.01" y="228.46" width="6.99" height="2.45"/><rect class="cls-10" x="78.68" y="179.23" width="6.99" height="2.45"/><rect class="cls-10" x="123.11" y="225.52" width="6.99" height="2.45"/><rect class="cls-10" x="126.61" y="228.46" width="6.99" height="2.45"/><rect class="cls-10" x="164.18" y="136.99" width="6.99" height="2.45"/><rect class="cls-10" x="299.2" y="226.25" width="6.99" height="2.45"/><rect class="cls-10" x="295.31" y="229.19" width="6.99" height="2.45"/><rect class="cls-10" x="364.1" y="186.46" width="6.99" height="2.45"/><rect class="cls-10" x="360.21" y="189.4" width="6.99" height="2.45"/><rect class="cls-10" x="169.65" y="186.22" width="6.99" height="2.45"/><rect class="cls-10" x="165.76" y="189.16" width="6.99" height="2.45"/><rect class="cls-10" x="377.01" y="228.3" width="6.99" height="2.45"/><rect class="cls-10" x="380.97" y="231.24" width="6.99" height="2.45"/><rect class="cls-31" x="215.01" y="251.13" width="59.03" height="78.13"/><rect class="cls-31" y="271.93" width="500" height="22.67"/><path class="cls-32" d="M75,41.68c0-.14,0-.28,0-.41A11.9,11.9,0,0,0,54,33.7a10.42,10.42,0,0,0-4.72-1.11c-5.36,0-9.71,3.93-9.71,8.78a8.23,8.23,0,0,0,.35,2.34c-3.29,1.74-5.39,4.41-5.39,7.4,0,5.23,6.41,9.47,14.33,9.47a19.8,19.8,0,0,0,7.63-1.46,9.14,9.14,0,0,0,9.07,0A11.73,11.73,0,0,0,71.92,61c6,0,10.92-4.41,10.92-9.85C82.84,46.65,79.55,42.89,75,41.68Z" transform="translate(0 -20.74)"/><path class="cls-32" d="M220.11,35.24c-1.36-3.83-5.61-6.63-10.66-6.63a12.32,12.32,0,0,0-7.86,2.71,9.77,9.77,0,0,0-7.74-3.8,10.15,10.15,0,0,0-2.35.29,13.54,13.54,0,0,0-22.34-2.14,11.81,11.81,0,0,0-5.37-1.27c-6.09,0-11,4.48-11,10a9.28,9.28,0,0,0,.39,2.65c-3.73,2-6.13,5-6.13,8.42,0,6,7.29,10.77,16.29,10.77A22.64,22.64,0,0,0,172,54.58a10.4,10.4,0,0,0,10.32,0,13.46,13.46,0,0,0,15.12-.4,10.74,10.74,0,0,0,13.73-.61,12.85,12.85,0,0,0,5.73,1.32c6.39,0,11.56-4.48,11.56-10C228.45,40.29,224.93,36.45,220.11,35.24Z" transform="translate(0 -20.74)"/><path class="cls-32" d="M454.53,34.29c0-.14,0-.27,0-.41a11.91,11.91,0,0,0-21.09-7.57,10.55,10.55,0,0,0-4.72-1.11,10.34,10.34,0,0,0-5.61,1.63,8.51,8.51,0,0,0-13.19,7.11h0A6.09,6.09,0,0,0,403.86,40a6.17,6.17,0,0,0,.38,2.11c-2,1.2-3.23,2.72-3.23,4.37,0,3.91,6.72,7.07,15,7.07a28.61,28.61,0,0,0,7.46-.94,20.07,20.07,0,0,0,3.64.53,28.35,28.35,0,0,0,21.85.16,12.14,12.14,0,0,0,2.43.25c6,0,10.92-4.41,10.92-9.84C462.33,39.27,459,35.5,454.53,34.29Z" transform="translate(0 -20.74)"/><path class="cls-33" d="M498,304.5h-6v-1h6Zm-12,0h-6v-1h6Zm-12,0h-6v-1h6Zm-12,0h-6v-1h6Zm-12,0h-6v-1h6Zm-12,0h-6v-1h6Zm-12,0h-6v-1h6Zm-12,0h-6v-1h6Zm-12,0h-6v-1h6Zm-12,0h-6v-1h6Zm-12,0h-6v-1h6Zm-12,0h-6v-1h6Zm-12,0h-6v-1h6Zm-12,0h-6v-1h6Zm-12,0h-6v-1h6Zm-12,0h-6v-1h6Zm-12,0h-6v-1h6Zm-12,0h-6v-1h6Zm-12,0h-6v-1h6Zm-12,0h-6v-1h6Zm-12,0h-6v-1h6Zm-12,0h-6v-1h6Zm-12,0h-6v-1h6Zm-12,0h-6v-1h6Zm-12,0h-6v-1h6Zm-12,0h-6v-1h6Zm-12,0h-6v-1h6Zm-12,0h-6v-1h6Zm-12,0h-6v-1h6Zm-12,0h-6v-1h6Zm-12,0h-6v-1h6Zm-12,0h-6v-1h6Zm-12,0h-6v-1h6Zm-12,0H96v-1h6Zm-12,0H84v-1h6Zm-12,0H72v-1h6Zm-12,0H60v-1h6Zm-12,0H48v-1h6Zm-12,0H36v-1h6Zm-12,0H24v-1h6Zm-12,0H12v-1h6Zm-12,0H0v-1H6Z" transform="translate(0 -20.74)"/><path class="cls-33" d="M245,350h-1v-6h1Zm0-12h-1v-6h1Zm0-12h-1v-6h1Zm0-12h-1v-6h1Zm0-12h-1v-6h1Zm0-12h-1v-6h1Zm0-12h-1v-5.51h1Z" transform="translate(0 -20.74)"/><path class="cls-34" d="M227.88,205v.6h-3.3V200.3h3.3v.6h-2.64v1.71h2.5v.59h-2.5V205Z" transform="translate(0 -20.74)"/><path class="cls-34" d="M229.82,205.63h-.67V200.3h3.16v.61h-2.49Z" transform="translate(0 -20.74)"/><path class="cls-34" d="M233.82,205.32a1.83,1.83,0,0,1-.73-1.18h.67a1.25,1.25,0,0,0,.55.73,1.74,1.74,0,0,0,1,.27,1.46,1.46,0,0,0,1.17-.52,2.24,2.24,0,0,0,.5-1.42H234.6v-.6H237a2.3,2.3,0,0,0-.52-1.33,1.5,1.5,0,0,0-1.14-.48,1.67,1.67,0,0,0-1,.3,1.44,1.44,0,0,0-.55.82h-.67a1.88,1.88,0,0,1,.73-1.25,2.35,2.35,0,0,1,1.49-.48,2.14,2.14,0,0,1,1.72.75,3,3,0,0,1,.63,2,3.09,3.09,0,0,1-.63,2,2.14,2.14,0,0,1-1.73.75A2.49,2.49,0,0,1,233.82,205.32Z" transform="translate(0 -20.74)"/><path class="cls-34" d="M241.17,203.79h-2.43v-.61h2.43Z" transform="translate(0 -20.74)"/><path class="cls-34" d="M247.3,206.68h-.62v-1.05h-4.23V200.3h.67V205H246V200.3h.66V205h.67Z" transform="translate(0 -20.74)"/><path class="cls-34" d="M250.82,204.6h.64a1.39,1.39,0,0,1-.58.8,1.92,1.92,0,0,1-1.1.3,1.65,1.65,0,0,1-1.31-.56,2.56,2.56,0,0,1,0-3,1.64,1.64,0,0,1,1.3-.56,1.58,1.58,0,0,1,1.27.54,2.13,2.13,0,0,1,.46,1.46v.24h-2.86v0a1.5,1.5,0,0,0,.33.94,1.06,1.06,0,0,0,.82.35,1.38,1.38,0,0,0,.64-.14A.87.87,0,0,0,250.82,204.6ZM249,202.46a1.31,1.31,0,0,0-.34.85h2.19a1.29,1.29,0,0,0-.3-.85,1,1,0,0,0-.76-.32A1.07,1.07,0,0,0,249,202.46Z" transform="translate(0 -20.74)"/><path class="cls-34" d="M255.2,205.63v-1.8h-2v1.8h-.63v-4h.63v1.64h2v-1.64h.63v4Z" transform="translate(0 -20.74)"/><path class="cls-34" d="M260,201.65v.53h-1.3v3.45h-.63v-3.45h-1.29v-.53Z" transform="translate(0 -20.74)"/><path class="cls-34" d="M264.06,202.14a2.71,2.71,0,0,1,0,3,1.49,1.49,0,0,1-1.22.57,1.54,1.54,0,0,1-.75-.18,1.11,1.11,0,0,1-.49-.49h-.06V207h-.64v-5.31h.61v.66h.06a1.31,1.31,0,0,1,.53-.54,1.43,1.43,0,0,1,.74-.19A1.51,1.51,0,0,1,264.06,202.14Zm-.51,2.59a1.76,1.76,0,0,0,.3-1.09,1.74,1.74,0,0,0-.3-1.09,1,1,0,0,0-.86-.4,1,1,0,0,0-.86.4,1.72,1.72,0,0,0-.31,1.09,1.69,1.69,0,0,0,.31,1.08,1.13,1.13,0,0,0,1.72,0Z" transform="translate(0 -20.74)"/></g><g id="Слой_3" data-name="Слой 3"><path class="cls-35" d="M351.9,260.83c.55-2.49-.94-5.31-3.72-6.68-.2-.1-.39-.18-.58-.26a6.87,6.87,0,0,0-3.59-4,7,7,0,0,0-5.19-.47,8.12,8.12,0,0,0-2.21-1.61,7.44,7.44,0,0,0-6.69-.11,6.79,6.79,0,0,0-3.15-.57,6,6,0,0,0-5.64,4.18h-.2c-4.19.24-7.42,3.3-7.22,6.85a6,6,0,0,0,.1.74c-2,1.27-2.75,4.63-1.61,7.84a7.48,7.48,0,0,0,3.46,4.26,5.74,5.74,0,0,0,3.91,3.63H346a5.55,5.55,0,0,0,1.24-1.63,4.15,4.15,0,0,0,.28-.69c2.39-.11,4.68-2.66,5.28-6A7.42,7.42,0,0,0,351.9,260.83Z" transform="translate(0 -20.74)"/><path class="cls-36" d="M348.18,254.15c-.2-.1-.39-.18-.58-.26a6.87,6.87,0,0,0-3.59-4,7,7,0,0,0-5.19-.47,8.12,8.12,0,0,0-2.21-1.61,7.44,7.44,0,0,0-6.69-.11,6.79,6.79,0,0,0-3.15-.57,6,6,0,0,0-5.64,4.18h-.2a8.54,8.54,0,0,0-4.16,1.33,7.21,7.21,0,0,0-.22,3.23,5.12,5.12,0,0,0,2.74,3.86,7.88,7.88,0,0,0,0,2.74A5.49,5.49,0,0,0,323.2,267a5.1,5.1,0,0,0,1.42,2.57,5.79,5.79,0,0,0,7,.6l.12.13a7.21,7.21,0,0,0,8.29,1,6,6,0,0,0,5.57-1.11l.14.11a6.68,6.68,0,0,0,3.72,1.26,8,8,0,0,0,3.33-5.39,7.42,7.42,0,0,0-.9-5.41C352.45,258.34,351,255.52,348.18,254.15Z" transform="translate(0 -20.74)"/><path class="cls-37" d="M170.59,262.84a5.55,5.55,0,0,0-3.3-5.91l-.51-.23a6.36,6.36,0,0,0-7.77-4,7.31,7.31,0,0,0-2-1.42,6.58,6.58,0,0,0-5.92-.11,6.27,6.27,0,0,0-2.8-.5,5.29,5.29,0,0,0-5,3.7h-.17c-3.71.2-6.57,2.92-6.39,6.06a4.62,4.62,0,0,0,.08.65c-1.79,1.13-2.43,4.1-1.42,7a6.61,6.61,0,0,0,3.07,3.77A5.07,5.07,0,0,0,142,275h23.4a4.84,4.84,0,0,0,1.1-1.44,5.22,5.22,0,0,0,.25-.61c2.11-.1,4.14-2.36,4.68-5.33A6.66,6.66,0,0,0,170.59,262.84Z" transform="translate(0 -20.74)"/><path class="cls-38" d="M167.29,256.93l-.51-.23a6.36,6.36,0,0,0-7.77-4,7.31,7.31,0,0,0-2-1.42,6.58,6.58,0,0,0-5.92-.11,6.27,6.27,0,0,0-2.8-.5,5.29,5.29,0,0,0-5,3.7h-.17a7.42,7.42,0,0,0-3.68,1.17,6.3,6.3,0,0,0-.2,2.86,4.51,4.51,0,0,0,2.43,3.42,6.79,6.79,0,0,0,0,2.42,4.85,4.85,0,0,0,3.49,4.09,4.52,4.52,0,0,0,1.27,2.28,5.12,5.12,0,0,0,6.2.53l.11.12a6.36,6.36,0,0,0,7.33.91,5.3,5.3,0,0,0,4.94-1l.12.1a5.86,5.86,0,0,0,3.3,1.11,7.07,7.07,0,0,0,2.95-4.76,6.66,6.66,0,0,0-.8-4.8A5.55,5.55,0,0,0,167.29,256.93Z" transform="translate(0 -20.74)"/><rect class="cls-39" x="70.47" y="238.79" width="3.88" height="17.41"/><path class="cls-39" d="M67.26,259.88v-1.65h-1v1.65a7,7,0,0,0,7,6.94v-1A5.94,5.94,0,0,1,67.26,259.88Z" transform="translate(0 -20.74)"/><path class="cls-40" d="M84.52,231.68a69.16,69.16,0,0,0-2.1-17.49,59.59,59.59,0,0,0,.35-6.53c0-13.57-4.4-24.56-9.82-24.56s-9.83,11-9.83,24.56a59.59,59.59,0,0,0,.35,6.53,69.16,69.16,0,0,0-2.1,17.49c0,16.82-1.65,30.64,11.58,30.46S84.52,248.5,84.52,231.68Z" transform="translate(0 -20.74)"/><path class="cls-7" d="M80.31,257.79c-15.1,2.42-15.34-12.34-17.94-30-.23-1.57-.4-3.11-.53-4.62a76.61,76.61,0,0,0-.47,8.48c0,16.82-1.65,30.64,11.58,30.46,4.66-.07,7.47-1.79,9.16-4.72C81.54,257.56,81,257.69,80.31,257.79Z" transform="translate(0 -20.74)"/><path class="cls-35" d="M192.59,261.27c.55-2.49-1-5.31-3.73-6.68a6,6,0,0,0-.58-.26,6.84,6.84,0,0,0-3.59-4.05,7,7,0,0,0-5.18-.47,8.28,8.28,0,0,0-2.21-1.61,7.44,7.44,0,0,0-6.69-.11,6.86,6.86,0,0,0-3.16-.57,6,6,0,0,0-5.64,4.18h-.2c-4.18.24-7.41,3.3-7.21,6.85a6,6,0,0,0,.09.74c-2,1.27-2.74,4.63-1.6,7.84a7.44,7.44,0,0,0,3.46,4.26,5.74,5.74,0,0,0,3.91,3.63h26.43a5.55,5.55,0,0,0,1.24-1.63,5.24,5.24,0,0,0,.28-.69c2.39-.11,4.68-2.66,5.28-6A7.47,7.47,0,0,0,192.59,261.27Z" transform="translate(0 -20.74)"/><path class="cls-36" d="M188.86,254.59a6,6,0,0,0-.58-.26,6.84,6.84,0,0,0-3.59-4.05,7,7,0,0,0-5.18-.47,8.28,8.28,0,0,0-2.21-1.61,7.44,7.44,0,0,0-6.69-.11,6.86,6.86,0,0,0-3.16-.57,6,6,0,0,0-5.64,4.18h-.2a8.5,8.5,0,0,0-4.15,1.33,7.21,7.21,0,0,0-.22,3.23,5.07,5.07,0,0,0,2.74,3.86,7.65,7.65,0,0,0,0,2.74,5.47,5.47,0,0,0,3.94,4.62,5,5,0,0,0,1.43,2.57,5.79,5.79,0,0,0,7,.6l.12.13a7.19,7.19,0,0,0,8.28,1,6,6,0,0,0,5.57-1.11l.14.11a6.71,6.71,0,0,0,3.73,1.26,8,8,0,0,0,3.33-5.39,7.47,7.47,0,0,0-.9-5.41C193.14,258.78,191.64,256,188.86,254.59Z" transform="translate(0 -20.74)"/><path class="cls-37" d="M329.9,262.4a5.54,5.54,0,0,0-3.3-5.91l-.51-.23a6.36,6.36,0,0,0-7.77-4,7.15,7.15,0,0,0-2-1.42,6.58,6.58,0,0,0-5.92-.11,6.23,6.23,0,0,0-2.79-.5,5.3,5.3,0,0,0-5,3.7h-.17c-3.71.2-6.57,2.92-6.39,6.06a4.62,4.62,0,0,0,.08.65c-1.78,1.13-2.43,4.1-1.42,7a6.65,6.65,0,0,0,3.07,3.77,5.08,5.08,0,0,0,3.46,3.21h23.4a4.71,4.71,0,0,0,1.35-2.05c2.11-.1,4.14-2.36,4.67-5.33A6.66,6.66,0,0,0,329.9,262.4Z" transform="translate(0 -20.74)"/><path class="cls-38" d="M326.6,256.49l-.51-.23a6.36,6.36,0,0,0-7.77-4,7.15,7.15,0,0,0-2-1.42,6.58,6.58,0,0,0-5.92-.11,6.23,6.23,0,0,0-2.79-.5,5.3,5.3,0,0,0-5,3.7h-.17a7.45,7.45,0,0,0-3.68,1.17,6.3,6.3,0,0,0-.19,2.86,4.48,4.48,0,0,0,2.42,3.42,7,7,0,0,0,0,2.42,4.86,4.86,0,0,0,3.5,4.09,4.43,4.43,0,0,0,1.26,2.28,5.12,5.12,0,0,0,6.2.53l.11.12a6.38,6.38,0,0,0,7.34.91,5.28,5.28,0,0,0,4.93-1l.12.1a5.79,5.79,0,0,0,3.3,1.11,7,7,0,0,0,2.95-4.76,6.66,6.66,0,0,0-.8-4.8A5.54,5.54,0,0,0,326.6,256.49Z" transform="translate(0 -20.74)"/><rect class="cls-5" x="420.87" y="239.07" width="4.38" height="17.01"/><path class="cls-40" d="M434.77,238.06c0,23.87-5.48,28.53-12.23,28.53s-12.23-4.66-12.23-28.53,5.47-57.9,12.23-57.9S434.77,214.2,434.77,238.06Z" transform="translate(0 -20.74)"/><path class="cls-7" d="M431.61,260.3c-8.62,1.35-16.34-2.16-20-25.73-.37-2.34-.68-4.78-.94-7.3-.21,3.72-.32,7.36-.32,10.79,0,23.87,5.47,28.53,12.23,28.53,3.63,0,6.89-1.35,9.13-6.3Z" transform="translate(0 -20.74)"/><polygon class="cls-41" points="288.31 217 284.21 217 282.62 206.93 289.91 206.93 288.31 217"/><path class="cls-42" d="M292,226.77h-1.62a4.29,4.29,0,0,0-3.14-2.18v-.72a.95.95,0,1,0-1.87,0v.72a4.28,4.28,0,0,0-3.14,2.18h-1.62a.69.69,0,1,0,0,1.37h1.74l1.61,10.19h1.55v.34a.8.8,0,0,0,1.59,0v-.34h1.55l1.61-10.19H292a.69.69,0,0,0,0-1.37ZM288,237.64h-3.51L283,228.26h6.49Z" transform="translate(0 -20.74)"/><rect class="cls-42" x="285.32" y="217.51" width="1.88" height="49.55"/><path class="cls-42" d="M287.77,239.14a1.51,1.51,0,1,1-1.51-1.5A1.52,1.52,0,0,1,287.77,239.14Z" transform="translate(0 -20.74)"/><rect class="cls-42" x="284.66" y="248.16" width="3.21" height="23.77"/><rect class="cls-42" x="281.71" y="270.43" width="9.1" height="1.56"/><polygon class="cls-41" points="204.7 217 200.6 217 199.01 206.93 206.3 206.93 204.7 217"/><path class="cls-42" d="M208.35,226.77h-1.62a4.29,4.29,0,0,0-3.14-2.18v-.72a.95.95,0,1,0-1.87,0v.72a4.31,4.31,0,0,0-3.15,2.18H197a.69.69,0,1,0,0,1.37h1.74l1.61,10.19h1.54v.34a.81.81,0,0,0,1.6,0v-.34H205l1.62-10.19h1.74a.69.69,0,0,0,0-1.37Zm-3.94,10.87h-3.52l-1.48-9.38h6.49Z" transform="translate(0 -20.74)"/><rect class="cls-42" x="201.71" y="217.51" width="1.88" height="49.55"/><path class="cls-42" d="M204.15,239.14a1.5,1.5,0,1,1-1.5-1.5A1.51,1.51,0,0,1,204.15,239.14Z" transform="translate(0 -20.74)"/><rect class="cls-42" x="201.05" y="248.16" width="3.21" height="23.77"/><rect class="cls-42" x="198.1" y="270.43" width="9.1" height="1.56"/></g></g></svg>