<svg xmlns="http://www.w3.org/2000/svg" viewBox="0 0 832.69 593.01"><defs><style>.cls-1{isolation:isolate;}.cls-2{fill:#bc2b37;}.cls-3{fill:#eda14b;}.cls-4{fill:#e6e7e8;}.cls-5{fill:#d1d3d4;}.cls-6{fill:#0891c1;}.cls-7{fill:#c9e2dc;}.cls-8{fill:#e4f4f0;}.cls-9{fill:#353c4f;}.cls-10{fill:#af6127;}.cls-11{fill:#678484;}.cls-12{fill:#4e6566;}.cls-13{fill:#e44b1a;}.cls-14,.cls-19{opacity:0.3;}.cls-14,.cls-17,.cls-35,.cls-47,.cls-50{mix-blend-mode:multiply;}.cls-15{fill:#0b2025;}.cls-16{fill:#18aed6;}.cls-17{opacity:0.4;}.cls-18{fill:#fbc41c;}.cls-19{mix-blend-mode:overlay;}.cls-20{fill:#fff;}.cls-21{fill:#8dccdb;}.cls-22{fill:#1291af;}.cls-23{fill:#93b224;}.cls-24{fill:#d3380f;}.cls-25{fill:#f45f14;}.cls-26{fill:#9e5b2e;}.cls-27{fill:#ffc426;}.cls-28{fill:#e07951;}.cls-29{fill:#f4b79f;}.cls-30{fill:#8c74b2;}.cls-31{fill:#3a2b2f;}.cls-32{fill:#d6303c;}.cls-33{fill:#ffa969;}.cls-34{fill:#ff8a54;}.cls-35{opacity:0.5;}.cls-36{fill:#af716b;}.cls-37{fill:#e83749;}.cls-38{fill:#a1400f;}.cls-39{fill:#211f1f;}.cls-40{fill:#c96335;}.cls-41{fill:#d0f4f2;}.cls-42{fill:#baccd3;}.cls-43{fill:#06bbbf;}.cls-44{fill:#3a2f49;}.cls-45{fill:#5a588e;}.cls-46{fill:#7956b2;}.cls-47{opacity:0.6;}.cls-48{fill:#a8a1a0;}.cls-49{fill:#ba652f;}.cls-50{opacity:0.2;}.cls-51{fill:#414042;}.cls-52{fill:#7f2c08;}.cls-53{fill:#8e3313;}.cls-54{fill:#992234;}.cls-55{fill:#231f20;}.cls-56{fill:#ed1c24;}.cls-57{fill:#d32d5d;}.cls-58{fill:#035c94;}.cls-59{fill:#99452e;}.cls-60{fill:#ff8c5f;}.cls-61{fill:#e2e0c5;}.cls-62{fill:#0b5384;}.cls-63{fill:#117ec9;}.cls-64{fill:#cc6723;}.cls-65{fill:#894229;}</style></defs><title>study</title><g class="cls-1"><g id="Layer_1" data-name="Layer 1"><path class="cls-2" d="M382.72,680.62c32.33-7.45,27.63-31.46,34.7-43.29,0,0-5.52-11.2-8.64-9.54s-36.43-5.34-36.43-5.34-27.6-.23-28.94,0-11.33,34.86-11.33,34.86S350.38,688.07,382.72,680.62Z" transform="translate(-33.38 -184.71)"/><rect class="cls-3" x="61.53" y="7.78" width="126.48" height="164.25"/><rect class="cls-4" x="81.05" y="24.3" width="87.44" height="131.21"/><polygon class="cls-5" points="168.49 29.88 168.49 24.3 81.05 24.3 81.05 155.51 87.25 155.51 87.25 29.88 168.49 29.88"/><path class="cls-6" d="M638.66,233.91h74.93v-5.16H602.28a13.77,13.77,0,0,0-13.77,13.77v2.82a13.77,13.77,0,0,0,13.77,13.77H713.59V254H638.66a8.61,8.61,0,0,1-8.61-8.6v-2.82A8.62,8.62,0,0,1,638.66,233.91Z" transform="translate(-33.38 -184.71)"/><path class="cls-7" d="M707.52,233.91H638.66a8.62,8.62,0,0,0-8.61,8.61v2.82a8.61,8.61,0,0,0,8.61,8.6h68.86s-3.65-2.13-3.65-10.63C703.87,236,707.52,233.91,707.52,233.91Z" transform="translate(-33.38 -184.71)"/><path class="cls-8" d="M726.08,324.37a8.61,8.61,0,0,0,8.61-8.6v-7.68a8.61,8.61,0,0,0-8.61-8.6H575.27a20.2,20.2,0,0,1,3.65,11.84c0,8.5-3.65,13.05-3.65,13.05Z" transform="translate(-33.38 -184.71)"/><path class="cls-9" d="M693.5,324.37V299.49H675s1.82,3.82,1.82,12.17S675,324.37,675,324.37Z" transform="translate(-33.38 -184.71)"/><path class="cls-10" d="M674.56,325.35a1,1,0,0,0,.41.08,1.06,1.06,0,0,0,1-.65c.07-.18,1.9-4.65,1.9-13.12S676,299.2,675.93,299a1.06,1.06,0,0,0-1.92.91s1.72,3.78,1.72,11.72S674,323.92,674,324A1.07,1.07,0,0,0,674.56,325.35Z" transform="translate(-33.38 -184.71)"/><path class="cls-11" d="M673.71,324.37H570.45v5.16H713.4a13.76,13.76,0,0,0,13.77-13.76v-7.68a13.77,13.77,0,0,0-13.77-13.77H570.45v5.16H673.71a8.61,8.61,0,0,1,8.61,8.6v7.68A8.61,8.61,0,0,1,673.71,324.37Z" transform="translate(-33.38 -184.71)"/><path class="cls-12" d="M674.55,329.53h51.53a13.76,13.76,0,0,0,13.77-13.76v-7.68a13.77,13.77,0,0,0-13.77-13.77H674.55a13.77,13.77,0,0,1,13.77,13.77v7.68A13.76,13.76,0,0,1,674.55,329.53Z" transform="translate(-33.38 -184.71)"/><path class="cls-13" d="M695.32,289.16H584v5.16H695.32a13.76,13.76,0,0,0,13.76-13.76v-7.68a13.76,13.76,0,0,0-13.76-13.77H584v5.16H695.32a8.61,8.61,0,0,1,8.6,8.61v7.68A8.61,8.61,0,0,1,695.32,289.16Z" transform="translate(-33.38 -184.71)"/><path class="cls-8" d="M695.32,289.16c4.74,0,6.48-3.86,6.48-8.61v-7.67c0-4.75-1.74-8.61-6.48-8.61H590.08a20.16,20.16,0,0,1,3.65,11.84c0,8.5-3.65,13.05-3.65,13.05Z" transform="translate(-33.38 -184.71)"/><g class="cls-14"><path class="cls-9" d="M661,276.38a1.06,1.06,0,1,0,0-2.12H637.14a1.06,1.06,0,1,0,0,2.12Z" transform="translate(-33.38 -184.71)"/></g><g class="cls-14"><polygon class="cls-15" points="625.53 90.61 605.88 90.61 609.92 109.72 629.57 109.72 625.53 90.61"/></g><g class="cls-14"><polygon class="cls-15" points="626.24 124.05 626.24 109.64 608.61 109.64 608.61 124.05 617.43 121.15 626.24 124.05"/></g><path class="cls-16" d="M638.66,233.91h74.93v-5.16H602.28a13.77,13.77,0,0,0-13.77,13.77v2.82a13.77,13.77,0,0,0,13.77,13.77H713.59V254H638.66a8.61,8.61,0,0,1-8.61-8.6v-2.82A8.62,8.62,0,0,1,638.66,233.91Z" transform="translate(-33.38 -184.71)"/><g class="cls-17"><path class="cls-9" d="M638.66,233.91h74.93v-5.16H636.52a13.77,13.77,0,0,0-13.77,13.77v2.82a13.77,13.77,0,0,0,13.77,13.77h77.07V254H638.66a8.61,8.61,0,0,1-8.61-8.6v-2.82A8.62,8.62,0,0,1,638.66,233.91Z" transform="translate(-33.38 -184.71)"/></g><polygon class="cls-18" points="625.53 122.08 625.53 90.61 605.88 90.61 605.88 122.08 615.7 118.85 625.53 122.08"/><g class="cls-19"><rect class="cls-20" x="605.88" y="90.61" width="19.65" height="18.93"/></g><path class="cls-9" d="M703.92,280.55v-7.67a8.62,8.62,0,0,0-7.44-8.52s1.61,3.42,1.61,12-1.61,12.7-1.61,12.7A8.61,8.61,0,0,0,703.92,280.55Z" transform="translate(-33.38 -184.71)"/><path class="cls-9" d="M630.05,242.52v2.82a8.62,8.62,0,0,0,7.86,8.57,32.81,32.81,0,0,1-1.35-10.13,29.65,29.65,0,0,1,1.35-9.83A8.62,8.62,0,0,0,630.05,242.52Z" transform="translate(-33.38 -184.71)"/><path class="cls-21" d="M695.43,289.15a6.92,6.92,0,0,0,2.27-.38,44,44,0,0,0,1.45-12.4c0-6.56-.93-10.21-1.42-11.69a6.74,6.74,0,0,0-2.3-.4,1.1,1.1,0,0,0,.09.53s1.51,3.4,1.51,11.56-1.52,12.28-1.54,12.32A.92.92,0,0,0,695.43,289.15Z" transform="translate(-33.38 -184.71)"/><path class="cls-8" d="M419.51,323.41h108.9A10.63,10.63,0,0,0,539,312.8v-3.48a10.63,10.63,0,0,0-10.62-10.62H419.51s4.49,2.62,4.49,11.61C424,320.8,419.51,323.41,419.51,323.41Z" transform="translate(-33.38 -184.71)"/><path class="cls-22" d="M528.41,323.41H412v6.38H545.69a17,17,0,0,0,17-17v-3.48a17,17,0,0,0-17-17H412v6.37H528.41A10.63,10.63,0,0,1,539,309.32v3.48A10.63,10.63,0,0,1,528.41,323.41Z" transform="translate(-33.38 -184.71)"/><path class="cls-16" d="M528.41,323.41H412v6.38h119a17,17,0,0,0,17-17v-3.48a17,17,0,0,0-17-17H412v6.37H528.41A10.63,10.63,0,0,1,539,309.32v3.48A10.63,10.63,0,0,1,528.41,323.41Z" transform="translate(-33.38 -184.71)"/><path class="cls-9" d="M539,312.8v-3.48a10.63,10.63,0,0,0-9.7-10.57S531,303,531,310.88a40.35,40.35,0,0,1-1.67,12.49A10.64,10.64,0,0,0,539,312.8Z" transform="translate(-33.38 -184.71)"/><path class="cls-8" d="M413.59,253.38H522.36a10.62,10.62,0,0,0,10.6-10.6v-3.47a10.62,10.62,0,0,0-10.6-10.61H413.59s4.49,2.62,4.49,11.59C418.08,250.77,413.59,253.38,413.59,253.38Z" transform="translate(-33.38 -184.71)"/><path class="cls-10" d="M522.36,253.38H406.11v6.36H525a17,17,0,0,0,17-17v-3.47a17,17,0,0,0-17-17H406.11v6.36H522.36A10.62,10.62,0,0,1,533,239.31v3.47A10.62,10.62,0,0,1,522.36,253.38Z" transform="translate(-33.38 -184.71)"/><path class="cls-9" d="M533,242.78v-3.47a10.61,10.61,0,0,0-9.68-10.56S525,233,525,240.86a40.2,40.2,0,0,1-1.67,12.47A10.6,10.6,0,0,0,533,242.78Z" transform="translate(-33.38 -184.71)"/><path class="cls-23" d="M433.22,190.23H552.35v-5.52H433.22a14.72,14.72,0,0,0-14.73,14.73v8.22a14.72,14.72,0,0,0,14.73,14.73H552.35v-5.52H433.22a9.22,9.22,0,0,1-9.21-9.21v-8.22A9.22,9.22,0,0,1,433.22,190.23Z" transform="translate(-33.38 -184.71)"/><path class="cls-8" d="M433.22,190.23c-5.07,0-6.94,4.13-6.94,9.21v8.22c0,5.08,1.87,9.21,6.94,9.21H545.85s-3.9-4.88-3.9-14a21.6,21.6,0,0,1,3.9-12.67Z" transform="translate(-33.38 -184.71)"/><g class="cls-14"><path class="cls-9" d="M495.49,203.19a1.14,1.14,0,1,0,0-2.27H469.93a1.14,1.14,0,0,0,0,2.27Z" transform="translate(-33.38 -184.71)"/></g><g class="cls-14"><polygon class="cls-15" points="459.85 17.35 438.82 17.35 445.49 37.8 466.52 37.8 459.85 17.35"/></g><polygon class="cls-24" points="459.85 51.03 459.85 17.35 438.82 17.35 438.82 51.03 449.33 47.57 459.85 51.03"/><rect class="cls-25" x="438.82" y="17.35" width="21.03" height="20.27"/><path class="cls-9" d="M424,199.44v8.22a9.22,9.22,0,0,0,8,9.12s-1.72-4.41-1.72-13.6S432,190.33,432,190.33A9.22,9.22,0,0,0,424,199.44Z" transform="translate(-33.38 -184.71)"/><path class="cls-10" d="M433.1,190.24a7.19,7.19,0,0,0-2.46.43c-.52,1.58-1.51,5.49-1.51,12.51a47.16,47.16,0,0,0,1.55,13.27,7.27,7.27,0,0,0,2.43.41,1.26,1.26,0,0,0-.07-.5s-1.65-4.36-1.65-13.18S433,190.84,433,190.8A1.09,1.09,0,0,0,433.1,190.24Z" transform="translate(-33.38 -184.71)"/><path class="cls-8" d="M542.07,287.48a8,8,0,0,0,8-8v-7.11a8,8,0,0,0-8-8H421.47a18.72,18.72,0,0,1,3.37,11c0,7.87-3.37,12.08-3.37,12.08Z" transform="translate(-33.38 -184.71)"/><path class="cls-9" d="M552.18,287.48v-23h-8.42s1.69,3.54,1.69,11.27-1.69,11.76-1.69,11.76Z" transform="translate(-33.38 -184.71)"/><path class="cls-26" d="M543.38,288.39a1.06,1.06,0,0,0,.38.07,1,1,0,0,0,.91-.6c.07-.17,1.76-4.3,1.76-12.14s-1.71-11.54-1.78-11.7a1,1,0,0,0-1.31-.46,1,1,0,0,0-.46,1.3s1.59,3.5,1.59,10.86-1.6,11.35-1.61,11.39A1,1,0,0,0,543.38,288.39Z" transform="translate(-33.38 -184.71)"/><path class="cls-27" d="M542.6,287.48H417v4.78H543.37a12.74,12.74,0,0,0,12.75-12.74v-7.11a12.74,12.74,0,0,0-12.74-12.74H417v4.78H542.6a8,8,0,0,1,8,8v7.11A8,8,0,0,1,542.6,287.48Z" transform="translate(-33.38 -184.71)"/><rect class="cls-28" x="328.6" y="144.58" width="439.39" height="23.81"/><rect class="cls-29" x="328.6" y="144.58" width="439.39" height="4.11"/><g class="cls-17"><path class="cls-30" d="M759.7,299.9c-.18.1-.36.18-.54.26C759.34,300.08,759.52,300,759.7,299.9Z" transform="translate(-33.38 -184.71)"/><path class="cls-30" d="M758.79,300.33a5.76,5.76,0,0,1-.59.18A5.76,5.76,0,0,0,758.79,300.33Z" transform="translate(-33.38 -184.71)"/><path class="cls-30" d="M756.93,300.73c.21,0,.43,0,.63-.06h0A6.07,6.07,0,0,1,756.93,300.73Z" transform="translate(-33.38 -184.71)"/><path class="cls-30" d="M760.53,299.33c-.13.11-.28.19-.42.29C760.25,299.52,760.4,299.44,760.53,299.33Z" transform="translate(-33.38 -184.71)"/></g><path class="cls-31" d="M321.36,325.84c5.94-77.31-16.43-122.23-80.69-122.23s-85.39,50.09-91.91,119.76c0,.18-13.71,183.42-13.71,183.42l176.88-14.68S315.41,403.15,321.36,325.84Z" transform="translate(-33.38 -184.71)"/><path class="cls-32" d="M382.36,631.63c2.75-12-11.12-36.83-14.34-49.39-5.95-23.29-8.11-45-12.22-72.14-2.1-13.92-3.37-32.41-7.12-41.11-5.77-13.4-17.08-16-17.08-16l-31.11,49.56.48,88.85s43.9,56.83,48.45,74.53C352.52,678,376.15,658.79,382.36,631.63Z" transform="translate(-33.38 -184.71)"/><path class="cls-2" d="M337.39,470.07c-8.85,10.95-16.49,60-16.49,60L300.67,579.7s30,90.28,59.95,91.85c17.07.89,2.2-11.54-4.26-24.33s-26.42-42.34-16.86-60.44c14.48-27.44,5.18-52.84,2-70.82C338.05,495.93,351.17,453,337.39,470.07Z" transform="translate(-33.38 -184.71)"/><path class="cls-32" d="M221.65,658.61l-44.4-19.94L184,691.59q14.67,3.06,31.55,5.62C226.43,698.85,221.65,658.61,221.65,658.61Z" transform="translate(-33.38 -184.71)"/><path class="cls-32" d="M344.25,461.26c-5.75-13.15-44.48-32.43-57.87-37.65-20.36-7.94-50.22-8.13-72-6.67-16.65,1.11-50.56,16.44-65.69,23.47-14.3,6.63-21,22.17-23,29.48-9.07,34.58-16.53,68.12-26.14,104.48-6.33,24-21.42,53.26-7.62,74.82,10.8,16.86,41.49,31.81,92.09,42.4l-6.79-52.92-30.86-13.85,21-63.19,9.89,77,44.4,19.94s4.78,40.24-6.06,38.6q-16.89-2.55-31.55-5.62l.72,5.55s51.82,7.62,69.22,7.31c63-1.12,69.79-14.07,69.79-14.07s-6.63-97.07-4-109.66c1.94-9.31,20-21.18,19.24-46.67-.22-7-3.38-21.14-2.68-28.14C337.11,498,347.46,468.6,344.25,461.26Z" transform="translate(-33.38 -184.71)"/><path class="cls-2" d="M335.52,550.25s-.09.62-.31,1.67A4.87,4.87,0,0,0,335.52,550.25Z" transform="translate(-33.38 -184.71)"/><path class="cls-2" d="M145.15,621.07c.55,5.3-.44,6.48,1.24,3.75a39.38,39.38,0,0,0,3.94-9.51c6.64-22.72,15.55-48.45,15.55-48.45l5,71.08,37.42,14.48s28.21,12.37,37.74,13.92c7,1.14,2.17-23.58,2-25.08-.14-1.21-41.44-4.64-41.6-6.13-1.83-17.59-3.56-45.19,6.19-44.69,24.91,1.29,54.74,2.19,71.94-.28,15.9-2.29,25.64-7,32.48-9.89,12.41-5.24,17-22.83,18.12-28.35-1,3-5.13,9.42-22.22,15.18-22.9,7.73-68.89,2.59-88.85-1.11-39.27-7.3-73.43-92.6-71.51-83.69,8.35,38.77,8.52,47.93,8.35,60.76C160.54,575.66,142.17,592.28,145.15,621.07Z" transform="translate(-33.38 -184.71)"/><path class="cls-33" d="M216,395.19l-2.43,32.9-5.68,16.55s40.54,36.07,61.21,58.36c0,0,31.42-31.88,31.61-45.8.13-9.53-15.63-24-21.89-31.21-1.27-1.45-4.79-3.54-5.67-5.26-2.69-5.28-2.26-32-2.26-32Z" transform="translate(-33.38 -184.71)"/><path class="cls-34" d="M269.06,503s8.44-6.5,11.81-10.65,3.11-5.45,9.91-12.07,2-8.16,8-16.46-1.56-26.2-3.63-30.61-24-16.6-18.95-7.35S287.85,443.56,285,458,271.53,494.69,269.06,503Z" transform="translate(-33.38 -184.71)"/><path class="cls-20" d="M214.64,413.05s-13.91,4.88-21.76,13c-17.33,18-8.56,30.92-8.56,30.92l23-4.85s-10.82,11.92-1.11,25.94c9.31,13.43,62.83,24.9,62.83,24.9s-19.85-21.51-27.74-29c-7.42-7.07-24.42-19.41-27-29.34-1.09-4.24-.81-16.55-.81-16.55Z" transform="translate(-33.38 -184.71)"/><path class="cls-20" d="M314.08,457.05c-1.3-5.52-12.15-11.16-12.15-11.16l12.92-1.7A72.38,72.38,0,0,0,297,425.68a254.78,254.78,0,0,0-25.67-16.25s.55,8.81,1.83,11.3c4.84,9.41,17.53,22.48,18.07,33,.72,14.4-22.12,49.22-22.12,49.22S320.3,483.53,314.08,457.05Z" transform="translate(-33.38 -184.71)"/><g class="cls-35"><path class="cls-36" d="M254.26,430.41c12.23,0,17.63-5.88,17.05-20.55C270.49,389,265.69,390,253.47,390s-40.48-26-37.74,13.8C216.56,415.87,232.58,430.41,254.26,430.41Z" transform="translate(-33.38 -184.71)"/></g><path class="cls-2" d="M108.39,666.88c49.45,37.59,119.12,40.58,119.12,40.58L226.29,693s73.17-12.35,6.77-16.72c-66-4.34-110.64-11.68-136.69-30.87-10-7.38-9.79-19.74-9.79-19.74S81.51,646.45,108.39,666.88Z" transform="translate(-33.38 -184.71)"/><path class="cls-33" d="M310.66,297.93c-.89-17.92.06-23.16-13.46-45C283,230.08,268.27,216.66,243,217.91c-29,1.44-43.56,15.88-51.24,47.78-2.33,9.67-5.75,22.77-7.33,35.14-.58,4.62,1.07,19.67,1.45,24.34,1.88,23,3,36,14.5,53.41,13.34,20.09,37.2,35.91,49.09,35.33,13.53-.68,37.68-17,48.72-35.33,11.71-19.42,13-35.64,12.37-60.32C310.47,314.09,310.87,302.26,310.66,297.93Z" transform="translate(-33.38 -184.71)"/><path class="cls-20" d="M272.81,364.61h-43.7c0,6.81,10.29,16.74,21.85,16.74C263.56,381.35,272.81,371.42,272.81,364.61Z" transform="translate(-33.38 -184.71)"/><path class="cls-37" d="M251,383.53c13.31,0,24-10.35,24-18.92a2.17,2.17,0,0,0-2.17-2.18h-43.7a2.17,2.17,0,0,0-2.17,2.18c0,4.05,2.75,8.77,7.37,12.6A26.73,26.73,0,0,0,251,383.53ZM231.7,366.78h38.57c-1.71,5.55-9.43,12.39-19.31,12.39C241.78,379.17,233.58,372.2,231.7,366.78Z" transform="translate(-33.38 -184.71)"/><path class="cls-34" d="M251.86,391.31c5.33-.52,7.86-2.69,7.24-5.54-.27-1.22-5.5.69-9.69.74-6.1.07-10.3-2.4-9.75.14C240.57,390.8,245.72,391.89,251.86,391.31Z" transform="translate(-33.38 -184.71)"/><path class="cls-34" d="M203.42,326.25c6.31-.94,25.37,4.05,32-4.89,2-2.73,4.45-10.46-.09-16.42-5.19-6.81-18.29-4.3-25.71-4.18-5,.08-12.53,1.95-14.93,6.91C188.18,321.07,201.26,326.58,203.42,326.25Z" transform="translate(-33.38 -184.71)"/><path class="cls-20" d="M219.12,333.47c6-1.66,5.36-3.91,11.72-6.06,3.17-1.07,1.79-4.49-2.36-8-9.9-8.43-27.74-.48-29.85,4.82C197.74,326.49,203.92,337.63,219.12,333.47Z" transform="translate(-33.38 -184.71)"/><path class="cls-33" d="M227.23,320c3.16,1.51,4.34,3.31,4.82,5.14,2.53-2.6.52-11.46-3.93-14.6-9.9-7-25.19-.08-28,3.94-1.54,2.23-2.94,7.81-1.71,9.69C203.42,320.08,214.28,313.83,227.23,320Z" transform="translate(-33.38 -184.71)"/><path class="cls-38" d="M225.89,327.38a7.19,7.19,0,1,0-7.19,6.9A7,7,0,0,0,225.89,327.38Z" transform="translate(-33.38 -184.71)"/><path class="cls-39" d="M221.84,327.38a3.13,3.13,0,1,0-3.13,3A3.07,3.07,0,0,0,221.84,327.38Z" transform="translate(-33.38 -184.71)"/><path class="cls-40" d="M198.84,324.94c.76-.58,18.72-13.9,32.12,1.19a1.45,1.45,0,0,0,1.09.48,1.39,1.39,0,0,0,.95-.37,1.42,1.42,0,0,0,.12-2c-15.2-17.1-35.83-1.73-36-1.57a1.45,1.45,0,0,0,1.76,2.31Z" transform="translate(-33.38 -184.71)"/><path class="cls-31" d="M234.32,305.07c-1.06-5.14-7.24-9-18-9-7.44,0-20.7,4.66-20.7,12,0,.93,7.37-6.49,20.7-6.49C227.55,301.63,234.51,306,234.32,305.07Z" transform="translate(-33.38 -184.71)"/><path class="cls-34" d="M242.64,349c-1.44-.84-2.38-5.48-2.38-7.71,0-2.64-7.13,8-1.2,11.58,7.8,4.71,18.72,3.3,23.13-.94,1.72-1.65-6.39-30.23,3.15-39.73,2.12-2.12,8.62-3,11-4.77,1.73-1.27,5.56-6.55,5.56-6.55s-12.53,0-19.83,7.76c-3.55,3.78-5.16,13.2-5.2,18.39,0,6.25,2.29,15.54,2.29,19.58C259.19,351.88,247.34,351.7,242.64,349Z" transform="translate(-33.38 -184.71)"/><path class="cls-20" d="M222.76,325.88a1.28,1.28,0,1,0-1.28,1.28A1.27,1.27,0,0,0,222.76,325.88Z" transform="translate(-33.38 -184.71)"/><path class="cls-34" d="M295,326.25c2.16.33,15.24-5.18,8.75-18.58-2.4-5-10-6.83-14.93-6.91-7.42-.12-20.52-2.63-25.71,4.18-4.54,6-2.1,13.69-.09,16.42C269.66,330.3,288.71,325.31,295,326.25Z" transform="translate(-33.38 -184.71)"/><path class="cls-20" d="M279.33,333.47c15.2,4.16,21.37-7,20.49-9.26-2.11-5.3-19.95-13.25-29.85-4.82-4.15,3.53-5.53,6.95-2.36,8C274,329.56,273.29,331.81,279.33,333.47Z" transform="translate(-33.38 -184.71)"/><path class="cls-33" d="M271.22,320c12.95-6.2,23.81.05,28.8,4.17,1.23-1.88-.17-7.46-1.71-9.69-2.79-4-18.08-11-28-3.94-4.45,3.14-6.45,12-3.93,14.6C266.88,323.34,268.06,321.54,271.22,320Z" transform="translate(-33.38 -184.71)"/><path class="cls-38" d="M293.57,327.38a7.19,7.19,0,1,0-7.18,6.9A7,7,0,0,0,293.57,327.38Z" transform="translate(-33.38 -184.71)"/><path class="cls-39" d="M289.51,327.38a3.13,3.13,0,1,0-3.12,3A3.06,3.06,0,0,0,289.51,327.38Z" transform="translate(-33.38 -184.71)"/><path class="cls-40" d="M267.49,326.13c13.4-15.09,31.36-1.77,32.12-1.19a1.45,1.45,0,0,0,1.76-2.31c-.21-.16-20.84-15.53-36.05,1.57a1.42,1.42,0,0,0,.13,2,1.39,1.39,0,0,0,.95.37A1.45,1.45,0,0,0,267.49,326.13Z" transform="translate(-33.38 -184.71)"/><path class="cls-31" d="M282.18,301.63c13.33,0,20.7,7.42,20.7,6.49,0-7.38-13.26-12-20.7-12-10.81,0-17,3.85-18.05,9C263.94,306,270.9,301.63,282.18,301.63Z" transform="translate(-33.38 -184.71)"/><path class="cls-20" d="M290.78,325.88a1.28,1.28,0,1,0-1.27,1.28A1.27,1.27,0,0,0,290.78,325.88Z" transform="translate(-33.38 -184.71)"/><path class="cls-33" d="M191.51,356.32c6.36-3,9.56-12.4,6.09-24.86S189,306.52,179,311.23c-9.24,4.36-7.81,18.65-4.35,31.09S185.18,359.32,191.51,356.32Z" transform="translate(-33.38 -184.71)"/><path class="cls-34" d="M190.82,347.74c3.32-1.57-1.34-26-6.55-23.57-4.83,2.28-4.1,9.75-2.27,16.26S187.5,349.3,190.82,347.74Z" transform="translate(-33.38 -184.71)"/><path class="cls-33" d="M240.91,653.19c2.3,1.06,6.77,7.3,9.29,7.13,1.76-.12,3.24-2.79,3.21-4.55,0-3.39-4.72-9.63-7.48-11.6-3.7-2.63-12.59-5.55-17.09-6.19-6.05-.85-25.42,2.7-25.42,2.7l-17,3.86-7-1.74L170,669.42s8.83,7.56,12.33,9.11c5.28,2.35,22.65,4.59,22.65,4.59s20,2.2,26.62,1.14c1.76-.28,5.45-2,6.09-3.72.38-1-1.2-4.1-1.2-4.1s3.47-1,4.23-1.86,1.45-4.91,1.45-4.91,5.15-3.15,6-4.91c.53-1.17-.51-3.29-1.21-4.1a55.22,55.22,0,0,0-5.83-4.75l-14.18-4.08,1.09-1.26S236.9,651.34,240.91,653.19Z" transform="translate(-33.38 -184.71)"/><path class="cls-34" d="M237.19,673c-4.07,2.9-21-2.34-21-2.34v3.17s10.93,1.93,14.35,3.3c.78.31,2.24,1.45,2.39,2.36a4.3,4.3,0,0,1-2.33,4.88h0c.32,0,.63-.07.91-.12,1.76-.28,5.44-2,6.09-3.72.38-1-1.2-4.1-1.2-4.1s3.47-1,4.23-1.86,1.45-4.9,1.45-4.9,5.15-3.16,5.94-4.92c.54-1.17-.5-3.29-1.2-4.1a28.07,28.07,0,0,0-3.31-2.86c-.16,1.89-.5,4-1.18,4.78s-2.76,1.17-3.74,1.25c-4.34.37-16.16-3.75-16.16-3.75l-1.81,1.82s15.37,3.72,17.65,7.71C238.84,670.54,238.06,672.4,237.19,673Z" transform="translate(-33.38 -184.71)"/><path class="cls-34" d="M246.42,651.89c-1.6,1.22-4.88,1.67-4.88,1.67,2.41,1.69,6.35,6.92,8.66,6.76,1.76-.12,3.24-2.79,3.22-4.55,0-3-3.7-8.22-6.46-10.75C247.46,645.65,250,649.17,246.42,651.89Z" transform="translate(-33.38 -184.71)"/><polygon class="cls-20" points="145.14 444.57 126.18 493.51 144.65 496.56 159.42 455.19 145.14 444.57"/><path class="cls-41" d="M312.49,615.6c-15.63,27.69-16.57,48.13-16.57,48.13l71-43.74-17.69-51.82S329.24,585.92,312.49,615.6Z" transform="translate(-33.38 -184.71)"/><path class="cls-42" d="M387.21,650.66,382.55,609s-29.92,2.87-51,15.36c-35.64,21.12-35.16,41.32-35.16,41.32l.89-.75Z" transform="translate(-33.38 -184.71)"/><path class="cls-9" d="M308.49,668.7c-1.62-3.1-8.87-7.46-11.48-7,0,0-8.4,4.14-12.9,7s-1.75,9-1.75,9h28.5S310.11,671.8,308.49,668.7Z" transform="translate(-33.38 -184.71)"/><path class="cls-20" d="M297,662.79s0-13.84-16.66-19.26c-27.11-8.82-54.87,11.89-82,17.48-8.72,1.81-22.38-.07-22.38-.07l-6.48,12.13,108.14.18Z" transform="translate(-33.38 -184.71)"/><path class="cls-20" d="M418,660.94s-13.65,1.88-22.38.07c-27.09-5.59-54.84-26.3-82-17.48C297,649,297,662.79,297,662.79l19.34,10.46,108.15-.18Z" transform="translate(-33.38 -184.71)"/><path class="cls-43" d="M307.94,677.7H431.07v-6.51H313.52A17.38,17.38,0,0,0,297.2,659.7h-.9A17.38,17.38,0,0,0,280,671.19H163v6.51h123.5v-5a10.79,10.79,0,0,1,9.85-6.41h.9a10.8,10.8,0,0,1,10.37,7.87v3.54Z" transform="translate(-33.38 -184.71)"/><path class="cls-44" d="M768.31,553.73c-2.26-6.62-1.73-30.22-23.89-42.61C736,506.41,697,490.8,697,490.8s-12,34.43-40.48,52.88c-10.79,7,1.79,124.22,18.3,128.85,2.66.74,76.3-22.19,78.67-23.62,11.47-6.95,4.13-26.69,7.2-39.74,2.27-9.66,1.43-29.74,1.66-39.66C762.61,559,771.69,563.66,768.31,553.73Z" transform="translate(-33.38 -184.71)"/><path class="cls-44" d="M546.65,536.94c-4.13,11.12-18.15,95.43-21.57,95.43-26.72,0-38.12,10.11-38.12,10.11s26.06-9,33.64,1.89c14.92,21.5-7.19,34.17-7.19,34.17s45,.6,47.68-4c6-10.22,7-18.75,7-16.87-.41,18.91-.91,23.06-.91,23.06h60.45s51.9,2.3,52.78-31.47c.39-15.09-23.62-85.91-23.84-105.6,0,0-21.79-16.39-25.82-24.88-7.55-15.85.3-30.62.3-30.62S558.66,504.66,546.65,536.94Z" transform="translate(-33.38 -184.71)"/><path class="cls-45" d="M653.63,554.56a101.34,101.34,0,0,0,38.5-36.33c15-25,7.62-22,3.29-24.34s-61.67-2-67.67,2.34-3.84,11.21-3.84,11.21C627.09,517.23,640.85,543.89,653.63,554.56Z" transform="translate(-33.38 -184.71)"/><g class="cls-17"><path class="cls-46" d="M699.64,523.51c3.44.55,22.44.18,22.44-6.88s.2-15.56-9.65-19.56-15.22-2.74-35.28,10.37-19.14,14.34-20.6,21.73v14.51c.38-.21.79-.43,1.23-.65,7.35-3.73,23-8.63,30.69-9.28C696.58,533.06,696.19,523,699.64,523.51Z" transform="translate(-33.38 -184.71)"/></g><g class="cls-17"><path class="cls-46" d="M660.35,496.06c-20.06-13.12-31.29-7.78-44.78-3.6-4.3,1.33-12,14.2-12,21.27,0,4.16,15.27,6.85,18.5,8.16,5.45,2.22-3.83,9,6.34,11,7.53,1.48,20,6.41,27.37,10.14.44.22.85.44,1.22.65V529.17C655.55,521.78,680.42,509.17,660.35,496.06Z" transform="translate(-33.38 -184.71)"/></g><path class="cls-33" d="M656.55,542.68c5.13,0,16.82-16.5,20.6-18.4,19.36-9.69,15-23,15-23l-.26-37.75L632.6,477.47l-5.5,30s-2.48,14.93,15,23.12C645.42,532.12,651.82,542.68,656.55,542.68Z" transform="translate(-33.38 -184.71)"/><g class="cls-47"><path class="cls-48" d="M691.8,510.06s.33-41.66.33-46.52c0-11.62-13.23-21-29.52-21s-25.12,9.46-25.12,21.08,8.76,33.59,23.24,41.36C683.66,517.24,691.8,510.06,691.8,510.06Z" transform="translate(-33.38 -184.71)"/></g><path class="cls-49" d="M672,527.23c-3.26,5.06-15.42,16.45-15.42,16.45s18-10.78,27.91-13c2.68-.59,1.68-7.45,3.86-9.11,5.08-3.88,26-5.25,26-5.25s.58-13.27-4.15-23.21C697.59,466.66,690,471.56,690,471.56s.57,17,0,22.66C688.47,509.26,676.69,519.9,672,527.23Z" transform="translate(-33.38 -184.71)"/><g class="cls-50"><path class="cls-48" d="M682.81,512.68h0c8.27-7.79,25.6-12.68,30.44-9.57a41.07,41.07,0,0,0-3.1-10C697.59,466.66,690,471.56,690,471.56s.57,17,0,22.66C689.27,501.32,686.27,507.43,682.81,512.68Z" transform="translate(-33.38 -184.71)"/></g><path class="cls-45" d="M519.42,636.89c-6.91-4.72-18.65-3.55-20.39-1.76s-8.16,22.32-5.28,23.44,25,16.88,32,14.8-2.8-5.06-.59-6.92C533.42,659.52,526.33,641.62,519.42,636.89Z" transform="translate(-33.38 -184.71)"/><path class="cls-49" d="M510.75,637.48c-6.91-4.73-18.66-3.56-20.4-1.77s-8.15,22.32-5.27,23.44,25,16.88,32,14.8-2.8-5.06-.59-6.92C524.75,660.1,517.65,642.2,510.75,637.48Z" transform="translate(-33.38 -184.71)"/><g class="cls-17"><path class="cls-46" d="M732.59,663.52c18-5,32.18-1.07,26.84-23.26s-3.34-63.07-8.34-71.39-10-4.12-10-4.12c-11,14.81-28,5.24-28,5.24l5.74,65.14s-82.5,12.68-92,18.59C611.79,663.13,714.59,668.48,732.59,663.52Z" transform="translate(-33.38 -184.71)"/></g><path class="cls-33" d="M626.87,653.72c-19.08,3.62-24,25.67-24,25.67H697l-16.64-30.11S639.3,651.36,626.87,653.72Z" transform="translate(-33.38 -184.71)"/><path class="cls-44" d="M672,679.39h112.6s4.52-6.91-6.53-73.29c-.79-4.75-4-30.26-9.73-52.37-1.64-6.3-21.65-36.27-27.69-33.82-9,3.66-22,17.65-24.29,46.4-.43,5.47,16.09,74,16.09,74L672,649.47Z" transform="translate(-33.38 -184.71)"/><path class="cls-49" d="M635.55,478.47c-4.76-5.05-13.69,8-19.34,18.2-6,10.77-7,16.45-7,16.45s13.39,4,20.23,8c1.61.93-3.88,6.06-1.22,7.75,7.3,4.63,28.3,14.82,28.3,14.82s-23.76-32.33-22.94-44.21C634,493.8,637.19,480.21,635.55,478.47Z" transform="translate(-33.38 -184.71)"/><path class="cls-33" d="M608.93,443.48c5.66-2.67,8.51-11,5.42-22.11s-7.69-22.21-16.57-18c-8.22,3.88-6.95,16.6-3.87,27.67S603.29,446.15,608.93,443.48Z" transform="translate(-33.38 -184.71)"/><path class="cls-34" d="M608.31,435.84c3-1.39-1.19-23.16-5.82-21-4.3,2-3.65,8.67-2,14.47S605.36,437.23,608.31,435.84Z" transform="translate(-33.38 -184.71)"/><path class="cls-33" d="M724.34,430.24c3.08-11.07,4.35-23.79-3.86-27.67-8.89-4.19-13.49,6.93-16.57,18s-.24,19.45,5.42,22.11S721.27,441.33,724.34,430.24Z" transform="translate(-33.38 -184.71)"/><path class="cls-34" d="M717.79,428.55c1.62-5.79,2.28-12.43-2-14.46-4.64-2.19-8.78,19.58-5.83,21S716.2,434.34,717.79,428.55Z" transform="translate(-33.38 -184.71)"/><path class="cls-33" d="M713.82,422.24c0-53.83-7.65-78.08-54.82-78.08-43.63,0-53.77,24.25-53.77,78.08,0,26.92,23.83,62.87,54.31,62.87C693,485.11,713.82,447.18,713.82,422.24Z" transform="translate(-33.38 -184.71)"/><path class="cls-34" d="M644.52,416.61c1.72,0,9.73-6.32,3.1-16-2.44-3.6-8-4.33-11.88-3.81-5.79.77-16-.09-19.26,5.83-2.84,5.17-.46,11.48,1.56,13.22C623,420.14,639.49,416.61,644.52,416.61Z" transform="translate(-33.38 -184.71)"/><path class="cls-20" d="M636.88,423.15c6.47-1.86,10.72-6.08,4.83-11.09-7.8-6.65-21.86-.38-23.52,3.8-.7,1.79,1.08,4.14,2.58,5.29C624.46,424,633.34,424.18,636.88,423.15Z" transform="translate(-33.38 -184.71)"/><path class="cls-33" d="M640.72,412.56c2.49,1.19,3.42,2.61,3.8,4.05,2-2.05.4-9-3.1-11.51-7.79-5.52-19.84-.06-22,3.11-1.21,1.76-2.31,6.16-1.34,7.64C622,412.6,630.53,407.68,640.72,412.56Z" transform="translate(-33.38 -184.71)"/><path class="cls-51" d="M635.23,418.57a5.66,5.66,0,1,0-5.66,5.43A5.56,5.56,0,0,0,635.23,418.57Z" transform="translate(-33.38 -184.71)"/><path class="cls-39" d="M632,418.57a2.47,2.47,0,1,0-2.46,2.36A2.41,2.41,0,0,0,632,418.57Z" transform="translate(-33.38 -184.71)"/><path class="cls-20" d="M682.76,446.05H635.52C642.3,465.2,676,464,682.76,446.05Z" transform="translate(-33.38 -184.71)"/><path class="cls-34" d="M658.67,461.48h0c9.91,0,21.63-4.61,25.5-14.9a1.53,1.53,0,0,0-.17-1.39,1.51,1.51,0,0,0-1.24-.64H635.52a1.49,1.49,0,0,0-1.22.63,1.52,1.52,0,0,0-.19,1.37C636.66,453.77,644.45,461.48,658.67,461.48Zm21.76-13.93c-4.08,7.53-13.59,10.93-21.76,10.93h0c-7.68,0-16.89-2.92-20.88-10.93Z" transform="translate(-33.38 -184.71)"/><path class="cls-34" d="M667.16,465.05c.44-2-2.87-.05-7.67-.11-3.3,0-7.42-1.55-7.63-.58-.5,2.24,1.49,4,5.7,4.36C662.4,469.18,666.45,468.33,667.16,465.05Z" transform="translate(-33.38 -184.71)"/><path class="cls-40" d="M618.36,416.43c.6-.46,14.71-11,25.3.94a1.16,1.16,0,0,0,.86.38,1.14,1.14,0,0,0,.84-1.9c-12-13.48-28.22-1.37-28.39-1.24a1.15,1.15,0,0,0,1.39,1.82Z" transform="translate(-33.38 -184.71)"/><path class="cls-34" d="M694.2,417.46c1.7.26,12-4.08,6.89-14.64-1.89-3.91-7.85-5.38-11.76-5.44-5.85-.09-16.17-2.07-20.26,3.29-3.58,4.7-1.66,10.79-.07,12.94C674.21,420.66,689.22,416.72,694.2,417.46Z" transform="translate(-33.38 -184.71)"/><path class="cls-20" d="M695.4,421.15c1.49-1.15,3.27-3.5,2.57-5.29-1.66-4.18-15.72-10.45-23.52-3.8-5.9,5-1.64,9.23,4.82,11.09C682.83,424.18,691.69,424,695.4,421.15Z" transform="translate(-33.38 -184.71)"/><path class="cls-33" d="M675.43,412.56c10.21-4.88,18.77,0,22.7,3.29,1-1.48-.14-5.88-1.35-7.64-2.2-3.17-14.25-8.63-22-3.11-3.5,2.49-5.08,9.46-3.09,11.51C672,415.17,672.94,413.75,675.43,412.56Z" transform="translate(-33.38 -184.71)"/><path class="cls-52" d="M683.68,399c8.34.5,11.68,1.69,18.63,6.35,0,0,1.68-13.92-21.22-14-13.69-.06-14.16,9.32-11.57,10.2C671.76,402.27,676.73,398.55,683.68,399Z" transform="translate(-33.38 -184.71)"/><path class="cls-52" d="M648,401.5c2.59-.88,2.11-10.26-11.58-10.2-22.89.09-21.21,14-21.21,14,7-4.66,10.29-5.85,18.62-6.35C640.81,398.55,645.79,402.27,648,401.5Z" transform="translate(-33.38 -184.71)"/><path class="cls-34" d="M660.3,430.8h0Z" transform="translate(-33.38 -184.71)"/><path class="cls-34" d="M669.87,432.22a4,4,0,0,0-.32-1.49c-1.93.89-5.44,1.49-9.46,1.49a26.71,26.71,0,0,1-9-1.3,4.08,4.08,0,0,0-.22,1.3c0,3.39,4.26,6.14,9.51,6.14S669.87,435.61,669.87,432.22Z" transform="translate(-33.38 -184.71)"/><path class="cls-51" d="M688.47,418.57a5.66,5.66,0,1,0-5.66,5.43A5.56,5.56,0,0,0,688.47,418.57Z" transform="translate(-33.38 -184.71)"/><path class="cls-39" d="M685.27,418.57a2.47,2.47,0,1,0-2.46,2.36A2.41,2.41,0,0,0,685.27,418.57Z" transform="translate(-33.38 -184.71)"/><path class="cls-40" d="M672.49,417.37c10.57-11.89,24.72-1.39,25.31-.94a1.15,1.15,0,0,0,1.39-1.82c-.16-.13-16.42-12.24-28.4,1.24a1.14,1.14,0,0,0,.09,1.61,1.17,1.17,0,0,0,.76.29A1.12,1.12,0,0,0,672.49,417.37Z" transform="translate(-33.38 -184.71)"/><path class="cls-20" d="M685.68,417.1a.9.9,0,1,0-.9.9A.9.9,0,0,0,685.68,417.1Z" transform="translate(-33.38 -184.71)"/><path class="cls-20" d="M632.53,417.1a.9.9,0,1,0-1.8,0,.9.9,0,0,0,1.8,0Z" transform="translate(-33.38 -184.71)"/><path class="cls-53" d="M684.63,347.54v0Z" transform="translate(-33.38 -184.71)"/><path class="cls-53" d="M724.09,376.56c.42-9,2.61-24.25-8.42-37.17-2.72-3.18-13-12.83-21.88-12.45-2.11.09-8.11,2.95-8.11,2.95s-2.87-5.33-11.33-7.72c-22.43-6.32-36.1-3.44-52.43,6.89-8.46,5.35-21.3,19-22.69,37.83-1,13.38,2.25,40.56,5.15,50.22,1.2,4,1.29,6.2,1.2,4-.35-8,.66-24.06,3.43-29.78,1.17-2.43,23.55-3.87,36.65-8.74,37.56-14,38.92-33.62,39-35v0a52.6,52.6,0,0,0,15,35.85c1.65,1.67,9.4,9.7,10.51,11.78,2.87,5.36,4.17,12.82,4.06,22.93C717.16,409,723.64,386.08,724.09,376.56Z" transform="translate(-33.38 -184.71)"/><path class="cls-53" d="M714.21,418.1c-1.19,3.66,0,1.82,0,0Z" transform="translate(-33.38 -184.71)"/><g class="cls-17"><path class="cls-46" d="M578.65,672.35c3.13-7,4.48-55.29,5-82.26l-1.34-1.52c-2.34,27.9-8.91,74.26-12.53,85.59C569.73,674.16,574.22,682.22,578.65,672.35Z" transform="translate(-33.38 -184.71)"/></g><path class="cls-54" d="M651.65,677.69c-2,.15-20.4-.1-31-1.92s-26.65-6.35-46.58-10-31.62,2.76-35.93,5a22.72,22.72,0,0,1-7,2.61s-7.87-4.9-26.24-8-69.71,12.09-69.71,12.09l-2.6,4.76,1.43,3.57,217.68-3.57S653.63,677.54,651.65,677.69Z" transform="translate(-33.38 -184.71)"/><polygon class="cls-5" points="473.86 469.06 467.08 473.41 475.89 481.39 477.7 480.25 473.86 469.06"/><polygon class="cls-55" points="477.7 480.25 475.89 481.39 477.82 483.24 478.54 482.77 477.7 480.25"/><polygon class="cls-56" points="470.97 464.59 463.94 469.42 467.08 473.41 473.86 469.06 470.97 464.59"/><path class="cls-33" d="M461,653.44c.23,1.83,3.31,3.48,4,5.17.88,2,.21,7.41,2.05,8.66,2.68,1.81,11.32,1.15,11.32,1.15l16.74-2s3.22-1,3.71-1.88-.55-3.72-.55-3.72l1.32-2.85s3,.2,3.67-.43c.87-.81.9-4.66.9-4.66s5.62,1.11,7.43-1.66c2.89-4.42,1.71-11.35,1-15.92-.35-2.23-2.5-3.75-5.07-6.86-1.95-2.37-4.44-5.68-6-6.45-2.45-1.23-5.71.2-10.73-.16-6.25-.46-6.35-.33-12.12-1.56-4.67-1-8.12,1-9.57,4-.62,1.29-.57,4.39-1.41,5.55-1.21,1.65-4.69,1.26-6.27,5.25-1.28,3.21,2.2,9.21,1.55,10.73S460.77,652,461,653.44Z" transform="translate(-33.38 -184.71)"/><path class="cls-34" d="M485.92,641.7c4,2.87,15.34,7,15,5.93-.18-.52-.66-3.82-1.26-8.11S478.5,619.87,480,622.83a30.41,30.41,0,0,1,3.6,12.56C483.78,637.8,484.09,640.37,485.92,641.7Z" transform="translate(-33.38 -184.71)"/><path class="cls-34" d="M477.9,648.52,489.26,656l10.31,2s2.93.3,3.68-.43c.34-.34-3.89-.92-8.16-1.93a62.81,62.81,0,0,1-6.15-1.93s-13-9.12-15.09-10.63-2.5-3.61-3.17-2.53,2.09,3.8,2.09,3.8Z" transform="translate(-33.38 -184.71)"/><path class="cls-34" d="M482.69,662.34c2.93.57,15.33.55,15.79-.66s1.67-4.88,1.11-3.68c-1.32,2.85-12.95,2.64-16.07,2.2s-11.8-8.17-12.77-9-1.61.08-.51,1.42S479.77,661.77,482.69,662.34Z" transform="translate(-33.38 -184.71)"/><path class="cls-34" d="M473.84,667.09l4.51,1.33s8.29-.39,13-1a19.82,19.82,0,0,0,3.71-.92s-6.28.5-8.68.59a25.17,25.17,0,0,1-8.26-1.29c-2.51-.86-13.15-7.14-13.15-7.14s3.27,4.35,4,5.22C469.84,664.94,473.84,667.09,473.84,667.09Z" transform="translate(-33.38 -184.71)"/><path class="cls-34" d="M511.08,649.9c1.37-1,.79-6.82.79-6.82H505s-.67,5.25.72,6.65C506.83,650.82,509.8,650.84,511.08,649.9Z" transform="translate(-33.38 -184.71)"/><path class="cls-56" d="M500.9,647.63s-.6-2.5-.72-3.34-.21-2.9-.21-2.9L464.73,582.8l-6.32,4.33,34.42,57.46Z" transform="translate(-33.38 -184.71)"/><path class="cls-34" d="M503.55,651.25a7.09,7.09,0,0,0-2.42-3.64c-2-1.67-14.07-6.35-14.07-6.35a41.93,41.93,0,0,0,4.6,3.3,81.1,81.1,0,0,1,7.73,3.24C502.29,649,503.24,650.39,503.55,651.25Z" transform="translate(-33.38 -184.71)"/><path class="cls-34" d="M503.55,651.25a3.88,3.88,0,0,1,.13.85A2,2,0,0,0,503.55,651.25Z" transform="translate(-33.38 -184.71)"/><path class="cls-34" d="M502.4,653.17c-1-1.31-6.07-1.92-6.07-1.92L495.21,656s5.25,1.57,6.51.79A2.7,2.7,0,0,0,502.4,653.17Z" transform="translate(-33.38 -184.71)"/><path class="cls-20" d="M532.43,676.16h.18c.72,0,2.73-.27,3.13-3.15l.06-.55c.57-1.83,3.08-6.36,14.1-8.64,17.32-3.59,35.51.94,53.1,5.33,9.13,2.27,18.58,4.62,27.86,5.85a95.52,95.52,0,0,0,15.1.42,3,3,0,1,0-.22-6,91.53,91.53,0,0,1-14.09-.38c-8.95-1.18-18.23-3.49-27.2-5.73-18.24-4.54-37.11-9.25-55.77-5.38-8.2,1.7-12.87,4.72-15.53,7.62-4.44-4.71-13.17-6.91-16.57-7.62-18.66-3.87-37.53.84-55.77,5.38-9,2.24-18.25,4.55-27.19,5.73a90.07,90.07,0,0,1-14,.38,3,3,0,0,0-.21,6,94.81,94.81,0,0,0,15-.43c9.29-1.23,18.73-3.58,27.86-5.85,17.59-4.39,35.78-8.92,53.1-5.33,9.71,2,12.85,4.92,13.86,6.47a3.52,3.52,0,0,1,.58,1.52,7.07,7.07,0,0,0-.17,1.35A3,3,0,0,0,532.43,676.16Z" transform="translate(-33.38 -184.71)"/><path class="cls-57" d="M532.43,681.72h.18c.72,0,2.73-.26,3.13-3.14l.06-.56c.57-1.82,3.08-6.35,14.1-8.64,17.32-3.59,35.51,1,53.1,5.33,9.13,2.28,18.58,4.63,27.86,5.85,8.95,1.18,22.46,0,23,0a3,3,0,1,0-.52-6c-.13,0-13.43,1.16-21.72.07-8.95-1.18-18.23-3.49-27.2-5.73-18.24-4.55-37.1-9.25-55.77-5.38-8.2,1.7-12.87,4.72-15.53,7.62-4.44-4.71-13.17-6.92-16.57-7.62-18.66-3.87-37.53.83-55.77,5.38-9,2.24-18.25,4.55-27.19,5.73-8.29,1.09-21.59,0-21.73-.07a3,3,0,1,0-.52,6c.57.05,14.09,1.21,23,0,9.29-1.22,18.73-3.57,27.86-5.85,17.59-4.38,35.78-8.92,53.1-5.33,9.71,2,12.85,4.93,13.86,6.48a3.43,3.43,0,0,1,.58,1.52,7,7,0,0,0-.17,1.34A3,3,0,0,0,532.43,681.72Z" transform="translate(-33.38 -184.71)"/><path class="cls-33" d="M356.89,617.91c-2.33,4.94,3.24,6.14,5.21,7.13,3.47,1.72,15.09,4.49,15.09,4.49l0,3.73s-3.12,4.41-2.78,6c.5,2.43,7.4,6.58,7.4,6.58s16.89,6.58,22.75,6c1.59-.15,4.49-1.78,5.76-2.74a40.4,40.4,0,0,0,4.11-4.66s5.55-1.3,6.86-3c1.5-2,.54-8.22.54-8.22s5-6.69,4.94-9.32-3.33-7.23-5.21-9.05c-4.55-4.38-14.8-11-21.12-11.24-1.88-.07-6.1,1.9-7.94,2.3s-7.8,0-7.8,0l.53,4.75s-16.15-3.84-16.85,2.27c-.29,2.52,1.91,4.94,1.91,4.94S358.33,614.86,356.89,617.91Z" transform="translate(-33.38 -184.71)"/><path class="cls-34" d="M412.43,613.24s7.3,0-9.59-4.28c-2.41-.61-9.92.71-9.92.71l-7.87-.8.21,1.83,12.85,1.8Z" transform="translate(-33.38 -184.71)"/><polygon class="cls-58" points="402.49 392.27 366.15 427.87 377.13 428.53 408.17 398.55 402.49 392.27"/><path class="cls-34" d="M385.33,621.85l6.88,2.21,15.49,5.31,6.79,1v-3.69l-12.39-2.53s-21.26-3.91-26.16-5.07a24.36,24.36,0,0,1-7-3.27,10.19,10.19,0,0,0,1.36,2.12C373.45,620.32,385.33,621.85,385.33,621.85Z" transform="translate(-33.38 -184.71)"/><path class="cls-34" d="M377.19,630.35l16.35,6.49,10.92,4.28,4.32-2.52-16.43-4.78-17.4-5.6s-18.09-5.77-15.49-4.35C363.6,626.14,377.19,630.35,377.19,630.35Z" transform="translate(-33.38 -184.71)"/><polygon class="cls-34" points="363.85 460.11 347.92 451.7 343.84 448.56 342.56 450.55 358 460.11 364.66 461.72 363.85 460.11"/><path class="cls-34" d="M377,617.35l1-5.11s-5.07-1.19-6.66-.34c-1.25.67-1.22,2.69-.48,3.77S377,617.35,377,617.35Z" transform="translate(-33.38 -184.71)"/><path class="cls-34" d="M363.12,623l1.2-4.06s-4-1.32-5.36-.74a2.53,2.53,0,0,0-1.06,3.13C358.45,622.28,363.12,623,363.12,623Z" transform="translate(-33.38 -184.71)"/><path class="cls-53" d="M677.15,329.89l11.32,2.42c-.37-9.08-13.38-16.25-26.75-16.25,0,0,11.27,4.62,12.7,8.12A46.82,46.82,0,0,0,677.15,329.89Z" transform="translate(-33.38 -184.71)"/><path class="cls-53" d="M693.42,329.56a34.67,34.67,0,0,1,6.22-7.67c-6.79.17-12.22,2.84-14,5.5,0,0,1.24,6,1.74,6.34S691.25,333.56,693.42,329.56Z" transform="translate(-33.38 -184.71)"/><polygon class="cls-49" points="634.96 464.59 624.5 465.87 627.34 493.91 640.21 493.91 634.96 464.59"/><polygon class="cls-45" points="646.9 461.98 633.35 463.33 638.6 494.02 653.71 494.02 646.9 461.98"/><g class="cls-17"><path class="cls-46" d="M525.08,632.37c-1.69,0-3.31,0-4.88.11h0c6.87-.05,27.12,2.6,35,7.78,0,0-.5-4.58-12.13-9.58-11.47-4.93-14.68-4.12-14.21-9.77C527.21,627.91,525.87,632.37,525.08,632.37Z" transform="translate(-33.38 -184.71)"/></g><path class="cls-31" d="M227.19,270.65c3.65-5,3.82-20.48,3.82-20.48,12.44,38.9,28.31,19.38,70,32.72,6.62,2.12,9.54,13.19,9.69,21.34.77,41.29,26.3-90-56.28-99.38C213,200.14,170,270.17,186.37,281,193.52,285.67,218.28,283,227.19,270.65Z" transform="translate(-33.38 -184.71)"/><path class="cls-31" d="M175.86,308.2c4-2.35,8.74-8,8.74-8,.33-14,33.26-15.15,41-27.53s-5.22-10.62-10-22.62l-20,8.38S172.36,286.56,172,290.06,171.86,310.56,175.86,308.2Z" transform="translate(-33.38 -184.71)"/><path class="cls-33" d="M248.92,274.61c-14.59-5.81-13.78-24.55-20.94-42.18,0,0,3.85,20.68,1.86,30.46S248.92,274.61,248.92,274.61Z" transform="translate(-33.38 -184.71)"/><rect class="cls-59" x="9.95" y="518.13" width="812.79" height="74.88"/><rect class="cls-28" y="492.91" width="832.69" height="32.35"/><rect class="cls-60" y="492.91" width="832.68" height="6"/><path class="cls-61" d="M820.14,639.35a9.26,9.26,0,0,0,9.25-9.25v-8.26a9.26,9.26,0,0,0-9.25-9.25H704.29a21.68,21.68,0,0,1,3.92,12.73c0,9.14-3.92,14-3.92,14Z" transform="translate(-33.38 -184.71)"/><path class="cls-9" d="M810.4,639.35V612.59H790.48s2,4.11,2,13.1-2,13.66-2,13.66Z" transform="translate(-33.38 -184.71)"/><path class="cls-9" d="M790,640.4a1.12,1.12,0,0,0,.44.09,1.14,1.14,0,0,0,1-.7c.08-.2,2.05-5,2.05-14.1s-2-13.41-2.07-13.59a1.14,1.14,0,0,0-2.06,1s1.85,4.07,1.85,12.62-1.85,13.18-1.87,13.22A1.14,1.14,0,0,0,790,640.4Z" transform="translate(-33.38 -184.71)"/><path class="cls-62" d="M789.13,639.35h-90v5.55h121A14.81,14.81,0,0,0,835,630.1v-8.26A14.81,14.81,0,0,0,820.14,607h-121v5.55h90a9.25,9.25,0,0,1,9.25,9.25v8.26A9.25,9.25,0,0,1,789.13,639.35Z" transform="translate(-33.38 -184.71)"/><path class="cls-63" d="M790,644.9h43.71a14.8,14.8,0,0,0,14.81-14.8v-8.26A14.8,14.8,0,0,0,833.74,607H790a14.8,14.8,0,0,1,14.81,14.8v8.26A14.8,14.8,0,0,1,790,644.9Z" transform="translate(-33.38 -184.71)"/><path class="cls-62" d="M845.19,639.49H801.47A14.74,14.74,0,0,1,790,644.9h43.71A14.78,14.78,0,0,0,845.19,639.49Z" transform="translate(-33.38 -184.71)"/><path class="cls-16" d="M847.2,615.68A14.8,14.8,0,0,0,833.74,607H790a14.78,14.78,0,0,1,13.45,8.64Z" transform="translate(-33.38 -184.71)"/><path class="cls-20" d="M708.58,649.83a8.4,8.4,0,0,0-8.4,8.39v7.49a8.4,8.4,0,0,0,8.4,8.39H851.11a19.66,19.66,0,0,1-3.56-11.54c0-8.29,3.56-12.73,3.56-12.73Z" transform="translate(-33.38 -184.71)"/><path class="cls-9" d="M754,649.83V674.1H772s-1.77-3.73-1.77-11.88S772,649.83,772,649.83Z" transform="translate(-33.38 -184.71)"/><path class="cls-21" d="M772.42,648.88a1.09,1.09,0,0,0-.39-.08,1,1,0,0,0-1,.63c-.07.18-1.86,4.54-1.86,12.79s1.81,12.16,1.88,12.32a1,1,0,0,0,1.87-.88s-1.68-3.68-1.68-11.44,1.68-12,1.7-12A1,1,0,0,0,772.42,648.88Z" transform="translate(-33.38 -184.71)"/><path class="cls-64" d="M773.25,649.83h82.56v-5H722.18a13.42,13.42,0,0,0-13.42,13.42v7.49a13.42,13.42,0,0,0,13.42,13.42H855.81v-5H773.25a8.39,8.39,0,0,1-8.39-8.39v-7.49A8.39,8.39,0,0,1,773.25,649.83Z" transform="translate(-33.38 -184.71)"/><path class="cls-65" d="M772.43,644.8H708.58a13.42,13.42,0,0,0-13.43,13.42v7.49a13.42,13.42,0,0,0,13.43,13.42h63.85A13.43,13.43,0,0,1,759,665.71v-7.49A13.43,13.43,0,0,1,772.43,644.8Z" transform="translate(-33.38 -184.71)"/><path class="cls-26" d="M772.43,644.8H708.58a13.42,13.42,0,0,0-11.76,6.94h63.85A13.43,13.43,0,0,1,772.43,644.8Z" transform="translate(-33.38 -184.71)"/></g></g></svg>