<?xml version="1.0" encoding="iso-8859-1"?>
<!-- Generator: Adobe Illustrator 19.0.0, SVG Export Plug-In . SVG Version: 6.00 Build 0)  -->
<svg version="1.1" id="Layer_1" xmlns="http://www.w3.org/2000/svg" xmlns:xlink="http://www.w3.org/1999/xlink" x="0px" y="0px"
	 viewBox="0 0 512 512" style="enable-background:new 0 0 512 512;" xml:space="preserve">
<circle style="fill:#E5766D;" cx="256" cy="256" r="256"/>
<path style="fill:#E1574C;" d="M371.604,104.452l-4.084,3.404l-40.032,17.032l-12.996-25.084l-7.912,24.26l-4.824,9.528
	l-9.396-13.032l-12.4-4.48l-3.576,14.296l-12.924-16.964l-7.46,4.276l-2.664,0.716l-16.44-18.6l-79.188,4.452l-43.872,18.432
	L124.84,384.84l-13.888,20.996l103.816,102.812C228.196,510.824,241.956,512,256,512c141.384,0,256-114.612,256-256
	c0-4.304-0.112-8.584-0.324-12.832L371.604,104.452z"/>
<path style="fill:#ECECEC;" d="M362.292,99.8h-41.028c0.172,1.12,0.836,2.296,0.944,3.48c0.396,4.412-0.508,8.612-0.48,12.904
	c0.008,1.248,0.448,3.204,0.716,5.16c2.444,1.284,4.112,3.828,4.112,6.78c0,4.212-3.416,7.628-7.632,7.628
	c-4.22,0-7.636-3.416-7.636-7.628c0-2.636,1.332-4.968,3.368-6.34c-0.272-0.304-0.492-0.628-0.592-0.96
	c-1.784-5.728,1.952-14.18,0.432-21.024h-19.152c2.56,0.484,5.24-0.776,6.36,2.416c0.664,1.884-0.664,3.28-1,4.904
	c-0.156,0.752,0.408,2.044,0.068,2.748c-0.396,0.796-2.076,2.312-2.208,2.644c-1.148,2.888-1.172,4.204-1.164,7.976
	c0,0.304,0.02,0.728,0.036,1.204c2.116,1.364,3.528,3.728,3.528,6.436c0,4.212-3.416,7.628-7.632,7.628
	c-4.22,0-7.636-3.416-7.636-7.628c0-3.896,2.916-7.092,6.668-7.568c-0.06-0.328-0.108-0.6-0.172-0.788
	c-1.816-5.612-6.572-12.14-9.172-16.864c-3.416-0.712-3.376,2.072-4.584,4.232c-2.832,5.048-6.26,4.596-11.548,8.084
	c1.86,2.028,2.744,3.328,2.636,5.476c3.352,0.808,5.844,3.82,5.844,7.424c0,4.212-3.416,7.628-7.632,7.628
	c-4.22,0-7.636-3.416-7.636-7.628c0-2.844,1.56-5.316,3.86-6.636c-0.988-1.488-0.288-4.188-0.492-8.08
	c-5.492,0.084-5.744-8.544-10.392-7.208c-0.344,2.296,1.36,6.052,0.36,8.12c-0.296,0.612-3.28,1.424-4.248,2.836
	c-0.832,1.22-0.248,3.636-1.44,5.236c-0.068,0.088-0.152,0.188-0.252,0.296c1.404,1.38,2.276,3.296,2.276,5.432
	c0,4.212-3.42,7.628-7.636,7.628c-4.22,0-7.632-3.416-7.632-7.628c0-3.22,1.996-5.972,4.812-7.092
	c-0.596-3.192-0.02-7.628-0.568-10.156c-0.636-2.94-1.44-5.1-1.94-8.168c-0.144-0.872,0.18-1.984,0.088-2.908h-114.92
	c-7.736,0-14.06,6.32-14.06,14.06v284.28c0,7.74,6.324,14.06,14.06,14.06h240.32c7.732,0,14.06-6.32,14.06-14.06v-284.28
	C376.352,106.12,370.024,99.8,362.292,99.8z M139.748,135.752c-4.22,0-7.636-3.416-7.636-7.628c0-4.224,3.416-7.64,7.636-7.64
	c4.216,0,7.632,3.416,7.632,7.64C147.38,132.336,143.96,135.752,139.748,135.752z M165.344,135.752c-4.22,0-7.636-3.416-7.636-7.628
	c0-4.224,3.416-7.64,7.636-7.64c4.216,0,7.628,3.416,7.628,7.64C172.972,132.336,169.56,135.752,165.344,135.752z M190.936,135.752
	c-4.212,0-7.636-3.416-7.636-7.628c0-4.224,3.424-7.64,7.636-7.64c4.22,0,7.636,3.416,7.636,7.64
	C198.576,132.336,195.156,135.752,190.936,135.752z M216.536,135.752c-4.216,0-7.632-3.416-7.632-7.628
	c0-4.224,3.416-7.64,7.632-7.64c4.22,0,7.636,3.416,7.636,7.64C224.172,132.336,220.752,135.752,216.536,135.752z M344.52,135.752
	c-4.216,0-7.632-3.416-7.632-7.628c0-4.224,3.416-7.64,7.632-7.64c4.22,0,7.636,3.416,7.636,7.64
	C352.156,132.336,348.74,135.752,344.52,135.752z"/>
<g>
	<rect x="128.16" y="162.484" style="fill:#2B414D;" width="227.94" height="4.216"/>
	<rect x="128.16" y="182.58" style="fill:#2B414D;" width="227.94" height="1.056"/>
	<rect x="128.16" y="198.848" style="fill:#2B414D;" width="227.94" height="1.06"/>
	<rect x="128.16" y="215.12" style="fill:#2B414D;" width="227.94" height="1.048"/>
	<rect x="128.16" y="231.396" style="fill:#2B414D;" width="227.94" height="1.048"/>
	<rect x="128.16" y="247.652" style="fill:#2B414D;" width="227.94" height="1.06"/>
	<rect x="128.16" y="263.924" style="fill:#2B414D;" width="227.94" height="1.06"/>
	<rect x="128.16" y="280.2" style="fill:#2B414D;" width="227.94" height="1.06"/>
	<rect x="128.16" y="296.48" style="fill:#2B414D;" width="227.94" height="1.06"/>
	<rect x="128.16" y="312.76" style="fill:#2B414D;" width="227.94" height="1.052"/>
	<rect x="128.16" y="329" style="fill:#2B414D;" width="227.94" height="1.048"/>
	<rect x="128.16" y="345.28" style="fill:#2B414D;" width="227.94" height="1.06"/>
	<rect x="128.16" y="361.56" style="fill:#2B414D;" width="227.94" height="1.056"/>
	<rect x="128.16" y="377.8" style="fill:#2B414D;" width="227.94" height="1.06"/>
	<rect x="128.16" y="394.08" style="fill:#2B414D;" width="227.94" height="1.06"/>
</g>
<polygon style="fill:#455D6A;" points="247.984,352.464 222.044,326.528 272.564,269.512 304.992,301.944 "/>
<rect x="295.565" y="213.957" transform="matrix(-0.7072 -0.707 0.707 -0.7072 362.7488 662.2181)" style="fill:#334E5C;" width="45.864" height="84.079"/>
<path style="fill:#2C4451;" d="M363.488,243.448l53.92-53.916c3.572-3.58,3.572-9.42,0-12.992l-19.444-19.444
	c-3.576-3.568-9.416-3.568-12.988,0l-53.916,53.92L363.488,243.448z"/>
<ellipse transform="matrix(0.7071 -0.7072 0.7072 0.7071 -171.5472 265.4861)" style="fill:#233640;" cx="234.664" cy="339.798" rx="4.336" ry="18.397"/>
<g>
	
		<rect x="376.401" y="172.543" transform="matrix(-0.7071 -0.7071 0.7071 -0.7071 557.8472 581.4048)" style="fill:#EDC55D;" width="45.872" height="5.252"/>
	
		<rect x="368.323" y="169.329" transform="matrix(-0.7074 -0.7068 0.7068 -0.7074 493.3073 617.1408)" style="fill:#EDC55D;" width="12.136" height="74.271"/>
	<path style="fill:#EDC55D;" d="M229.12,372.08c0,0,8.508-15.092,13.012-23.56c-2.56-7.192-8.692-12.572-15.272-16.38
		c-8.16,4.34-25.552,14.252-25.552,14.252c2.256,13.268-1.54,23.372-3.888,28.064c-2.008-1.284-4.788-1.004-6.572,0.776
		c-2.004,2-1.996,5.128,0.016,6.996l1.396,1.288c2.016,1.856,5.276,1.74,7.272-0.26c1.784-1.78,1.96-4.464,0.556-6.336
		C204.876,374.48,215.236,370.428,229.12,372.08z M218.584,360.756c-3.356,0.008-6-2.6-5.908-5.828
		c0.092-3.24,2.9-5.872,6.256-5.884c3.36-0.016,6.008,2.584,5.916,5.82C224.752,358.1,221.948,360.74,218.584,360.756z"/>
</g>
<path style="fill:#EDB048;" d="M229.12,372.08c0,0,8.508-15.092,13.012-23.56c-0.856-2.396-2.092-4.596-3.624-6.596
	c-5.924,8.756-10.544,18.6-19.704,24.556c-6.356,4.124-13.816,7.152-21.312,7.836c-0.024,0.044-0.048,0.096-0.072,0.144
	c-0.068-0.048-0.144-0.072-0.216-0.116c-1.736,0.152-3.472,0.16-5.192,0.036c-0.416,0.236-0.816,0.512-1.164,0.86
	c-2.004,2-1.996,5.128,0.016,6.996l1.396,1.288c2.016,1.856,5.276,1.74,7.272-0.26c1.784-1.78,1.96-4.464,0.556-6.336
	C204.876,374.48,215.236,370.428,229.12,372.08z"/>
<g>
</g>
<g>
</g>
<g>
</g>
<g>
</g>
<g>
</g>
<g>
</g>
<g>
</g>
<g>
</g>
<g>
</g>
<g>
</g>
<g>
</g>
<g>
</g>
<g>
</g>
<g>
</g>
<g>
</g>
</svg>
