<?xml version="1.0" encoding="utf-8"?>
<!-- Generator: Adobe Illustrator 21.1.0, SVG Export Plug-In . SVG Version: 6.00 Build 0)  -->
<svg version="1.1" id="Layer_1" xmlns="http://www.w3.org/2000/svg" xmlns:xlink="http://www.w3.org/1999/xlink" x="0px" y="0px"
	 viewBox="0 0 128 128" style="enable-background:new 0 0 128 128;" xml:space="preserve">
<style type="text/css">
	.st0{fill:#BDAB82;}
	.st1{fill:#FFC323;}
	.st2{fill:#FD891E;}
	.st3{fill:#906F5D;}
	.st4{fill:#452F27;}
</style>
<g id="Слой_2_4_">
	<g>
		<polygon class="st0" points="97.2,20.3 97.2,10.6 96.4,11 65.1,29.9 64,29.9 64,29.9 64,85.1 64,85.1 106.8,74.5 106.8,18.7 		"/>
		<polygon class="st1" points="62.3,29.9 31.7,12.9 29.9,18.4 28.4,21.5 22.8,20 21.2,74.5 64,85.1 64,29.9 		"/>
		<g>
			<path class="st0" d="M71.6,104.6c0,0-3.9-20.1,23.6-18.6C95.2,85.9,89.9,111.4,71.6,104.6"/>
			<path class="st2" d="M59.8,110.1c0,0,1.4-16.7-19.1-16.9C40.8,93.3,40.8,113.2,59.8,110.1"/>
			<polygon class="st2" points="22.8,20.9 28.4,22.4 28.4,67.7 57.8,83.6 21.2,75.6 			"/>
			<polygon class="st3" points="73.1,82.7 98.5,67.7 98.5,20.9 107.5,19.7 106.8,75.5 			"/>
			<path class="st4" d="M119.5,0H8.6C7.7,0,6.9,0.8,6.9,1.7v76.4c0,6.8,1.9,13.4,5.5,19.1s8.8,10.3,14.8,13.2L63,127.6
				c0.3,0.2,0.6,0.4,1,0.4c0.4,0,0.8-0.2,1-0.4l35.8-17.1c6.1-2.9,11.2-7.5,14.8-13.2c3.6-5.7,5.5-12.4,5.5-19.1V1.7
				C121.2,0.8,120.4,0,119.5,0 M115.9,3.4l-15,15.1l-1.3,0.3V15l11.5-11.6L115.9,3.4z M85.4,103.1c-1.9,1.5-6.6,1.8-10.1,1.8
				c-0.6,0-1.2,0-1.7,0l12.7-10.6c0.3-0.2,0.4-0.7,0.2-1c-0.2-0.3-0.7-0.4-1.1-0.2l-13.7,9.8c0.7-3.2,2.4-9.7,4.8-11.5
				c3.2-2.5,17.9-4.6,17.9-4.6S88.6,100.6,85.4,103.1 M68.2,87.3l-2.5,2.5V88L68.2,87.3z M65.7,83.8V31.1v-0.3l30.6-17.1v52.9
				L65.7,83.8z M68.7,87.2l6.4-1.7l-2.1,2.1l-7.2,7.3v-4.8L68.7,87.2z M72.9,88l2.6-2.6l6.4-1.7l-4.1,4.2c-1.1,0.5-2.1,0.9-2.8,1.4
				c-1.2,0.9-2.3,2.6-3.1,4.5l-6.1,6.2v-4.8L72.9,88z M89.1,82l6.4-1.7l-4.4,4.4c-1.7,0.3-3.7,0.7-5.8,1.1L89.1,82z M84.8,85.9
				c-2.3,0.5-4.6,1.1-6.5,1.8l4-4l6.4-1.7L84.8,85.9z M71.6,94.5c-1,2.3-1.7,4.9-2.2,7l-3.7,3.7v-4.8L71.6,94.5z M69.3,101.9
				c-0.2,1-0.4,1.7-0.5,2.3c-0.1,0.2-0.1,0.5,0,0.8l-3.1,2.3v-1.7L69.3,101.9z M70.7,107.1c0.2,0,0.2,0.1,0.4,0.1
				c0.1,0,1.1,0.1,2.6,0.2l-0.8,0.8l-7.2,7.3v-4L70.7,107.1z M72.9,108.5l1.1-1.1c0.4,0,0.8,0,1.3,0c1.3,0,2.5-0.1,3.6-0.2l-6,6
				l-7.2,7.3v-4.8L72.9,108.5z M94,84.2c-0.5,0.1-1.4,0.2-2.5,0.4l4.4-4.5l6.4-1.7l-6.2,6.3c-0.5-0.4-1.1-0.6-1.7-0.6
				C94.3,84.2,94.2,84.2,94,84.2 M76.4,81.7l22.5-12.6c0.5-0.3,0.9-0.9,0.9-1.5V22.2l5.6-1.4v53.3L76.4,81.7z M110.9,3.4L99.7,14.7
				v-3.9c0-0.3-0.1-0.5-0.2-0.8l6.6-6.7L110.9,3.4z M105.7,3.4l-6.4,6.4c-0.2-0.2-0.3-0.4-0.5-0.5c-0.5-0.3-1.1-0.3-1.7,0l-4.5,2.5
				l8.4-8.4L105.7,3.4z M100.7,3.4l-8.8,8.8l-10.6,5.9L95.9,3.4L100.7,3.4z M95.6,3.4L80.5,18.6l-10.6,5.9l2.9-3l18-18.1L95.6,3.4
				L95.6,3.4z M85.5,3.4L72.9,16l0,0L62.2,26.8l-3-1.7l13.8-13.9l7.8-7.9H85.5z M80.4,3.4l-7.5,7.5L58.9,25l-3-1.7l17-17.1l2.7-2.8
				L80.4,3.4L80.4,3.4z M75.3,3.4l-2.4,2.4L55.6,23.2l-3-1.7l18-18.1H75.3z M70.2,3.4L52.4,21.3l-3-1.7L65.5,3.4H70.2z M65.1,3.4
				l-16,16.1l-3-1.7L60.4,3.4H65.1z M60.1,3.4L45.9,17.7l-3-1.7L55.3,3.4H60.1z M55,3.4L42.6,15.9l-3-1.7L50.2,3.4H55z M49.9,3.4
				L39.4,14.1l-3-1.7l8.8-9H49.9z M44.8,3.4l-8.7,8.8l-3-1.7l7.1-7.1L44.8,3.4L44.8,3.4z M39.7,3.4l-7,7l-1.9-1.1
				c-0.5-0.3-1.1-0.3-1.7,0c-0.1,0.1-0.2,0.2-0.2,0.2l6-6.1L39.7,3.4L39.7,3.4z M47.7,100.1l9.4,9.1c-2.5-0.1-7.6-0.5-9.4-2
				c-2.3-2.1-6-13-6-13s11.2,2.5,13.5,4.6c1.7,1.5,2.6,6.2,2.9,8.8l-9.8-8.2c-0.2-0.2-0.5-0.2-0.8,0.1
				C47.4,99.6,47.4,100,47.7,100.1 M47.7,93l7-7l3.8,1l-7.1,7.2C50.1,93.8,48.8,93.4,47.7,93 M47.4,92.9c-1.4-0.4-2.7-0.8-3.8-1l7-7
				l3.8,1L47.4,92.9z M22.8,74.2V20.9l5.6,1.4v45.4c0,0.6,0.3,1.2,0.9,1.5l22.5,12.6L22.8,74.2z M25.2,18l-3.7-1l0,0l7.3-7.3
				c-0.2,0.3-0.4,0.7-0.4,1.1v4.1L25.2,18z M28.4,15.3v3.6l-2.8-0.8L28.4,15.3z M10.2,3.4h4.1L12,5.8l-1.7,1.7V3.4z M10.2,7.9
				l1.7-1.7l2.7-2.8h4.7L12,11l-1.7,1.7L10.2,7.9L10.2,7.9z M10.2,13l1.7-1.7l7.8-7.9h4.7L12,16l-1.7,1.7L10.2,13L10.2,13z
				 M10.2,18.1l1.7-1.7l12.9-13h4.7L12,21.2l-1.7,1.7L10.2,18.1L10.2,18.1z M10.2,23.2l1.7-1.7l18-18.1h4.8L21.1,16.9
				c-0.4,0-0.8,0.1-1.1,0.4c-0.4,0.3-0.7,0.8-0.7,1.4v0.2L12,26.3L10.3,28L10.2,23.2L10.2,23.2z M10.2,28.4l1.7-1.7l7.4-7.5v4.8
				L12,31.4l-1.7,1.7L10.2,28.4L10.2,28.4z M10.2,33.5l1.7-1.7l7.4-7.5V29L12,36.5l-1.7,1.7L10.2,33.5L10.2,33.5z M10.2,38.6
				l1.7-1.7l7.4-7.5v4.8L12,41.7l-1.7,1.7L10.2,38.6L10.2,38.6z M10.2,43.7l1.7-1.7l7.4-7.5v4.8L12,46.7l-1.7,1.7L10.2,43.7
				L10.2,43.7z M10.2,48.8l1.7-1.7l7.4-7.5v4.8L12,51.9l-1.7,1.7L10.2,48.8L10.2,48.8z M10.2,53.9l1.7-1.7l7.4-7.5v4.8L12,57
				l-1.7,1.7L10.2,53.9L10.2,53.9z M10.2,59l1.7-1.7l7.4-7.5v4.8l-5,5.1L12,62.1l0,0l-1.7,1.7L10.2,59L10.2,59z M10.2,64.2l1.7-1.7
				l2.7-2.8l4.7-4.7v4.8L12,67.2L10.3,69L10.2,64.2L10.2,64.2z M10.2,69.3l1.7-1.7l7.4-7.5v4.8l-7.4,7.5L10.2,74V69.3z M10.2,78.2
				v-3.8l1.7-1.7l7.4-7.5v4.8l-7.4,7.5l-1.7,1.7C10.3,78.8,10.2,78.5,10.2,78.2 M10.3,79.5l1.7-1.7l7.4-7.5v4.8L12,82.6l-1.2,1.2
				C10.5,82.3,10.4,80.9,10.3,79.5 M10.8,84.1l1.1-1.1l7.4-7.5v0.2c0,0.8,0.5,1.4,1.3,1.7l1.4,0.4L12,87.7l-0.2,0.2
				C11.4,86.6,11.1,85.4,10.8,84.1 M11.8,88.2L11.8,88.2l10.4-10.4l3.8,1l-12.9,13C12.7,90.4,12.2,89.3,11.8,88.2 M13.3,91.8
				l13.1-13.1l3.8,1L15,95C14.3,93.9,13.8,92.8,13.3,91.8 M15.2,95.5c-0.1-0.2-0.2-0.2-0.2-0.4l15.3-15.4l3.8,1L16.9,97.9
				C16.4,97.2,15.8,96.3,15.2,95.5 M17.1,98.1l17.2-17.4l3.8,1l-18.8,19C18.6,99.9,17.9,99,17.1,98.1 M19.5,100.9l18.9-19.1l3.8,1
				L22,103.2C21.1,102.4,20.3,101.7,19.5,100.9 M22.2,103.3l20.3-20.5l3.8,1L25,105.2C24,104.7,23.1,104,22.2,103.3 M25.1,105.5
				l21.4-21.5l3.8,1l-7,7c-0.4-0.1-0.8-0.2-1.1-0.2c-0.2-0.1-0.4-0.1-0.5-0.1c-0.7,0-1.4,0.3-1.9,0.8c-0.6,0.7-0.8,1.7-0.5,2.6
				c0.1,0.2,0.2,0.5,0.2,0.7l-11.4,11.5C27.1,106.7,26.1,106.1,25.1,105.5 M28.7,107.4c-0.1-0.1-0.2-0.1-0.3-0.2l11.3-11.3
				c0.3,0.9,0.8,2.1,1.3,3.5l-9.4,9.5L28.7,107.4z M31.8,108.9l9.2-9.3c0.5,1.1,0.9,2.3,1.4,3.3l-7.4,7.4L31.8,108.9z M35.3,110.6
				l7.3-7.3c0.5,1.1,1.1,2.2,1.6,3.2l-5.7,5.7L35.3,110.6z M38.7,112.3l5.5-5.6c0.6,1.1,1.2,1.9,1.8,2.4c0.1,0.1,0.2,0.2,0.3,0.2
				l-4.4,4.5L38.7,112.3z M42.1,113.9l4.4-4.4c0.9,0.6,2,1.1,3.3,1.4l-4.5,4.5L42.1,113.9z M45.6,115.5l4.5-4.6
				c1.4,0.3,2.7,0.5,4.1,0.7l-5.4,5.4L45.6,115.5z M49,117.2l5.5-5.5c1.7,0.2,3.1,0.2,3.9,0.2c0.3,0,0.5-0.1,0.8-0.2l-7,7L49,117.2z
				 M52.5,118.8l7.1-7.2l2.4,2.3l-6.3,6.4L52.5,118.8z M62.3,123.5l-2.9-1.4l1-1.1l0,0l1.9-1.9L62.3,123.5L62.3,123.5z M62.3,118.8
				l-2.3,2.3l-0.9,0.9l-3.2-1.5l6.3-6.3l0.2,0.2L62.3,118.8L62.3,118.8z M62.3,111l-1.1-1l1.1-1.1V111z M62.3,108.6l-1.4,1.4
				l-0.1-0.1c0.1-0.3,0.1-0.5,0.1-0.8c-0.1-0.7-0.2-1.9-0.5-3.3l1.9-1.9L62.3,108.6L62.3,108.6z M62.3,103.4l-1.9,2
				c-0.2-1.2-0.5-2.5-1-3.8l2.9-2.9V103.4z M62.3,98.3l-2.9,2.9c-0.4-1.2-0.9-2.3-1.5-3.3l4.5-4.5V98.3z M62.3,93.2l-4.6,4.6
				c-0.2-0.4-0.5-0.7-0.8-1c-0.5-0.4-1.1-0.8-1.7-1.1l7.2-7.3V93.2z M62.3,88.1l-7.4,7.5c-1-0.5-2.1-0.9-3.4-1.4l7.2-7.2l3.6,0.9
				V88.1z M62.3,31.1v52.6l-30.6-17V13.8l30.6,17.1V31.1z M64,27.8l-1.6-0.9l10.4-10.5l12.9-13h4.7L72.9,21.2l-3.8,3.8L64,27.8z
				 M65.7,123.5v-2.6l7.2-7.3l6.4-6.4c2.9-0.2,4.7-0.7,5.8-1.1l-12.2,12.2l-2.7,2.7l0,0l-0.5,0.5L65.7,123.5z M112.8,95.5
				c-3.3,5.2-7.9,9.3-13.4,11.9h-0.1l15.3-15.5C114.1,93.2,113.5,94.4,112.8,95.5 M115,91.3l-16.4,16.5l-9,4.3l27.5-27.7
				C116.7,86.7,116,89.1,115,91.3 M117.2,83.9l-28.3,28.5l-8.9,4.2l37.7-38C117.8,80.4,117.5,82.2,117.2,83.9 M117.8,78.2
				c0,0.1,0,0.1,0,0.2L79.3,117l-9,4.2l0.2-0.2l2.3-2.3l12.9-12.9c0.6-0.3,1-0.6,1.2-0.8c0.8-0.6,1.7-1.7,2.6-3.1l28.3-28.4
				L117.8,78.2L117.8,78.2z M117.8,73.2L90.2,101c1.9-3.1,3.9-7,5.1-9.9l22.5-22.6V73.2z M117.8,68L95.6,90.3
				c0.5-1.2,0.9-2.1,1.1-2.6c0.4-0.8,0.2-1.8-0.3-2.6c-0.1-0.1-0.2-0.2-0.2-0.2l6.5-6.6l4.6-1.2c0.8-0.2,1.3-0.9,1.3-1.7v-2.9
				l9.1-9.1V68z M117.8,62.9l-9.1,9.1v-4.8l7.6-7.6l1.5-1.5V62.9z M117.8,57.8l-1.8,1.9l0,0l-7.3,7.3v-4.8l2.6-2.6l6.6-6.7
				L117.8,57.8L117.8,57.8z M117.8,52.7l-7,7l0,0l-2.2,2.2v-4.8l9.1-9.1L117.8,52.7L117.8,52.7z M117.8,47.6l-9.1,9.1v-4.8l9.1-9.1
				V47.6z M117.8,42.5l-9.1,9.1v-4.8l9.1-9.1V42.5z M117.8,37.3l-9.1,9.1v-4.8l9.1-9.1V37.3z M117.8,32.2l-9.1,9.1v-4.8l9.1-9.1
				V32.2z M117.8,27.1l-9.1,9.1v-4.8l9.1-9.1V27.1z M117.8,22l-9.1,9.1v-4.8l9.1-9.1V22z M117.8,16.9l-9.1,9.1v-4.8l9.1-9.1V16.9z
				 M117.8,11.8l-9.1,9.1v-2.3c0-0.5-0.2-1.1-0.7-1.4c-0.1-0.1-0.2-0.2-0.3-0.2L117.7,7L117.8,11.8L117.8,11.8z M117.8,6.7
				l-10.4,10.4c-0.3-0.1-0.6-0.1-0.9,0l-5.1,1.3l14.9-15h1.5V6.7z"/>
		</g>
	</g>
</g>
</svg>
