<?xml version="1.0" encoding="iso-8859-1"?>
<!-- Generator: Adobe Illustrator 19.0.0, SVG Export Plug-In . SVG Version: 6.00 Build 0)  -->
<svg version="1.1" id="Layer_1" xmlns="http://www.w3.org/2000/svg" xmlns:xlink="http://www.w3.org/1999/xlink" x="0px" y="0px"
	 viewBox="0 0 410.16 410.16" style="enable-background:new 0 0 410.16 410.16;" xml:space="preserve"  fill="#35a45b">
<g>
	<g>
		<g>
			<path d="M34.418,161.403h341.333c11.776,0,21.333-9.536,21.333-21.333v-28.8c0-8.427-4.949-16.064-12.672-19.499l-170.667-75.84
				c-5.525-2.453-11.819-2.453-17.323,0L25.757,91.771c-7.701,3.435-12.672,11.072-12.672,19.499v28.8
				C13.085,151.867,22.642,161.403,34.418,161.403z"/>
			<path d="M409.074,367.995l-7.104-21.333c-2.923-8.725-11.072-14.592-20.267-14.592h-27.285V182.736h-42.667v149.333h-42.667
				V182.736h-42.667v149.333h-42.667V182.736h-42.667v149.333H98.418V182.736H55.751v149.333H28.466
				c-9.173,0-17.323,5.867-20.245,14.592l-7.125,21.333c-2.176,6.507-1.067,13.653,2.944,19.221s10.453,8.853,17.301,8.853h367.488
				c6.848,0,13.291-3.285,17.301-8.853S411.229,374.501,409.074,367.995z"/>
		</g>
	</g>
</g>
<g>
</g>
<g>
</g>
<g>
</g>
<g>
</g>
<g>
</g>
<g>
</g>
<g>
</g>
<g>
</g>
<g>
</g>
<g>
</g>
<g>
</g>
<g>
</g>
<g>
</g>
<g>
</g>
<g>
</g>
</svg>
